<?xml version="1.0" encoding="UTF-8"?>
<!DOCTYPE svg PUBLIC "-//W3C//DTD SVG 1.1//EN" "http://www.w3.org/Graphics/SVG/1.1/DTD/svg11.dtd">
<svg xmlns="http://www.w3.org/2000/svg" xmlns:xlink="http://www.w3.org/1999/xlink" version="1.1" width="1611px" height="1519px" viewBox="-0.5 -0.5 1611 1519" style="background-color: rgb(255, 255, 255);"><defs><clipPath id="mx-clip-599-31-132-26-0"><rect x="599" y="31" width="132" height="26"/></clipPath><clipPath id="mx-clip-599-57-132-26-0"><rect x="599" y="57" width="132" height="26"/></clipPath><clipPath id="mx-clip-599-83-132-26-0"><rect x="599" y="83" width="132" height="26"/></clipPath><clipPath id="mx-clip-599-109-132-26-0"><rect x="599" y="109" width="132" height="26"/></clipPath><clipPath id="mx-clip-599-135-132-26-0"><rect x="599" y="135" width="132" height="26"/></clipPath><clipPath id="mx-clip-599-161-132-26-0"><rect x="599" y="161" width="132" height="26"/></clipPath><clipPath id="mx-clip-599-187-132-26-0"><rect x="599" y="187" width="132" height="26"/></clipPath><clipPath id="mx-clip-599-213-132-26-0"><rect x="599" y="213" width="132" height="26"/></clipPath><clipPath id="mx-clip-599-239-132-26-0"><rect x="599" y="239" width="132" height="26"/></clipPath><clipPath id="mx-clip-599-265-132-26-0"><rect x="599" y="265" width="132" height="26"/></clipPath><clipPath id="mx-clip-599-291-132-26-0"><rect x="599" y="291" width="132" height="26"/></clipPath><clipPath id="mx-clip-599-317-132-26-0"><rect x="599" y="317" width="132" height="26"/></clipPath><clipPath id="mx-clip-864-694-132-26-0"><rect x="864" y="694" width="132" height="26"/></clipPath><clipPath id="mx-clip-864-720-132-26-0"><rect x="864" y="720" width="132" height="26"/></clipPath><clipPath id="mx-clip-584-908-132-26-0"><rect x="584" y="908" width="132" height="26"/></clipPath><clipPath id="mx-clip-584-934-132-26-0"><rect x="584" y="934" width="132" height="26"/></clipPath><clipPath id="mx-clip-584-960-132-26-0"><rect x="584" y="960" width="132" height="26"/></clipPath><clipPath id="mx-clip-584-986-132-26-0"><rect x="584" y="986" width="132" height="26"/></clipPath><clipPath id="mx-clip-344-1135-132-26-0"><rect x="344" y="1135" width="132" height="26"/></clipPath><clipPath id="mx-clip-684-1135-132-26-0"><rect x="684" y="1135" width="132" height="26"/></clipPath><clipPath id="mx-clip-1224-908-132-26-0"><rect x="1224" y="908" width="132" height="26"/></clipPath><clipPath id="mx-clip-1224-934-132-26-0"><rect x="1224" y="934" width="132" height="26"/></clipPath><clipPath id="mx-clip-964-1124-132-26-0"><rect x="964" y="1124" width="132" height="26"/></clipPath><clipPath id="mx-clip-964-1150-132-26-0"><rect x="964" y="1150" width="132" height="26"/></clipPath><clipPath id="mx-clip-1134-1124-132-26-0"><rect x="1134" y="1124" width="132" height="26"/></clipPath><clipPath id="mx-clip-1134-1150-132-26-0"><rect x="1134" y="1150" width="132" height="26"/></clipPath><clipPath id="mx-clip-1304-1124-132-26-0"><rect x="1304" y="1124" width="132" height="26"/></clipPath><clipPath id="mx-clip-1304-1150-132-26-0"><rect x="1304" y="1150" width="132" height="26"/></clipPath><clipPath id="mx-clip-1474-1124-132-26-0"><rect x="1474" y="1124" width="132" height="26"/></clipPath><clipPath id="mx-clip-1474-1150-132-26-0"><rect x="1474" y="1150" width="132" height="26"/></clipPath><clipPath id="mx-clip-314-1390-132-26-0"><rect x="314" y="1390" width="132" height="26"/></clipPath><clipPath id="mx-clip-704-1390-132-26-0"><rect x="704" y="1390" width="132" height="26"/></clipPath><clipPath id="mx-clip-704-1416-132-26-0"><rect x="704" y="1416" width="132" height="26"/></clipPath><clipPath id="mx-clip-704-1442-132-26-0"><rect x="704" y="1442" width="132" height="26"/></clipPath><clipPath id="mx-clip-904-1390-132-26-0"><rect x="904" y="1390" width="132" height="26"/></clipPath><clipPath id="mx-clip-904-1416-132-26-0"><rect x="904" y="1416" width="132" height="26"/></clipPath><clipPath id="mx-clip-1094-1390-132-26-0"><rect x="1094" y="1390" width="132" height="26"/></clipPath><clipPath id="mx-clip-1094-1416-132-26-0"><rect x="1094" y="1416" width="132" height="26"/></clipPath><clipPath id="mx-clip-1094-1442-132-26-0"><rect x="1094" y="1442" width="132" height="26"/></clipPath><clipPath id="mx-clip-1094-1468-132-26-0"><rect x="1094" y="1468" width="132" height="26"/></clipPath><clipPath id="mx-clip-1094-1494-132-26-0"><rect x="1094" y="1494" width="132" height="26"/></clipPath></defs><g><path d="M 595 26 L 595 0 L 735 0 L 735 26" fill="none" stroke="#000000" stroke-miterlimit="10" pointer-events="all"/><path d="M 595 26 L 595 338 L 735 338 L 735 26" fill="none" stroke="#000000" stroke-miterlimit="10" pointer-events="none"/><path d="M 595 26 L 735 26" fill="none" stroke="#000000" stroke-miterlimit="10" pointer-events="none"/><g fill="#000000" font-family="Helvetica" text-anchor="middle" font-size="12px"><text x="664.5" y="17.5">AssessmentNode</text></g><g fill="#000000" font-family="Helvetica" clip-path="url(#mx-clip-599-31-132-26-0)" font-size="12px"><text x="600.5" y="43.5">appId: String</text></g><g fill="#000000" font-family="Helvetica" clip-path="url(#mx-clip-599-57-132-26-0)" font-size="12px"><text x="600.5" y="69.5">guid: String</text></g><g fill="#000000" font-family="Helvetica" clip-path="url(#mx-clip-599-83-132-26-0)" font-size="12px"><text x="600.5" y="95.5">title: String</text></g><g fill="#000000" font-family="Helvetica" clip-path="url(#mx-clip-599-109-132-26-0)" font-size="12px"><text x="600.5" y="121.5">label: String</text></g><g fill="#000000" font-family="Helvetica" clip-path="url(#mx-clip-599-135-132-26-0)" font-size="12px"><text x="600.5" y="147.5">prompt: String</text></g><g fill="#000000" font-family="Helvetica" clip-path="url(#mx-clip-599-161-132-26-0)" font-size="12px"><text x="600.5" y="173.5">detail: String</text></g><g fill="#000000" font-family="Helvetica" clip-path="url(#mx-clip-599-187-132-26-0)" font-size="12px"><text x="600.5" y="199.5">image: Image</text></g><g fill="#000000" font-family="Helvetica" clip-path="url(#mx-clip-599-213-132-26-0)" font-size="12px"><text x="600.5" y="225.5">createdOn: DateTime</text></g><g fill="#000000" font-family="Helvetica" clip-path="url(#mx-clip-599-239-132-26-0)" font-size="12px"><text x="600.5" y="251.5">modifiedOn: DateTime</text></g><g fill="#000000" font-family="Helvetica" clip-path="url(#mx-clip-599-265-132-26-0)" font-size="12px"><text x="600.5" y="277.5">deleted: boolean</text></g><g fill="#000000" font-family="Helvetica" clip-path="url(#mx-clip-599-291-132-26-0)" font-size="12px"><text x="600.5" y="303.5">type: String</text></g><g fill="#000000" font-family="Helvetica" clip-path="url(#mx-clip-599-317-132-26-0)" font-size="12px"><text x="600.5" y="329.5">metadata: Map</text></g><path d="M 330 689 L 330 663 L 470 663 L 470 689" fill="none" stroke="#000000" stroke-miterlimit="10" pointer-events="none"/><path d="M 330 689 L 330 715 L 470 715 L 470 689" fill="none" stroke="#000000" stroke-miterlimit="10" pointer-events="none"/><path d="M 330 689 L 470 689" fill="none" stroke="#000000" stroke-miterlimit="10" pointer-events="none"/><g fill="#000000" font-family="Helvetica" text-anchor="middle" font-size="12px"><text x="399.5" y="680.5">Section</text></g><path d="M 580 663 L 580 500.5 L 665 500.5 L 665 346.12" fill="none" stroke="#000000" stroke-miterlimit="10" pointer-events="none"/><path d="M 665 339.12 L 668.5 346.12 L 661.5 346.12 Z" fill="none" stroke="#000000" stroke-miterlimit="10" pointer-events="none"/><path d="M 510 689 L 510 663 L 650 663 L 650 689" fill="none" stroke="#000000" stroke-miterlimit="10" pointer-events="none"/><path d="M 510 689 L 510 715 L 650 715 L 650 689" fill="none" stroke="#000000" stroke-miterlimit="10" pointer-events="none"/><path d="M 510 689 L 650 689" fill="none" stroke="#000000" stroke-miterlimit="10" pointer-events="none"/><g fill="#000000" font-family="Helvetica" text-anchor="middle" font-size="12px"><text x="579.5" y="680.5">Form</text></g><path d="M 760 663 L 760 500.5 L 665 500.5 L 665 346.12" fill="none" stroke="#000000" stroke-miterlimit="10" pointer-events="none"/><path d="M 665 339.12 L 668.5 346.12 L 661.5 346.12 Z" fill="none" stroke="#000000" stroke-miterlimit="10" pointer-events="none"/><path d="M 690 689 L 690 663 L 830 663 L 830 689" fill="none" stroke="#000000" stroke-miterlimit="10" pointer-events="none"/><path d="M 690 689 L 690 715 L 830 715 L 830 689" fill="none" stroke="#000000" stroke-miterlimit="10" pointer-events="none"/><path d="M 690 689 L 830 689" fill="none" stroke="#000000" stroke-miterlimit="10" pointer-events="none"/><g fill="#000000" font-family="Helvetica" text-anchor="middle" font-size="12px"><text x="759.5" y="680.5">Survey</text></g><path d="M 930 663 L 930 500.5 L 665 500.5 L 665 346.12" fill="none" stroke="#000000" stroke-miterlimit="10" pointer-events="none"/><path d="M 665 339.12 L 668.5 346.12 L 661.5 346.12 Z" fill="none" stroke="#000000" stroke-miterlimit="10" pointer-events="none"/><path d="M 860 689 L 860 663 L 1000 663 L 1000 689" fill="none" stroke="#000000" stroke-miterlimit="10" pointer-events="none"/><path d="M 860 689 L 860 741 L 1000 741 L 1000 689" fill="none" stroke="#000000" stroke-miterlimit="10" pointer-events="none"/><path d="M 860 689 L 1000 689" fill="none" stroke="#000000" stroke-miterlimit="10" pointer-events="none"/><g fill="#000000" font-family="Helvetica" text-anchor="middle" font-size="12px"><text x="929.5" y="680.5">Input</text></g><g fill="#000000" font-family="Helvetica" clip-path="url(#mx-clip-864-694-132-26-0)" font-size="12px"><text x="865.5" y="706.5">uiHint: UIHint</text></g><g fill="#000000" font-family="Helvetica" clip-path="url(#mx-clip-864-720-132-26-0)" font-size="12px"><text x="865.5" y="732.5">required: boolean</text></g><path d="M 650 877 L 650 800 L 930 800 L 930 749.12" fill="none" stroke="#000000" stroke-miterlimit="10" pointer-events="none"/><path d="M 930 742.12 L 933.5 749.12 L 926.5 749.12 Z" fill="none" stroke="#000000" stroke-miterlimit="10" pointer-events="none"/><path d="M 580 903 L 580 877 L 720 877 L 720 903" fill="none" stroke="#000000" stroke-miterlimit="10" pointer-events="none"/><path d="M 580 903 L 580 1007 L 720 1007 L 720 903" fill="none" stroke="#000000" stroke-miterlimit="10" pointer-events="none"/><path d="M 580 903 L 720 903" fill="none" stroke="#000000" stroke-miterlimit="10" pointer-events="none"/><g fill="#000000" font-family="Helvetica" text-anchor="middle" font-size="12px"><text x="649.5" y="894.5">NumericalInput</text></g><g fill="#000000" font-family="Helvetica" clip-path="url(#mx-clip-584-908-132-26-0)" font-size="12px"><text x="585.5" y="920.5">unit: Unit</text></g><g fill="#000000" font-family="Helvetica" clip-path="url(#mx-clip-584-934-132-26-0)" font-size="12px"><text x="585.5" y="946.5">minValue : Double</text></g><g fill="#000000" font-family="Helvetica" clip-path="url(#mx-clip-584-960-132-26-0)" font-size="12px"><text x="585.5" y="972.5">maxValue : Double</text></g><g fill="#000000" font-family="Helvetica" clip-path="url(#mx-clip-584-986-132-26-0)" font-size="12px"><text x="585.5" y="998.5">step : Double</text></g><path d="M 70 1104 L 70 1055.5 L 650 1055.5 L 650 1015.12" fill="none" stroke="#000000" stroke-miterlimit="10" pointer-events="none"/><path d="M 650 1008.12 L 653.5 1015.12 L 646.5 1015.12 Z" fill="none" stroke="#000000" stroke-miterlimit="10" pointer-events="none"/><path d="M 0 1130 L 0 1104 L 140 1104 L 140 1130" fill="none" stroke="#000000" stroke-miterlimit="10" pointer-events="none"/><path d="M 0 1130 L 0 1156 L 140 1156 L 140 1130" fill="none" stroke="#000000" stroke-miterlimit="10" pointer-events="none"/><path d="M 0 1130 L 140 1130" fill="none" stroke="#000000" stroke-miterlimit="10" pointer-events="none"/><g fill="#000000" font-family="Helvetica" text-anchor="middle" font-size="12px"><text x="69.5" y="1121.5">DecimalInput</text></g><path d="M 240 1104 L 240 1055.5 L 650 1055.5 L 650 1015.12" fill="none" stroke="#000000" stroke-miterlimit="10" pointer-events="none"/><path d="M 650 1008.12 L 653.5 1015.12 L 646.5 1015.12 Z" fill="none" stroke="#000000" stroke-miterlimit="10" pointer-events="none"/><path d="M 170 1130 L 170 1104 L 310 1104 L 310 1130" fill="none" stroke="#000000" stroke-miterlimit="10" pointer-events="none"/><path d="M 170 1130 L 170 1156 L 310 1156 L 310 1130" fill="none" stroke="#000000" stroke-miterlimit="10" pointer-events="none"/><path d="M 170 1130 L 310 1130" fill="none" stroke="#000000" stroke-miterlimit="10" pointer-events="none"/><g fill="#000000" font-family="Helvetica" text-anchor="middle" font-size="12px"><text x="239.5" y="1121.5">DurationInput</text></g><path d="M 410 1104 L 410 1055.5 L 650 1055.5 L 650 1015.12" fill="none" stroke="#000000" stroke-miterlimit="10" pointer-events="none"/><path d="M 650 1008.12 L 653.5 1015.12 L 646.5 1015.12 Z" fill="none" stroke="#000000" stroke-miterlimit="10" pointer-events="none"/><path d="M 340 1130 L 340 1104 L 480 1104 L 480 1130" fill="none" stroke="#000000" stroke-miterlimit="10" pointer-events="none"/><path d="M 340 1130 L 340 1156 L 480 1156 L 480 1130" fill="none" stroke="#000000" stroke-miterlimit="10" pointer-events="none"/><path d="M 340 1130 L 480 1130" fill="none" stroke="#000000" stroke-miterlimit="10" pointer-events="none"/><g fill="#000000" font-family="Helvetica" text-anchor="middle" font-size="12px"><text x="409.5" y="1121.5">HeightInput</text></g><g fill="#000000" font-family="Helvetica" clip-path="url(#mx-clip-344-1135-132-26-0)" font-size="12px"><text x="345.5" y="1147.5">forInfants: boolean</text></g><path d="M 580 1104 L 580 1055.5 L 650 1055.5 L 650 1015.12" fill="none" stroke="#000000" stroke-miterlimit="10" pointer-events="none"/><path d="M 650 1008.12 L 653.5 1015.12 L 646.5 1015.12 Z" fill="none" stroke="#000000" stroke-miterlimit="10" pointer-events="none"/><path d="M 510 1130 L 510 1104 L 650 1104 L 650 1130" fill="none" stroke="#000000" stroke-miterlimit="10" pointer-events="none"/><path d="M 510 1130 L 510 1156 L 650 1156 L 650 1130" fill="none" stroke="#000000" stroke-miterlimit="10" pointer-events="none"/><path d="M 510 1130 L 650 1130" fill="none" stroke="#000000" stroke-miterlimit="10" pointer-events="none"/><g fill="#000000" font-family="Helvetica" text-anchor="middle" font-size="12px"><text x="579.5" y="1121.5">IntegerInput</text></g><path d="M 750 1104 L 750 1055.5 L 650 1055.5 L 650 1015.12" fill="none" stroke="#000000" stroke-miterlimit="10" pointer-events="none"/><path d="M 650 1008.12 L 653.5 1015.12 L 646.5 1015.12 Z" fill="none" stroke="#000000" stroke-miterlimit="10" pointer-events="none"/><path d="M 680 1130 L 680 1104 L 820 1104 L 820 1130" fill="none" stroke="#000000" stroke-miterlimit="10" pointer-events="none"/><path d="M 680 1130 L 680 1156 L 820 1156 L 820 1130" fill="none" stroke="#000000" stroke-miterlimit="10" pointer-events="none"/><path d="M 680 1130 L 820 1130" fill="none" stroke="#000000" stroke-miterlimit="10" pointer-events="none"/><g fill="#000000" font-family="Helvetica" text-anchor="middle" font-size="12px"><text x="749.5" y="1121.5">WeightInput</text></g><g fill="#000000" font-family="Helvetica" clip-path="url(#mx-clip-684-1135-132-26-0)" font-size="12px"><text x="685.5" y="1147.5">forInfants: boolean</text></g><path d="M 1290 877 L 1290 800 L 930 800 L 930 749.12" fill="none" stroke="#000000" stroke-miterlimit="10" pointer-events="none"/><path d="M 930 742.12 L 933.5 749.12 L 926.5 749.12 Z" fill="none" stroke="#000000" stroke-miterlimit="10" pointer-events="none"/><path d="M 1220 903 L 1220 877 L 1360 877 L 1360 903" fill="none" stroke="#000000" stroke-miterlimit="10" pointer-events="none"/><path d="M 1220 903 L 1220 955 L 1360 955 L 1360 903" fill="none" stroke="#000000" stroke-miterlimit="10" pointer-events="none"/><path d="M 1220 903 L 1360 903" fill="none" stroke="#000000" stroke-miterlimit="10" pointer-events="none"/><g fill="#000000" font-family="Helvetica" text-anchor="middle" font-size="12px"><text x="1289.5" y="894.5">TimeInput</text></g><g fill="#000000" font-family="Helvetica" clip-path="url(#mx-clip-1224-908-132-26-0)" font-size="12px"><text x="1225.5" y="920.5">allowFuture: boolean</text></g><g fill="#000000" font-family="Helvetica" clip-path="url(#mx-clip-1224-934-132-26-0)" font-size="12px"><text x="1225.5" y="946.5">allowPast: boolean</text></g><path d="M 1030 1093 L 1030 1024 L 1290 1024 L 1290 963.12" fill="none" stroke="#000000" stroke-miterlimit="10" pointer-events="none"/><path d="M 1290 956.12 L 1293.5 963.12 L 1286.5 963.12 Z" fill="none" stroke="#000000" stroke-miterlimit="10" pointer-events="none"/><path d="M 960 1119 L 960 1093 L 1100 1093 L 1100 1119" fill="none" stroke="#000000" stroke-miterlimit="10" pointer-events="none"/><path d="M 960 1119 L 960 1171 L 1100 1171 L 1100 1119" fill="none" stroke="#000000" stroke-miterlimit="10" pointer-events="none"/><path d="M 960 1119 L 1100 1119" fill="none" stroke="#000000" stroke-miterlimit="10" pointer-events="none"/><g fill="#000000" font-family="Helvetica" text-anchor="middle" font-size="12px"><text x="1029.5" y="1110.5">DateInput</text></g><g fill="#000000" font-family="Helvetica" clip-path="url(#mx-clip-964-1124-132-26-0)" font-size="12px"><text x="965.5" y="1136.5">earliestValue: LocalDate</text></g><g fill="#000000" font-family="Helvetica" clip-path="url(#mx-clip-964-1150-132-26-0)" font-size="12px"><text x="965.5" y="1162.5">latestValue: LocalDate</text></g><path d="M 1200 1093 L 1200 1024 L 1290 1024 L 1290 963.12" fill="none" stroke="#000000" stroke-miterlimit="10" pointer-events="none"/><path d="M 1290 956.12 L 1293.5 963.12 L 1286.5 963.12 Z" fill="none" stroke="#000000" stroke-miterlimit="10" pointer-events="none"/><path d="M 1130 1119 L 1130 1093 L 1270 1093 L 1270 1119" fill="none" stroke="#000000" stroke-miterlimit="10" pointer-events="none"/><path d="M 1130 1119 L 1130 1171 L 1270 1171 L 1270 1119" fill="none" stroke="#000000" stroke-miterlimit="10" pointer-events="none"/><path d="M 1130 1119 L 1270 1119" fill="none" stroke="#000000" stroke-miterlimit="10" pointer-events="none"/><g fill="#000000" font-family="Helvetica" text-anchor="middle" font-size="12px"><text x="1199.5" y="1110.5">DateTimeInput</text></g><g fill="#000000" font-family="Helvetica" clip-path="url(#mx-clip-1134-1124-132-26-0)" font-size="12px"><text x="1135.5" y="1136.5">earliestValue: DateTime</text></g><g fill="#000000" font-family="Helvetica" clip-path="url(#mx-clip-1134-1150-132-26-0)" font-size="12px"><text x="1135.5" y="1162.5">latestValue: DateTime</text></g><path d="M 1370 1093 L 1370 1024 L 1290 1024 L 1290 963.12" fill="none" stroke="#000000" stroke-miterlimit="10" pointer-events="none"/><path d="M 1290 956.12 L 1293.5 963.12 L 1286.5 963.12 Z" fill="none" stroke="#000000" stroke-miterlimit="10" pointer-events="none"/><path d="M 1300 1119 L 1300 1093 L 1440 1093 L 1440 1119" fill="none" stroke="#000000" stroke-miterlimit="10" pointer-events="none"/><path d="M 1300 1119 L 1300 1171 L 1440 1171 L 1440 1119" fill="none" stroke="#000000" stroke-miterlimit="10" pointer-events="none"/><path d="M 1300 1119 L 1440 1119" fill="none" stroke="#000000" stroke-miterlimit="10" pointer-events="none"/><g fill="#000000" font-family="Helvetica" text-anchor="middle" font-size="12px"><text x="1369.5" y="1110.5">YearInput</text></g><g fill="#000000" font-family="Helvetica" clip-path="url(#mx-clip-1304-1124-132-26-0)" font-size="12px"><text x="1305.5" y="1136.5">earliestValue: String</text></g><g fill="#000000" font-family="Helvetica" clip-path="url(#mx-clip-1304-1150-132-26-0)" font-size="12px"><text x="1305.5" y="1162.5">latestValue: String</text></g><path d="M 1540 1093 L 1540 1024 L 1290 1024 L 1290 963.12" fill="none" stroke="#000000" stroke-miterlimit="10" pointer-events="none"/><path d="M 1290 956.12 L 1293.5 963.12 L 1286.5 963.12 Z" fill="none" stroke="#000000" stroke-miterlimit="10" pointer-events="none"/><path d="M 1470 1119 L 1470 1093 L 1610 1093 L 1610 1119" fill="none" stroke="#000000" stroke-miterlimit="10" pointer-events="none"/><path d="M 1470 1119 L 1470 1171 L 1610 1171 L 1610 1119" fill="none" stroke="#000000" stroke-miterlimit="10" pointer-events="none"/><path d="M 1470 1119 L 1610 1119" fill="none" stroke="#000000" stroke-miterlimit="10" pointer-events="none"/><g fill="#000000" font-family="Helvetica" text-anchor="middle" font-size="12px"><text x="1539.5" y="1110.5">YearMonthInput</text></g><g fill="#000000" font-family="Helvetica" clip-path="url(#mx-clip-1474-1124-132-26-0)" font-size="12px"><text x="1475.5" y="1136.5">earliestValue: YearMonth</text></g><g fill="#000000" font-family="Helvetica" clip-path="url(#mx-clip-1474-1150-132-26-0)" font-size="12px"><text x="1475.5" y="1162.5">latestValue: YearMonth</text></g><path d="M 380 1359 L 380 1260 L 930 1260 L 930 749.12" fill="none" stroke="#000000" stroke-miterlimit="10" pointer-events="none"/><path d="M 930 742.12 L 933.5 749.12 L 926.5 749.12 Z" fill="none" stroke="#000000" stroke-miterlimit="10" pointer-events="none"/><path d="M 310 1385 L 310 1359 L 450 1359 L 450 1385" fill="none" stroke="#000000" stroke-miterlimit="10" pointer-events="none"/><path d="M 310 1385 L 310 1411 L 450 1411 L 450 1385" fill="none" stroke="#000000" stroke-miterlimit="10" pointer-events="none"/><path d="M 310 1385 L 450 1385" fill="none" stroke="#000000" stroke-miterlimit="10" pointer-events="none"/><g fill="#000000" font-family="Helvetica" text-anchor="middle" font-size="12px"><text x="379.5" y="1376.5">BloodPressureInput</text></g><g fill="#000000" font-family="Helvetica" clip-path="url(#mx-clip-314-1390-132-26-0)" font-size="12px"><text x="315.5" y="1402.5">unit: Unit</text></g><path d="M 570 1359 L 570 1260 L 930 1260 L 930 749.12" fill="none" stroke="#000000" stroke-miterlimit="10" pointer-events="none"/><path d="M 930 742.12 L 933.5 749.12 L 926.5 749.12 Z" fill="none" stroke="#000000" stroke-miterlimit="10" pointer-events="none"/><path d="M 500 1385 L 500 1359 L 640 1359 L 640 1385" fill="none" stroke="#000000" stroke-miterlimit="10" pointer-events="none"/><path d="M 500 1385 L 500 1411 L 640 1411 L 640 1385" fill="none" stroke="#000000" stroke-miterlimit="10" pointer-events="none"/><path d="M 500 1385 L 640 1385" fill="none" stroke="#000000" stroke-miterlimit="10" pointer-events="none"/><g fill="#000000" font-family="Helvetica" text-anchor="middle" font-size="12px"><text x="569.5" y="1376.5">BooleanInput</text></g><path d="M 770 1359 L 770 1260 L 930 1260 L 930 749.12" fill="none" stroke="#000000" stroke-miterlimit="10" pointer-events="none"/><path d="M 930 742.12 L 933.5 749.12 L 926.5 749.12 Z" fill="none" stroke="#000000" stroke-miterlimit="10" pointer-events="none"/><path d="M 700 1385 L 700 1359 L 840 1359 L 840 1385" fill="none" stroke="#000000" stroke-miterlimit="10" pointer-events="none"/><path d="M 700 1385 L 700 1463 L 840 1463 L 840 1385" fill="none" stroke="#000000" stroke-miterlimit="10" pointer-events="none"/><path d="M 700 1385 L 840 1385" fill="none" stroke="#000000" stroke-miterlimit="10" pointer-events="none"/><g fill="#000000" font-family="Helvetica" text-anchor="middle" font-size="12px"><text x="769.5" y="1376.5">MultiChoiceInput</text></g><g fill="#000000" font-family="Helvetica" clip-path="url(#mx-clip-704-1390-132-26-0)" font-size="12px"><text x="705.5" y="1402.5">allowOther: boolean</text></g><g fill="#000000" font-family="Helvetica" clip-path="url(#mx-clip-704-1416-132-26-0)" font-size="12px"><text x="705.5" y="1428.5">allowMultiple: boolean</text></g><g fill="#000000" font-family="Helvetica" clip-path="url(#mx-clip-704-1442-132-26-0)" font-size="12px"><text x="705.5" y="1454.5">options: Option[]</text></g><path d="M 970 1359 L 970 1260 L 930 1260 L 930 749.12" fill="none" stroke="#000000" stroke-miterlimit="10" pointer-events="none"/><path d="M 930 742.12 L 933.5 749.12 L 926.5 749.12 Z" fill="none" stroke="#000000" stroke-miterlimit="10" pointer-events="none"/><path d="M 900 1385 L 900 1359 L 1040 1359 L 1040 1385" fill="none" stroke="#000000" stroke-miterlimit="10" pointer-events="none"/><path d="M 900 1385 L 900 1437 L 1040 1437 L 1040 1385" fill="none" stroke="#000000" stroke-miterlimit="10" pointer-events="none"/><path d="M 900 1385 L 1040 1385" fill="none" stroke="#000000" stroke-miterlimit="10" pointer-events="none"/><g fill="#000000" font-family="Helvetica" text-anchor="middle" font-size="12px"><text x="969.5" y="1376.5">PostalCodeInput</text></g><g fill="#000000" font-family="Helvetica" clip-path="url(#mx-clip-904-1390-132-26-0)" font-size="12px"><text x="905.5" y="1402.5">countryCode: Enum</text></g><g fill="#000000" font-family="Helvetica" clip-path="url(#mx-clip-904-1416-132-26-0)" font-size="12px"><text x="905.5" y="1428.5">sparseZipCodePrefixes: String[]</text></g><path d="M 1160 1359 L 1160 1260 L 930 1260 L 930 749.12" fill="none" stroke="#000000" stroke-miterlimit="10" pointer-events="none"/><path d="M 930 742.12 L 933.5 749.12 L 926.5 749.12 Z" fill="none" stroke="#000000" stroke-miterlimit="10" pointer-events="none"/><path d="M 1090 1385 L 1090 1359 L 1230 1359 L 1230 1385" fill="none" stroke="#000000" stroke-miterlimit="10" pointer-events="none"/><path d="M 1090 1385 L 1090 1515 L 1230 1515 L 1230 1385" fill="none" stroke="#000000" stroke-miterlimit="10" pointer-events="none"/><path d="M 1090 1385 L 1230 1385" fill="none" stroke="#000000" stroke-miterlimit="10" pointer-events="none"/><g fill="#000000" font-family="Helvetica" text-anchor="middle" font-size="12px"><text x="1159.5" y="1376.5">StringInput</text></g><g fill="#000000" font-family="Helvetica" clip-path="url(#mx-clip-1094-1390-132-26-0)" font-size="12px"><text x="1095.5" y="1402.5">minLength: Integer</text></g><g fill="#000000" font-family="Helvetica" clip-path="url(#mx-clip-1094-1416-132-26-0)" font-size="12px"><text x="1095.5" y="1428.5">maxLength: Integer</text></g><g fill="#000000" font-family="Helvetica" clip-path="url(#mx-clip-1094-1442-132-26-0)" font-size="12px"><text x="1095.5" y="1454.5">pattern: String</text></g><g fill="#000000" font-family="Helvetica" clip-path="url(#mx-clip-1094-1468-132-26-0)" font-size="12px"><text x="1095.5" y="1480.5">patternErrorMessage: String</text></g><g fill="#000000" font-family="Helvetica" clip-path="url(#mx-clip-1094-1494-132-26-0)" font-size="12px"><text x="1095.5" y="1506.5">patternPlaceholder: String</text></g><path d="M 1360 1359 L 1360 1260 L 930 1260 L 930 749.12" fill="none" stroke="#000000" stroke-miterlimit="10" pointer-events="none"/><path d="M 930 742.12 L 933.5 749.12 L 926.5 749.12 Z" fill="none" stroke="#000000" stroke-miterlimit="10" pointer-events="none"/><path d="M 1290 1385 L 1290 1359 L 1430 1359 L 1430 1385" fill="none" stroke="#000000" stroke-miterlimit="10" pointer-events="none"/><path d="M 1290 1385 L 1290 1411 L 1430 1411 L 1430 1385" fill="none" stroke="#000000" stroke-miterlimit="10" pointer-events="none"/><path d="M 1290 1385 L 1430 1385" fill="none" stroke="#000000" stroke-miterlimit="10" pointer-events="none"/><g fill="#000000" font-family="Helvetica" text-anchor="middle" font-size="12px"><text x="1359.5" y="1376.5">TimeInput</text></g><path d="M 400 663 L 400 500.5 L 665 500.5 L 665 346.12" fill="none" stroke="#000000" stroke-miterlimit="10" pointer-events="none"/><path d="M 665 339.12 L 668.5 346.12 L 661.5 346.12 Z" fill="none" stroke="#000000" stroke-miterlimit="10" pointer-events="none"/></g></svg>