<svg width="125" height="125" viewBox="0 0 125 125" fill="none" xmlns="http://www.w3.org/2000/svg">
<g clip-path="url(#clip0_532_23595)">
<rect x="23.5" y="36.5" width="25.6292" height="25.6292" rx="2.5" fill="white" stroke="#4A5056"/>
<rect x="75.8706" y="36.5" width="25.6292" height="25.6292" rx="2.5" fill="white" stroke="#4A5056"/>
<path d="M51.5223 68.3541C50.3829 68.3541 49.4416 69.0368 49.0453 70.0122H48.8471V68.793C48.8471 67.33 47.6581 66.1596 46.1719 66.1596C44.6856 66.1596 43.4967 67.33 43.4967 68.793V66.9886C43.4967 65.5256 42.3077 64.3552 40.8215 64.3552C39.3352 64.3552 38.1462 65.5256 38.1462 66.9886V58.1617C38.1462 56.6987 36.9573 55.5283 35.471 55.5283C33.9848 55.5283 32.7958 56.6987 32.7958 58.1617V68.9881C32.7958 68.9881 32.6472 75.1815 32.994 78.3514C33.3903 83.7645 37.9976 88.056 43.5957 88.056C49.4416 88.056 54.148 83.4719 54.2471 77.7174C54.2966 77.6686 54.2966 77.5711 54.2966 77.4736V73.4747V71.0851V70.9388C54.1975 69.5245 53.0085 68.3541 51.5223 68.3541Z" fill="white" stroke="#4A5056" stroke-miterlimit="10" stroke-linejoin="round"/>
<path d="M35.2128 50.7821C35.0427 50.9003 35.0006 51.134 35.1188 51.3041C35.237 51.4742 35.4707 51.5162 35.6408 51.398L35.2128 50.7821ZM89.6504 51.457C89.8531 51.4141 89.9826 51.2151 89.9397 51.0125L89.2412 47.7105C89.1984 47.5079 88.9994 47.3784 88.7967 47.4213C88.5941 47.4641 88.4646 47.6631 88.5075 47.8658L89.1283 50.8008L86.1933 51.4217C85.9907 51.4646 85.8612 51.6636 85.904 51.8662C85.9469 52.0688 86.1459 52.1983 86.3485 52.1555L89.6504 51.457ZM35.6408 51.398C44.2939 45.3848 67.1718 36.9591 89.3683 51.4044L89.7774 50.7758C67.2368 36.1065 44.0166 44.6642 35.2128 50.7821L35.6408 51.398Z" fill="#4A5056"/>
</g>
<defs>
<clipPath id="clip0_532_23595">
<rect width="125" height="125" fill="white"/>
</clipPath>
</defs>
</svg>
