<svg width="125" height="125" viewBox="0 0 125 125" fill="none" xmlns="http://www.w3.org/2000/svg">
<g clip-path="url(#clip0_532_23807)">
<path d="M25.3657 63.375C25.5728 63.375 25.7407 63.2071 25.7407 63C25.7407 62.7929 25.5728 62.625 25.3657 62.625L25.3657 63.375ZM14.735 62.7348C14.5885 62.8813 14.5885 63.1187 14.735 63.2652L17.1214 65.6516C17.2679 65.7981 17.5053 65.7981 17.6518 65.6516C17.7982 65.5052 17.7982 65.2678 17.6518 65.1213L15.5304 63L17.6518 60.8787C17.7982 60.7322 17.7982 60.4948 17.6518 60.3483C17.5053 60.2019 17.2679 60.2019 17.1214 60.3483L14.735 62.7348ZM25.3657 62.625L15.0001 62.625L15.0001 63.375L25.3657 63.375L25.3657 62.625Z" fill="#4A5056"/>
<path d="M46 63.375C46.2071 63.375 46.375 63.2071 46.375 63C46.375 62.7929 46.2071 62.625 46 62.625L46 63.375ZM35.3692 62.7348C35.2228 62.8813 35.2228 63.1187 35.3692 63.2652L37.7557 65.6516C37.9022 65.7981 38.1396 65.7981 38.286 65.6516C38.4325 65.5052 38.4325 65.2678 38.286 65.1213L36.1647 63L38.286 60.8787C38.4325 60.7322 38.4325 60.4948 38.286 60.3483C38.1396 60.2019 37.9022 60.2019 37.7557 60.3483L35.3692 62.7348ZM46 62.625L35.6344 62.625L35.6344 63.375L46 63.375L46 62.625Z" fill="#4A5056"/>
<path d="M109 63.375C109.207 63.375 109.375 63.2071 109.375 63C109.375 62.7929 109.207 62.625 109 62.625L109 63.375ZM98.3692 62.7348C98.2228 62.8813 98.2228 63.1187 98.3692 63.2652L100.756 65.6516C100.902 65.7981 101.14 65.7981 101.286 65.6516C101.432 65.5052 101.432 65.2678 101.286 65.1213L99.1647 63L101.286 60.8787C101.432 60.7322 101.432 60.4948 101.286 60.3483C101.14 60.2019 100.902 60.2019 100.756 60.3483L98.3692 62.7348ZM109 62.625L98.6344 62.625L98.6344 63.375L109 63.375L109 62.625Z" fill="#4A5056"/>
<path d="M88 63.375C88.2071 63.375 88.375 63.2071 88.375 63C88.375 62.7929 88.2071 62.625 88 62.625L88 63.375ZM77.3692 62.7348C77.2228 62.8813 77.2228 63.1187 77.3692 63.2652L79.7557 65.6516C79.9022 65.7981 80.1396 65.7981 80.286 65.6516C80.4325 65.5052 80.4325 65.2678 80.286 65.1213L78.1647 63L80.286 60.8787C80.4325 60.7322 80.4325 60.4948 80.286 60.3483C80.1396 60.2019 79.9022 60.2019 79.7557 60.3483L77.3692 62.7348ZM88 62.625L77.6344 62.625L77.6344 63.375L88 63.375L88 62.625Z" fill="#4A5056"/>
<ellipse cx="62" cy="63" rx="10" ry="10" fill="white" stroke="#4A5056"/>
<path d="M67 63.375C67.2071 63.375 67.375 63.2071 67.375 63C67.375 62.7929 67.2071 62.625 67 62.625L67 63.375ZM56.3692 62.7348C56.2228 62.8813 56.2228 63.1187 56.3692 63.2652L58.7557 65.6516C58.9022 65.7981 59.1396 65.7981 59.286 65.6516C59.4325 65.5052 59.4325 65.2678 59.286 65.1213L57.1647 63L59.286 60.8787C59.4325 60.7322 59.4325 60.4948 59.286 60.3483C59.1396 60.2019 58.9022 60.2019 58.7557 60.3483L56.3692 62.7348ZM67 62.625L56.6344 62.625L56.6344 63.375L67 63.375L67 62.625Z" fill="#4A5056"/>
</g>
<defs>
<clipPath id="clip0_532_23807">
<rect width="125" height="125" fill="white"/>
</clipPath>
</defs>
</svg>
