<svg width="85" height="113" viewBox="0 0 85 113" fill="none" xmlns="http://www.w3.org/2000/svg">
<g filter="url(#filter0_d_10591_534194)">
<rect x="2" y="1" width="76.8555" height="104.574" rx="10" fill="white"/>
<rect x="2.25" y="1.25" width="76.3555" height="104.074" rx="9.75" stroke="black" stroke-opacity="0.1" stroke-width="0.5"/>
</g>
<path d="M29.5977 47.7758C29.5977 51.316 26.674 54.2009 23.0488 54.2009C19.4236 54.2009 16.5 51.316 16.5 47.7758C16.5 44.2355 19.4236 41.3506 23.0488 41.3506C26.674 41.3506 29.5977 44.2355 29.5977 47.7758Z" stroke="black"/>
<path d="M64.4707 47.7758C64.4707 51.316 61.5471 54.2009 57.9219 54.2009C54.2967 54.2009 51.3731 51.316 51.3731 47.7758C51.3731 44.2355 54.2967 41.3506 57.9219 41.3506C61.5471 41.3506 64.4707 44.2355 64.4707 47.7758Z" stroke="black"/>
<path d="M58.288 68.3041C58.288 71.8443 55.3643 74.7292 51.7391 74.7292C48.1139 74.7292 45.1903 71.8443 45.1903 68.3041C45.1903 64.7639 48.1139 61.8789 51.7391 61.8789C55.3643 61.8789 58.288 64.7639 58.288 68.3041Z" stroke="black"/>
<path d="M35.781 68.3041C35.781 71.8443 32.8574 74.7292 29.2322 74.7292C25.607 74.7292 22.6834 71.8443 22.6834 68.3041C22.6834 64.7639 25.607 61.8789 29.2322 61.8789C32.8574 61.8789 35.781 64.7639 35.781 68.3041Z" stroke="black"/>
<circle cx="40.4856" cy="33.9252" r="6.42516" stroke="black"/>
<mask id="path-8-inside-1_10591_534194" fill="white">
<path d="M40.8159 53.2853L42.8237 53.2853C42.991 53.2853 43.1266 53.1497 43.1266 52.9824C43.1266 52.8151 42.991 52.6794 42.8237 52.6794L40.8159 52.6794L40.8159 50.6716C40.8159 50.5043 40.6803 50.3687 40.5129 50.3686C40.3456 50.3686 40.21 50.5043 40.21 50.6716L40.21 52.6794L38.2021 52.6794C38.0349 52.6794 37.8992 52.815 37.8992 52.9824C37.8992 53.1497 38.0348 53.2853 38.2022 53.2853L40.21 53.2853L40.21 55.2931C40.21 55.4604 40.3456 55.5961 40.5129 55.5961C40.6802 55.5961 40.8159 55.4604 40.8159 55.2931L40.8159 53.2853Z"/>
</mask>
<path d="M40.8159 53.2853L40.8159 52.2853L39.8159 52.2853L39.8159 53.2853L40.8159 53.2853ZM42.8237 53.2853L42.8238 52.2853L42.8237 52.2853L42.8237 53.2853ZM43.1266 52.9824L42.1266 52.9824L42.1266 52.9824L43.1266 52.9824ZM42.8237 52.6794L42.8238 51.6794L42.8237 51.6794L42.8237 52.6794ZM40.8159 52.6794L39.8159 52.6794L39.8159 53.6794L40.8159 53.6794L40.8159 52.6794ZM40.8159 50.6716L39.8159 50.6715L39.8159 50.6716L40.8159 50.6716ZM40.5129 50.3686L40.5131 49.3686L40.513 49.3686L40.5129 50.3686ZM40.21 50.6716L41.21 50.6716L41.21 50.6716L40.21 50.6716ZM40.21 52.6794L40.21 53.6794L41.21 53.6794L41.21 52.6794L40.21 52.6794ZM38.2021 52.6794L38.2021 53.6794L38.2022 53.6794L38.2021 52.6794ZM38.2022 53.2853L38.2021 54.2853L38.2022 54.2853L38.2022 53.2853ZM40.21 53.2853L41.21 53.2853L41.21 52.2853L40.21 52.2853L40.21 53.2853ZM40.21 55.2931L41.21 55.2932L41.21 55.2931L40.21 55.2931ZM40.5129 55.5961L40.513 54.5961L40.513 54.5961L40.5129 55.5961ZM40.8159 55.2931L39.8159 55.2931L39.8159 55.2931L40.8159 55.2931ZM40.8159 54.2853L42.8237 54.2853L42.8237 52.2853L40.8159 52.2853L40.8159 54.2853ZM42.8236 54.2853C43.5433 54.2853 44.1266 53.7019 44.1266 52.9823L42.1266 52.9824C42.1266 52.5974 42.4387 52.2853 42.8238 52.2853L42.8236 54.2853ZM44.1266 52.9823C44.1266 52.2627 43.5433 51.6795 42.8238 51.6794L42.8236 53.6794C42.4387 53.6794 42.1266 53.3674 42.1266 52.9824L44.1266 52.9823ZM42.8237 51.6794L40.8159 51.6794L40.8159 53.6794L42.8237 53.6794L42.8237 51.6794ZM41.8159 52.6794L41.8159 50.6716L39.8159 50.6716L39.8159 52.6794L41.8159 52.6794ZM41.8159 50.6717C41.8159 49.9519 41.2325 49.3688 40.5131 49.3686L40.5128 51.3686C40.1281 51.3686 39.8158 51.0567 39.8159 50.6715L41.8159 50.6717ZM40.513 49.3686C39.7933 49.3686 39.21 49.952 39.21 50.6716L41.21 50.6716C41.21 51.0565 40.8979 51.3687 40.5128 51.3686L40.513 49.3686ZM39.21 50.6716L39.21 52.6794L41.21 52.6794L41.21 50.6716L39.21 50.6716ZM40.21 51.6794L38.2021 51.6794L38.2022 53.6794L40.21 53.6794L40.21 51.6794ZM38.2022 51.6794C37.4825 51.6794 36.8992 52.2628 36.8992 52.9824L38.8992 52.9824C38.8992 53.3673 38.5872 53.6795 38.2021 53.6794L38.2022 51.6794ZM36.8992 52.9824C36.8992 53.7019 37.4826 54.2853 38.2021 54.2853L38.2022 52.2853C38.5871 52.2853 38.8992 52.5974 38.8992 52.9824L36.8992 52.9824ZM38.2022 54.2853L40.21 54.2853L40.21 52.2853L38.2022 52.2853L38.2022 54.2853ZM39.21 53.2853L39.21 55.2931L41.21 55.2931L41.21 53.2853L39.21 53.2853ZM39.21 55.2931C39.2099 56.0126 39.7933 56.596 40.5128 56.5961L40.513 54.5961C40.8979 54.5961 41.21 54.9082 41.21 55.2932L39.21 55.2931ZM40.5128 56.5961C41.2325 56.5961 41.8159 56.0127 41.8159 55.2931L39.8159 55.2931C39.8159 54.9082 40.1279 54.596 40.513 54.5961L40.5128 56.5961ZM41.8159 55.2931L41.8159 53.2853L39.8159 53.2853L39.8159 55.2931L41.8159 55.2931Z" fill="black" mask="url(#path-8-inside-1_10591_534194)"/>
<path d="M62.8111 75.6991C62.1133 75.6991 61.5369 76.1238 61.2942 76.7305H61.1729V75.9721C61.1729 75.062 60.4448 74.3339 59.5346 74.3339C58.6245 74.3339 57.8964 75.062 57.8964 75.9721V74.8496C57.8964 73.9395 57.1683 73.2114 56.2581 73.2114C55.348 73.2114 54.6199 73.9395 54.6199 74.8496V69.3585C54.6199 68.4483 53.8918 67.7202 52.9816 67.7202C52.0715 67.7202 51.3434 68.4483 51.3434 69.3585V76.0935C51.3434 76.0935 51.2524 79.9464 51.4648 81.9183C51.7075 85.2858 54.5289 87.9555 57.9571 87.9555C61.5369 87.9555 64.419 85.1038 64.4797 81.5239C64.51 81.4936 64.51 81.4329 64.51 81.3722V78.8845V77.398V77.307C64.4493 76.4272 63.7212 75.6991 62.8111 75.6991Z" fill="#B3B6BF" stroke="#2A2A2A" stroke-miterlimit="10"/>
<defs>
<filter id="filter0_d_10591_534194" x="0" y="0" width="84.8555" height="112.574" filterUnits="userSpaceOnUse" color-interpolation-filters="sRGB">
<feFlood flood-opacity="0" result="BackgroundImageFix"/>
<feColorMatrix in="SourceAlpha" type="matrix" values="0 0 0 0 0 0 0 0 0 0 0 0 0 0 0 0 0 0 127 0" result="hardAlpha"/>
<feOffset dx="2" dy="3"/>
<feGaussianBlur stdDeviation="2"/>
<feColorMatrix type="matrix" values="0 0 0 0 0 0 0 0 0 0 0 0 0 0 0 0 0 0 0.05 0"/>
<feBlend mode="normal" in2="BackgroundImageFix" result="effect1_dropShadow_10591_534194"/>
<feBlend mode="normal" in="SourceGraphic" in2="effect1_dropShadow_10591_534194" result="shape"/>
</filter>
</defs>
</svg>
