<svg width="220" height="188" viewBox="0 0 220 188" fill="none" xmlns="http://www.w3.org/2000/svg">
<rect width="220" height="188" fill="#F6F6F6"/>
<path d="M89.6721 80.9378C89.6721 87.6794 84.1057 93.1671 77.2111 93.1671C70.3164 93.1671 64.75 87.6794 64.75 80.9378C64.75 74.1962 70.3164 68.7085 77.2111 68.7085C84.1057 68.7085 89.6721 74.1962 89.6721 80.9378Z" stroke="black" stroke-width="1.5"/>
<path d="M155.032 80.9378C155.032 87.6794 149.465 93.1671 142.571 93.1671C135.676 93.1671 130.11 87.6794 130.11 80.9378C130.11 74.1962 135.676 68.7085 142.571 68.7085C149.465 68.7085 155.032 74.1962 155.032 80.9378Z" stroke="black" stroke-width="1.5"/>
<path d="M143.444 119.412C143.444 126.154 137.878 131.642 130.983 131.642C124.088 131.642 118.522 126.154 118.522 119.412C118.522 112.671 124.088 107.183 130.983 107.183C137.878 107.183 143.444 112.671 143.444 119.412Z" stroke="black" stroke-width="1.5"/>
<path d="M101.261 119.412C101.261 126.154 95.6947 131.642 88.8 131.642C81.9054 131.642 76.339 126.154 76.339 119.412C76.339 112.671 81.9054 107.183 88.8 107.183C95.6947 107.183 101.261 112.671 101.261 119.412Z" stroke="black" stroke-width="1.5"/>
<circle cx="109.891" cy="54.9793" r="12.2293" stroke="black" stroke-width="1.5"/>
<mask id="path-6-inside-1_10591_534172" fill="white">
<path d="M110.51 91.2636L114.274 91.2636C114.587 91.2636 114.841 91.0094 114.841 90.6959C114.841 90.3823 114.587 90.1281 114.274 90.1281L110.51 90.1281L110.51 86.365C110.51 86.0514 110.256 85.7972 109.943 85.7972C109.629 85.7972 109.375 86.0514 109.375 86.365L109.375 90.1281L105.612 90.1281C105.298 90.1281 105.044 90.3823 105.044 90.6959C105.044 91.0094 105.298 91.2636 105.612 91.2636L109.375 91.2636L109.375 95.0268C109.375 95.3403 109.629 95.5945 109.943 95.5945C110.256 95.5946 110.51 95.3403 110.51 95.0268L110.51 91.2636Z"/>
</mask>
<path d="M110.51 91.2636L110.51 89.7636L109.01 89.7636L109.01 91.2636L110.51 91.2636ZM114.274 91.2636L114.274 89.7636L114.274 89.7636L114.274 91.2636ZM114.841 90.6959L113.341 90.6959L113.341 90.6959L114.841 90.6959ZM114.274 90.1281L114.274 88.6281L114.274 88.6281L114.274 90.1281ZM110.51 90.1281L109.01 90.1281L109.01 91.6281L110.51 91.6281L110.51 90.1281ZM110.51 86.365L109.01 86.3649L109.01 86.365L110.51 86.365ZM109.943 85.7972L109.943 84.2972L109.943 84.2972L109.943 85.7972ZM109.375 86.365L110.875 86.365L110.875 86.3649L109.375 86.365ZM109.375 90.1281L109.375 91.6281L110.875 91.6281L110.875 90.1281L109.375 90.1281ZM105.612 90.1281L105.612 91.6281L105.612 91.6281L105.612 90.1281ZM105.612 91.2636L105.612 92.7636L105.612 92.7636L105.612 91.2636ZM109.375 91.2636L110.875 91.2636L110.875 89.7636L109.375 89.7636L109.375 91.2636ZM109.375 95.0268L110.875 95.0269L110.875 95.0268L109.375 95.0268ZM109.943 95.5945L109.943 94.0945L109.943 94.0945L109.943 95.5945ZM110.51 95.0268L109.01 95.0268L109.01 95.0268L110.51 95.0268ZM110.51 92.7636L114.274 92.7636L114.274 89.7636L110.51 89.7636L110.51 92.7636ZM114.273 92.7636C115.416 92.7637 116.341 91.8378 116.341 90.6959L113.341 90.6959C113.341 90.1811 113.759 89.7636 114.274 89.7636L114.273 92.7636ZM116.341 90.6959C116.341 89.5538 115.415 88.6282 114.274 88.6281L114.273 91.6281C113.759 91.628 113.341 91.2108 113.341 90.6959L116.341 90.6959ZM114.274 88.6281L110.51 88.6281L110.51 91.6281L114.274 91.6281L114.274 88.6281ZM112.01 90.1281L112.01 86.365L109.01 86.365L109.01 90.1281L112.01 90.1281ZM112.01 86.3651C112.01 85.2228 111.085 84.2974 109.943 84.2972L109.942 87.2972C109.428 87.2971 109.01 86.88 109.01 86.3649L112.01 86.3651ZM109.943 84.2972C108.801 84.2971 107.875 85.223 107.875 86.365L110.875 86.3649C110.875 86.8797 110.458 87.2972 109.943 87.2972L109.943 84.2972ZM107.875 86.3649L107.875 90.1281L110.875 90.1281L110.875 86.365L107.875 86.3649ZM109.375 88.6281L105.612 88.6281L105.612 91.6281L109.375 91.6281L109.375 88.6281ZM105.612 88.6281C104.47 88.628 103.544 89.5539 103.544 90.6959L106.544 90.6959C106.544 91.2107 106.127 91.6281 105.612 91.6281L105.612 88.6281ZM103.544 90.6959C103.544 91.8379 104.47 92.7636 105.612 92.7636L105.612 89.7636C106.127 89.7636 106.544 90.181 106.544 90.6959L103.544 90.6959ZM105.612 92.7636L109.375 92.7636L109.375 89.7636L105.612 89.7636L105.612 92.7636ZM107.875 91.2636L107.875 95.0268L110.875 95.0268L110.875 91.2636L107.875 91.2636ZM107.875 95.0267C107.875 96.1686 108.8 97.0944 109.943 97.0945L109.943 94.0945C110.457 94.0946 110.875 94.5119 110.875 95.0269L107.875 95.0267ZM109.943 97.0945C111.085 97.0946 112.01 96.1687 112.01 95.0268L109.01 95.0268C109.01 94.512 109.428 94.0945 109.943 94.0945L109.943 97.0945ZM112.01 95.0268L112.01 91.2636L109.01 91.2636L109.01 95.0268L112.01 95.0268Z" fill="black" mask="url(#path-6-inside-1_10591_534172)"/>
<path d="M151.734 133.274C150.427 133.274 149.346 134.07 148.891 135.207H148.664V133.786C148.664 132.08 147.299 130.715 145.593 130.715C143.888 130.715 142.523 132.08 142.523 133.786V131.682C142.523 129.976 141.158 128.611 139.453 128.611C137.747 128.611 136.382 129.976 136.382 131.682V121.39C136.382 119.684 135.018 118.32 133.312 118.32C131.606 118.32 130.241 119.684 130.241 121.39V134.013C130.241 134.013 130.071 141.234 130.469 144.93C130.924 151.242 136.212 156.245 142.637 156.245C149.346 156.245 154.748 150.9 154.862 144.191C154.918 144.134 154.918 144.02 154.918 143.907V139.244V136.458V136.288C154.805 134.639 153.44 133.274 151.734 133.274Z" fill="#B3B6BF" stroke="#2A2A2A" stroke-width="2" stroke-miterlimit="10"/>
</svg>
