<svg width="220" height="188" viewBox="0 0 220 188" fill="none" xmlns="http://www.w3.org/2000/svg">
<rect width="220" height="188" fill="#F6F6F6"/>
<g clip-path="url(#clip0)">
<circle cx="123" cy="117" r="1" fill="white"/>
<path d="M93.9076 90.3108H72.2018C68.9908 90.3108 66.3878 92.9673 66.3878 96.2442V118.396C66.3878 121.672 68.9908 124.329 72.2018 124.329H93.9076C97.1187 124.329 99.7217 121.672 99.7217 118.396V96.2442C99.7217 92.9673 97.1187 90.3108 93.9076 90.3108Z" fill="#B3B6BF" stroke="#2A2A2A" stroke-width="0.5"/>
<path d="M121.005 115.646C118.966 115.99 118.458 113.503 118.823 111.899C119.218 110.161 119.785 113.603 120.537 113.68" fill="white"/>
<path d="M121.005 115.646C118.966 115.99 118.458 113.503 118.823 111.899C119.218 110.161 119.785 113.603 120.537 113.68" stroke="#2A2A2A" stroke-width="0.25" stroke-miterlimit="10"/>
<path d="M130.236 109.342C131.035 109.724 132.741 111.732 131.101 114.437C131.856 114.57 132.413 115.091 132.585 115.603C132.814 116.284 132.259 117.182 131.603 116.347C131.509 116.949 130.797 117.091 130.449 116.435C130.318 116.86 130.086 116.948 129.59 116.829C128.655 116.044 127.904 116.308 127.497 115.31" fill="white"/>
<path d="M130.236 109.342C131.035 109.724 132.741 111.732 131.101 114.437C131.856 114.57 132.413 115.091 132.585 115.603C132.814 116.284 132.259 117.182 131.603 116.347C131.509 116.949 130.797 117.091 130.449 116.435C130.318 116.86 130.086 116.948 129.59 116.829C128.655 116.044 127.904 116.308 127.497 115.31" stroke="#2A2A2A" stroke-width="0.25" stroke-miterlimit="10"/>
<path d="M130.601 104.48C132.641 107.2 130.435 109.252 129.613 112.367C128.575 116.301 124.744 116.778 122.235 115.727C119.658 114.646 120.562 111.567 121.685 109.215C122.29 107.951 122.233 106.796 122.867 105.626C123.521 104.419 122.942 105.223 123.121 103.8" fill="white"/>
<path d="M130.601 104.48C132.641 107.2 130.435 109.252 129.613 112.367C128.575 116.301 124.744 116.778 122.235 115.727C119.658 114.646 120.562 111.567 121.685 109.215C122.29 107.951 122.233 106.796 122.867 105.626C123.521 104.419 122.942 105.223 123.121 103.8" stroke="#2A2A2A" stroke-width="0.25" stroke-miterlimit="10"/>
<path d="M125.559 111.794C126.425 112.556 125.806 114.757 125.051 115.492C125.791 115.626 126.289 116.15 126.402 116.665C126.554 117.35 125.896 118.255 125.335 117.414C125.173 118.019 124.445 118.162 124.171 117.502C123.991 117.93 123.749 118.019 123.267 117.899C122.422 117.109 122.459 116.335 121.583 115.897C120.722 115.467 118.027 112.669 122.203 107.321C122.203 107.321 121.76 105.16 123.12 103.8" fill="white"/>
<path d="M125.559 111.794C126.425 112.556 125.806 114.757 125.051 115.492C125.791 115.626 126.289 116.15 126.402 116.665C126.554 117.35 125.896 118.255 125.335 117.414C125.173 118.019 124.445 118.162 124.171 117.502C123.991 117.93 123.749 118.019 123.267 117.899C122.422 117.109 122.459 116.335 121.583 115.897C120.722 115.467 118.027 112.669 122.203 107.321C122.203 107.321 121.76 105.16 123.12 103.8" stroke="#2A2A2A" stroke-width="0.25" stroke-miterlimit="10"/>
<path d="M137.319 90.3125H115.613C112.402 90.3125 109.799 92.969 109.799 96.2459V118.397C109.799 121.674 112.402 124.331 115.613 124.331H137.319C140.53 124.331 143.133 121.674 143.133 118.397V96.2459C143.133 92.969 140.53 90.3125 137.319 90.3125Z" stroke="#2A2A2A" stroke-width="0.5"/>
<path d="M130.152 115.361C130.42 115.544 130.568 116.093 130.45 116.413" stroke="#2A2A2A" stroke-width="0.25" stroke-miterlimit="10"/>
<path d="M131.272 115.255C131.603 115.638 131.611 115.933 131.603 116.344" stroke="#2A2A2A" stroke-width="0.25" stroke-miterlimit="10"/>
<path d="M129.912 114.379C130.346 114.293 130.809 114.372 131.226 114.464" stroke="#2A2A2A" stroke-width="0.25" stroke-miterlimit="10" stroke-linecap="round"/>
<path d="M125.127 116.323C125.415 116.709 125.389 117.006 125.334 117.419" stroke="#2A2A2A" stroke-width="0.25" stroke-miterlimit="10"/>
<path d="M123.997 116.323C124.285 116.709 124.259 117.006 124.204 117.419" stroke="#2A2A2A" stroke-width="0.25" stroke-miterlimit="10"/>
<path d="M131.194 107.302C131.674 110.474 132.04 112.91 133.428 114.827C134.082 114.845 134.776 115.343 134.933 115.902C135.14 116.637 134.484 117.697 133.81 116.833C133.673 117.519 132.869 117.762 132.509 117.057C132.337 117.555 132.068 117.683 131.502 117.605C130.774 117.06 131.415 115.872 130.985 114.744C130.46 113.365 130.098 112.222 129.639 110.649" fill="white"/>
<path d="M131.194 107.302C131.674 110.474 132.04 112.91 133.428 114.827C134.082 114.845 134.776 115.343 134.933 115.902C135.14 116.637 134.484 117.697 133.81 116.833C133.673 117.519 132.869 117.762 132.509 117.057C132.337 117.555 132.068 117.683 131.502 117.605C130.774 117.06 131.415 115.872 130.985 114.744C130.46 113.365 130.098 112.222 129.639 110.649" stroke="#2A2A2A" stroke-width="0.25" stroke-miterlimit="10"/>
<path d="M132.226 115.866C132.524 116.05 132.663 116.661 132.512 117.039" stroke="#2A2A2A" stroke-width="0.25" stroke-miterlimit="10"/>
<path d="M133.504 115.638C133.853 116.04 133.844 116.373 133.812 116.836" stroke="#2A2A2A" stroke-width="0.25" stroke-miterlimit="10"/>
<path d="M131.003 100.565C131.003 100.565 131.582 101.009 131.555 100.76C131.877 99.8115 131.385 98.125 131.164 97.7215L130.987 97.0618C130.493 97.0353 129.893 96.5946 129.358 96.4326C128.765 96.2528 128.048 96.2425 127.419 96.2472H127.34C126.711 96.2423 125.995 96.2524 125.401 96.4326C124.866 96.5946 124.266 97.0353 123.773 97.0618L123.595 97.7215C123.197 98.4465 123.249 99.6005 123.555 100.827C123.152 101.089 122.793 101.423 122.793 102.28C122.793 102.823 122.934 103.745 123.519 104.22C124.425 104.957 124.986 104.463 125.102 104.705C125.542 105.626 125.874 105.968 126.739 106.141C126.804 106.155 126.879 106.142 126.96 106.113C127.284 106.204 127.637 106.219 128.02 106.141C128.885 105.968 129.217 105.626 129.657 104.705C129.773 104.462 130.334 104.957 131.241 104.22C131.824 103.745 131.966 102.823 131.966 102.28C131.966 101.218 131.505 100.878 131.003 100.565Z" fill="white" stroke="#2A2A2A" stroke-width="0.25" stroke-miterlimit="10"/>
<path d="M130.074 99.8469C130.192 99.4345 129.81 99.111 129.327 99.1575C128.908 99.1982 128.608 99.396 128.608 99.8309C128.904 99.7685 129.006 100.11 129.302 100.125C129.643 100.143 129.936 100.05 130.074 99.8469Z" stroke="#2A2A2A" stroke-width="0.25" stroke-miterlimit="10" stroke-linecap="round" stroke-linejoin="round"/>
<path d="M128.98 99.3022C128.838 99.7507 129.174 100.424 129.656 99.9783C130.03 99.6331 129.532 98.795 129.068 99.2141" fill="#2A2A2A"/>
<path d="M125.361 99.8469C125.243 99.4345 125.609 99.111 126.092 99.1575C126.511 99.1982 126.826 99.396 126.826 99.8309C126.531 99.7685 126.428 100.11 126.133 100.125C125.792 100.143 125.499 100.05 125.361 99.8469Z" stroke="#2A2A2A" stroke-width="0.25" stroke-miterlimit="10" stroke-linecap="round" stroke-linejoin="round"/>
<path d="M126.454 99.3022C126.596 99.7507 126.259 100.424 125.777 99.9783C125.404 99.6331 125.901 98.795 126.365 99.2141" fill="#2A2A2A"/>
<path d="M129.168 101.3C129.057 101.049 128.869 100.904 128.654 100.814C128.618 100.784 128.57 100.758 128.506 100.734C128.242 100.635 127.955 100.637 127.675 100.653C127.395 100.637 127.108 100.635 126.844 100.734C126.779 100.758 126.733 100.784 126.695 100.814C126.481 100.903 126.293 101.049 126.182 101.3C125.95 101.822 126.612 101.634 126.945 101.66C127.01 101.726 127.039 101.827 127.074 101.961C127.128 102.164 127.206 102.32 127.362 102.435C127.454 102.533 127.558 102.575 127.675 102.565C127.792 102.575 127.897 102.533 127.989 102.435C128.145 102.32 128.223 102.164 128.276 101.961C128.311 101.827 128.34 101.726 128.406 101.66C128.738 101.634 129.4 101.822 129.168 101.3Z" fill="#2A2A2A"/>
<path d="M128.654 104.003C128.918 104.53 128.921 105.011 128.754 105.597C128.592 106.163 128.024 106.725 127.3 106.478C126.825 106.315 126.672 105.844 126.673 105.415C126.673 105.093 126.613 104.618 126.69 104.322" stroke="#2A2A2A" stroke-width="0.25" stroke-miterlimit="10"/>
<path d="M127.827 104.066C127.862 104.632 127.792 105.198 127.709 105.756" stroke="#2A2A2A" stroke-width="0.25" stroke-miterlimit="10" stroke-linecap="round" stroke-linejoin="round"/>
<path d="M129.612 104.142C128.873 104.349 127.804 103.783 127.702 102.887C127.554 103.518 127.219 103.995 126.695 104.318C126.414 104.442 125.63 104.239 125.382 103.774" stroke="#2A2A2A" stroke-width="0.25" stroke-miterlimit="10"/>
<path d="M125.637 101.576C125.263 101.748 124.631 101.954 124.762 102.888" stroke="#2A2A2A" stroke-width="0.25" stroke-miterlimit="10"/>
<path d="M129.787 101.576C130.16 101.748 130.792 101.954 130.661 102.888" stroke="#2A2A2A" stroke-width="0.25" stroke-miterlimit="10"/>
<path d="M125.413 96.7907C124.212 97.5253 123.972 95.9871 122.792 96.3744C121.743 96.7186 121.627 98.1477 121.622 99.2262C121.62 99.8739 121.78 100.527 121.808 101.175C121.836 101.819 121.673 102.78 122.539 102.213C122.927 101.959 123.217 101.311 123.548 100.953C123.974 100.49 124.393 100.188 124.535 99.5065C124.625 99.0741 124.622 98.5016 124.535 98.1096" fill="white"/>
<path d="M125.413 96.7907C124.212 97.5253 123.972 95.9871 122.792 96.3744C121.743 96.7186 121.627 98.1477 121.622 99.2262C121.62 99.8739 121.78 100.527 121.808 101.175C121.836 101.819 121.673 102.78 122.539 102.213C122.927 101.959 123.217 101.311 123.548 100.953C123.974 100.49 124.393 100.188 124.535 99.5065C124.625 99.0741 124.622 98.5016 124.535 98.1096" stroke="#2A2A2A" stroke-width="0.25" stroke-miterlimit="10"/>
<path d="M123.636 100.051C123.501 100.577 122.837 100.823 122.588 101.318" stroke="#2A2A2A" stroke-width="0.25" stroke-miterlimit="10" stroke-linecap="round" stroke-linejoin="round"/>
<path d="M129.645 96.8368C130.912 97.748 131.295 96.3209 132.475 96.7082C133.524 97.0524 133.565 98.1475 133.569 99.2257C133.571 99.8735 133.411 100.526 133.383 101.174C133.355 101.819 133.518 102.779 132.652 102.212C132.265 101.958 131.974 101.311 131.643 100.952C131.217 100.49 130.908 100.448 131.083 99.7746C131.171 99.4338 131.225 98.454 130.655 98.1098" fill="white"/>
<path d="M129.645 96.8368C130.912 97.748 131.295 96.3209 132.475 96.7082C133.524 97.0524 133.565 98.1475 133.569 99.2257C133.571 99.8735 133.411 100.526 133.383 101.174C133.355 101.819 133.518 102.779 132.652 102.212C132.265 101.958 131.974 101.311 131.643 100.952C131.217 100.49 130.908 100.448 131.083 99.7746C131.171 99.4338 131.225 98.454 130.655 98.1098" stroke="#2A2A2A" stroke-width="0.25" stroke-miterlimit="10"/>
<path d="M131.556 100.051C131.691 100.577 132.354 100.823 132.603 101.318" stroke="#2A2A2A" stroke-width="0.25" stroke-miterlimit="10" stroke-linecap="round" stroke-linejoin="round"/>
<path d="M130.027 107.881C130.12 108.164 130.199 108.464 130.271 108.768C130.226 108.784 130.183 108.761 130.139 108.78C130.175 108.991 130.206 109.249 130.236 109.464C130.202 109.477 130.138 109.445 130.131 109.448C130.245 110.144 130.296 111.006 129.921 111.606" stroke="#2A2A2A" stroke-width="0.25" stroke-miterlimit="10"/>
<path d="M128.499 100.051C128.44 100.376 128.692 100.444 128.794 100.568" stroke="#2A2A2A" stroke-width="0.25" stroke-miterlimit="10" stroke-linecap="round" stroke-linejoin="round"/>
<path d="M126.827 100.098C126.827 100.368 126.584 100.494 126.487 100.645" stroke="#2A2A2A" stroke-width="0.25" stroke-miterlimit="10" stroke-linecap="round" stroke-linejoin="round"/>
<path d="M90.3199 106.408C90.3199 106.92 87.6157 108.2 87.1027 108.2H77.2823C76.7693 108.2 74.5546 107.785 74.5546 107.273L76.3097 102.286C76.7227 101.251 77.0634 100.991 78.0151 100.991H84.8938L90.3199 106.408Z" fill="#F5F5F5" stroke="#2A2A2A" stroke-width="0.25" stroke-miterlimit="10"/>
<path d="M78.6778 101.71L78.144 101.71C77.6929 101.71 77.3142 102.069 77.1318 102.552L75.6552 106.729C75.6552 107.159 76.481 107.753 76.9295 107.753L78.6776 107.752V101.71H78.6778Z" fill="#F5F5F5" stroke="#2A2A2A" stroke-width="0.25" stroke-miterlimit="10"/>
<path d="M84.6111 101.709L79.2283 101.71V107.752L85.5261 107.751C85.9751 107.751 89.3191 106.837 89.3187 106.409L84.6111 101.709Z" fill="#F5F5F5" stroke="#2A2A2A" stroke-width="0.25" stroke-miterlimit="10"/>
<path d="M88.1612 110.063C88.1612 110.389 88.4268 110.654 88.7541 110.654H92.9926C93.3201 110.654 93.5855 110.389 93.5855 110.063V106.34C93.5855 106.014 93.3201 105.749 92.9926 105.749H88.7541C88.4268 105.749 88.1612 106.013 88.1612 106.34V110.063Z" fill="#F5F5F5" stroke="#2A2A2A" stroke-width="0.25" stroke-miterlimit="10"/>
<path d="M91.918 105.719L90.9841 105.714H74.0262V111.965H93.5862V107.796C92.1019 107.796 91.918 106.333 91.918 105.719Z" fill="#F5F5F5" stroke="#2A2A2A" stroke-width="0.25" stroke-miterlimit="10"/>
<path d="M89.7922 113.812C91.1543 113.812 92.2584 112.71 92.2584 111.35C92.2584 109.991 91.1543 108.888 89.7922 108.888C88.4302 108.888 87.3261 109.991 87.3261 111.35C87.3261 112.71 88.4302 113.812 89.7922 113.812Z" fill="#F5F5F5" stroke="#2A2A2A" stroke-width="0.25" stroke-miterlimit="10"/>
<path d="M89.7909 112.54C90.4493 112.54 90.9829 112.008 90.9829 111.35C90.9829 110.693 90.4493 110.161 89.7909 110.161C89.1326 110.161 88.5989 110.693 88.5989 111.35C88.5989 112.008 89.1326 112.54 89.7909 112.54Z" fill="#F5F5F5" stroke="#2A2A2A" stroke-width="0.25" stroke-miterlimit="10"/>
<path d="M77.9166 113.812C79.2786 113.812 80.3828 112.71 80.3828 111.351C80.3828 109.991 79.2786 108.889 77.9166 108.889C76.5545 108.889 75.4504 109.991 75.4504 111.351C75.4504 112.71 76.5545 113.812 77.9166 113.812Z" fill="#F5F5F5" stroke="#2A2A2A" stroke-width="0.25" stroke-miterlimit="10"/>
<path d="M77.9162 112.54C78.5747 112.54 79.1085 112.008 79.1085 111.35C79.1085 110.694 78.5747 110.161 77.9162 110.161C77.2578 110.161 76.724 110.694 76.724 111.35C76.724 112.008 77.2578 112.54 77.9162 112.54Z" fill="#F5F5F5" stroke="#2A2A2A" stroke-width="0.25" stroke-miterlimit="10"/>
<path d="M74.0941 108.301C74.0941 108.538 74.2422 108.731 74.4243 108.731H74.5135C74.6961 108.731 74.844 108.538 74.844 108.301V107.325C74.844 107.087 74.6961 106.895 74.5135 106.895H74.4243C74.2422 106.895 74.0941 107.087 74.0941 107.325V108.301Z" fill="#F5F5F5" stroke="#2A2A2A" stroke-width="0.25" stroke-miterlimit="10"/>
<path d="M80.0953 106.355C79.8577 106.355 79.665 106.502 79.665 106.685V106.774C79.665 106.957 79.8572 107.104 80.0953 107.104H81.0726C81.3102 107.104 81.5029 106.957 81.5029 106.774V106.685C81.5029 106.502 81.3104 106.355 81.0726 106.355H80.0953Z" fill="#F5F5F5" stroke="#2A2A2A" stroke-width="0.25" stroke-miterlimit="10"/>
<path d="M93.9713 110.304H92.5357V111.964H93.9713V110.304Z" fill="#F5F5F5" stroke="#2A2A2A" stroke-width="0.25" stroke-miterlimit="10"/>
<path d="M75.1883 110.304H73.752V111.964H75.1883V110.304Z" fill="#F5F5F5" stroke="#2A2A2A" stroke-width="0.25" stroke-miterlimit="10"/>
<path d="M95.4375 36.728C95.4064 36.786 95.3587 36.815 95.294 36.815C95.2553 36.815 95.2114 36.8005 95.1623 36.7715C95.1132 36.7425 95.0525 36.7108 94.9801 36.6765C94.9103 36.6396 94.8264 36.6067 94.7281 36.5776C94.63 36.546 94.5137 36.5302 94.3793 36.5302C94.263 36.5302 94.1584 36.546 94.0653 36.5776C93.9723 36.6067 93.8922 36.6475 93.825 36.7003C93.7604 36.753 93.7101 36.815 93.6739 36.8862C93.6403 36.9548 93.6235 37.0299 93.6235 37.1117C93.6235 37.2145 93.6519 37.3002 93.7087 37.3688C93.7682 37.4374 93.8457 37.4967 93.9413 37.5468C94.037 37.5968 94.1455 37.6417 94.2669 37.6813C94.3884 37.7182 94.5124 37.759 94.639 37.8039C94.7682 37.8461 94.8936 37.8935 95.015 37.9463C95.1364 37.9991 95.245 38.065 95.3406 38.1441C95.4362 38.2232 95.5124 38.3207 95.5692 38.4368C95.6287 38.5501 95.6584 38.6873 95.6584 38.8482C95.6584 39.0327 95.6261 39.2042 95.5615 39.3624C95.4969 39.518 95.4013 39.6538 95.2747 39.7698C95.1481 39.8832 94.993 39.9729 94.8095 40.0388C94.6261 40.1047 94.4142 40.1377 94.1739 40.1377C93.9 40.1377 93.6519 40.0928 93.4297 40.0032C93.2075 39.9109 93.0188 39.7935 92.8638 39.6511L93.0266 39.3822C93.0473 39.3479 93.0718 39.3215 93.1002 39.3031C93.1287 39.2846 93.1649 39.2754 93.2087 39.2754C93.2552 39.2754 93.3044 39.2938 93.356 39.3307C93.4077 39.3677 93.4697 39.4085 93.5421 39.4534C93.617 39.4982 93.7075 39.539 93.8134 39.576C93.9194 39.6129 94.0511 39.6314 94.2087 39.6314C94.3432 39.6314 94.4607 39.6142 94.5615 39.5799C94.6622 39.543 94.7463 39.4943 94.8134 39.4336C94.8806 39.3729 94.9297 39.3031 94.9607 39.2239C94.9943 39.1448 95.0111 39.0604 95.0111 38.9708C95.0111 38.86 94.9814 38.7691 94.9219 38.6978C94.8651 38.624 94.7889 38.562 94.6933 38.5119C94.5977 38.4592 94.4878 38.4144 94.3638 38.3774C94.2424 38.3379 94.117 38.297 93.9878 38.2548C93.8612 38.2127 93.7359 38.1652 93.6118 38.1124C93.4904 38.057 93.3819 37.9885 93.2863 37.9067C93.1907 37.825 93.1131 37.7248 93.0537 37.6061C92.9969 37.4848 92.9684 37.3385 92.9684 37.167C92.9684 37.0141 92.9994 36.8677 93.0614 36.728C93.1235 36.5856 93.2139 36.4616 93.3328 36.3561C93.4517 36.248 93.5977 36.1623 93.7708 36.099C93.9439 36.0357 94.1416 36.0041 94.3638 36.0041C94.6222 36.0041 94.8535 36.0463 95.0576 36.1307C95.2644 36.2124 95.4426 36.3258 95.5925 36.4708L95.4375 36.728ZM97.5082 36.6014C97.6762 36.4194 97.8622 36.2744 98.0663 36.1663C98.2705 36.0581 98.5056 36.0041 98.7718 36.0041C98.9863 36.0041 99.1749 36.041 99.3377 36.1148C99.503 36.186 99.64 36.2889 99.7485 36.4234C99.8596 36.5552 99.9437 36.7148 100 36.902C100.057 37.0893 100.086 37.2962 100.086 37.523V40.0744H99.3919V37.523C99.3919 37.2198 99.3235 36.9851 99.1865 36.8189C99.0522 36.6502 98.8467 36.5658 98.5702 36.5658C98.3661 36.5658 98.1749 36.6159 97.9966 36.7161C97.8208 36.8163 97.658 36.9521 97.5082 37.1235V40.0744H96.8144V34.2478H97.5082V36.6014ZM103.575 38.2706C103.257 38.2812 102.986 38.3076 102.761 38.3498C102.539 38.3893 102.357 38.4421 102.215 38.508C102.075 38.5739 101.973 38.6517 101.908 38.7414C101.846 38.831 101.815 38.9312 101.815 39.042C101.815 39.1474 101.832 39.2384 101.866 39.3149C101.899 39.3914 101.945 39.4547 102.001 39.5048C102.061 39.5523 102.129 39.5879 102.207 39.6116C102.287 39.6327 102.372 39.6432 102.463 39.6432C102.584 39.6432 102.695 39.6314 102.796 39.6076C102.897 39.5813 102.991 39.5443 103.079 39.4969C103.169 39.4494 103.255 39.3927 103.335 39.3268C103.418 39.2609 103.498 39.1857 103.575 39.1013V38.2706ZM101.346 36.633C101.563 36.4194 101.797 36.2599 102.048 36.1544C102.299 36.0489 102.576 35.9962 102.881 35.9962C103.101 35.9962 103.296 36.0331 103.467 36.1069C103.637 36.1808 103.781 36.2836 103.897 36.4155C104.013 36.5473 104.101 36.7069 104.16 36.8941C104.22 37.0814 104.25 37.287 104.25 37.5112V40.0744H103.943C103.876 40.0744 103.825 40.0639 103.788 40.0428C103.752 40.019 103.724 39.9742 103.703 39.9083L103.626 39.5285C103.522 39.6261 103.421 39.7131 103.323 39.7896C103.225 39.8634 103.122 39.9267 103.013 39.9795C102.905 40.0295 102.788 40.0678 102.664 40.0942C102.543 40.1232 102.407 40.1377 102.257 40.1377C102.105 40.1377 101.961 40.1166 101.827 40.0744C101.693 40.0295 101.575 39.9636 101.474 39.8766C101.376 39.7896 101.297 39.6802 101.238 39.5483C101.181 39.4138 101.153 39.2556 101.153 39.0736C101.153 38.9154 101.195 38.7637 101.281 38.6187C101.366 38.471 101.504 38.3405 101.695 38.2271C101.886 38.1138 102.136 38.0214 102.443 37.9502C102.751 37.8764 103.128 37.8342 103.575 37.8237V37.5112C103.575 37.2 103.509 36.9653 103.377 36.8071C103.246 36.6462 103.053 36.5658 102.8 36.5658C102.629 36.5658 102.486 36.5882 102.37 36.633C102.256 36.6752 102.156 36.724 102.071 36.7794C101.989 36.8321 101.916 36.8809 101.854 36.9257C101.795 36.9679 101.735 36.989 101.676 36.989C101.629 36.989 101.589 36.9772 101.556 36.9534C101.522 36.9271 101.494 36.8954 101.47 36.8585L101.346 36.633ZM106.304 39.1092C106.431 39.2833 106.569 39.4059 106.719 39.4771C106.869 39.5483 107.037 39.5839 107.223 39.5839C107.59 39.5839 107.872 39.4508 108.068 39.1844C108.264 38.918 108.363 38.5383 108.363 38.0452C108.363 37.7841 108.339 37.56 108.293 37.3727C108.249 37.1855 108.184 37.0325 108.099 36.9139C108.014 36.7926 107.909 36.7042 107.785 36.6488C107.661 36.5935 107.52 36.5658 107.363 36.5658C107.138 36.5658 106.94 36.6185 106.77 36.724C106.602 36.8295 106.446 36.9785 106.304 37.171V39.1092ZM106.27 36.6884C106.435 36.4801 106.626 36.3126 106.843 36.186C107.06 36.0595 107.308 35.9962 107.587 35.9962C107.815 35.9962 108.02 36.041 108.204 36.1307C108.387 36.2177 108.543 36.3482 108.673 36.5223C108.802 36.6937 108.901 36.9073 108.971 37.1631C109.041 37.4188 109.076 37.7129 109.076 38.0452C109.076 38.3405 109.037 38.6161 108.959 38.8719C108.882 39.1251 108.77 39.3452 108.622 39.5325C108.478 39.717 108.299 39.8634 108.087 39.9716C107.878 40.077 107.642 40.1298 107.378 40.1298C107.138 40.1298 106.931 40.0889 106.758 40.0072C106.587 39.9227 106.436 39.8068 106.304 39.6591V41.4312H105.611V36.0674H106.025C106.124 36.0674 106.184 36.1162 106.207 36.2137L106.27 36.6884ZM112.894 37.6338C112.894 37.4703 112.871 37.3213 112.824 37.1868C112.78 37.0497 112.714 36.9323 112.627 36.8348C112.541 36.7346 112.437 36.6581 112.313 36.6053C112.189 36.55 112.048 36.5223 111.89 36.5223C111.559 36.5223 111.297 36.6212 111.103 36.8189C110.912 37.0141 110.793 37.2857 110.747 37.6338H112.894ZM113.452 39.5127C113.367 39.6182 113.265 39.7105 113.146 39.7896C113.027 39.8661 112.899 39.9294 112.762 39.9795C112.628 40.0295 112.488 40.0665 112.344 40.0902C112.199 40.1166 112.056 40.1298 111.913 40.1298C111.642 40.1298 111.391 40.0837 111.161 39.9913C110.934 39.8964 110.736 39.7593 110.568 39.5799C110.403 39.398 110.274 39.1739 110.181 38.9075C110.088 38.6411 110.041 38.3353 110.041 37.9898C110.041 37.7103 110.083 37.4492 110.165 37.2066C110.251 36.964 110.372 36.7543 110.53 36.5776C110.687 36.3983 110.88 36.2586 111.107 36.1584C111.335 36.0555 111.59 36.0041 111.875 36.0041C112.11 36.0041 112.327 36.045 112.526 36.1267C112.727 36.2058 112.9 36.3219 113.045 36.4748C113.193 36.6251 113.307 36.8124 113.39 37.0365C113.473 37.258 113.514 37.5112 113.514 37.796C113.514 37.9067 113.503 37.9805 113.479 38.0175C113.456 38.0544 113.412 38.0729 113.348 38.0729H110.723C110.731 38.326 110.765 38.5462 110.824 38.7334C110.886 38.9207 110.972 39.0776 111.08 39.2042C111.189 39.3281 111.318 39.4217 111.468 39.485C111.618 39.5457 111.786 39.576 111.972 39.576C112.145 39.576 112.293 39.5562 112.417 39.5167C112.544 39.4745 112.652 39.4296 112.743 39.3822C112.833 39.3347 112.908 39.2912 112.968 39.2516C113.03 39.2095 113.083 39.1883 113.127 39.1883C113.183 39.1883 113.227 39.2107 113.258 39.2556L113.452 39.5127Z" fill="#2A2A2A"/>
<path d="M107.323 52.9895L117.903 63.4769C117.879 63.5229 117.837 63.5876 117.761 63.6721C117.629 63.8189 117.431 63.9882 117.178 64.1724C116.675 64.5395 115.986 64.9422 115.258 65.3171C114.531 65.6915 113.774 66.0342 113.137 66.2827C112.819 66.4069 112.533 66.5065 112.299 66.5746C112.058 66.6448 111.892 66.6749 111.803 66.6749H92.3408C91.8643 66.6749 90.537 66.4771 89.3217 66.1496C88.7158 65.9863 88.1548 65.7952 87.7503 65.5887C87.5472 65.4851 87.3965 65.3839 87.2998 65.2899C87.2271 65.219 87.199 65.1665 87.1894 65.1316L90.6471 55.3766C91.0533 54.3664 91.4056 53.7872 91.8534 53.4493C92.2943 53.1166 92.8668 52.9895 93.7931 52.9895H107.323Z" fill="#FCFCFC" stroke="#2A2A2A" stroke-width="0.5" stroke-miterlimit="10"/>
<path d="M95.1043 54.1548L94.0463 54.1557C93.1526 54.1557 92.4018 54.8613 92.0405 55.8116L89.1139 64.0319C89.1139 64.8764 90.7506 66.0457 91.6396 66.0457L95.1039 66.0448V54.1548H95.1043Z" fill="#FCFCFC" stroke="#2A2A2A" stroke-width="0.5" stroke-miterlimit="10"/>
<path d="M106.864 54.1499L96.1968 54.1516V66.0408L108.678 66.04C109.568 66.04 116.195 64.2414 116.194 63.3974L106.864 54.1499Z" fill="#FCFCFC" stroke="#2A2A2A" stroke-width="0.5" stroke-miterlimit="10"/>
<path d="M113.901 70.5883C113.901 71.2308 114.427 71.7523 115.076 71.7523H123.476C124.125 71.7523 124.651 71.2304 124.651 70.5883V63.263C124.651 62.6201 124.125 62.0986 123.476 62.0986H115.076C114.427 62.0986 113.901 62.6196 113.901 63.263V70.5883Z" fill="#FCFCFC" stroke="#2A2A2A" stroke-width="0.5" stroke-miterlimit="10"/>
<path d="M121.344 62.0438L119.493 62.0344H85.8861V74.3342L124.65 74.3337V66.1301C121.709 66.1301 121.344 63.252 121.344 62.0438Z" fill="#FCFCFC" stroke="#2A2A2A" stroke-width="0.5" stroke-miterlimit="10"/>
<path d="M117.13 77.9695C119.829 77.9695 122.018 75.8005 122.018 73.125C122.018 70.4494 119.829 68.2805 117.13 68.2805C114.431 68.2805 112.242 70.4494 112.242 73.125C112.242 75.8005 114.431 77.9695 117.13 77.9695Z" fill="#FCFCFC" stroke="#2A2A2A" stroke-width="0.5" stroke-miterlimit="10"/>
<path d="M117.131 75.4653C118.436 75.4653 119.493 74.417 119.493 73.1239C119.493 71.8308 118.436 70.7825 117.131 70.7825C115.826 70.7825 114.768 71.8308 114.768 73.1239C114.768 74.417 115.826 75.4653 117.131 75.4653Z" fill="#FCFCFC" stroke="#2A2A2A" stroke-width="0.5" stroke-miterlimit="10"/>
<path d="M93.5954 77.9693C96.2947 77.9693 98.4829 75.8005 98.4829 73.1253C98.4829 70.4499 96.2947 68.2812 93.5954 68.2812C90.896 68.2812 88.7079 70.4499 88.7079 73.1253C88.7079 75.8005 90.896 77.9693 93.5954 77.9693Z" fill="#FCFCFC" stroke="#2A2A2A" stroke-width="0.5" stroke-miterlimit="10"/>
<path d="M93.5947 75.465C94.8996 75.465 95.9574 74.417 95.9574 73.1241C95.9574 71.8313 94.8996 70.7832 93.5947 70.7832C92.2897 70.7832 91.2319 71.8313 91.2319 73.1241C91.2319 74.417 92.2897 75.465 93.5947 75.465Z" fill="#FCFCFC" stroke="#2A2A2A" stroke-width="0.5" stroke-miterlimit="10"/>
<path d="M86.0223 67.1225C86.0223 67.5889 86.3158 67.9683 86.6767 67.9683H86.8536C87.2153 67.9683 87.5084 67.5889 87.5084 67.1225V65.2016C87.5084 64.7346 87.2153 64.3552 86.8536 64.3552H86.6767C86.3158 64.3552 86.0223 64.7346 86.0223 65.2016V67.1225Z" fill="#FCFCFC" stroke="#2A2A2A" stroke-width="0.5" stroke-miterlimit="10"/>
<path d="M97.9121 63.2922C97.4412 63.2922 97.0592 63.5822 97.0592 63.941V64.1171C97.0592 64.4763 97.4403 64.7662 97.9121 64.7662H99.8489C100.32 64.7662 100.702 64.4763 100.702 64.1171V63.941C100.702 63.5822 100.32 63.2922 99.8489 63.2922H97.9121Z" fill="#FCFCFC" stroke="#2A2A2A" stroke-width="0.5" stroke-miterlimit="10"/>
<path d="M125.414 71.0654H122.569V74.3339H125.414V71.0654Z" fill="#FCFCFC" stroke="#2A2A2A" stroke-width="0.5" stroke-miterlimit="10"/>
<path d="M88.1902 71.0654H85.3437V74.3344H88.1902V71.0654Z" fill="#FCFCFC" stroke="#2A2A2A" stroke-width="0.5" stroke-miterlimit="10"/>
</g>
<path d="M98.3171 128.872C97.1473 128.872 96.1809 129.584 95.774 130.601H95.5705V129.33C95.5705 127.804 94.3498 126.583 92.824 126.583C91.2981 126.583 90.0775 127.804 90.0775 129.33V127.448C90.0775 125.922 88.8568 124.701 87.331 124.701C85.8051 124.701 84.5844 125.922 84.5844 127.448V118.242C84.5844 116.716 83.3637 115.495 81.8379 115.495C80.3121 115.495 79.0914 116.716 79.0914 118.242V129.533C79.0914 129.533 78.9388 135.993 79.2948 139.299C79.7017 144.944 84.4319 149.42 90.1792 149.42C96.1809 149.42 101.013 144.639 101.114 138.637C101.165 138.587 101.165 138.485 101.165 138.383V134.213V131.72V131.568C101.064 130.093 99.8429 128.872 98.3171 128.872Z" fill="#B3B6BF"/>
<path d="M95.7776 130.608V131.431H96.3345L96.5412 130.914L95.7776 130.608ZM95.5741 130.608H94.7516V131.431H95.5741V130.608ZM79.095 129.54L79.9172 129.56L79.9175 129.55V129.54H79.095ZM79.2985 139.306L80.1188 139.247L80.1178 139.232L80.1162 139.218L79.2985 139.306ZM101.118 138.645L100.536 138.063L100.301 138.298L100.296 138.631L101.118 138.645ZM101.169 131.575H101.991V131.546L101.989 131.518L101.169 131.575ZM98.3207 128.057C96.7979 128.057 95.5394 128.989 95.0139 130.303L96.5412 130.914C96.8295 130.193 97.5038 129.702 98.3207 129.702V128.057ZM95.7776 129.786H95.5741V131.431H95.7776V129.786ZM96.3966 130.608V129.337H94.7516V130.608H96.3966ZM96.3966 129.337C96.3966 127.357 94.8077 125.768 92.8276 125.768V127.413C93.8992 127.413 94.7516 128.265 94.7516 129.337H96.3966ZM92.8276 125.768C90.8475 125.768 89.2586 127.357 89.2586 129.337H90.9036C90.9036 128.265 91.756 127.413 92.8276 127.413V125.768ZM90.9036 129.337V127.455H89.2586V129.337H90.9036ZM90.9036 127.455C90.9036 125.475 89.3147 123.886 87.3346 123.886V125.531C88.4062 125.531 89.2586 126.383 89.2586 127.455H90.9036ZM87.3346 123.886C85.3545 123.886 83.7655 125.475 83.7655 127.455H85.4106C85.4106 126.383 86.263 125.531 87.3346 125.531V123.886ZM85.4106 127.455V118.249H83.7655V127.455H85.4106ZM85.4106 118.249C85.4106 116.269 83.8216 114.68 81.8415 114.68V116.325C82.9131 116.325 83.7655 117.177 83.7655 118.249H85.4106ZM81.8415 114.68C79.8614 114.68 78.2724 116.269 78.2724 118.249H79.9175C79.9175 117.177 80.7699 116.325 81.8415 116.325V114.68ZM78.2724 118.249V129.54H79.9175V118.249H78.2724ZM79.095 129.54C78.2727 129.521 78.2727 129.521 78.2727 129.521C78.2727 129.521 78.2727 129.521 78.2727 129.521C78.2727 129.521 78.2727 129.522 78.2727 129.522C78.2726 129.523 78.2726 129.524 78.2726 129.526C78.2725 129.529 78.2724 129.534 78.2723 129.54C78.272 129.553 78.2715 129.572 78.271 129.596C78.27 129.645 78.2685 129.716 78.2668 129.809C78.2632 129.993 78.2586 130.26 78.2543 130.59C78.2455 131.251 78.2375 132.166 78.2407 133.186C78.247 135.214 78.2975 137.694 78.4806 139.394L80.1162 139.218C79.9433 137.612 79.8921 135.209 79.8857 133.181C79.8825 132.172 79.8904 131.266 79.8991 130.612C79.9035 130.285 79.908 130.022 79.9115 129.84C79.9132 129.749 79.9147 129.679 79.9157 129.631C79.9162 129.608 79.9166 129.589 79.9168 129.577C79.917 129.571 79.9171 129.567 79.9171 129.564C79.9172 129.563 79.9172 129.561 79.9172 129.561C79.9172 129.56 79.9172 129.56 79.9172 129.56C79.9172 129.56 79.9172 129.56 79.9172 129.56C79.9172 129.56 79.9172 129.56 79.095 129.54ZM78.4781 139.365C78.9157 145.437 84.0007 150.25 90.1828 150.25V148.605C84.8703 148.605 80.495 144.465 80.1188 139.247L78.4781 139.365ZM90.1828 150.25C96.6363 150.25 101.831 145.106 101.94 138.658L100.296 138.631C100.202 144.187 95.7326 148.605 90.1828 148.605V150.25ZM101.7 139.226C101.915 139.011 101.962 138.756 101.977 138.653C101.993 138.539 101.991 138.426 101.991 138.39H100.346C100.346 138.418 100.346 138.43 100.346 138.439C100.346 138.448 100.346 138.439 100.348 138.42C100.351 138.402 100.358 138.357 100.381 138.298C100.405 138.237 100.451 138.148 100.536 138.063L101.7 139.226ZM101.991 138.39V134.22H100.346V138.39H101.991ZM101.991 134.22V131.727H100.346V134.22H101.991ZM101.991 131.727V131.575H100.346V131.727H101.991ZM101.989 131.518C101.86 129.635 100.302 128.057 98.3207 128.057V129.702C99.3914 129.702 100.275 130.565 100.348 131.631L101.989 131.518Z" fill="#2A2A2A"/>
<path d="M123.149 105.596C122.44 108.402 122.084 113.707 121.382 115.519C120.725 115.532 120.033 116.029 119.882 116.592C119.681 117.335 120.354 118.41 121.023 117.54C121.17 118.235 121.981 118.483 122.333 117.772C122.512 118.276 122.785 118.407 123.35 118.33C124.071 117.783 123.291 117.105 123.702 115.981C124.202 114.61 124.358 109.757 125.274 108.422" fill="white"/>
<path d="M123.149 105.596C122.44 108.402 122.084 113.707 121.382 115.519C120.725 115.532 120.033 116.029 119.882 116.592C119.681 117.335 120.354 118.41 121.023 117.54C121.17 118.235 121.981 118.483 122.333 117.772C122.512 118.276 122.785 118.407 123.35 118.33C124.071 117.783 123.291 117.105 123.702 115.981C124.202 114.61 124.358 109.757 125.274 108.422" stroke="#2A2A2A" stroke-width="0.25" stroke-miterlimit="10"/>
<path d="M122.599 116.572C122.303 116.756 122.172 117.372 122.329 117.754" stroke="#2A2A2A" stroke-width="0.25" stroke-miterlimit="10"/>
<path d="M121.316 116.333C120.971 116.738 120.984 117.073 121.022 117.541" stroke="#2A2A2A" stroke-width="0.25" stroke-miterlimit="10"/>
<defs>
<clipPath id="clip0">
<rect width="77.5208" height="121.041" fill="white" transform="translate(66 29)"/>
</clipPath>
</defs>
</svg>
