<svg width="85" height="113" viewBox="0 0 85 113" fill="none" xmlns="http://www.w3.org/2000/svg">
<g filter="url(#filter0_d)">
<rect x="2" y="1" width="76.8555" height="104.574" rx="10" fill="white"/>
<rect x="2.25" y="1.25" width="76.3555" height="104.074" rx="9.75" stroke="black" stroke-opacity="0.1" stroke-width="0.5"/>
</g>
<g clip-path="url(#clip0)">
<path d="M33.768 53.8379H20.7263C18.797 53.8379 17.233 55.434 17.233 57.4029V70.7123C17.233 72.6812 18.797 74.2773 20.7263 74.2773H33.768C35.6973 74.2773 37.2613 72.6812 37.2613 70.7123V57.4029C37.2613 55.434 35.6973 53.8379 33.768 53.8379Z" fill="#B3B6BF" stroke="#2A2A2A" stroke-width="0.5"/>
<path d="M59.8513 53.8389H46.8096C44.8803 53.8389 43.3163 55.435 43.3163 57.4039V70.7132C43.3163 72.6821 44.8803 74.2783 46.8096 74.2783H59.8513C61.7806 74.2783 63.3446 72.6821 63.3446 70.7132V57.4039C63.3446 55.435 61.7806 53.8389 59.8513 53.8389Z" stroke="#2A2A2A" stroke-width="0.5"/>
<path d="M50.0489 69.0602C48.8241 69.267 48.5186 67.7726 48.7378 66.8091C48.9757 65.7648 49.3159 67.8329 49.7678 67.879" stroke="#2A2A2A" stroke-width="0.25" stroke-miterlimit="10"/>
<path d="M55.5955 65.2722C56.0751 65.5023 57.1006 66.7087 56.1149 68.3338C56.5687 68.4137 56.9034 68.7269 57.0069 69.0345C57.1443 69.4433 56.811 69.9833 56.4166 69.4813C56.3603 69.843 55.9327 69.9286 55.7233 69.5341C55.6444 69.7893 55.505 69.8426 55.2073 69.7713C54.6456 69.2993 54.1945 69.458 53.9496 68.8581" stroke="#2A2A2A" stroke-width="0.25" stroke-miterlimit="10"/>
<path d="M55.5447 68.8889C55.7059 68.9992 55.7949 69.3286 55.7241 69.5211" stroke="#2A2A2A" stroke-width="0.25" stroke-miterlimit="10"/>
<path d="M56.2177 68.8254C56.4167 69.0555 56.4213 69.2328 56.4166 69.4795" stroke="#2A2A2A" stroke-width="0.25" stroke-miterlimit="10"/>
<path d="M55.8145 62.3514C57.0402 63.9857 55.7148 65.2183 55.2209 67.0902C54.5972 69.4535 52.2958 69.7406 50.7883 69.1089C49.2396 68.4596 49.7826 66.6091 50.4577 65.1964C50.8211 64.4366 50.787 63.7431 51.1677 63.0401C51.5607 62.3144 51.213 62.7978 51.3202 61.9429" stroke="#2A2A2A" stroke-width="0.25" stroke-miterlimit="10"/>
<path d="M55.401 68.2987C55.6614 68.2473 55.94 68.2944 56.1901 68.35" stroke="#2A2A2A" stroke-width="0.25" stroke-miterlimit="10" stroke-linecap="round"/>
<path d="M52.7851 66.746C53.3054 67.2038 52.9337 68.5262 52.48 68.9677C52.9247 69.0481 53.2236 69.3632 53.292 69.6727C53.3828 70.0843 52.9876 70.6276 52.6507 70.1223C52.5531 70.486 52.1157 70.572 51.9512 70.1756C51.8433 70.4322 51.6978 70.486 51.4079 70.4142C50.9004 69.9393 50.9226 69.474 50.3961 69.2111C49.879 68.9525 48.2596 67.2718 50.7691 64.0584C50.7691 64.0584 50.5029 62.76 51.32 61.9429" fill="white"/>
<path d="M52.7851 66.746C53.3054 67.2038 52.9337 68.5262 52.48 68.9677C52.9247 69.0481 53.2236 69.3632 53.292 69.6727C53.3828 70.0843 52.9876 70.6276 52.6507 70.1223C52.5531 70.486 52.1157 70.572 51.9512 70.1756C51.8433 70.4322 51.6978 70.486 51.4079 70.4142C50.9004 69.9393 50.9226 69.474 50.3961 69.2111C49.879 68.9525 48.2596 67.2718 50.7691 64.0584C50.7691 64.0584 50.5029 62.76 51.32 61.9429" stroke="#2A2A2A" stroke-width="0.25" stroke-miterlimit="10"/>
<path d="M51.3352 69.3452C51.4838 69.456 51.5351 69.7873 51.442 69.9817" stroke="#2A2A2A" stroke-width="0.25" stroke-miterlimit="10"/>
<path d="M52.526 69.467C52.6989 69.699 52.6832 69.8773 52.6504 70.1254" stroke="#2A2A2A" stroke-width="0.25" stroke-miterlimit="10"/>
<path d="M51.8469 69.467C52.0197 69.699 52.0041 69.8773 51.9711 70.1254" stroke="#2A2A2A" stroke-width="0.25" stroke-miterlimit="10"/>
<path d="M51.3372 63.0217C50.9115 64.7078 50.6973 67.895 50.2753 68.984C49.8805 68.9916 49.4653 69.2905 49.3741 69.6285C49.2535 70.0748 49.658 70.7208 50.0596 70.1984C50.1481 70.6158 50.6355 70.7646 50.8469 70.3377C50.9546 70.6405 51.1183 70.7189 51.4579 70.6728C51.8911 70.3444 51.4224 69.937 51.6692 69.2615C51.97 68.4378 52.0639 65.5216 52.6137 64.7197" fill="white"/>
<path d="M51.3372 63.0217C50.9115 64.7078 50.6973 67.895 50.2753 68.984C49.8805 68.9916 49.4653 69.2905 49.3741 69.6285C49.2535 70.0748 49.658 70.7208 50.0596 70.1984C50.1481 70.6158 50.6355 70.7646 50.8469 70.3377C50.9546 70.6405 51.1183 70.7189 51.4579 70.6728C51.8911 70.3444 51.4224 69.937 51.6692 69.2615C51.97 68.4378 52.0639 65.5216 52.6137 64.7197" stroke="#2A2A2A" stroke-width="0.25" stroke-miterlimit="10"/>
<path d="M51.0068 69.6165C50.8293 69.7272 50.7504 70.097 50.8448 70.3266" stroke="#2A2A2A" stroke-width="0.25" stroke-miterlimit="10"/>
<path d="M50.236 69.4729C50.0289 69.7163 50.0365 69.9173 50.0594 70.1987" stroke="#2A2A2A" stroke-width="0.25" stroke-miterlimit="10"/>
<path d="M56.171 64.0471C56.4595 65.953 56.6792 67.4165 57.5132 68.5683C57.9062 68.5787 58.3232 68.8782 58.4173 69.2138C58.5418 69.6558 58.1479 70.2923 57.7431 69.7737C57.6603 70.1858 57.1772 70.3317 56.9611 69.9082C56.8577 70.2072 56.696 70.2842 56.3561 70.2372C55.9186 69.9096 56.3037 69.1962 56.0454 68.5183C55.7298 67.6898 55.5127 67.003 55.2368 66.058" fill="white"/>
<path d="M56.171 64.0471C56.4595 65.953 56.6792 67.4165 57.5132 68.5683C57.9062 68.5787 58.3232 68.8782 58.4173 69.2138C58.5418 69.6558 58.1479 70.2923 57.7431 69.7737C57.6603 70.1858 57.1772 70.3317 56.9611 69.9082C56.8577 70.2072 56.696 70.2842 56.3561 70.2372C55.9186 69.9096 56.3037 69.1962 56.0454 68.5183C55.7298 67.6898 55.5127 67.003 55.2368 66.058" stroke="#2A2A2A" stroke-width="0.25" stroke-miterlimit="10"/>
<path d="M56.7913 69.1924C56.9699 69.3031 57.0537 69.6701 56.9627 69.8973" stroke="#2A2A2A" stroke-width="0.25" stroke-miterlimit="10"/>
<path d="M57.5591 69.0552C57.7685 69.2971 57.7633 69.4968 57.7441 69.7753" stroke="#2A2A2A" stroke-width="0.25" stroke-miterlimit="10"/>
<path d="M56.0561 59.9989C56.0561 59.9989 56.4041 60.2657 56.3879 60.1161C56.5812 59.5461 56.286 58.5328 56.1527 58.2904L56.0464 57.894C55.7496 57.8781 55.3891 57.6133 55.068 57.5159C54.7116 57.408 54.2806 57.4018 53.903 57.4046H53.8553C53.4776 57.4016 53.047 57.4077 52.6901 57.5159C52.3691 57.6133 52.0085 57.8781 51.7119 57.894L51.6054 58.2904C51.3662 58.726 51.3971 59.4194 51.5814 60.1565C51.3392 60.3136 51.1232 60.5143 51.1232 61.0295C51.1233 61.3558 51.2083 61.9097 51.5594 62.195C52.1038 62.6379 52.4407 62.3407 52.5104 62.4864C52.775 63.04 52.9743 63.245 53.4942 63.3494C53.5332 63.3573 53.5783 63.3497 53.6269 63.3325C53.8219 63.3867 54.0336 63.3958 54.2637 63.3494C54.7837 63.245 54.9832 63.04 55.2477 62.4864C55.3172 62.3404 55.6543 62.6379 56.199 62.195C56.5497 61.9097 56.6348 61.3556 56.6349 61.0295C56.6351 60.391 56.3578 60.1867 56.0561 59.9989Z" stroke="#2A2A2A" stroke-width="0.25" stroke-miterlimit="10"/>
<path d="M55.4981 59.5675C55.5688 59.3197 55.3395 59.1254 55.0493 59.1533C54.7975 59.1777 54.6176 59.2966 54.6176 59.5579C54.7951 59.5204 54.8567 59.7256 55.034 59.7347C55.239 59.7453 55.415 59.6893 55.4981 59.5675Z" stroke="#2A2A2A" stroke-width="0.25" stroke-miterlimit="10" stroke-linecap="round" stroke-linejoin="round"/>
<path d="M54.8408 59.2403C54.7554 59.5098 54.9576 59.9142 55.2472 59.6465C55.4716 59.4391 55.1728 58.9356 54.894 59.1873" fill="#2A2A2A"/>
<path d="M52.6661 59.5675C52.5955 59.3197 52.8153 59.1254 53.1054 59.1533C53.3573 59.1777 53.5469 59.2966 53.5469 59.5579C53.3694 59.5204 53.3076 59.7256 53.1303 59.7347C52.9252 59.7453 52.749 59.6893 52.6661 59.5675Z" stroke="#2A2A2A" stroke-width="0.25" stroke-miterlimit="10" stroke-linecap="round" stroke-linejoin="round"/>
<path d="M53.3229 59.2403C53.4083 59.5098 53.2062 59.9142 52.9166 59.6465C52.6923 59.4391 52.9909 58.9356 53.2696 59.1873" fill="#2A2A2A"/>
<path d="M54.9534 60.4405C54.8867 60.2897 54.7741 60.2026 54.6449 60.1486C54.623 60.1309 54.5943 60.1151 54.5561 60.1006C54.397 60.0409 54.2247 60.0423 54.0565 60.0518C53.8884 60.0423 53.716 60.041 53.5571 60.1006C53.5185 60.1148 53.4906 60.1309 53.468 60.1486C53.339 60.2024 53.2265 60.2897 53.1595 60.4405C53.0204 60.7543 53.4179 60.6416 53.6179 60.657C53.6571 60.6967 53.6745 60.7576 53.6958 60.8376C53.728 60.9601 53.7745 61.0538 53.8687 61.1228C53.9236 61.1817 53.9866 61.2066 54.0568 61.201C54.1271 61.2066 54.1902 61.1817 54.245 61.1228C54.339 61.0538 54.3857 60.9601 54.4179 60.8376C54.439 60.7575 54.4564 60.6967 54.4956 60.657C54.6951 60.6416 55.0928 60.7543 54.9534 60.4405Z" fill="#2A2A2A"/>
<path d="M54.6449 62.0647C54.8037 62.3816 54.8055 62.6701 54.7048 63.0223C54.6075 63.3627 54.2664 63.7003 53.8314 63.5515C53.5457 63.4539 53.4542 63.1711 53.4545 62.9132C53.4548 62.7194 53.4185 62.434 53.465 62.2562" stroke="#2A2A2A" stroke-width="0.25" stroke-miterlimit="10"/>
<path d="M54.1483 62.1028C54.169 62.4428 54.1272 62.7824 54.0773 63.1179" stroke="#2A2A2A" stroke-width="0.25" stroke-miterlimit="10" stroke-linecap="round" stroke-linejoin="round"/>
<path d="M55.2203 62.1482C54.7762 62.2726 54.1342 61.9321 54.0728 61.394C53.9841 61.7735 53.7825 62.06 53.468 62.2539C53.2987 62.3287 52.8278 62.2066 52.679 61.9267" stroke="#2A2A2A" stroke-width="0.25" stroke-miterlimit="10"/>
<path d="M52.8321 60.6062C52.6073 60.7099 52.2278 60.8337 52.3066 61.3944" stroke="#2A2A2A" stroke-width="0.25" stroke-miterlimit="10"/>
<path d="M55.3253 60.6062C55.55 60.7099 55.9295 60.8337 55.8505 61.3944" stroke="#2A2A2A" stroke-width="0.25" stroke-miterlimit="10"/>
<path d="M52.6975 57.7312C51.9759 58.1726 51.8317 57.2484 51.123 57.4811C50.4926 57.6879 50.4226 58.5466 50.4201 59.1945C50.4189 59.5837 50.5145 59.976 50.5313 60.3652C50.5484 60.7525 50.4507 61.3297 50.9706 60.9889C51.2036 60.8362 51.3781 60.4472 51.5768 60.2319C51.8332 59.9541 52.085 59.7727 52.1702 59.363C52.2244 59.1032 52.2221 58.7592 52.1702 58.5237" stroke="#2A2A2A" stroke-width="0.25" stroke-miterlimit="10"/>
<path d="M51.6301 59.6902C51.5486 60.0064 51.15 60.1542 51.0002 60.4516" stroke="#2A2A2A" stroke-width="0.25" stroke-miterlimit="10" stroke-linecap="round" stroke-linejoin="round"/>
<path d="M55.2406 57.759C56.0013 58.3064 56.2317 57.4489 56.9406 57.6817C57.571 57.8885 57.5954 58.5464 57.5977 59.1943C57.5992 59.5835 57.5032 59.9758 57.4863 60.365C57.4693 60.7523 57.5671 61.3294 57.0471 60.9887C56.8142 60.836 56.6396 60.447 56.4407 60.2317C56.1847 59.9538 55.999 59.9288 56.1042 59.5241C56.1574 59.3193 56.1898 58.7306 55.8474 58.5238" stroke="#2A2A2A" stroke-width="0.25" stroke-miterlimit="10"/>
<path d="M56.3882 59.6902C56.4696 60.0064 56.8682 60.1542 57.0178 60.4516" stroke="#2A2A2A" stroke-width="0.25" stroke-miterlimit="10" stroke-linecap="round" stroke-linejoin="round"/>
<path d="M55.4697 64.3948C55.5257 64.565 55.573 64.745 55.6166 64.9275C55.5895 64.9375 55.5635 64.9237 55.5369 64.9346C55.5585 65.0615 55.5776 65.2165 55.5953 65.3458C55.5748 65.3539 55.5364 65.3344 55.532 65.3363C55.601 65.7546 55.6317 66.2722 55.406 66.633" stroke="#2A2A2A" stroke-width="0.25" stroke-miterlimit="10"/>
<path d="M54.5519 59.6902C54.5162 59.8853 54.668 59.9262 54.7292 60.0007" stroke="#2A2A2A" stroke-width="0.25" stroke-miterlimit="10" stroke-linecap="round" stroke-linejoin="round"/>
<path d="M53.547 59.7185C53.547 59.8809 53.4012 59.9561 53.343 60.0471" stroke="#2A2A2A" stroke-width="0.25" stroke-miterlimit="10" stroke-linecap="round" stroke-linejoin="round"/>
<path d="M31.6123 63.5095C31.6123 63.8171 29.9875 64.5861 29.6793 64.5861H23.7788C23.4706 64.5861 22.1399 64.3372 22.1399 64.0295L23.1945 61.0331C23.4426 60.411 23.6473 60.2549 24.2191 60.2549H28.3521L31.6123 63.5095Z" fill="#F5F5F5" stroke="#2A2A2A" stroke-width="0.25" stroke-miterlimit="10"/>
<path d="M24.6173 60.687L24.2965 60.6873C24.0255 60.6873 23.798 60.9027 23.6884 61.1929L22.8011 63.7029C22.8011 63.9608 23.2973 64.3179 23.5668 64.3179L24.6172 64.3176V60.687H24.6173Z" fill="#F5F5F5" stroke="#2A2A2A" stroke-width="0.25" stroke-miterlimit="10"/>
<path d="M28.1823 60.6863L24.9481 60.6869V64.3171L28.7321 64.3168C29.0018 64.3168 31.0111 63.7677 31.0108 63.51L28.1823 60.6863Z" fill="#F5F5F5" stroke="#2A2A2A" stroke-width="0.25" stroke-miterlimit="10"/>
<path d="M30.3153 65.7057C30.3153 65.902 30.4749 66.0612 30.6715 66.0612H33.2182C33.4149 66.0612 33.5744 65.902 33.5744 65.7057V63.4691C33.5744 63.2728 33.4149 63.1135 33.2182 63.1135H30.6715C30.4749 63.1135 30.3153 63.2726 30.3153 63.4691V65.7057Z" fill="#F5F5F5" stroke="#2A2A2A" stroke-width="0.25" stroke-miterlimit="10"/>
<path d="M32.5726 63.0957L32.0114 63.0928H21.8225V66.8483H33.5749V64.3434C32.6831 64.3434 32.5726 63.4646 32.5726 63.0957Z" fill="#F5F5F5" stroke="#2A2A2A" stroke-width="0.25" stroke-miterlimit="10"/>
<path d="M31.2952 67.9585C32.1136 67.9585 32.777 67.2963 32.777 66.4792C32.777 65.6626 32.1136 65 31.2952 65C30.4769 65 29.8135 65.6626 29.8135 66.4792C29.8135 67.2963 30.4769 67.9585 31.2952 67.9585Z" fill="#F5F5F5" stroke="#2A2A2A" stroke-width="0.25" stroke-miterlimit="10"/>
<path d="M31.2945 67.1942C31.6901 67.1942 32.0107 66.8743 32.0107 66.4793C32.0107 66.0843 31.6901 65.7644 31.2945 65.7644C30.8989 65.7644 30.5782 66.0843 30.5782 66.4793C30.5782 66.8743 30.8989 67.1942 31.2945 67.1942Z" fill="#F5F5F5" stroke="#2A2A2A" stroke-width="0.25" stroke-miterlimit="10"/>
<path d="M24.1599 67.9582C24.9782 67.9582 25.6417 67.2961 25.6417 66.4795C25.6417 65.6624 24.9782 65.0002 24.1599 65.0002C23.3415 65.0002 22.6781 65.6624 22.6781 66.4795C22.6781 67.2961 23.3415 67.9582 24.1599 67.9582Z" fill="#F5F5F5" stroke="#2A2A2A" stroke-width="0.25" stroke-miterlimit="10"/>
<path d="M24.1597 67.1942C24.5553 67.1942 24.876 66.8743 24.876 66.4793C24.876 66.0848 24.5553 65.7644 24.1597 65.7644C23.7641 65.7644 23.4434 66.0848 23.4434 66.4793C23.4434 66.8743 23.7641 67.1942 24.1597 67.1942Z" fill="#F5F5F5" stroke="#2A2A2A" stroke-width="0.25" stroke-miterlimit="10"/>
<path d="M21.8632 64.6472C21.8632 64.7893 21.9522 64.9053 22.0616 64.9053H22.1152C22.2249 64.9053 22.3138 64.7893 22.3138 64.6472V64.0604C22.3138 63.9178 22.2249 63.802 22.1152 63.802H22.0616C21.9522 63.802 21.8632 63.9178 21.8632 64.0604V64.6472Z" fill="#F5F5F5" stroke="#2A2A2A" stroke-width="0.25" stroke-miterlimit="10"/>
<path d="M25.469 63.4778C25.3262 63.4778 25.2104 63.5663 25.2104 63.6759V63.7297C25.2104 63.8394 25.326 63.9279 25.469 63.9279H26.0562C26.199 63.9279 26.3148 63.8394 26.3148 63.7297V63.6759C26.3148 63.5663 26.1991 63.4778 26.0562 63.4778H25.469Z" fill="#F5F5F5" stroke="#2A2A2A" stroke-width="0.25" stroke-miterlimit="10"/>
<path d="M33.8062 65.8503H32.9436V66.8481H33.8062V65.8503Z" fill="#F5F5F5" stroke="#2A2A2A" stroke-width="0.25" stroke-miterlimit="10"/>
<path d="M22.5207 65.8503H21.6577V66.8481H22.5207V65.8503Z" fill="#F5F5F5" stroke="#2A2A2A" stroke-width="0.25" stroke-miterlimit="10"/>
<path d="M34.6871 21.6432C34.6685 21.6781 34.6398 21.6955 34.601 21.6955C34.5777 21.6955 34.5513 21.6868 34.5218 21.6694C34.4923 21.652 34.4558 21.6329 34.4123 21.6124C34.3704 21.5902 34.3199 21.5704 34.2609 21.5529C34.202 21.5339 34.1321 21.5244 34.0513 21.5244C33.9815 21.5244 33.9186 21.5339 33.8627 21.5529C33.8068 21.5704 33.7587 21.5949 33.7183 21.6266C33.6795 21.6583 33.6492 21.6955 33.6275 21.7383C33.6073 21.7795 33.5972 21.8247 33.5972 21.8738C33.5972 21.9356 33.6143 21.9871 33.6484 22.0283C33.6842 22.0695 33.7307 22.1051 33.7882 22.1352C33.8457 22.1653 33.9109 22.1923 33.9838 22.216C34.0568 22.2382 34.1313 22.2628 34.2074 22.2897C34.285 22.315 34.3603 22.3436 34.4333 22.3753C34.5063 22.407 34.5715 22.4466 34.6289 22.4941C34.6864 22.5416 34.7322 22.6002 34.7663 22.67C34.802 22.7381 34.8199 22.8205 34.8199 22.9171C34.8199 23.028 34.8005 23.131 34.7616 23.2261C34.7228 23.3196 34.6654 23.4012 34.5893 23.4709C34.5132 23.539 34.4201 23.5929 34.3098 23.6325C34.1996 23.6721 34.0723 23.6919 33.9279 23.6919C33.7633 23.6919 33.6143 23.665 33.4808 23.6111C33.3473 23.5557 33.2339 23.4852 33.1407 23.3996L33.2386 23.238C33.251 23.2174 33.2658 23.2015 33.2828 23.1905C33.2999 23.1794 33.3217 23.1738 33.348 23.1738C33.376 23.1738 33.4055 23.1849 33.4365 23.2071C33.4676 23.2293 33.5048 23.2538 33.5483 23.2808C33.5933 23.3077 33.6477 23.3323 33.7113 23.3545C33.775 23.3767 33.8542 23.3877 33.9489 23.3877C34.0296 23.3877 34.1002 23.3774 34.1608 23.3568C34.2213 23.3346 34.2718 23.3054 34.3122 23.2689C34.3526 23.2324 34.382 23.1905 34.4007 23.1429C34.4209 23.0954 34.4309 23.0447 34.4309 22.9908C34.4309 22.9243 34.4131 22.8696 34.3774 22.8268C34.3432 22.7825 34.2975 22.7452 34.24 22.7151C34.1825 22.6834 34.1165 22.6565 34.042 22.6343C33.9691 22.6106 33.8938 22.586 33.8161 22.5606C33.7401 22.5353 33.6647 22.5068 33.5902 22.4751C33.5173 22.4418 33.4521 22.4006 33.3946 22.3515C33.3372 22.3024 33.2906 22.2422 33.2549 22.1709C33.2207 22.098 33.2036 22.0101 33.2036 21.9071C33.2036 21.8152 33.2223 21.7272 33.2595 21.6432C33.2968 21.5577 33.3511 21.4832 33.4225 21.4198C33.494 21.3549 33.5817 21.3034 33.6857 21.2654C33.7898 21.2273 33.9085 21.2083 34.042 21.2083C34.1973 21.2083 34.3363 21.2337 34.4589 21.2844C34.5831 21.3335 34.6902 21.4016 34.7803 21.4888L34.6871 21.6432ZM35.9313 21.5672C36.0322 21.4579 36.144 21.3707 36.2667 21.3058C36.3893 21.2408 36.5306 21.2083 36.6905 21.2083C36.8194 21.2083 36.9327 21.2305 37.0305 21.2749C37.1299 21.3176 37.2122 21.3794 37.2774 21.4602C37.3441 21.5395 37.3946 21.6353 37.4288 21.7478C37.4629 21.8603 37.48 21.9847 37.48 22.121V23.6539H37.0631V22.121C37.0631 21.9388 37.022 21.7977 36.9397 21.6979C36.859 21.5965 36.7355 21.5458 36.5694 21.5458C36.4468 21.5458 36.3319 21.5759 36.2247 21.6361C36.1191 21.6963 36.0213 21.7779 35.9313 21.8809V23.6539H35.5144V20.1531H35.9313V21.5672ZM39.5765 22.5702C39.3856 22.5765 39.2226 22.5924 39.0875 22.6177C38.9539 22.6415 38.8445 22.6732 38.7591 22.7128C38.6753 22.7523 38.6139 22.7991 38.5751 22.853C38.5379 22.9068 38.5192 22.9671 38.5192 23.0336C38.5192 23.097 38.5293 23.1516 38.5495 23.1976C38.5697 23.2436 38.5969 23.2816 38.631 23.3117C38.6667 23.3402 38.7079 23.3616 38.7544 23.3758C38.8026 23.3885 38.8538 23.3949 38.9082 23.3949C38.9811 23.3949 39.0479 23.3877 39.1084 23.3735C39.169 23.3576 39.2257 23.3354 39.2784 23.3069C39.3328 23.2784 39.384 23.2443 39.4321 23.2047C39.4818 23.1651 39.53 23.12 39.5765 23.0693V22.5702ZM38.2374 21.5862C38.3679 21.4579 38.5084 21.362 38.659 21.2986C38.8095 21.2353 38.9765 21.2036 39.1597 21.2036C39.2916 21.2036 39.4089 21.2257 39.5113 21.2701C39.6138 21.3145 39.7 21.3763 39.7698 21.4555C39.8397 21.5347 39.8925 21.6306 39.9282 21.7431C39.9639 21.8556 39.9818 21.9792 39.9818 22.1138V23.6539H39.7978C39.7574 23.6539 39.7264 23.6476 39.7046 23.6349C39.6829 23.6206 39.6658 23.5937 39.6534 23.5541L39.6068 23.3259C39.5447 23.3845 39.4842 23.4368 39.4252 23.4828C39.3661 23.5271 39.3041 23.5652 39.2389 23.5969C39.1736 23.627 39.1038 23.65 39.0293 23.6658C38.9563 23.6832 38.8748 23.6919 38.7847 23.6919C38.6931 23.6919 38.6069 23.6793 38.5262 23.6539C38.4455 23.627 38.3748 23.5874 38.3143 23.5351C38.2553 23.4828 38.208 23.4171 38.1722 23.3378C38.1381 23.257 38.121 23.1619 38.121 23.0526C38.121 22.9575 38.1466 22.8664 38.1978 22.7793C38.2491 22.6906 38.3321 22.6121 38.447 22.544C38.5619 22.4759 38.7117 22.4204 38.8965 22.3776C39.0813 22.3333 39.3079 22.3079 39.5765 22.3016V22.1138C39.5765 21.9269 39.5369 21.7859 39.4578 21.6908C39.3786 21.5941 39.2629 21.5458 39.1108 21.5458C39.0083 21.5458 38.9221 21.5593 38.8523 21.5862C38.7839 21.6116 38.7242 21.6409 38.6729 21.6741C38.6232 21.7058 38.5798 21.7351 38.5425 21.7621C38.5068 21.7874 38.4711 21.8001 38.4354 21.8001C38.4074 21.8001 38.3834 21.793 38.3632 21.7787C38.343 21.7629 38.3259 21.7439 38.312 21.7217L38.2374 21.5862ZM41.2164 23.074C41.2925 23.1786 41.3755 23.2523 41.4656 23.295C41.5556 23.3378 41.6565 23.3592 41.7683 23.3592C41.9888 23.3592 42.158 23.2792 42.276 23.1192C42.394 22.9591 42.453 22.731 42.453 22.4347C42.453 22.2778 42.439 22.1432 42.4111 22.0306C42.3847 21.9181 42.3459 21.8263 42.2947 21.755C42.2434 21.6821 42.1805 21.629 42.106 21.5957C42.0315 21.5624 41.9469 21.5458 41.8522 21.5458C41.7171 21.5458 41.5983 21.5775 41.4959 21.6409C41.3949 21.7042 41.3018 21.7938 41.2164 21.9094V23.074ZM41.1954 21.6195C41.2948 21.4943 41.4097 21.3937 41.5401 21.3176C41.6705 21.2416 41.8196 21.2036 41.9872 21.2036C42.1239 21.2036 42.2473 21.2305 42.3575 21.2844C42.4678 21.3367 42.5617 21.4151 42.6393 21.5197C42.717 21.6227 42.7767 21.751 42.8187 21.9047C42.8606 22.0584 42.8815 22.235 42.8815 22.4347C42.8815 22.6121 42.8582 22.7777 42.8117 22.9314C42.7651 23.0835 42.6976 23.2158 42.6091 23.3283C42.5221 23.4392 42.415 23.5271 42.2877 23.5921C42.1619 23.6555 42.0199 23.6872 41.8615 23.6872C41.7171 23.6872 41.5929 23.6626 41.4889 23.6135C41.3864 23.5628 41.2956 23.4931 41.2164 23.4044V24.4691H40.7995V21.2463H41.0487C41.1077 21.2463 41.1442 21.2757 41.1582 21.3343L41.1954 21.6195ZM45.1757 22.1875C45.1757 22.0893 45.1617 21.9998 45.1338 21.9189C45.1074 21.8366 45.0678 21.766 45.015 21.7074C44.9638 21.6472 44.9009 21.6013 44.8264 21.5696C44.7519 21.5363 44.6672 21.5197 44.5725 21.5197C44.3738 21.5197 44.2162 21.5791 44.0998 21.6979C43.9849 21.8152 43.9135 21.9784 43.8855 22.1875H45.1757ZM45.5111 23.3164C45.4598 23.3798 45.3985 23.4353 45.3271 23.4828C45.2556 23.5288 45.1788 23.5668 45.0965 23.5969C45.0158 23.627 44.9319 23.6492 44.845 23.6634C44.758 23.6793 44.6719 23.6872 44.5865 23.6872C44.4235 23.6872 44.2729 23.6595 44.1347 23.604C43.998 23.547 43.8793 23.4646 43.7784 23.3568C43.679 23.2475 43.6014 23.1128 43.5455 22.9528C43.4896 22.7928 43.4617 22.609 43.4617 22.4014C43.4617 22.2335 43.4865 22.0766 43.5362 21.9308C43.5874 21.785 43.6604 21.6591 43.7551 21.5529C43.8498 21.4452 43.9654 21.3612 44.1021 21.301C44.2387 21.2392 44.3924 21.2083 44.5632 21.2083C44.7045 21.2083 44.8349 21.2329 44.9545 21.282C45.0756 21.3295 45.1796 21.3992 45.2665 21.4911C45.355 21.5815 45.4241 21.694 45.4738 21.8286C45.5235 21.9617 45.5483 22.1138 45.5483 22.285C45.5483 22.3515 45.5413 22.3958 45.5274 22.418C45.5134 22.4402 45.487 22.4513 45.4482 22.4513H43.8715C43.8762 22.6034 43.8964 22.7357 43.9321 22.8482C43.9694 22.9607 44.0206 23.055 44.0858 23.131C44.151 23.2055 44.2286 23.2618 44.3187 23.2998C44.4087 23.3362 44.5096 23.3545 44.6214 23.3545C44.7254 23.3545 44.8147 23.3426 44.8893 23.3188C44.9653 23.2935 45.0305 23.2665 45.0849 23.238C45.1392 23.2095 45.1842 23.1833 45.22 23.1596C45.2572 23.1342 45.289 23.1215 45.3154 23.1215C45.3496 23.1215 45.376 23.135 45.3946 23.1619L45.5111 23.3164Z" fill="#2A2A2A"/>
<path d="M41.7871 31.5137L48.057 37.7285C48.0484 37.7395 48.038 37.7519 48.0256 37.7657C47.9529 37.8466 47.8403 37.9436 47.6912 38.0523C47.3943 38.2687 46.9853 38.5079 46.5502 38.7321C46.1164 38.9556 45.6645 39.16 45.2856 39.3079C45.096 39.382 44.9275 39.4407 44.7904 39.4805C44.6464 39.5224 44.5585 39.5368 44.5202 39.5368H32.8266C32.5529 39.5368 31.7651 39.4204 31.0385 39.2246C30.677 39.1272 30.3477 39.0145 30.1138 38.8951C29.9961 38.835 29.9153 38.7795 29.8674 38.7329C29.8545 38.7204 29.8457 38.7102 29.8397 38.7024L31.9023 32.8834C32.1451 32.28 32.3483 31.9551 32.5938 31.7698C32.8324 31.5898 33.1494 31.5137 33.6992 31.5137H41.7871Z" fill="#FCFCFC" stroke="#2A2A2A" stroke-width="0.5" stroke-miterlimit="10"/>
<path d="M34.487 32.114L33.8513 32.1146C33.3143 32.1146 32.8632 32.5385 32.6461 33.1095L30.8877 38.0486C30.8877 38.556 31.8711 39.2585 32.4052 39.2585L34.4867 39.258V32.114H34.487Z" fill="#FCFCFC" stroke="#2A2A2A" stroke-width="0.5" stroke-miterlimit="10"/>
<path d="M41.553 32.1111L35.1434 32.1121V39.2556L42.6426 39.2551C43.1773 39.2551 47.1592 38.1745 47.1586 37.6673L41.553 32.1111Z" fill="#FCFCFC" stroke="#2A2A2A" stroke-width="0.5" stroke-miterlimit="10"/>
<path d="M45.7805 41.9879C45.7805 42.3739 46.0968 42.6872 46.4865 42.6872H51.5335C51.9235 42.6872 52.2395 42.3737 52.2395 41.9879V37.5866C52.2395 37.2003 51.9235 36.887 51.5335 36.887H46.4865C46.0968 36.887 45.7805 37.2 45.7805 37.5866V41.9879Z" fill="#FCFCFC" stroke="#2A2A2A" stroke-width="0.5" stroke-miterlimit="10"/>
<path d="M50.2531 36.854L49.1409 36.8484H28.9484V44.2386L52.2394 44.2383V39.3092C50.472 39.3092 50.2531 37.58 50.2531 36.854Z" fill="#FCFCFC" stroke="#2A2A2A" stroke-width="0.5" stroke-miterlimit="10"/>
<path d="M47.7208 46.4228C49.3427 46.4228 50.6575 45.1196 50.6575 43.5121C50.6575 41.9045 49.3427 40.6013 47.7208 40.6013C46.099 40.6013 44.7842 41.9045 44.7842 43.5121C44.7842 45.1196 46.099 46.4228 47.7208 46.4228Z" fill="#FCFCFC" stroke="#2A2A2A" stroke-width="0.5" stroke-miterlimit="10"/>
<path d="M47.7214 44.9181C48.5053 44.9181 49.1407 44.2882 49.1407 43.5113C49.1407 42.7344 48.5053 42.1045 47.7214 42.1045C46.9375 42.1045 46.302 42.7344 46.302 43.5113C46.302 44.2882 46.9375 44.9181 47.7214 44.9181Z" fill="#FCFCFC" stroke="#2A2A2A" stroke-width="0.5" stroke-miterlimit="10"/>
<path d="M33.5804 46.4225C35.2023 46.4225 36.517 45.1194 36.517 43.512C36.517 41.9046 35.2023 40.6016 33.5804 40.6016C31.9585 40.6016 30.6438 41.9046 30.6438 43.512C30.6438 45.1194 31.9585 46.4225 33.5804 46.4225Z" fill="#FCFCFC" stroke="#2A2A2A" stroke-width="0.5" stroke-miterlimit="10"/>
<path d="M33.58 44.918C34.364 44.918 34.9996 44.2883 34.9996 43.5115C34.9996 42.7347 34.364 42.105 33.58 42.105C32.7959 42.105 32.1603 42.7347 32.1603 43.5115C32.1603 44.2883 32.7959 44.918 33.58 44.918Z" fill="#FCFCFC" stroke="#2A2A2A" stroke-width="0.5" stroke-miterlimit="10"/>
<path d="M29.0302 39.9053C29.0302 40.1856 29.2065 40.4135 29.4234 40.4135H29.5296C29.747 40.4135 29.9231 40.1856 29.9231 39.9053V38.7512C29.9231 38.4706 29.747 38.2427 29.5296 38.2427H29.4234C29.2065 38.2427 29.0302 38.4706 29.0302 38.7512V39.9053Z" fill="#FCFCFC" stroke="#2A2A2A" stroke-width="0.5" stroke-miterlimit="10"/>
<path d="M36.1739 37.604C35.891 37.604 35.6615 37.7782 35.6615 37.9938V38.0996C35.6615 38.3154 35.8905 38.4896 36.1739 38.4896H37.3376C37.6206 38.4896 37.8501 38.3154 37.8501 38.0996V37.9938C37.8501 37.7782 37.6208 37.604 37.3376 37.604H36.1739Z" fill="#FCFCFC" stroke="#2A2A2A" stroke-width="0.5" stroke-miterlimit="10"/>
<path d="M52.6982 42.2744H50.9888V44.2383H52.6982V42.2744Z" fill="#FCFCFC" stroke="#2A2A2A" stroke-width="0.5" stroke-miterlimit="10"/>
<path d="M30.3327 42.2744H28.6224V44.2385H30.3327V42.2744Z" fill="#FCFCFC" stroke="#2A2A2A" stroke-width="0.5" stroke-miterlimit="10"/>
</g>
<path d="M36.4174 77.0069C35.7145 77.0069 35.1339 77.4347 34.8894 78.046H34.7671V77.2819C34.7671 76.3652 34.0337 75.6318 33.1169 75.6318C32.2001 75.6318 31.4667 76.3652 31.4667 77.2819V76.1513C31.4667 75.2345 30.7333 74.501 29.8165 74.501C28.8997 74.501 28.1663 75.2345 28.1663 76.1513V70.62C28.1663 69.7032 27.4329 68.9697 26.5161 68.9697C25.5993 68.9697 24.8658 69.7032 24.8658 70.62V77.4042C24.8658 77.4042 24.7742 81.2853 24.9881 83.2716C25.2326 86.6637 28.0746 89.353 31.5278 89.353C35.1339 89.353 38.0371 86.4804 38.0981 82.8744C38.1287 82.8438 38.1287 82.7827 38.1287 82.7216V80.2157V78.7183V78.6266C38.0676 77.7404 37.3342 77.0069 36.4174 77.0069Z" fill="#B3B6BF"/>
<path d="M34.8915 78.0502V78.5444H35.2261L35.3503 78.2337L34.8915 78.0502ZM34.7693 78.0502H34.2751V78.5444H34.7693V78.0502ZM24.868 77.4084L25.362 77.4201L25.3622 77.4142V77.4084H24.868ZM24.9902 83.2758L25.4831 83.2403L25.4825 83.2316L25.4816 83.2229L24.9902 83.2758ZM38.1003 82.8786L37.7508 82.5291L37.6095 82.6704L37.6062 82.8702L38.1003 82.8786ZM38.1309 78.6308H38.625V78.6138L38.6239 78.5968L38.1309 78.6308ZM36.4195 76.5169C35.5046 76.5169 34.7484 77.0772 34.4327 77.8666L35.3503 78.2337C35.5236 77.8007 35.9287 77.5053 36.4195 77.5053V76.5169ZM34.8915 77.556H34.7693V78.5444H34.8915V77.556ZM35.2635 78.0502V77.2861H34.2751V78.0502H35.2635ZM35.2635 77.2861C35.2635 76.0965 34.3088 75.1418 33.119 75.1418V76.1302C33.7629 76.1302 34.2751 76.6423 34.2751 77.2861H35.2635ZM33.119 75.1418C31.9294 75.1418 30.9747 76.0965 30.9747 77.2861H31.9631C31.9631 76.6423 32.4752 76.1302 33.119 76.1302V75.1418ZM31.9631 77.2861V76.1555H30.9747V77.2861H31.9631ZM31.9631 76.1555C31.9631 74.9657 31.0084 74.011 29.8186 74.011V74.9994C30.4625 74.9994 30.9747 75.5116 30.9747 76.1555H31.9631ZM29.8186 74.011C28.6289 74.011 27.6742 74.9657 27.6742 76.1555H28.6626C28.6626 75.5116 29.1748 74.9994 29.8186 74.9994V74.011ZM28.6626 76.1555V70.6242H27.6742V76.1555H28.6626ZM28.6626 70.6242C28.6626 69.4344 27.7079 68.4797 26.5182 68.4797V69.4681C27.162 69.4681 27.6742 69.9803 27.6742 70.6242H28.6626ZM26.5182 68.4797C25.3285 68.4797 24.3738 69.4344 24.3738 70.6242H25.3622C25.3622 69.9803 25.8743 69.4681 26.5182 69.4681V68.4797ZM24.3738 70.6242V77.4084H25.3622V70.6242H24.3738ZM24.868 77.4084C24.3739 77.3967 24.3739 77.3967 24.3739 77.3968C24.3739 77.3968 24.3739 77.3969 24.3739 77.397C24.3739 77.3971 24.3739 77.3973 24.3739 77.3976C24.3739 77.3981 24.3739 77.3988 24.3739 77.3998C24.3738 77.4018 24.3737 77.4047 24.3737 77.4085C24.3735 77.416 24.3732 77.4272 24.3729 77.4419C24.3723 77.4712 24.3714 77.5143 24.3703 77.5697C24.3682 77.6805 24.3655 77.8408 24.3628 78.0393C24.3575 78.4361 24.3528 78.9861 24.3547 79.5988C24.3585 80.8171 24.3888 82.3072 24.4988 83.3288L25.4816 83.2229C25.3777 82.2581 25.3469 80.8145 25.3431 79.5957C25.3412 78.9897 25.3459 78.4453 25.3511 78.0525C25.3538 77.856 25.3565 77.6976 25.3585 77.5884C25.3596 77.5338 25.3605 77.4916 25.3611 77.4631C25.3614 77.4488 25.3616 77.438 25.3618 77.4307C25.3619 77.4271 25.3619 77.4244 25.362 77.4226C25.362 77.4218 25.362 77.4211 25.362 77.4207C25.362 77.4204 25.362 77.4203 25.362 77.4202C25.362 77.4201 25.362 77.4201 25.362 77.4201C25.362 77.4201 25.362 77.4201 24.868 77.4084ZM24.4973 83.3114C24.7602 86.9599 27.8155 89.8514 31.5299 89.8514V88.863C28.338 88.863 25.7091 86.376 25.4831 83.2403L24.4973 83.3114ZM31.5299 89.8514C35.4075 89.8514 38.5287 86.7608 38.5944 82.8869L37.6062 82.8702C37.5496 86.2084 34.8645 88.863 31.5299 88.863V89.8514ZM38.4497 83.228C38.579 83.0987 38.6074 82.9454 38.6163 82.8835C38.626 82.8152 38.625 82.7472 38.625 82.7258H37.6367C37.6367 82.7426 37.6366 82.7498 37.6364 82.7552C37.6363 82.7604 37.6362 82.755 37.6378 82.7437C37.6393 82.7331 37.6439 82.7058 37.6577 82.6703C37.672 82.6337 37.6995 82.5804 37.7508 82.5291L38.4497 83.228ZM38.625 82.7258V80.2199H37.6367V82.7258H38.625ZM38.625 80.2199V78.7225H37.6367V80.2199H38.625ZM38.625 78.7225V78.6308H37.6367V78.7225H38.625ZM38.6239 78.5968C38.5458 77.4653 37.6097 76.5169 36.4195 76.5169V77.5053C37.0628 77.5053 37.5936 78.0238 37.6378 78.6648L38.6239 78.5968Z" fill="#2A2A2A"/>
<defs>
<filter id="filter0_d" x="0" y="0" width="84.8555" height="112.574" filterUnits="userSpaceOnUse" color-interpolation-filters="sRGB">
<feFlood flood-opacity="0" result="BackgroundImageFix"/>
<feColorMatrix in="SourceAlpha" type="matrix" values="0 0 0 0 0 0 0 0 0 0 0 0 0 0 0 0 0 0 127 0"/>
<feOffset dx="2" dy="3"/>
<feGaussianBlur stdDeviation="2"/>
<feColorMatrix type="matrix" values="0 0 0 0 0 0 0 0 0 0 0 0 0 0 0 0 0 0 0.05 0"/>
<feBlend mode="normal" in2="BackgroundImageFix" result="effect1_dropShadow"/>
<feBlend mode="normal" in="SourceGraphic" in2="effect1_dropShadow" result="shape"/>
</filter>
<clipPath id="clip0">
<rect width="46.5774" height="72.7262" fill="white" transform="translate(17 17)"/>
</clipPath>
</defs>
</svg>
