<svg width="85" height="113" viewBox="0 0 85 113" fill="none" xmlns="http://www.w3.org/2000/svg">
<g filter="url(#filter0_d_10591_534292)">
<rect x="2" y="1" width="76.8555" height="104.574" rx="10" fill="white"/>
<rect x="2.25" y="1.25" width="76.3555" height="104.074" rx="9.75" stroke="black" stroke-opacity="0.1" stroke-width="0.5"/>
</g>
<path d="M34.9688 50V56" stroke="black"/>
<path d="M38 53.0938H32" stroke="black"/>
<path d="M48 57C50.2091 57 52 55.2091 52 53C52 50.7909 50.2091 49 48 49C45.7909 49 44 50.7909 44 53C44 55.2091 45.7909 57 48 57Z" fill="#222222"/>
<path d="M48.0001 67C50.2092 67 52.0001 65.2091 52.0001 63C52.0001 60.7909 50.2092 59 48.0001 59C45.791 59 44.0001 60.7909 44.0001 63C44.0001 65.2091 45.791 67 48.0001 67Z" fill="#222222"/>
<path d="M58.0001 66.5C59.9331 66.5 61.5001 64.933 61.5001 63C61.5001 61.067 59.9331 59.5 58.0001 59.5C56.0671 59.5 54.5001 61.067 54.5001 63C54.5001 64.933 56.0671 66.5 58.0001 66.5Z" stroke="black"/>
<path d="M22 46.5C23.933 46.5 25.5 44.933 25.5 43C25.5 41.067 23.933 39.5 22 39.5C20.067 39.5 18.5 41.067 18.5 43C18.5 44.933 20.067 46.5 22 46.5Z" stroke="black"/>
<path d="M22 56.5C23.933 56.5 25.5 54.933 25.5 53C25.5 51.067 23.933 49.5 22 49.5C20.067 49.5 18.5 51.067 18.5 53C18.5 54.933 20.067 56.5 22 56.5Z" stroke="black"/>
<path d="M22 66.5C23.933 66.5 25.5 64.933 25.5 63C25.5 61.067 23.933 59.5 22 59.5C20.067 59.5 18.5 61.067 18.5 63C18.5 64.933 20.067 66.5 22 66.5Z" stroke="black"/>
<defs>
<filter id="filter0_d_10591_534292" x="0" y="0" width="84.8555" height="112.574" filterUnits="userSpaceOnUse" color-interpolation-filters="sRGB">
<feFlood flood-opacity="0" result="BackgroundImageFix"/>
<feColorMatrix in="SourceAlpha" type="matrix" values="0 0 0 0 0 0 0 0 0 0 0 0 0 0 0 0 0 0 127 0" result="hardAlpha"/>
<feOffset dx="2" dy="3"/>
<feGaussianBlur stdDeviation="2"/>
<feColorMatrix type="matrix" values="0 0 0 0 0 0 0 0 0 0 0 0 0 0 0 0 0 0 0.05 0"/>
<feBlend mode="normal" in2="BackgroundImageFix" result="effect1_dropShadow_10591_534292"/>
<feBlend mode="normal" in="SourceGraphic" in2="effect1_dropShadow_10591_534292" result="shape"/>
</filter>
</defs>
</svg>
