<svg width="125" height="125" viewBox="0 0 125 125" fill="none" xmlns="http://www.w3.org/2000/svg">
<g clip-path="url(#clip0_532_23750)">
<circle cx="78.6797" cy="70.0694" r="9.48003" fill="white" stroke="#4A5056"/>
<path d="M73.6523 69.8613C73.4452 69.8613 73.2773 70.0292 73.2773 70.2363C73.2773 70.4434 73.4452 70.6113 73.6523 70.6113L73.6523 69.8613ZM84.2831 70.5015C84.4296 70.355 84.4296 70.1176 84.2831 69.9712L81.8966 67.5847C81.7502 67.4382 81.5127 67.4382 81.3663 67.5847C81.2198 67.7311 81.2198 67.9686 81.3663 68.115L83.4876 70.2363L81.3663 72.3576C81.2198 72.5041 81.2198 72.7415 81.3663 72.888C81.5127 73.0344 81.7502 73.0344 81.8966 72.888L84.2831 70.5015ZM73.6523 70.6113L84.0179 70.6113L84.0179 69.8613L73.6523 69.8613L73.6523 70.6113Z" fill="#4A5056"/>
<circle cx="50.4799" cy="70.0693" r="9.48003" transform="rotate(-180 50.4799 70.0693)" fill="white" stroke="#4A5056"/>
<path d="M55.8418 70.6113C56.0489 70.6113 56.2168 70.4434 56.2168 70.2363C56.2168 70.0292 56.0489 69.8613 55.8418 69.8613L55.8418 70.6113ZM45.211 69.9712C45.0646 70.1176 45.0646 70.355 45.211 70.5015L47.5975 72.888C47.744 73.0344 47.9814 73.0344 48.1278 72.888C48.2743 72.7415 48.2743 72.5041 48.1278 72.3576L46.0065 70.2363L48.1278 68.115C48.2743 67.9686 48.2743 67.7311 48.1278 67.5847C47.9814 67.4382 47.744 67.4382 47.5975 67.5847L45.211 69.9712ZM55.8418 69.8613L45.4762 69.8613L45.4762 70.6113L55.8418 70.6113L55.8418 69.8613Z" fill="#4A5056"/>
<path d="M72.0935 22.1259C85.4691 23.1803 88.7557 32.81 88.4786 38.2723C87.6426 54.7482 67.5792 53.7597 66.7433 53.5949C65.9073 53.4301 54.5379 53.1006 45.6766 46.1808C36.8131 39.2592 42.6671 32.945 46.011 29.8695C49.2435 26.9039 58.7179 21.0714 72.0935 22.1259Z" stroke="#4A5056" stroke-width="1.5" stroke-linecap="round" stroke-dasharray="4 4"/>
<path d="M66.7581 87.8258C65.6187 87.8258 64.6774 88.5085 64.2811 89.4839H64.0829V88.2647C64.0829 86.8017 62.8939 85.6313 61.4077 85.6313C59.9215 85.6313 58.7325 86.8017 58.7325 88.2647V86.4603C58.7325 84.9973 57.5435 83.8269 56.0573 83.8269C54.5711 83.8269 53.3821 84.9973 53.3821 86.4603V77.6334C53.3821 76.1704 52.1931 75 50.7069 75C49.2206 75 48.0317 76.1704 48.0317 77.6334V88.4597C48.0317 88.4597 47.883 94.6532 48.2298 97.8231C48.6262 103.236 53.2335 107.528 58.8316 107.528C64.6774 107.528 69.3838 102.944 69.4829 97.1891C69.5324 97.1403 69.5324 97.0428 69.5324 96.9452V92.9463V90.5567V90.4104C69.4334 88.9962 68.2444 87.8258 66.7581 87.8258Z" fill="white" stroke="#4A5056" stroke-miterlimit="10" stroke-linejoin="round"/>
</g>
<defs>
<clipPath id="clip0_532_23750">
<rect width="125" height="125" fill="white"/>
</clipPath>
</defs>
</svg>
