<svg width="220" height="188" viewBox="0 0 220 188" fill="none" xmlns="http://www.w3.org/2000/svg">
<rect width="220" height="188" fill="#F6F6F6"/>
<path fill-rule="evenodd" clip-rule="evenodd" d="M115.508 46.3394C117.725 49.1055 118.161 52.9308 116.658 56.1465C116.47 56.5503 116.245 56.939 115.989 57.3124C115.608 57.8751 115.169 58.3855 114.685 58.839C114.719 58.8501 114.753 58.864 114.787 58.8812C115.876 59.4375 116.891 60.1309 117.807 60.9539C120.783 63.6285 122.488 67.53 122.503 71.5535C122.503 71.8049 122.293 72.0107 122.053 72.0107H121.962C120.76 72.0463 119.55 72.0344 118.343 72.0225C117.74 72.0166 117.138 72.0107 116.537 72.0107H109.58H106.86H99.5635H94.9951C94.7546 72.0107 94.5442 71.7973 94.5442 71.5535C94.5517 70.3647 94.6945 69.176 94.9875 68.0177C95.9794 64.0781 98.6844 60.71 102.261 58.8812C102.295 58.8639 102.331 58.8498 102.369 58.8387C100.673 57.2204 99.5976 54.9602 99.4963 52.5269C99.3385 48.755 101.578 45.1811 104.996 43.7104C108.633 42.1483 113.014 43.2227 115.508 46.3394ZM103.162 59.5131C102.205 60.0147 100.799 60.8037 100.052 61.4492C97.2569 63.8673 95.5945 67.3711 95.4487 71.0808C95.754 71.0711 96.0645 71.0808 96.3721 71.0905C96.5866 71.0972 96.7998 71.1039 97.0088 71.1039H100.495H107.483H110.196H117.469H121.587C121.559 70.2165 121.446 69.3402 121.241 68.4749C120.339 64.6573 117.557 61.1582 114.116 59.3903C114.1 59.3821 114.085 59.3736 114.071 59.3649C111.743 61.1866 108.6 61.826 105.718 60.8633C104.787 60.5533 103.927 60.0925 103.162 59.5131ZM115.918 55.6089C115.903 55.6307 115.889 55.6549 115.877 55.6817C114.366 58.9659 110.707 60.9014 107.191 60.2918C103.899 59.7203 101.232 57.1295 100.556 53.8071C99.8645 50.4314 101.405 46.8804 104.305 45.0897C107.318 43.2456 111.301 43.5961 113.93 45.9812C116.578 48.379 117.405 52.3384 115.918 55.6089Z" fill="#2A2A2A"/>
<g filter="url(#filter0_d)">
<rect x="113.862" y="82.771" width="34.9983" height="15.3629" rx="7.68144" stroke="#2A2A2A"/>
</g>
<rect x="70.5" y="82.771" width="34.9983" height="15.3629" rx="7.68144" fill="#9ACCAB" stroke="#2A2A2A"/>
<path d="M112.064 107.03C110.9 107.03 109.939 107.739 109.534 108.75H109.332V107.486C109.332 105.968 108.118 104.754 106.6 104.754C105.082 104.754 103.868 105.968 103.868 107.486V105.614C103.868 104.096 102.654 102.882 101.136 102.882C99.6185 102.882 98.4043 104.096 98.4043 105.614V96.4568C98.4043 94.939 97.1902 93.7249 95.6724 93.7249C94.1547 93.7249 92.9405 94.939 92.9405 96.4568V107.688C92.9405 107.688 92.7887 114.113 93.1428 117.402C93.5476 123.017 98.2526 127.469 103.969 127.469C109.939 127.469 114.745 122.714 114.847 116.744C114.897 116.693 114.897 116.592 114.897 116.491V112.342V109.863V109.712C114.796 108.245 113.582 107.03 112.064 107.03Z" fill="#9ACCAB"/>
<path d="M109.534 108.75V109.75H110.211L110.463 109.122L109.534 108.75ZM109.332 108.75H108.332V109.75H109.332V108.75ZM92.9405 107.688L93.9402 107.712L93.9405 107.7V107.688H92.9405ZM93.1428 117.402L94.1403 117.33L94.139 117.312L94.1371 117.295L93.1428 117.402ZM114.847 116.744L114.139 116.037L113.854 116.323L113.847 116.727L114.847 116.744ZM114.897 109.712H115.897V109.677L115.895 109.643L114.897 109.712ZM112.064 106.03C110.471 106.03 109.155 107.007 108.606 108.379L110.463 109.122C110.723 108.471 111.33 108.03 112.064 108.03V106.03ZM109.534 107.75H109.332V109.75H109.534V107.75ZM110.332 108.75V107.486H108.332V108.75H110.332ZM110.332 107.486C110.332 105.416 108.67 103.754 106.6 103.754V105.754C107.566 105.754 108.332 106.52 108.332 107.486H110.332ZM106.6 103.754C104.53 103.754 102.868 105.416 102.868 107.486H104.868C104.868 106.52 105.635 105.754 106.6 105.754V103.754ZM104.868 107.486V105.614H102.868V107.486H104.868ZM104.868 105.614C104.868 103.544 103.206 101.882 101.136 101.882V103.882C102.102 103.882 102.868 104.648 102.868 105.614H104.868ZM101.136 101.882C99.0663 101.882 97.4043 103.544 97.4043 105.614H99.4043C99.4043 104.648 100.171 103.882 101.136 103.882V101.882ZM99.4043 105.614V96.4568H97.4043V105.614H99.4043ZM99.4043 96.4568C99.4043 94.3868 97.7424 92.7249 95.6724 92.7249V94.7249C96.6379 94.7249 97.4043 95.4913 97.4043 96.4568H99.4043ZM95.6724 92.7249C93.6024 92.7249 91.9405 94.3868 91.9405 96.4568H93.9405C93.9405 95.4913 94.707 94.7249 95.6724 94.7249V92.7249ZM91.9405 96.4568V107.688H93.9405V96.4568H91.9405ZM92.9405 107.688C91.9408 107.664 91.9408 107.665 91.9408 107.665C91.9408 107.665 91.9408 107.665 91.9407 107.665C91.9407 107.665 91.9407 107.665 91.9407 107.666C91.9407 107.667 91.9407 107.668 91.9406 107.67C91.9406 107.673 91.9405 107.678 91.9403 107.684C91.94 107.697 91.9396 107.715 91.9391 107.74C91.938 107.788 91.9366 107.86 91.9348 107.952C91.9313 108.135 91.9268 108.401 91.9224 108.73C91.9136 109.388 91.9057 110.299 91.9089 111.315C91.9152 113.332 91.9653 115.807 92.1486 117.509L94.1371 117.295C93.9662 115.708 93.9152 113.326 93.9089 111.309C93.9057 110.307 93.9136 109.406 93.9222 108.757C93.9265 108.432 93.931 108.17 93.9345 107.99C93.9362 107.899 93.9376 107.83 93.9386 107.782C93.9391 107.759 93.9395 107.741 93.9398 107.729C93.9399 107.723 93.94 107.719 93.9401 107.716C93.9401 107.714 93.9402 107.713 93.9402 107.713C93.9402 107.712 93.9402 107.712 93.9402 107.712C93.9402 107.712 93.9402 107.712 93.9402 107.712C93.9402 107.712 93.9402 107.712 92.9405 107.688ZM92.1454 117.473C92.5876 123.608 97.724 128.469 103.969 128.469V126.469C98.7812 126.469 94.5076 122.427 94.1403 117.33L92.1454 117.473ZM103.969 128.469C110.489 128.469 115.736 123.273 115.846 116.761L113.847 116.727C113.755 122.155 109.39 126.469 103.969 126.469V128.469ZM115.554 117.451C115.81 117.195 115.864 116.893 115.881 116.778C115.899 116.649 115.897 116.523 115.897 116.491H113.897C113.897 116.56 113.895 116.535 113.901 116.495C113.905 116.469 113.915 116.409 113.945 116.333C113.975 116.255 114.033 116.144 114.139 116.037L115.554 117.451ZM115.897 116.491V112.342H113.897V116.491H115.897ZM115.897 112.342V109.863H113.897V112.342H115.897ZM115.897 109.863V109.712H113.897V109.863H115.897ZM115.895 109.643C115.759 107.68 114.135 106.03 112.064 106.03V108.03C113.028 108.03 113.833 108.81 113.899 109.781L115.895 109.643Z" fill="#2A2A2A"/>
<defs>
<filter id="filter0_d" x="111.362" y="81.271" width="41.9983" height="22.3629" filterUnits="userSpaceOnUse" color-interpolation-filters="sRGB">
<feFlood flood-opacity="0" result="BackgroundImageFix"/>
<feColorMatrix in="SourceAlpha" type="matrix" values="0 0 0 0 0 0 0 0 0 0 0 0 0 0 0 0 0 0 127 0"/>
<feOffset dx="1" dy="2"/>
<feGaussianBlur stdDeviation="1.5"/>
<feColorMatrix type="matrix" values="0 0 0 0 0.164706 0 0 0 0 0.164706 0 0 0 0 0.164706 0 0 0 0.1 0"/>
<feBlend mode="normal" in2="BackgroundImageFix" result="effect1_dropShadow"/>
<feBlend mode="normal" in="SourceGraphic" in2="effect1_dropShadow" result="shape"/>
</filter>
</defs>
</svg>
