<svg width="125" height="125" viewBox="0 0 125 125" fill="none" xmlns="http://www.w3.org/2000/svg">
<g clip-path="url(#clip0_532_23831)">
<rect x="21.5" y="60.5" width="35" height="15" rx="7.5" fill="white" stroke="#4A5056"/>
<rect x="65.5" y="60.5" width="35" height="15" rx="7.5" fill="white" stroke="#4A5056"/>
<path d="M49.445 42.6376L48.5 45L48.0513 46.3461C48.0173 46.448 48 46.5548 48 46.6623V48V48.5C48 49.0523 48.4477 49.5 49 49.5H73.5C74.0523 49.5 74.5 49.0523 74.5 48.5V47.099C74.5 47.0332 74.4935 46.9675 74.4806 46.9029L74.0263 44.6313C74.0088 44.5442 73.9799 44.4597 73.9401 44.3802L73.0403 42.5807C73.0135 42.527 72.9819 42.4759 72.9459 42.4279L71.5426 40.5569C71.5142 40.519 71.4832 40.4832 71.4497 40.4497L70.0503 39.0503C70.0168 39.0168 69.981 38.9858 69.9431 38.9574L68.1153 37.5865C68.0389 37.5292 67.9538 37.4846 67.8633 37.4544L67.1708 37.2236C66.8626 37.1209 66.7703 36.7297 67 36.5L68.3549 35.1451C68.4506 35.0494 68.5259 34.9352 68.5762 34.8094L69.5 32.5L69.9455 30.7182C69.9814 30.5745 69.9849 30.4247 69.9559 30.2795L69.5263 28.1313C69.5088 28.0442 69.4799 27.9597 69.4401 27.8802L68.5 26L67.5549 24.5824C67.5184 24.5276 67.4765 24.4765 67.43 24.43L66.07 23.07C66.0235 23.0235 65.9724 22.9816 65.9176 22.9451L64.6887 22.1258C64.5645 22.043 64.4233 21.989 64.2755 21.9679L61.1532 21.5219C61.0517 21.5074 60.9485 21.5086 60.8474 21.5254L58.1873 21.9688C58.0635 21.9894 57.9448 22.0331 57.8372 22.0977L55.668 23.3992C55.557 23.4658 55.4601 23.5532 55.3825 23.6567L54.0974 25.3702C54.0329 25.4562 53.9827 25.552 53.9487 25.654L53.5 27L53.0299 28.8806C53.01 28.9599 53 29.0413 53 29.1231V31.3769C53 31.4587 53.01 31.5401 53.0299 31.6194L53.451 33.3041C53.4833 33.4334 53.5412 33.5549 53.6212 33.6616L55 35.5L55.42 36.13C55.728 36.592 55.5614 37.2193 55.0648 37.4676C55.0217 37.4892 54.9803 37.5141 54.9411 37.5421L51.6129 39.9193C51.538 39.9729 51.4708 40.0365 51.4133 40.1084L49.5926 42.3843C49.5312 42.461 49.4815 42.5464 49.445 42.6376Z" fill="white"/>
<path fill-rule="evenodd" clip-rule="evenodd" d="M68.2559 24.3208C70.4602 27.0716 70.8936 30.8756 69.3991 34.0734C69.2123 34.475 68.9882 34.8615 68.7341 35.2328C68.3548 35.7924 67.9185 36.3001 67.4369 36.7511C67.4711 36.7621 67.5049 36.7759 67.5382 36.793C68.6217 37.3462 69.6304 38.0358 70.542 38.8542C73.501 41.514 75.1972 45.3938 75.2121 49.3949C75.2121 49.645 75.0029 49.8496 74.7638 49.8496H74.6741C73.478 49.8849 72.2753 49.8731 71.0747 49.8613C70.4753 49.8554 69.8764 49.8496 69.2792 49.8496H62.36H59.6551H52.3996H47.8565C47.6174 49.8496 47.4082 49.6374 47.4082 49.3949C47.4157 48.2128 47.5576 47.0306 47.8491 45.8788C48.8354 41.9611 51.5254 38.6117 55.0821 36.793C55.1157 36.7758 55.1518 36.7618 55.19 36.7508C53.5029 35.1414 52.4335 32.8937 52.3327 30.474C52.1758 26.723 54.4025 23.169 57.8023 21.7065C61.4189 20.153 65.7751 21.2215 68.2559 24.3208ZM55.9779 37.4214C55.0261 37.9202 53.6284 38.7048 52.8853 39.3468C50.1058 41.7515 48.4526 45.2358 48.3077 48.9249C48.6113 48.9152 48.92 48.9249 49.2259 48.9345C49.4393 48.9412 49.6512 48.9478 49.8591 48.9478H53.3262H60.2753H62.9727H70.2058H74.3007C74.2725 48.0653 74.1609 47.1939 73.9568 46.3335C73.0601 42.537 70.2932 39.0574 66.8709 37.2993C66.855 37.2911 66.8402 37.2827 66.8264 37.274C64.5115 39.0855 61.3857 39.7214 58.5197 38.7641C57.5939 38.4558 56.7387 37.9976 55.9779 37.4214ZM68.6629 33.5388C68.6481 33.5605 68.6344 33.5846 68.622 33.6112C67.1201 36.8772 63.4812 38.802 59.9842 38.1957C56.7114 37.6274 54.0588 35.051 53.3863 31.747C52.6989 28.3901 54.2307 24.8588 57.1149 23.0781C60.1112 21.2442 64.0715 21.5928 66.6867 23.9647C69.3198 26.3491 70.1417 30.2865 68.6629 33.5388Z" fill="#4A5056"/>
<path d="M55.7581 82.8258C54.6187 82.8258 53.6774 83.5085 53.2811 84.4839H53.0829V83.2647C53.0829 81.8017 51.8939 80.6313 50.4077 80.6313C48.9215 80.6313 47.7325 81.8017 47.7325 83.2647V81.4603C47.7325 79.9973 46.5435 78.8269 45.0573 78.8269C43.5711 78.8269 42.3821 79.9973 42.3821 81.4603V72.6334C42.3821 71.1704 41.1931 70 39.7069 70C38.2206 70 37.0317 71.1704 37.0317 72.6334V83.4597C37.0317 83.4597 36.883 89.6532 37.2298 92.8231C37.6262 98.2362 42.2335 102.528 47.8316 102.528C53.6774 102.528 58.3838 97.9436 58.4829 92.1891C58.5324 92.1403 58.5324 92.0428 58.5324 91.9452V87.9463V85.5567V85.4104C58.4334 83.9962 57.2444 82.8258 55.7581 82.8258Z" fill="white" stroke="#4A5056" stroke-miterlimit="10" stroke-linejoin="round"/>
</g>
<defs>
<clipPath id="clip0_532_23831">
<rect width="125" height="125" fill="white"/>
</clipPath>
</defs>
</svg>
