<svg width="85" height="113" viewBox="0 0 85 113" fill="none" xmlns="http://www.w3.org/2000/svg">
<g filter="url(#filter0_d)">
<rect x="2" y="1" width="76.8555" height="104.574" rx="10" fill="white"/>
<rect x="2.25" y="1.25" width="76.3555" height="104.074" rx="9.75" stroke="black" stroke-opacity="0.1" stroke-width="0.5"/>
</g>
<path fill-rule="evenodd" clip-rule="evenodd" d="M44.3481 20.9667C45.6536 22.5958 45.9102 24.8486 45.0252 26.7425C44.9146 26.9803 44.7818 27.2092 44.6313 27.4291C44.406 27.7615 44.1467 28.063 43.8605 28.3307C43.8821 28.3373 43.9034 28.346 43.9244 28.3567C44.566 28.6843 45.1635 29.0927 45.7033 29.5774C47.4557 31.1526 48.4603 33.4504 48.4691 35.8199C48.4691 35.968 48.3452 36.0892 48.2036 36.0892H48.1505C47.4421 36.1101 46.7298 36.1031 46.0188 36.0962C45.6638 36.0927 45.3092 36.0892 44.9555 36.0892H40.8577H39.2558H34.9589H32.2683C32.1267 36.0892 32.0028 35.9635 32.0028 35.8199C32.0072 35.1198 32.0913 34.4197 32.2639 33.7376C32.848 31.4174 34.4411 29.4338 36.5475 28.3567C36.5679 28.3462 36.59 28.3378 36.6133 28.3312C35.6123 27.3778 34.9777 26.0454 34.918 24.6108C34.825 22.3893 36.1437 20.2845 38.1572 19.4184C40.299 18.4984 42.8789 19.1312 44.3481 20.9667ZM37.0801 28.7278C36.5164 29.0232 35.6871 29.4885 35.2465 29.8691C33.6004 31.2932 32.6213 33.3568 32.5355 35.5416C32.7153 35.5358 32.8982 35.5416 33.0793 35.5472C33.2057 35.5512 33.3312 35.5551 33.4543 35.5551H35.5076H39.6231H41.2206H45.5042H47.9294C47.9126 35.0325 47.8466 34.5164 47.7257 34.0069C47.1946 31.7585 45.556 29.6977 43.5292 28.6565C43.5185 28.651 43.5086 28.6453 43.4996 28.6395C42.1288 29.7112 40.2786 30.0871 38.582 29.5204C38.0351 29.3383 37.5298 29.0678 37.0801 28.7278ZM44.5891 26.4258C44.5804 26.4387 44.5723 26.453 44.565 26.4687C43.6755 28.403 41.5204 29.5429 39.4494 29.1838C37.5111 28.8472 35.9402 27.3214 35.5419 25.3647C35.1348 23.3766 36.042 21.2853 37.7501 20.2307C39.5246 19.1446 41.87 19.3511 43.4188 20.7558C44.9782 22.1679 45.465 24.4998 44.5891 26.4258Z" fill="#2A2A2A"/>
<path fill-rule="evenodd" clip-rule="evenodd" d="M44.3459 43.6127C45.6514 45.2418 45.908 47.4946 45.023 49.3885C44.9124 49.6263 44.7796 49.8552 44.6291 50.0751C44.4017 50.4106 44.1397 50.7146 43.8503 50.9841C43.8744 50.9911 43.8982 51.0004 43.9216 51.0124C44.5632 51.34 45.1606 51.7484 45.7005 52.2331C47.4529 53.8083 48.4574 56.106 48.4663 58.4756C48.4663 58.6237 48.3424 58.7449 48.2008 58.7449H48.1477C47.4393 58.7658 46.727 58.7588 46.016 58.7518C45.661 58.7483 45.3064 58.7449 44.9527 58.7449H40.8549H39.253H34.9561H32.2655C32.1239 58.7449 32 58.6192 32 58.4756C32.0044 57.7755 32.0885 57.0754 32.2611 56.3932C32.8452 54.0731 34.4383 52.0895 36.5447 51.0124C36.5676 51.0006 36.5925 50.9914 36.6189 50.9845C35.6134 50.0307 34.9757 48.6951 34.9157 47.2568C34.8228 45.0353 36.1415 42.9305 38.155 42.0644C40.2968 41.1444 42.8767 41.7772 44.3459 43.6127ZM37.0852 51.3793C36.5213 51.6745 35.6864 52.1423 35.2437 52.5248C33.5976 53.9489 32.6185 56.0124 32.5327 58.1972C32.7125 58.1915 32.8953 58.1972 33.0765 58.2029C33.2029 58.2069 33.3284 58.2108 33.4515 58.2108H35.5048H39.6203H41.2178H45.5014H47.9266C47.9098 57.6882 47.8437 57.1721 47.7229 56.6625C47.1918 54.4141 45.5532 52.3534 43.5264 51.3122C43.5131 51.3054 43.5011 51.2983 43.4904 51.2909C42.1203 52.3584 40.2735 52.7321 38.5798 52.1664C38.0359 51.9853 37.5331 51.7168 37.0852 51.3793ZM44.5869 49.0718C44.5782 49.0847 44.5701 49.099 44.5628 49.1147C43.6733 51.049 41.5182 52.1888 39.4472 51.8298C37.5089 51.4932 35.938 49.9674 35.5397 48.0107C35.1326 46.0226 36.0398 43.9313 37.7479 42.8767C39.5224 41.7906 41.8678 41.9971 43.4166 43.4018C44.976 44.8139 45.4628 47.1458 44.5869 49.0718Z" fill="#2A2A2A"/>
<path d="M48.4204 80.2025H32.5198C32.272 79.4812 33.3024 72.5106 40.2418 72.0298C45.7933 71.6452 48.0073 77.318 48.4204 80.2025Z" fill="#9ACCAB"/>
<ellipse cx="40.1947" cy="68.8737" rx="5.3002" ry="5.05928" fill="#9ACCAB"/>
<path fill-rule="evenodd" clip-rule="evenodd" d="M44.3502 65.3148C45.6557 66.9439 45.9123 69.1968 45.0273 71.0906C44.9167 71.3285 44.7839 71.5573 44.6335 71.7773C44.408 72.1099 44.1485 72.4115 43.862 72.6794C43.8836 72.6861 43.9049 72.6947 43.9259 72.7054C44.5675 73.0331 45.1649 73.4414 45.7048 73.9261C47.4572 75.5013 48.4617 77.7991 48.4706 80.1686C48.4706 80.3167 48.3467 80.4379 48.2051 80.4379H48.152C47.4436 80.4589 46.7313 80.4519 46.0203 80.4449C45.6653 80.4414 45.3106 80.4379 44.9569 80.4379H40.8592H39.2572H34.9603H32.2698C32.1282 80.4379 32.0043 80.3122 32.0043 80.1686C32.0087 79.4685 32.0928 78.7684 32.2654 78.0863C32.8495 75.7661 34.4426 73.7825 36.549 72.7054C36.5697 72.6948 36.5921 72.6862 36.6158 72.6796C35.6146 71.7263 34.9798 70.3937 34.9201 68.9589C34.8271 66.7375 36.1459 64.6327 38.1593 63.7665C40.3012 62.8466 42.8811 63.4793 44.3502 65.3148ZM37.0824 73.076C36.5186 73.3714 35.6888 73.837 35.248 74.2178C33.6019 75.642 32.6228 77.7055 32.537 79.8903C32.7168 79.8845 32.8996 79.8903 33.0808 79.896C33.2071 79.8999 33.3327 79.9039 33.4557 79.9039H35.5091H39.6245H41.222H45.5057H47.9308C47.9141 79.3812 47.848 78.8651 47.7271 78.3556C47.1961 76.1072 45.5574 74.0464 43.5307 73.0053C43.5199 72.9997 43.5101 72.994 43.501 72.9882C42.1303 74.0594 40.2804 74.4351 38.5842 73.8686C38.0373 73.6864 37.532 73.416 37.0824 73.076ZM44.5913 70.774C44.5825 70.7868 44.5744 70.8011 44.5671 70.8169C43.6776 72.7511 41.5225 73.891 39.4515 73.532C37.5133 73.1954 35.9423 71.6695 35.544 69.7129C35.1369 67.7248 36.0441 65.6335 37.7522 64.5788C39.5267 63.4928 41.8721 63.6992 43.4209 65.1039C44.9803 66.516 45.4671 68.8479 44.5913 70.774Z" fill="#2A2A2A"/>
<path d="M51.8736 83.6823C51.1958 83.6823 50.6358 84.0949 50.4001 84.6843H50.2822V83.9476C50.2822 83.0635 49.5749 82.3562 48.6908 82.3562C47.8067 82.3562 47.0994 83.0635 47.0994 83.9476V82.8571C47.0994 81.973 46.3921 81.2658 45.508 81.2658C44.6239 81.2658 43.9166 81.973 43.9166 82.8571V77.523C43.9166 76.6389 43.2093 75.9316 42.3252 75.9316C41.4411 75.9316 40.7338 76.6389 40.7338 77.523V84.0654C40.7338 84.0654 40.6454 87.8082 40.8517 89.7237C41.0875 92.9949 43.8282 95.5883 47.1583 95.5883C50.6358 95.5883 53.4355 92.8181 53.4944 89.3406C53.5239 89.3112 53.5239 89.2522 53.5239 89.1933V86.7767V85.3327V85.2442C53.465 84.3896 52.7577 83.6823 51.8736 83.6823Z" fill="#9ACCAB"/>
<path d="M50.3993 84.6863V85.1629H50.722L50.8418 84.8633L50.3993 84.6863ZM50.2814 84.6863H49.8049V85.1629H50.2814V84.6863ZM40.7331 84.0674L41.2095 84.0787L41.2096 84.0731V84.0674H40.7331ZM40.851 89.7257L41.3263 89.6914L41.3257 89.6831L41.3248 89.6747L40.851 89.7257ZM53.4937 89.3426L53.1567 89.0056L53.0204 89.1418L53.0172 89.3345L53.4937 89.3426ZM53.5232 85.2462H53.9998V85.2298L53.9986 85.2134L53.5232 85.2462ZM51.8728 83.2077C50.9905 83.2077 50.2613 83.748 49.9568 84.5093L50.8418 84.8633C51.0088 84.4457 51.3995 84.1609 51.8728 84.1609V83.2077ZM50.3993 84.2097H50.2814V85.1629H50.3993V84.2097ZM50.758 84.6863V83.9495H49.8049V84.6863H50.758ZM50.758 83.9495C50.758 82.8022 49.8374 81.8815 48.69 81.8815V82.8347C49.311 82.8347 49.8049 83.3286 49.8049 83.9495H50.758ZM48.69 81.8815C47.5428 81.8815 46.6221 82.8022 46.6221 83.9495H47.5753C47.5753 83.3286 48.0691 82.8347 48.69 82.8347V81.8815ZM47.5753 83.9495V82.8591H46.6221V83.9495H47.5753ZM47.5753 82.8591C47.5753 81.7118 46.6546 80.7912 45.5073 80.7912V81.7443C46.1282 81.7443 46.6221 82.2382 46.6221 82.8591H47.5753ZM45.5073 80.7912C44.36 80.7912 43.4393 81.7118 43.4393 82.8591H44.3925C44.3925 82.2382 44.8864 81.7443 45.5073 81.7443V80.7912ZM44.3925 82.8591V77.525H43.4393V82.8591H44.3925ZM44.3925 77.525C44.3925 76.3777 43.4718 75.457 42.3245 75.457V76.4102C42.9454 76.4102 43.4393 76.9041 43.4393 77.525H44.3925ZM42.3245 75.457C41.1771 75.457 40.2565 76.3777 40.2565 77.525H41.2096C41.2096 76.9041 41.7036 76.4102 42.3245 76.4102V75.457ZM40.2565 77.525V84.0674H41.2096V77.525H40.2565ZM40.7331 84.0674C40.2566 84.0561 40.2566 84.0562 40.2566 84.0562C40.2566 84.0563 40.2566 84.0563 40.2566 84.0564C40.2566 84.0565 40.2566 84.0567 40.2566 84.057C40.2566 84.0575 40.2566 84.0582 40.2566 84.0591C40.2565 84.061 40.2564 84.0638 40.2564 84.0675C40.2562 84.0748 40.256 84.0856 40.2557 84.0997C40.2551 84.128 40.2542 84.1695 40.2532 84.2229C40.2511 84.3298 40.2485 84.4844 40.246 84.6758C40.2409 85.0585 40.2362 85.5889 40.2381 86.1797C40.2418 87.3546 40.271 88.7916 40.3771 89.7767L41.3248 89.6747C41.2246 88.7443 41.1949 87.3521 41.1913 86.1767C41.1894 85.5924 41.194 85.0674 41.199 84.6885C41.2015 84.4991 41.2042 84.3463 41.2062 84.241C41.2072 84.1884 41.208 84.1476 41.2086 84.1201C41.2089 84.1064 41.2091 84.0959 41.2093 84.0889C41.2094 84.0855 41.2094 84.0828 41.2095 84.0811C41.2095 84.0803 41.2095 84.0796 41.2095 84.0792C41.2095 84.079 41.2095 84.0789 41.2095 84.0788C41.2095 84.0787 41.2095 84.0787 41.2095 84.0787C41.2095 84.0787 41.2095 84.0787 40.7331 84.0674ZM40.3756 89.76C40.6292 93.2784 43.5755 96.0668 47.1576 96.0668V95.1137C44.0794 95.1137 41.5443 92.7154 41.3263 89.6914L40.3756 89.76ZM47.1576 96.0668C50.8969 96.0668 53.9069 93.0864 53.9702 89.3507L53.0172 89.3345C52.9626 92.5537 50.3733 95.1137 47.1576 95.1137V96.0668ZM53.8307 89.6796C53.9554 89.5549 53.9828 89.4071 53.9913 89.3474C54.0007 89.2815 53.9998 89.2159 53.9998 89.1952H53.0466C53.0466 89.2114 53.0466 89.2184 53.0464 89.2236C53.0462 89.2286 53.0461 89.2234 53.0477 89.2126C53.0492 89.2023 53.0536 89.1759 53.0669 89.1418C53.0807 89.1065 53.1072 89.0551 53.1567 89.0056L53.8307 89.6796ZM53.9998 89.1952V86.7787H53.0466V89.1952H53.9998ZM53.9998 86.7787V85.3346H53.0466V86.7787H53.9998ZM53.9998 85.3346V85.2462H53.0466V85.3346H53.9998ZM53.9986 85.2134C53.9234 84.1223 53.0206 83.2077 51.8728 83.2077V84.1609C52.4933 84.1609 53.0051 84.6609 53.0477 85.279L53.9986 85.2134Z" fill="#2A2A2A"/>
<defs>
<filter id="filter0_d" x="0" y="0" width="84.8555" height="112.574" filterUnits="userSpaceOnUse" color-interpolation-filters="sRGB">
<feFlood flood-opacity="0" result="BackgroundImageFix"/>
<feColorMatrix in="SourceAlpha" type="matrix" values="0 0 0 0 0 0 0 0 0 0 0 0 0 0 0 0 0 0 127 0"/>
<feOffset dx="2" dy="3"/>
<feGaussianBlur stdDeviation="2"/>
<feColorMatrix type="matrix" values="0 0 0 0 0 0 0 0 0 0 0 0 0 0 0 0 0 0 0.05 0"/>
<feBlend mode="normal" in2="BackgroundImageFix" result="effect1_dropShadow"/>
<feBlend mode="normal" in="SourceGraphic" in2="effect1_dropShadow" result="shape"/>
</filter>
</defs>
</svg>
