<svg width="220" height="188" viewBox="0 0 220 188" fill="none" xmlns="http://www.w3.org/2000/svg">
<rect width="220" height="188" fill="#F6F6F6"/>
<mask id="path-1-outside-1" maskUnits="userSpaceOnUse" x="92" y="33" width="26" height="27" fill="black">
<rect fill="white" x="92" y="33" width="26" height="27"/>
<path fill-rule="evenodd" clip-rule="evenodd" d="M111.358 36.9242C113.299 39.3464 113.68 42.6961 112.364 45.5119C112.2 45.8656 112.002 46.2059 111.779 46.5328C111.445 47.0256 111.06 47.4726 110.636 47.8698C110.667 47.8794 110.696 47.8917 110.726 47.9067C111.68 48.3938 112.568 49.0011 113.371 49.7217C115.976 52.0638 117.47 55.4802 117.483 59.0034C117.483 59.2236 117.299 59.4038 117.088 59.4038H117.009C115.956 59.4349 114.897 59.4245 113.84 59.4141C113.312 59.4089 112.785 59.4038 112.259 59.4038H106.166H103.784H97.3952H93.3948C93.1842 59.4038 93 59.2169 93 59.0034C93.0066 57.9625 93.1316 56.9215 93.3882 55.9073C94.2567 52.4575 96.6254 49.5082 99.7573 47.9067C99.7869 47.8915 99.8187 47.8792 99.8524 47.8695C98.3667 46.4524 97.4251 44.4731 97.3363 42.3424C97.1981 39.0394 99.1589 35.9099 102.153 34.6221C105.337 33.2542 109.173 34.1951 111.358 36.9242ZM100.546 48.46C99.708 48.8993 98.4773 49.5901 97.8229 50.1554C95.3754 52.2729 93.9197 55.341 93.7921 58.5895C94.0594 58.581 94.3313 58.5895 94.6006 58.598C94.7885 58.6039 94.9751 58.6097 95.1581 58.6097H98.2111H104.33H106.705H113.075H116.68C116.656 57.8326 116.557 57.0653 116.378 56.3076C115.588 52.9646 113.152 49.9006 110.138 48.3525C110.124 48.3453 110.111 48.3379 110.099 48.3302C108.06 49.9254 105.308 50.4853 102.784 49.6423C101.969 49.3708 101.216 48.9674 100.546 48.46ZM111.716 45.0411C111.703 45.0603 111.691 45.0815 111.68 45.1049C110.358 47.9808 107.153 49.6757 104.074 49.1419C101.192 48.6414 98.8562 46.3727 98.2641 43.4634C97.6587 40.5074 99.0076 37.3979 101.547 35.8299C104.186 34.2151 107.673 34.522 109.976 36.6106C112.294 38.7102 113.018 42.1774 111.716 45.0411Z"/>
</mask>
<path fill-rule="evenodd" clip-rule="evenodd" d="M111.358 36.9242C113.299 39.3464 113.68 42.6961 112.364 45.5119C112.2 45.8656 112.002 46.2059 111.779 46.5328C111.445 47.0256 111.06 47.4726 110.636 47.8698C110.667 47.8794 110.696 47.8917 110.726 47.9067C111.68 48.3938 112.568 49.0011 113.371 49.7217C115.976 52.0638 117.47 55.4802 117.483 59.0034C117.483 59.2236 117.299 59.4038 117.088 59.4038H117.009C115.956 59.4349 114.897 59.4245 113.84 59.4141C113.312 59.4089 112.785 59.4038 112.259 59.4038H106.166H103.784H97.3952H93.3948C93.1842 59.4038 93 59.2169 93 59.0034C93.0066 57.9625 93.1316 56.9215 93.3882 55.9073C94.2567 52.4575 96.6254 49.5082 99.7573 47.9067C99.7869 47.8915 99.8187 47.8792 99.8524 47.8695C98.3667 46.4524 97.4251 44.4731 97.3363 42.3424C97.1981 39.0394 99.1589 35.9099 102.153 34.6221C105.337 33.2542 109.173 34.1951 111.358 36.9242ZM100.546 48.46C99.708 48.8993 98.4773 49.5901 97.8229 50.1554C95.3754 52.2729 93.9197 55.341 93.7921 58.5895C94.0594 58.581 94.3313 58.5895 94.6006 58.598C94.7885 58.6039 94.9751 58.6097 95.1581 58.6097H98.2111H104.33H106.705H113.075H116.68C116.656 57.8326 116.557 57.0653 116.378 56.3076C115.588 52.9646 113.152 49.9006 110.138 48.3525C110.124 48.3453 110.111 48.3379 110.099 48.3302C108.06 49.9254 105.308 50.4853 102.784 49.6423C101.969 49.3708 101.216 48.9674 100.546 48.46ZM111.716 45.0411C111.703 45.0603 111.691 45.0815 111.68 45.1049C110.358 47.9808 107.153 49.6757 104.074 49.1419C101.192 48.6414 98.8562 46.3727 98.2641 43.4634C97.6587 40.5074 99.0076 37.3979 101.547 35.8299C104.186 34.2151 107.673 34.522 109.976 36.6106C112.294 38.7102 113.018 42.1774 111.716 45.0411Z" fill="#2A2A2A"/>
<path d="M112.364 45.5119L112.228 45.4484L112.228 45.4487L112.364 45.5119ZM111.358 36.9242L111.241 37.0179L111.241 37.018L111.358 36.9242ZM111.779 46.5328L111.655 46.4481L111.655 46.4487L111.779 46.5328ZM110.636 47.8698L110.534 47.7603L110.348 47.9347L110.591 48.0126L110.636 47.8698ZM110.726 47.9067L110.657 48.0401L110.657 48.0403L110.726 47.9067ZM113.371 49.7217L113.471 49.6101L113.471 49.6101L113.371 49.7217ZM117.483 59.0034H117.633L117.633 59.0028L117.483 59.0034ZM117.009 59.4038V59.2537L117.005 59.2538L117.009 59.4038ZM113.84 59.4141L113.841 59.2641L113.84 59.4141ZM93 59.0034L92.85 59.0025V59.0034H93ZM93.3882 55.9073L93.5336 55.9441L93.5337 55.9439L93.3882 55.9073ZM99.7573 47.9067L99.8256 48.0403L99.8259 48.0401L99.7573 47.9067ZM99.8524 47.8695L99.8939 48.0137L100.145 47.9413L99.9559 47.761L99.8524 47.8695ZM97.3363 42.3424L97.4862 42.3362L97.4862 42.3361L97.3363 42.3424ZM102.153 34.6221L102.093 34.4843L102.093 34.4843L102.153 34.6221ZM97.8229 50.1554L97.7248 50.0419L97.7248 50.042L97.8229 50.1554ZM100.546 48.46L100.637 48.3404L100.561 48.283L100.476 48.3272L100.546 48.46ZM93.7921 58.5895L93.6422 58.5836L93.6358 58.7446L93.7968 58.7395L93.7921 58.5895ZM94.6006 58.598L94.5959 58.7479H94.5959L94.6006 58.598ZM116.68 58.6097V58.7597H116.835L116.83 58.6049L116.68 58.6097ZM116.378 56.3076L116.232 56.3421L116.232 56.3423L116.378 56.3076ZM110.138 48.3525L110.069 48.4859L110.07 48.4859L110.138 48.3525ZM110.099 48.3302L110.179 48.2033L110.09 48.1471L110.006 48.2121L110.099 48.3302ZM102.784 49.6423L102.832 49.5L102.832 49.5L102.784 49.6423ZM111.716 45.0411L111.84 45.1256L111.847 45.115L111.853 45.1032L111.716 45.0411ZM111.68 45.1049L111.544 45.0417L111.544 45.0422L111.68 45.1049ZM104.074 49.1419L104.048 49.2897L104.048 49.2897L104.074 49.1419ZM98.2641 43.4634L98.411 43.4335L98.411 43.4333L98.2641 43.4634ZM101.547 35.8299L101.469 35.7019L101.469 35.7022L101.547 35.8299ZM109.976 36.6106L109.875 36.7217L109.875 36.7217L109.976 36.6106ZM112.5 45.5754C113.84 42.7085 113.452 39.2978 111.475 36.8304L111.241 37.018C113.145 39.395 113.521 42.6836 112.228 45.4484L112.5 45.5754ZM111.903 46.6176C112.13 46.2845 112.332 45.9371 112.5 45.5752L112.228 45.4487C112.068 45.7941 111.874 46.1273 111.655 46.4481L111.903 46.6176ZM110.739 47.9793C111.171 47.5746 111.563 47.1192 111.903 46.617L111.655 46.4487C111.327 46.9321 110.95 47.3706 110.534 47.7603L110.739 47.9793ZM110.794 47.7733C110.757 47.7544 110.72 47.7391 110.682 47.727L110.591 48.0126C110.613 48.0198 110.635 48.0289 110.657 48.0401L110.794 47.7733ZM113.471 49.6101C112.658 48.8806 111.759 48.2661 110.794 47.7731L110.657 48.0403C111.6 48.5216 112.478 49.1215 113.27 49.8333L113.471 49.6101ZM117.633 59.0028C117.62 55.4385 116.109 51.9814 113.471 49.6101L113.27 49.8333C115.844 52.1463 117.32 55.522 117.333 59.004L117.633 59.0028ZM117.088 59.5538C117.382 59.5538 117.633 59.3061 117.633 59.0034H117.333C117.333 59.1411 117.216 59.2538 117.088 59.2538V59.5538ZM117.009 59.5538H117.088V59.2538H117.009V59.5538ZM113.838 59.5641C114.895 59.5745 115.957 59.585 117.014 59.5537L117.005 59.2538C115.955 59.2849 114.899 59.2745 113.841 59.2641L113.838 59.5641ZM112.259 59.5538C112.784 59.5538 113.31 59.5589 113.838 59.5641L113.841 59.2641C113.314 59.259 112.785 59.2538 112.259 59.2538V59.5538ZM106.166 59.5538H112.259V59.2538H106.166V59.5538ZM103.784 59.5538H106.166V59.2538H103.784V59.5538ZM97.3952 59.5538H103.784V59.2538H97.3952V59.5538ZM93.3948 59.5538H97.3952V59.2538H93.3948V59.5538ZM92.85 59.0034C92.85 59.2978 93.0994 59.5538 93.3948 59.5538V59.2538C93.2691 59.2538 93.15 59.1361 93.15 59.0034H92.85ZM93.2428 55.8705C92.983 56.8972 92.8567 57.9502 92.85 59.0025L93.15 59.0044C93.1565 57.9748 93.2802 56.9459 93.5336 55.9441L93.2428 55.8705ZM99.689 47.7732C96.5188 49.3942 94.1219 52.3787 93.2427 55.8707L93.5337 55.9439C94.3916 52.5363 96.732 49.6222 99.8256 48.0403L99.689 47.7732ZM99.8108 47.7254C99.769 47.7374 99.7279 47.7532 99.6887 47.7733L99.8259 48.0401C99.8458 48.0299 99.8685 48.021 99.8939 48.0137L99.8108 47.7254ZM97.1865 42.3486C97.2769 44.5196 98.2361 46.5351 99.7488 47.9781L99.9559 47.761C98.4974 46.3697 97.5733 44.4267 97.4862 42.3362L97.1865 42.3486ZM102.093 34.4843C99.0418 35.797 97.0457 38.9843 97.1865 42.3487L97.4862 42.3361C97.3506 39.0946 99.276 36.0228 102.212 34.7599L102.093 34.4843ZM111.475 36.8304C109.248 34.0484 105.34 33.0899 102.093 34.4843L102.212 34.7599C105.335 33.4185 109.098 34.3417 111.241 37.0179L111.475 36.8304ZM97.921 50.2689C98.5603 49.7167 99.7758 49.0331 100.616 48.5929L100.476 48.3272C99.6402 48.7655 98.3942 49.4636 97.7248 50.0419L97.921 50.2689ZM93.9419 58.5954C94.0679 55.3877 95.5054 52.3587 97.921 50.2689L97.7248 50.042C95.2453 52.1871 93.7714 55.2944 93.6422 58.5836L93.9419 58.5954ZM94.6053 58.448C94.3368 58.4396 94.0601 58.4309 93.7873 58.4396L93.7968 58.7395C94.0586 58.7311 94.3257 58.7394 94.5959 58.7479L94.6053 58.448ZM95.1581 58.4597C94.9779 58.4597 94.7936 58.454 94.6053 58.448L94.5959 58.7479C94.7833 58.7538 94.9723 58.7597 95.1581 58.7597V58.4597ZM98.2111 58.4597H95.1581V58.7597H98.2111V58.4597ZM104.33 58.4597H98.2111V58.7597H104.33V58.4597ZM106.705 58.4597H104.33V58.7597H106.705V58.4597ZM113.075 58.4597H106.705V58.7597H113.075V58.4597ZM116.68 58.4597H113.075V58.7597H116.68V58.4597ZM116.232 56.3423C116.409 57.0896 116.506 57.847 116.531 58.6145L116.83 58.6049C116.805 57.8183 116.706 57.0409 116.524 56.273L116.232 56.3423ZM110.07 48.4859C113.045 50.0142 115.452 53.0424 116.232 56.3421L116.524 56.2732C115.724 52.8868 113.259 49.7869 110.207 48.2191L110.07 48.4859ZM110.019 48.4572C110.035 48.4673 110.052 48.4768 110.069 48.4859L110.207 48.2191C110.196 48.2137 110.187 48.2084 110.179 48.2033L110.019 48.4572ZM102.737 49.7846C105.311 50.6444 108.116 50.0727 110.191 48.4484L110.006 48.2121C108.005 49.7781 105.305 50.3261 102.832 49.5L102.737 49.7846ZM100.456 48.5796C101.138 49.0965 101.906 49.5078 102.737 49.7846L102.832 49.5C102.033 49.2339 101.294 48.8383 100.637 48.3404L100.456 48.5796ZM111.592 44.9567C111.574 44.9829 111.558 45.0113 111.544 45.0417L111.816 45.1681C111.824 45.1517 111.832 45.1376 111.84 45.1256L111.592 44.9567ZM111.544 45.0422C110.249 47.8571 107.111 49.5161 104.1 48.9941L104.048 49.2897C107.195 49.8352 110.466 48.1045 111.816 45.1676L111.544 45.0422ZM104.1 48.9941C101.279 48.5043 98.991 46.2828 98.411 43.4335L98.1171 43.4933C98.7215 46.4626 101.105 48.7786 104.048 49.2897L104.1 48.9941ZM98.411 43.4333C97.8183 40.5388 99.1401 37.4924 101.626 35.9575L101.469 35.7022C98.875 37.3035 97.4992 40.476 98.1171 43.4935L98.411 43.4333ZM101.626 35.9578C104.208 34.3774 107.622 34.6783 109.875 36.7217L110.077 36.4995C107.724 34.3657 104.164 34.0527 101.469 35.7019L101.626 35.9578ZM109.875 36.7217C112.145 38.7776 112.855 42.1747 111.579 44.9791L111.853 45.1032C113.182 42.18 112.443 38.6428 110.077 36.4994L109.875 36.7217Z" fill="white" mask="url(#path-1-outside-1)"/>
<mask id="path-3-outside-2" maskUnits="userSpaceOnUse" x="92" y="66.6719" width="26" height="27" fill="black">
<rect fill="white" x="92" y="66.6719" width="26" height="27"/>
<path fill-rule="evenodd" clip-rule="evenodd" d="M111.358 70.5961C113.299 73.0182 113.68 76.3679 112.364 79.1838C112.2 79.5375 112.002 79.8778 111.779 80.2047C111.445 80.6975 111.061 81.1444 110.637 81.5416C110.667 81.5512 110.696 81.5634 110.726 81.5785C111.68 82.0656 112.568 82.6728 113.371 83.3935C115.976 85.7356 117.47 89.152 117.483 92.6752C117.483 92.8954 117.299 93.0755 117.088 93.0755H117.009C115.956 93.1067 114.897 93.0963 113.84 93.0859C113.312 93.0807 112.785 93.0755 112.259 93.0755H106.166H103.784H97.3952H93.3948C93.1843 93.0755 93 92.8887 93 92.6752C93.0066 91.6342 93.1316 90.5933 93.3882 89.5791C94.2567 86.1293 96.6254 83.1799 99.7574 81.5785C99.7869 81.5633 99.8187 81.551 99.8523 81.5413C98.3667 80.1242 97.4251 78.145 97.3363 76.0143C97.1982 72.7113 99.1589 69.5818 102.153 68.294C105.337 66.9261 109.173 67.8669 111.358 70.5961ZM100.546 82.1318C99.708 82.5711 98.4773 83.2619 97.8229 83.8272C95.3754 85.9447 93.9197 89.0128 93.7921 92.2613C94.0594 92.2528 94.3313 92.2613 94.6006 92.2697C94.7885 92.2756 94.9751 92.2815 95.1582 92.2815H98.2111H104.33H106.705H113.075H116.68C116.656 91.5044 116.557 90.737 116.378 89.9794C115.588 86.6364 113.152 83.5724 110.138 82.0243C110.124 82.0171 110.111 82.0097 110.099 82.0021C108.06 83.5972 105.308 84.1572 102.784 83.3142C101.969 83.0427 101.216 82.6392 100.546 82.1318ZM111.716 78.713C111.703 78.7321 111.691 78.7534 111.68 78.7768C110.358 81.6527 107.153 83.3476 104.074 82.8137C101.192 82.3133 98.8563 80.0446 98.2641 77.1353C97.6587 74.1793 99.0076 71.0698 101.547 69.5017C104.186 67.8869 107.673 68.1939 109.976 70.2824C112.294 72.3821 113.018 75.8492 111.716 78.713Z"/>
</mask>
<path fill-rule="evenodd" clip-rule="evenodd" d="M111.358 70.5961C113.299 73.0182 113.68 76.3679 112.364 79.1838C112.2 79.5375 112.002 79.8778 111.779 80.2047C111.445 80.6975 111.061 81.1444 110.637 81.5416C110.667 81.5512 110.696 81.5634 110.726 81.5785C111.68 82.0656 112.568 82.6728 113.371 83.3935C115.976 85.7356 117.47 89.152 117.483 92.6752C117.483 92.8954 117.299 93.0755 117.088 93.0755H117.009C115.956 93.1067 114.897 93.0963 113.84 93.0859C113.312 93.0807 112.785 93.0755 112.259 93.0755H106.166H103.784H97.3952H93.3948C93.1843 93.0755 93 92.8887 93 92.6752C93.0066 91.6342 93.1316 90.5933 93.3882 89.5791C94.2567 86.1293 96.6254 83.1799 99.7574 81.5785C99.7869 81.5633 99.8187 81.551 99.8523 81.5413C98.3667 80.1242 97.4251 78.145 97.3363 76.0143C97.1982 72.7113 99.1589 69.5818 102.153 68.294C105.337 66.9261 109.173 67.8669 111.358 70.5961ZM100.546 82.1318C99.708 82.5711 98.4773 83.2619 97.8229 83.8272C95.3754 85.9447 93.9197 89.0128 93.7921 92.2613C94.0594 92.2528 94.3313 92.2613 94.6006 92.2697C94.7885 92.2756 94.9751 92.2815 95.1582 92.2815H98.2111H104.33H106.705H113.075H116.68C116.656 91.5044 116.557 90.737 116.378 89.9794C115.588 86.6364 113.152 83.5724 110.138 82.0243C110.124 82.0171 110.111 82.0097 110.099 82.0021C108.06 83.5972 105.308 84.1572 102.784 83.3142C101.969 83.0427 101.216 82.6392 100.546 82.1318ZM111.716 78.713C111.703 78.7321 111.691 78.7534 111.68 78.7768C110.358 81.6527 107.153 83.3476 104.074 82.8137C101.192 82.3133 98.8563 80.0446 98.2641 77.1353C97.6587 74.1793 99.0076 71.0698 101.547 69.5017C104.186 67.8869 107.673 68.1939 109.976 70.2824C112.294 72.3821 113.018 75.8492 111.716 78.713Z" fill="#2A2A2A"/>
<path d="M112.364 79.1838L112.228 79.1203L112.228 79.1205L112.364 79.1838ZM111.358 70.5961L111.241 70.6898L111.241 70.6899L111.358 70.5961ZM111.779 80.2047L111.655 80.12L111.655 80.1206L111.779 80.2047ZM110.637 81.5416L110.534 81.4321L110.348 81.6065L110.591 81.6844L110.637 81.5416ZM110.726 81.5785L110.657 81.7119L110.657 81.7121L110.726 81.5785ZM113.371 83.3935L113.471 83.2819L113.471 83.2819L113.371 83.3935ZM117.483 92.6752H117.633L117.633 92.6746L117.483 92.6752ZM117.009 93.0755V92.9255L117.005 92.9256L117.009 93.0755ZM113.84 93.0859L113.841 92.9359L113.84 93.0859ZM93 92.6752L92.85 92.6742V92.6752H93ZM93.3882 89.5791L93.5336 89.6158L93.5337 89.6157L93.3882 89.5791ZM99.7574 81.5785L99.8256 81.7121L99.826 81.7119L99.7574 81.5785ZM99.8523 81.5413L99.8938 81.6854L100.145 81.6131L99.9558 81.4328L99.8523 81.5413ZM97.3363 76.0143L97.4862 76.008L97.4862 76.008L97.3363 76.0143ZM102.153 68.294L102.093 68.1562L102.093 68.1562L102.153 68.294ZM97.8229 83.8272L97.7249 83.7137L97.7248 83.7138L97.8229 83.8272ZM100.546 82.1318L100.637 82.0122L100.561 81.9548L100.476 81.999L100.546 82.1318ZM93.7921 92.2613L93.6422 92.2554L93.6359 92.4164L93.7969 92.4112L93.7921 92.2613ZM94.6006 92.2697L94.5959 92.4197H94.5959L94.6006 92.2697ZM116.68 92.2815V92.4315H116.835L116.83 92.2767L116.68 92.2815ZM116.378 89.9794L116.232 90.0139L116.232 90.014L116.378 89.9794ZM110.138 82.0243L110.069 82.1577L110.07 82.1577L110.138 82.0243ZM110.099 82.0021L110.179 81.8751L110.09 81.8189L110.007 81.8839L110.099 82.0021ZM102.784 83.3142L102.832 83.1719L102.832 83.1719L102.784 83.3142ZM111.716 78.713L111.84 78.7975L111.847 78.7868L111.853 78.7751L111.716 78.713ZM111.68 78.7768L111.544 78.7135L111.544 78.7141L111.68 78.7768ZM104.074 82.8137L104.048 82.9615L104.048 82.9615L104.074 82.8137ZM98.2641 77.1353L98.4111 77.1054L98.411 77.1052L98.2641 77.1353ZM101.547 69.5017L101.469 69.3738L101.469 69.3741L101.547 69.5017ZM109.976 70.2824L109.875 70.3935L109.875 70.3936L109.976 70.2824ZM112.5 79.2473C113.84 76.3804 113.452 72.9696 111.475 70.5023L111.241 70.6899C113.145 73.0668 113.521 76.3554 112.228 79.1203L112.5 79.2473ZM111.903 80.2894C112.13 79.9564 112.332 79.6089 112.5 79.2471L112.228 79.1205C112.068 79.466 111.874 79.7991 111.655 80.12L111.903 80.2894ZM110.739 81.6511C111.171 81.2464 111.563 80.791 111.903 80.2889L111.655 80.1206C111.327 80.6039 110.95 81.0425 110.534 81.4321L110.739 81.6511ZM110.794 81.4451C110.758 81.4262 110.72 81.4109 110.682 81.3988L110.591 81.6844C110.613 81.6916 110.635 81.7007 110.657 81.7119L110.794 81.4451ZM113.471 83.2819C112.658 82.5524 111.759 81.9378 110.794 81.4449L110.657 81.7121C111.6 82.1934 112.478 82.7932 113.27 83.5051L113.471 83.2819ZM117.633 92.6746C117.62 89.1103 116.109 85.6531 113.471 83.2819L113.27 83.505C115.844 85.818 117.32 89.1937 117.333 92.6757L117.633 92.6746ZM117.088 93.2255C117.382 93.2255 117.633 92.9778 117.633 92.6752H117.333C117.333 92.8129 117.216 92.9255 117.088 92.9255V93.2255ZM117.009 93.2255H117.088V92.9255H117.009V93.2255ZM113.838 93.2359C114.895 93.2463 115.957 93.2567 117.014 93.2255L117.005 92.9256C115.955 92.9567 114.899 92.9463 113.841 92.9359L113.838 93.2359ZM112.259 93.2255C112.784 93.2255 113.31 93.2307 113.838 93.2359L113.841 92.9359C113.314 92.9307 112.785 92.9255 112.259 92.9255V93.2255ZM106.166 93.2255H112.259V92.9255H106.166V93.2255ZM103.784 93.2255H106.166V92.9255H103.784V93.2255ZM97.3952 93.2255H103.784V92.9255H97.3952V93.2255ZM93.3948 93.2255H97.3952V92.9255H93.3948V93.2255ZM92.85 92.6752C92.85 92.9696 93.0994 93.2255 93.3948 93.2255V92.9255C93.2691 92.9255 93.15 92.8078 93.15 92.6752H92.85ZM93.2428 89.5423C92.9831 90.5689 92.8567 91.6219 92.85 92.6742L93.15 92.6761C93.1565 91.6465 93.2802 90.6177 93.5336 89.6158L93.2428 89.5423ZM99.6891 81.4449C96.5189 83.066 94.1219 86.0505 93.2428 89.5424L93.5337 89.6157C94.3916 86.2081 96.732 83.2939 99.8256 81.7121L99.6891 81.4449ZM99.8107 81.3972C99.7689 81.4092 99.7279 81.425 99.6887 81.4451L99.826 81.7119C99.8458 81.7017 99.8685 81.6928 99.8938 81.6854L99.8107 81.3972ZM97.1865 76.0205C97.2769 78.1914 98.2361 80.2069 99.7488 81.6499L99.9558 81.4328C98.4974 80.0415 97.5733 78.0986 97.4862 76.008L97.1865 76.0205ZM102.093 68.1562C99.0418 69.4689 97.0457 72.6561 97.1865 76.0205L97.4862 76.008C97.3506 72.7664 99.276 69.6947 102.212 68.4318L102.093 68.1562ZM111.475 70.5023C109.248 67.7203 105.34 66.7618 102.093 68.1562L102.212 68.4318C105.335 67.0904 109.098 68.0136 111.241 70.6898L111.475 70.5023ZM97.921 83.9407C98.5603 83.3884 99.7757 82.7049 100.616 82.2647L100.476 81.999C99.6402 82.4373 98.3942 83.1354 97.7249 83.7137L97.921 83.9407ZM93.942 92.2672C94.068 89.0594 95.5055 86.0305 97.9211 83.9406L97.7248 83.7138C95.2453 85.8589 93.7714 88.9662 93.6422 92.2554L93.942 92.2672ZM94.6053 92.1198C94.3368 92.1114 94.0602 92.1027 93.7873 92.1114L93.7969 92.4112C94.0586 92.4029 94.3257 92.4112 94.5959 92.4197L94.6053 92.1198ZM95.1582 92.1315C94.9779 92.1315 94.7936 92.1257 94.6053 92.1198L94.5959 92.4197C94.7834 92.4255 94.9724 92.4315 95.1582 92.4315V92.1315ZM98.2111 92.1315H95.1582V92.4315H98.2111V92.1315ZM104.33 92.1315H98.2111V92.4315H104.33V92.1315ZM106.705 92.1315H104.33V92.4315H106.705V92.1315ZM113.075 92.1315H106.705V92.4315H113.075V92.1315ZM116.68 92.1315H113.075V92.4315H116.68V92.1315ZM116.232 90.014C116.409 90.7614 116.506 91.5187 116.531 92.2863L116.83 92.2767C116.805 91.4901 116.706 90.7127 116.524 89.9448L116.232 90.014ZM110.07 82.1577C113.045 83.686 115.452 86.7142 116.232 90.0139L116.524 89.9449C115.724 86.5586 113.259 83.4587 110.207 81.8909L110.07 82.1577ZM110.019 82.129C110.035 82.1391 110.052 82.1486 110.069 82.1577L110.207 81.8909C110.196 81.8855 110.187 81.8802 110.179 81.8751L110.019 82.129ZM102.737 83.4565C105.311 84.3163 108.116 83.7446 110.191 82.1202L110.007 81.8839C108.005 83.4499 105.305 83.998 102.832 83.1719L102.737 83.4565ZM100.455 82.2514C101.138 82.7684 101.906 83.1797 102.737 83.4565L102.832 83.1719C102.033 82.9057 101.294 82.5101 100.637 82.0122L100.455 82.2514ZM111.592 78.6286C111.574 78.6548 111.558 78.6832 111.544 78.7135L111.816 78.84C111.824 78.8235 111.832 78.8095 111.84 78.7975L111.592 78.6286ZM111.544 78.7141C110.249 81.529 107.111 83.188 104.1 82.6659L104.048 82.9615C107.195 83.5071 110.466 81.7764 111.816 78.8394L111.544 78.7141ZM104.1 82.666C101.279 82.1762 98.991 79.9546 98.4111 77.1054L98.1171 77.1652C98.7215 80.1345 101.105 82.4504 104.048 82.9615L104.1 82.666ZM98.411 77.1052C97.8183 74.2107 99.1401 71.1643 101.626 69.6294L101.469 69.3741C98.8751 70.9753 97.4992 74.1479 98.1171 77.1654L98.411 77.1052ZM101.626 69.6297C104.208 68.0493 107.622 68.3502 109.875 70.3935L110.077 70.1713C107.724 68.0376 104.164 67.7246 101.469 69.3738L101.626 69.6297ZM109.875 70.3936C112.145 72.4495 112.855 75.8466 111.579 78.6509L111.853 78.7751C113.182 75.8519 112.443 72.3147 110.077 70.1713L109.875 70.3936Z" fill="white" mask="url(#path-3-outside-2)"/>
<path d="M117.407 124.985H93.765C93.3965 123.913 94.9286 113.549 105.246 112.834C113.501 112.262 116.793 120.697 117.407 124.985Z" fill="#9ACCAB"/>
<ellipse cx="105.179" cy="108.15" rx="7.88063" ry="7.52242" fill="#9ACCAB"/>
<path fill-rule="evenodd" clip-rule="evenodd" d="M111.358 102.835C113.299 105.257 113.68 108.607 112.364 111.423C112.2 111.776 112.002 112.117 111.779 112.443C111.445 112.936 111.061 113.383 110.637 113.78C110.667 113.79 110.696 113.802 110.726 113.817C111.68 114.304 112.568 114.912 113.371 115.632C115.976 117.974 117.47 121.391 117.483 124.914C117.483 125.134 117.299 125.314 117.088 125.314H117.009C115.956 125.345 114.897 125.335 113.84 125.325C113.312 125.319 112.785 125.314 112.259 125.314H106.166H103.784H97.3952H93.3948C93.1842 125.314 93 125.127 93 124.914C93.0066 123.873 93.1316 122.832 93.3882 121.818C94.2567 118.368 96.6254 115.419 99.7573 113.817C99.7868 113.802 99.8187 113.79 99.8523 113.78C98.3667 112.363 97.4251 110.384 97.3363 108.253C97.1981 104.95 99.1589 101.821 102.153 100.533C105.337 99.1648 109.173 100.106 111.358 102.835ZM100.546 114.371C99.7079 114.81 98.4772 115.501 97.8229 116.066C95.3754 118.183 93.9197 121.252 93.7921 124.5C94.0594 124.492 94.3313 124.5 94.6006 124.509C94.7885 124.514 94.9751 124.52 95.1581 124.52H98.2111H104.33H106.705H113.075H116.68C116.656 123.743 116.557 122.976 116.378 122.218C115.588 118.875 113.152 115.811 110.138 114.263C110.124 114.256 110.111 114.248 110.099 114.241C108.06 115.836 105.308 116.396 102.784 115.553C101.969 115.281 101.216 114.878 100.546 114.371ZM111.716 110.952C111.703 110.971 111.691 110.992 111.68 111.016C110.358 113.891 107.153 115.586 104.074 115.053C101.192 114.552 98.8562 112.283 98.2641 109.374C97.6587 106.418 99.0076 103.309 101.547 101.741C104.186 100.126 107.673 100.433 109.976 102.521C112.294 104.621 113.018 108.088 111.716 110.952Z" fill="#2A2A2A"/>
<path d="M125.156 133.306C123.992 133.306 123.031 134.014 122.626 135.026H122.424V133.761C122.424 132.243 121.21 131.029 119.692 131.029C118.174 131.029 116.96 132.243 116.96 133.761V131.889C116.96 130.371 115.746 129.157 114.228 129.157C112.71 129.157 111.496 130.371 111.496 131.889V122.732C111.496 121.214 110.282 120 108.764 120C107.247 120 106.032 121.214 106.032 122.732V133.963C106.032 133.963 105.881 140.388 106.235 143.677C106.639 149.292 111.344 153.744 117.061 153.744C123.031 153.744 127.837 148.989 127.938 143.019C127.989 142.968 127.989 142.867 127.989 142.766V138.618V136.139V135.987C127.888 134.52 126.674 133.306 125.156 133.306Z" fill="#9ACCAB"/>
<path d="M122.626 135.026V136.026H123.303L123.555 135.397L122.626 135.026ZM122.424 135.026H121.424V136.026H122.424V135.026ZM106.032 133.963L107.032 133.987L107.032 133.975V133.963H106.032ZM106.235 143.677L107.232 143.605L107.231 143.587L107.229 143.57L106.235 143.677ZM127.938 143.019L127.231 142.312L126.945 142.598L126.939 143.002L127.938 143.019ZM127.989 135.987H128.989V135.952L128.987 135.918L127.989 135.987ZM125.156 132.306C123.563 132.306 122.247 133.282 121.698 134.654L123.555 135.397C123.815 134.746 124.421 134.306 125.156 134.306V132.306ZM122.626 134.026H122.424V136.026H122.626V134.026ZM123.424 135.026V133.761H121.424V135.026H123.424ZM123.424 133.761C123.424 131.691 121.762 130.029 119.692 130.029V132.029C120.657 132.029 121.424 132.795 121.424 133.761H123.424ZM119.692 130.029C117.622 130.029 115.96 131.691 115.96 133.761H117.96C117.96 132.795 118.727 132.029 119.692 132.029V130.029ZM117.96 133.761V131.889H115.96V133.761H117.96ZM117.96 131.889C117.96 129.819 116.298 128.157 114.228 128.157V130.157C115.194 130.157 115.96 130.924 115.96 131.889H117.96ZM114.228 128.157C112.158 128.157 110.496 129.819 110.496 131.889H112.496C112.496 130.924 113.263 130.157 114.228 130.157V128.157ZM112.496 131.889V122.732H110.496V131.889H112.496ZM112.496 122.732C112.496 120.662 110.834 119 108.764 119V121C109.73 121 110.496 121.766 110.496 122.732H112.496ZM108.764 119C106.694 119 105.032 120.662 105.032 122.732H107.032C107.032 121.766 107.799 121 108.764 121V119ZM105.032 122.732V133.963H107.032V122.732H105.032ZM106.032 133.963C105.033 133.94 105.033 133.94 105.033 133.94C105.033 133.94 105.033 133.94 105.033 133.94C105.033 133.94 105.033 133.941 105.033 133.941C105.033 133.942 105.033 133.943 105.032 133.945C105.032 133.948 105.032 133.953 105.032 133.959C105.032 133.972 105.031 133.99 105.031 134.015C105.03 134.063 105.028 134.135 105.027 134.227C105.023 134.411 105.019 134.676 105.014 135.005C105.005 135.663 104.998 136.574 105.001 137.59C105.007 139.607 105.057 142.082 105.24 143.784L107.229 143.57C107.058 141.983 107.007 139.602 107.001 137.584C106.998 136.582 107.005 135.682 107.014 135.032C107.018 134.707 107.023 134.445 107.026 134.265C107.028 134.174 107.029 134.105 107.03 134.058C107.031 134.034 107.031 134.016 107.032 134.004C107.032 133.998 107.032 133.994 107.032 133.991C107.032 133.99 107.032 133.988 107.032 133.988C107.032 133.987 107.032 133.987 107.032 133.987C107.032 133.987 107.032 133.987 107.032 133.987C107.032 133.987 107.032 133.987 106.032 133.963ZM105.237 143.749C105.679 149.883 110.816 154.744 117.061 154.744V152.744C111.873 152.744 107.599 148.702 107.232 143.605L105.237 143.749ZM117.061 154.744C123.58 154.744 128.828 149.548 128.938 143.036L126.939 143.002C126.847 148.43 122.482 152.744 117.061 152.744V154.744ZM128.645 143.726C128.902 143.47 128.956 143.168 128.973 143.053C128.991 142.925 128.989 142.798 128.989 142.766H126.989C126.989 142.835 126.987 142.81 126.993 142.77C126.996 142.744 127.007 142.684 127.036 142.608C127.067 142.53 127.125 142.419 127.231 142.312L128.645 143.726ZM128.989 142.766V138.618H126.989V142.766H128.989ZM128.989 138.618V136.139H126.989V138.618H128.989ZM128.989 136.139V135.987H126.989V136.139H128.989ZM128.987 135.918C128.851 133.955 127.227 132.306 125.156 132.306V134.306C126.12 134.306 126.924 135.085 126.991 136.056L128.987 135.918Z" fill="#2A2A2A"/>
</svg>
