<svg width="85" height="113" viewBox="0 0 85 113" fill="none" xmlns="http://www.w3.org/2000/svg">
<g filter="url(#filter0_d)">
<rect x="2" y="1" width="76.8555" height="104.574" rx="10" fill="white"/>
<rect x="2.25" y="1.25" width="76.3555" height="104.074" rx="9.75" stroke="black" stroke-opacity="0.1" stroke-width="0.5"/>
<path fill-rule="evenodd" clip-rule="evenodd" d="M43.6835 30.9017C44.9458 32.477 45.194 34.6554 44.3382 36.4867C44.2312 36.7167 44.1028 36.938 43.9574 37.1507C43.7402 37.4711 43.4903 37.7618 43.2145 38.0201C43.234 38.0264 43.2535 38.0344 43.2725 38.0441C43.893 38.3609 44.4706 38.7558 44.9927 39.2245C46.6872 40.7477 47.6586 42.9695 47.6671 45.2608C47.6671 45.404 47.5473 45.5212 47.4104 45.5212H47.359C46.674 45.5414 45.9852 45.5346 45.2978 45.5279C44.9545 45.5245 44.6115 45.5212 44.2695 45.5212H40.3071H38.7581H34.6032H32.0015C31.8646 45.5212 31.7448 45.3997 31.7448 45.2608C31.749 44.5838 31.8303 43.9069 31.9972 43.2473C32.5621 41.0037 34.1025 39.0856 36.1393 38.0441C36.1585 38.0343 36.1793 38.0263 36.2011 38.02C35.235 37.0983 34.6226 35.8111 34.5649 34.4254C34.475 32.2774 35.7502 30.2421 37.6971 29.4046C39.7682 28.515 42.2629 29.1268 43.6835 30.9017ZM36.6523 38.404C36.1072 38.6896 35.3068 39.1389 34.8813 39.5066C33.2896 40.8836 32.3429 42.879 32.2599 44.9916C32.4337 44.9861 32.6105 44.9916 32.7857 44.9971C32.9079 45.0009 33.0292 45.0047 33.1483 45.0047H35.1338H39.1133H40.658H44.8001H47.1452C47.129 44.4994 47.0651 44.0003 46.9482 43.5076C46.4347 41.3335 44.8502 39.3408 42.8904 38.334C42.8812 38.3293 42.8728 38.3245 42.8649 38.3195C41.5392 39.357 39.7492 39.7211 38.1079 39.1729C37.5777 38.9963 37.088 38.7339 36.6523 38.404ZM43.9166 36.1805C43.9081 36.193 43.9003 36.2067 43.8932 36.222C43.0331 38.0923 40.9492 39.1946 38.9466 38.8474C37.0724 38.5219 35.5533 37.0465 35.1682 35.1545C34.7745 33.2321 35.6517 31.2098 37.3034 30.19C39.0193 29.1399 41.2872 29.3395 42.7849 30.6978C44.2928 32.0632 44.7635 34.3181 43.9166 36.1805Z" fill="#2A2A2A"/>
<path d="M58.3036 51.6016H47.1215C44.677 51.6016 42.6953 53.5833 42.6953 56.0278C42.6953 58.4723 44.677 60.454 47.1215 60.454H58.3036C60.7481 60.454 62.7298 58.4723 62.7298 56.0278C62.7298 53.5833 60.7481 51.6016 58.3036 51.6016Z" stroke="#2A2A2A" stroke-width="0.75"/>
<path d="M33.6083 51.6016H22.4262C19.9817 51.6016 18 53.5833 18 56.0278C18 58.4723 19.9817 60.454 22.4262 60.454H33.6083C36.0528 60.454 38.0345 58.4723 38.0345 56.0278C38.0345 53.5833 36.0528 51.6016 33.6083 51.6016Z" fill="#9ACCAB" stroke="#2A2A2A" stroke-width="0.75"/>
<path d="M41.7224 65.465C41.0598 65.465 40.5124 65.8683 40.2819 66.4445H40.1666V65.7243C40.1666 64.8599 39.4752 64.1685 38.6108 64.1685C37.7465 64.1685 37.0551 64.8599 37.0551 65.7243V64.6582C37.0551 63.7939 36.3636 63.1025 35.4993 63.1025C34.6349 63.1025 33.9435 63.7939 33.9435 64.6582V59.4435C33.9435 58.5792 33.252 57.8877 32.3877 57.8877C31.5234 57.8877 30.8319 58.5792 30.8319 59.4435V65.8395C30.8319 65.8395 30.7455 69.4985 30.9472 71.3712C31.1776 74.5692 33.8571 77.1045 37.1127 77.1045C40.5124 77.1045 43.2494 74.3964 43.307 70.9967C43.3359 70.9679 43.3359 70.9102 43.3359 70.8526V68.4901V67.0784V66.9919C43.2782 66.1564 42.5867 65.465 41.7224 65.465Z" fill="#9ACCAB"/>
<path d="M40.2815 66.4446V66.9106H40.5969L40.714 66.6177L40.2815 66.4446ZM40.1662 66.4446H39.7003V66.9106H40.1662V66.4446ZM30.8315 65.8396L31.2973 65.8506L31.2974 65.8451V65.8396H30.8315ZM30.9467 71.3713L31.4115 71.3378L31.4109 71.3296L31.41 71.3214L30.9467 71.3713ZM43.3066 70.9968L42.9772 70.6673L42.844 70.8005L42.8408 70.9889L43.3066 70.9968ZM43.3355 66.992H43.8014V66.976L43.8003 66.96L43.3355 66.992ZM41.722 64.9992C40.8595 64.9992 40.1466 65.5274 39.8489 66.2716L40.714 66.6177C40.8774 66.2094 41.2593 65.931 41.722 65.931V64.9992ZM40.2815 65.9787H40.1662V66.9106H40.2815V65.9787ZM40.6321 66.4446V65.7244H39.7003V66.4446H40.6321ZM40.6321 65.7244C40.6321 64.6027 39.7321 63.7027 38.6104 63.7027V64.6345C39.2175 64.6345 39.7003 65.1174 39.7003 65.7244H40.6321ZM38.6104 63.7027C37.4888 63.7027 36.5888 64.6027 36.5888 65.7244H37.5206C37.5206 65.1174 38.0034 64.6345 38.6104 64.6345V63.7027ZM37.5206 65.7244V64.6583H36.5888V65.7244H37.5206ZM37.5206 64.6583C37.5206 63.5367 36.6205 62.6367 35.4989 62.6367V63.5685C36.1059 63.5685 36.5888 64.0513 36.5888 64.6583H37.5206ZM35.4989 62.6367C34.3772 62.6367 33.4772 63.5367 33.4772 64.6583H34.409C34.409 64.0513 34.8919 63.5685 35.4989 63.5685V62.6367ZM34.409 64.6583V59.4436H33.4772V64.6583H34.409ZM34.409 59.4436C34.409 58.3219 33.5089 57.4219 32.3873 57.4219V58.3537C32.9943 58.3537 33.4772 58.8366 33.4772 59.4436H34.409ZM32.3873 57.4219C31.2656 57.4219 30.3656 58.3219 30.3656 59.4436H31.2974C31.2974 58.8366 31.7803 58.3537 32.3873 58.3537V57.4219ZM30.3656 59.4436V65.8396H31.2974V59.4436H30.3656ZM30.8315 65.8396C30.3657 65.8286 30.3657 65.8286 30.3657 65.8287C30.3657 65.8287 30.3657 65.8288 30.3657 65.8288C30.3657 65.829 30.3657 65.8292 30.3657 65.8294C30.3657 65.8299 30.3657 65.8306 30.3657 65.8315C30.3656 65.8333 30.3655 65.8361 30.3655 65.8397C30.3653 65.8468 30.365 65.8574 30.3648 65.8712C30.3642 65.8988 30.3633 65.9394 30.3623 65.9917C30.3603 66.0961 30.3577 66.2473 30.3553 66.4344C30.3503 66.8085 30.3458 67.3271 30.3476 67.9046C30.3512 69.0533 30.3798 70.4581 30.4835 71.4212L31.41 71.3214C31.312 70.4118 31.283 69.0508 31.2794 67.9018C31.2776 67.3305 31.2821 66.8172 31.287 66.4468C31.2895 66.2616 31.292 66.1122 31.294 66.0093C31.295 65.9579 31.2958 65.9181 31.2964 65.8911C31.2967 65.8777 31.2969 65.8675 31.297 65.8607C31.2971 65.8573 31.2972 65.8547 31.2972 65.853C31.2973 65.8522 31.2973 65.8516 31.2973 65.8511C31.2973 65.851 31.2973 65.8508 31.2973 65.8507C31.2973 65.8507 31.2973 65.8506 31.2973 65.8506C31.2973 65.8506 31.2973 65.8506 30.8315 65.8396ZM30.482 71.4048C30.7299 74.8446 33.6104 77.5706 37.1123 77.5706V76.6387C34.1029 76.6387 31.6245 74.2941 31.4115 71.3378L30.482 71.4048ZM37.1123 77.5706C40.7679 77.5706 43.7106 74.6568 43.7725 71.0047L42.8408 70.9889C42.7874 74.1361 40.256 76.6387 37.1123 76.6387V77.5706ZM43.6361 71.3262C43.758 71.2043 43.7847 71.0598 43.7931 71.0015C43.8023 70.937 43.8014 70.8729 43.8014 70.8527H42.8695C42.8695 70.8685 42.8695 70.8753 42.8693 70.8805C42.8692 70.8854 42.8691 70.8803 42.8706 70.8697C42.872 70.8596 42.8763 70.8338 42.8894 70.8004C42.9029 70.7659 42.9288 70.7157 42.9772 70.6673L43.6361 71.3262ZM43.8014 70.8527V68.4902H42.8695V70.8527H43.8014ZM43.8014 68.4902V67.0785H42.8695V68.4902H43.8014ZM43.8014 67.0785V66.992H42.8695V67.0785H43.8014ZM43.8003 66.96C43.7267 65.8933 42.8441 64.9992 41.722 64.9992V65.931C42.3286 65.931 42.829 66.4198 42.8706 67.0241L43.8003 66.96Z" fill="#2A2A2A"/>
</g>
<defs>
<filter id="filter0_d" x="0" y="0" width="84.8555" height="112.574" filterUnits="userSpaceOnUse" color-interpolation-filters="sRGB">
<feFlood flood-opacity="0" result="BackgroundImageFix"/>
<feColorMatrix in="SourceAlpha" type="matrix" values="0 0 0 0 0 0 0 0 0 0 0 0 0 0 0 0 0 0 127 0"/>
<feOffset dx="2" dy="3"/>
<feGaussianBlur stdDeviation="2"/>
<feColorMatrix type="matrix" values="0 0 0 0 0 0 0 0 0 0 0 0 0 0 0 0 0 0 0.05 0"/>
<feBlend mode="normal" in2="BackgroundImageFix" result="effect1_dropShadow"/>
<feBlend mode="normal" in="SourceGraphic" in2="effect1_dropShadow" result="shape"/>
</filter>
</defs>
</svg>
