<svg width="220" height="188" viewBox="0 0 220 188" fill="none" xmlns="http://www.w3.org/2000/svg">
<rect width="220" height="188" fill="#F6F6F6"/>
<path d="M162.921 77.0297C162.335 77.6155 162.335 78.5652 162.921 79.151L172.467 88.6969C173.053 89.2827 174.003 89.2827 174.588 88.6969C175.174 88.1111 175.174 87.1614 174.588 86.5756L166.103 78.0903L174.588 69.6051C175.174 69.0193 175.174 68.0695 174.588 67.4837C174.003 66.8979 173.053 66.8979 172.467 67.4837L162.921 77.0297ZM131.471 77.0297C130.885 77.6155 130.885 78.5652 131.471 79.151L141.017 88.6969C141.603 89.2827 142.553 89.2827 143.138 88.6969C143.724 88.1111 143.724 87.1614 143.138 86.5756L134.653 78.0903L143.138 69.6051C143.724 69.0193 143.724 68.0695 143.138 67.4837C142.553 66.8979 141.603 66.8979 141.017 67.4837L131.471 77.0297ZM100.021 77.0297C99.4354 77.6155 99.4354 78.5652 100.021 79.151L109.567 88.6969C110.153 89.2827 111.103 89.2827 111.688 88.6969C112.274 88.1111 112.274 87.1614 111.688 86.5756L103.203 78.0903L111.688 69.6051C112.274 69.0193 112.274 68.0695 111.688 67.4837C111.103 66.8979 110.153 66.8979 109.567 67.4837L100.021 77.0297ZM68.5712 77.0297C67.9854 77.6155 67.9854 78.5652 68.5712 79.151L78.1171 88.6969C78.7029 89.2827 79.6527 89.2827 80.2384 88.6969C80.8242 88.1111 80.8242 87.1614 80.2384 86.5756L71.7532 78.0903L80.2384 69.6051C80.8242 69.0193 80.8242 68.0695 80.2384 67.4837C79.6527 66.8979 78.7029 66.8979 78.1171 67.4837L68.5712 77.0297ZM37.1212 77.0297C36.5354 77.6155 36.5354 78.5652 37.1212 79.151L46.6671 88.6969C47.2529 89.2827 48.2027 89.2827 48.7885 88.6969C49.3742 88.1111 49.3742 87.1614 48.7885 86.5756L40.3032 78.0903L48.7885 69.6051C49.3742 69.0193 49.3742 68.0695 48.7885 67.4837C48.2027 66.8979 47.2529 66.8979 46.6671 67.4837L37.1212 77.0297ZM182.482 76.5903H163.982V79.5903H182.482V76.5903ZM151.032 76.5903H132.532V79.5903H151.032V76.5903ZM119.582 76.5903H101.082V79.5903H119.582V76.5903ZM88.1318 76.5903H69.6318V79.5903H88.1318V76.5903ZM56.6818 76.5903H38.1819V79.5903H56.6818V76.5903Z" fill="#2A2A2A"/>
<circle cx="110" cy="78.1152" r="19" stroke="#2A2A2A" stroke-width="2"/>
</svg>
