<svg width="85" height="113" viewBox="0 0 85 113" fill="none" xmlns="http://www.w3.org/2000/svg">
<g filter="url(#filter0_d)">
<rect x="2" y="1" width="76.8555" height="104.574" rx="10" fill="white"/>
<rect x="2.25" y="1.25" width="76.3555" height="104.074" rx="9.75" stroke="black" stroke-opacity="0.1" stroke-width="0.5"/>
</g>
<path d="M60.5301 53.1639C60.3342 53.3495 60.3342 53.6505 60.5301 53.8361L63.7216 56.8608C63.9175 57.0464 64.2351 57.0464 64.431 56.8608C64.6266 56.6752 64.6266 56.3743 64.431 56.1886L61.5939 53.5L64.431 50.8114C64.6266 50.6257 64.6266 50.3248 64.431 50.1392C64.2351 49.9536 63.9175 49.9536 63.7216 50.1392L60.5301 53.1639ZM48.4344 53.1639C48.2385 53.3495 48.2385 53.6505 48.4344 53.8361L51.6259 56.8608C51.8218 57.0464 52.1391 57.0464 52.335 56.8608C52.531 56.6752 52.531 56.3743 52.335 56.1886L49.4983 53.5L52.335 50.8114C52.531 50.6257 52.531 50.3248 52.335 50.1392C52.1391 49.9536 51.8218 49.9536 51.6259 50.1392L48.4344 53.1639ZM36.3385 53.1639C36.1427 53.3495 36.1427 53.6505 36.3385 53.8361L39.53 56.8608C39.7259 57.0464 40.0434 57.0464 40.2392 56.8608C40.4351 56.6752 40.4351 56.3743 40.2392 56.1886L37.4024 53.5L40.2392 50.8114C40.4351 50.6257 40.4351 50.3248 40.2392 50.1392C40.0434 49.9536 39.7259 49.9536 39.53 50.1392L36.3385 53.1639ZM24.2427 53.1639C24.0469 53.3495 24.0469 53.6505 24.2427 53.8361L27.4342 56.8608C27.6301 57.0464 27.9476 57.0464 28.1434 56.8608C28.3393 56.6752 28.3393 56.3743 28.1434 56.1886L25.3065 53.5L28.1434 50.8114C28.3393 50.6257 28.3393 50.3248 28.1434 50.1392C27.9476 49.9536 27.6301 49.9536 27.4342 50.1392L24.2427 53.1639ZM12.1469 53.1639C11.951 53.3495 11.951 53.6505 12.1469 53.8361L15.3384 56.8608C15.5342 57.0464 15.8517 57.0464 16.0476 56.8608C16.2434 56.6752 16.2434 56.3743 16.0476 56.1886L13.2107 53.5L16.0476 50.8114C16.2434 50.6257 16.2434 50.3248 16.0476 50.1392C15.8517 49.9536 15.5342 49.9536 15.3384 50.1392L12.1469 53.1639ZM68 53.0247H60.8848V53.9753H68V53.0247ZM55.904 53.0247H48.7888V53.9753H55.904V53.0247ZM43.8083 53.0247H36.6932V53.9753H43.8083V53.0247ZM31.7125 53.0247H24.5973V53.9753H31.7125V53.0247ZM19.6167 53.0247H12.5015V53.9753H19.6167V53.0247Z" fill="#2A2A2A"/>
<path d="M40 60.8353C43.866 60.8353 47 57.7382 47 53.9176C47 50.0971 43.866 47 40 47C36.134 47 33 50.0971 33 53.9176C33 57.7382 36.134 60.8353 40 60.8353Z" stroke="#2A2A2A"/>
<defs>
<filter id="filter0_d" x="0" y="0" width="84.8555" height="112.574" filterUnits="userSpaceOnUse" color-interpolation-filters="sRGB">
<feFlood flood-opacity="0" result="BackgroundImageFix"/>
<feColorMatrix in="SourceAlpha" type="matrix" values="0 0 0 0 0 0 0 0 0 0 0 0 0 0 0 0 0 0 127 0"/>
<feOffset dx="2" dy="3"/>
<feGaussianBlur stdDeviation="2"/>
<feColorMatrix type="matrix" values="0 0 0 0 0 0 0 0 0 0 0 0 0 0 0 0 0 0 0.05 0"/>
<feBlend mode="normal" in2="BackgroundImageFix" result="effect1_dropShadow"/>
<feBlend mode="normal" in="SourceGraphic" in2="effect1_dropShadow" result="shape"/>
</filter>
</defs>
</svg>
