<svg width="220" height="188" viewBox="0 0 220 188" fill="none" xmlns="http://www.w3.org/2000/svg">
<rect width="220" height="188" fill="#F6F6F6"/>
<circle cx="37.5" cy="87.5" r="10" fill="#ABBCE8" stroke="#2A2A2A"/>
<path d="M41.8298 91.9033H39.9258C39.7818 91.9033 39.6644 91.866 39.5738 91.7913C39.4884 91.7167 39.4164 91.6313 39.3578 91.5353L37.6218 88.6793C37.5951 88.77 37.5631 88.8553 37.5258 88.9353C37.4938 89.0153 37.4564 89.09 37.4138 89.1593L35.8778 91.5353C35.8191 91.626 35.7471 91.7113 35.6618 91.7913C35.5764 91.866 35.4698 91.9033 35.3418 91.9033H33.5738L36.3898 87.6713L33.6858 83.6953H35.5898C35.7338 83.6953 35.8404 83.7167 35.9098 83.7593C35.9791 83.7967 36.0404 83.8607 36.0938 83.9513L37.8138 86.6873C37.8724 86.506 37.9551 86.3273 38.0618 86.1513L39.4458 83.9913C39.5631 83.794 39.7151 83.6953 39.9018 83.6953H41.7178L39.0218 87.5833L41.8298 91.9033Z" fill="#2A2A2A"/>
<circle cx="60.7844" cy="87.5" r="10" fill="#ABBCE8" stroke="#2A2A2A"/>
<circle cx="85.3599" cy="87.5" r="10" fill="#ABBCE8" stroke="#2A2A2A"/>
<path d="M56.9151 84.5593C56.9951 84.0047 57.1497 83.5193 57.3791 83.1033C57.6084 82.682 57.8937 82.3327 58.2351 82.0553C58.5817 81.7727 58.9764 81.562 59.4191 81.4233C59.8671 81.2793 60.3471 81.2073 60.8591 81.2073C61.3924 81.2073 61.8724 81.2847 62.2991 81.4393C62.7311 81.5887 63.0991 81.7993 63.4031 82.0713C63.7071 82.338 63.9391 82.6527 64.0991 83.0153C64.2644 83.378 64.3471 83.77 64.3471 84.1913C64.3471 84.5593 64.3044 84.8847 64.2191 85.1673C64.1391 85.4447 64.0217 85.6873 63.8671 85.8953C63.7124 86.1033 63.5204 86.2793 63.2911 86.4233C63.0617 86.5673 62.8031 86.6873 62.5151 86.7833C63.2084 87.002 63.7257 87.3353 64.0671 87.7833C64.4084 88.2313 64.5791 88.794 64.5791 89.4713C64.5791 90.0473 64.4724 90.5567 64.2591 90.9993C64.0457 91.442 63.7577 91.8153 63.3951 92.1193C63.0324 92.418 62.6111 92.6447 62.1311 92.7993C61.6564 92.954 61.1524 93.0313 60.6191 93.0313C60.0377 93.0313 59.5311 92.9647 59.0991 92.8313C58.6671 92.698 58.2911 92.5007 57.9711 92.2393C57.6511 91.978 57.3791 91.658 57.1551 91.2793C56.9311 90.9007 56.7391 90.4633 56.5791 89.9673L57.4511 89.6073C57.6804 89.5113 57.8937 89.4873 58.0911 89.5353C58.2937 89.578 58.4404 89.6847 58.5311 89.8553C58.6271 90.042 58.7311 90.226 58.8431 90.4073C58.9604 90.5887 59.0991 90.7513 59.2591 90.8953C59.4191 91.034 59.6057 91.1487 59.8191 91.2393C60.0377 91.3247 60.2964 91.3673 60.5951 91.3673C60.9311 91.3673 61.2244 91.314 61.4751 91.2073C61.7257 91.0953 61.9337 90.9513 62.0991 90.7753C62.2697 90.5993 62.3951 90.4047 62.4751 90.1913C62.5604 89.9727 62.6031 89.754 62.6031 89.5353C62.6031 89.258 62.5737 89.0073 62.5151 88.7833C62.4564 88.554 62.3337 88.3593 62.1471 88.1993C61.9604 88.0393 61.6911 87.914 61.3391 87.8233C60.9924 87.7327 60.5257 87.6873 59.9391 87.6873V86.2793C60.4244 86.274 60.8271 86.2287 61.1471 86.1433C61.4671 86.058 61.7204 85.9407 61.9071 85.7913C62.0991 85.6367 62.2324 85.4527 62.3071 85.2393C62.3817 85.026 62.4191 84.7913 62.4191 84.5353C62.4191 83.9913 62.2671 83.578 61.9631 83.2953C61.6591 83.0127 61.2537 82.8713 60.7471 82.8713C60.5124 82.8713 60.2964 82.906 60.0991 82.9753C59.9017 83.0393 59.7231 83.1327 59.5631 83.2553C59.4084 83.3727 59.2777 83.5113 59.1711 83.6713C59.0644 83.8313 58.9844 84.0073 58.9311 84.1993C58.8404 84.4447 58.7204 84.6073 58.5711 84.6873C58.4271 84.7673 58.2217 84.786 57.9551 84.7433L56.9151 84.5593Z" fill="#2A2A2A"/>
<path d="M88.2642 85.1134C88.2056 85.1881 88.1469 85.2468 88.0882 85.2894C88.0349 85.3321 87.9549 85.3534 87.8482 85.3534C87.7469 85.3534 87.6482 85.3241 87.5522 85.2654C87.4562 85.2014 87.3416 85.1321 87.2082 85.0574C87.0749 84.9774 86.9149 84.9081 86.7282 84.8494C86.5469 84.7854 86.3202 84.7534 86.0482 84.7534C85.7016 84.7534 85.3976 84.8174 85.1362 84.9454C84.8749 85.0681 84.6562 85.2468 84.4802 85.4814C84.3096 85.7161 84.1816 86.0014 84.0962 86.3374C84.0109 86.6681 83.9682 87.0441 83.9682 87.4654C83.9682 87.9028 84.0136 88.2921 84.1042 88.6334C84.2002 88.9748 84.3362 89.2628 84.5122 89.4974C84.6882 89.7268 84.9016 89.9028 85.1522 90.0254C85.4029 90.1428 85.6856 90.2014 86.0002 90.2014C86.3149 90.2014 86.5682 90.1641 86.7602 90.0894C86.9576 90.0094 87.1229 89.9241 87.2562 89.8334C87.3896 89.7374 87.5042 89.6521 87.6002 89.5774C87.7016 89.4974 87.8136 89.4574 87.9362 89.4574C88.0962 89.4574 88.2162 89.5188 88.2962 89.6414L88.8642 90.3614C88.6456 90.6174 88.4082 90.8334 88.1522 91.0094C87.8962 91.1801 87.6296 91.3188 87.3522 91.4254C87.0802 91.5268 86.7976 91.5988 86.5042 91.6414C86.2162 91.6841 85.9282 91.7054 85.6402 91.7054C85.1336 91.7054 84.6562 91.6121 84.2082 91.4254C83.7602 91.2334 83.3682 90.9561 83.0322 90.5934C82.6962 90.2308 82.4296 89.7881 82.2322 89.2654C82.0402 88.7374 81.9442 88.1374 81.9442 87.4654C81.9442 86.8628 82.0296 86.3054 82.2002 85.7934C82.3762 85.2761 82.6322 84.8308 82.9682 84.4574C83.3042 84.0788 83.7202 83.7828 84.2162 83.5694C84.7122 83.3561 85.2829 83.2494 85.9282 83.2494C86.5416 83.2494 87.0776 83.3481 87.5362 83.5454C88.0002 83.7428 88.4162 84.0254 88.7842 84.3934L88.2642 85.1134Z" fill="#2A2A2A"/>
<circle cx="132.59" cy="87.5" r="10" fill="#ABBCE8" stroke="#2A2A2A"/>
<circle cx="157.149" cy="87.5" r="10" fill="#ABBCE8" stroke="#2A2A2A"/>
<circle cx="181.71" cy="87.5" r="10" fill="#ABBCE8" stroke="#2A2A2A"/>
<path d="M135.163 85.4313C135.105 85.506 135.046 85.5647 134.987 85.6073C134.934 85.65 134.854 85.6713 134.747 85.6713C134.646 85.6713 134.547 85.642 134.451 85.5833C134.355 85.5193 134.241 85.45 134.107 85.3753C133.974 85.2953 133.814 85.226 133.627 85.1673C133.446 85.1033 133.219 85.0713 132.947 85.0713C132.601 85.0713 132.297 85.1353 132.035 85.2633C131.774 85.386 131.555 85.5647 131.379 85.7993C131.209 86.034 131.081 86.3193 130.995 86.6553C130.91 86.986 130.867 87.362 130.867 87.7833C130.867 88.2207 130.913 88.61 131.003 88.9513C131.099 89.2927 131.235 89.5807 131.411 89.8153C131.587 90.0447 131.801 90.2207 132.051 90.3433C132.302 90.4607 132.585 90.5193 132.899 90.5193C133.214 90.5193 133.467 90.482 133.659 90.4073C133.857 90.3273 134.022 90.242 134.155 90.1513C134.289 90.0553 134.403 89.97 134.499 89.8953C134.601 89.8153 134.713 89.7753 134.835 89.7753C134.995 89.7753 135.115 89.8367 135.195 89.9593L135.763 90.6793C135.545 90.9353 135.307 91.1513 135.051 91.3273C134.795 91.498 134.529 91.6367 134.251 91.7433C133.979 91.8447 133.697 91.9167 133.403 91.9593C133.115 92.002 132.827 92.0233 132.539 92.0233C132.033 92.0233 131.555 91.93 131.107 91.7433C130.659 91.5513 130.267 91.274 129.931 90.9113C129.595 90.5487 129.329 90.106 129.131 89.5833C128.939 89.0553 128.843 88.4553 128.843 87.7833C128.843 87.1807 128.929 86.6233 129.099 86.1113C129.275 85.594 129.531 85.1487 129.867 84.7753C130.203 84.3967 130.619 84.1007 131.115 83.8873C131.611 83.674 132.182 83.5673 132.827 83.5673C133.441 83.5673 133.977 83.666 134.435 83.8633C134.899 84.0607 135.315 84.3433 135.683 84.7113L135.163 85.4313Z" fill="#2A2A2A"/>
<path d="M161.318 91.5854H159.414C159.27 91.5854 159.153 91.5481 159.062 91.4734C158.977 91.3988 158.905 91.3134 158.846 91.2174L157.11 88.3614C157.083 88.4521 157.051 88.5374 157.014 88.6174C156.982 88.6974 156.945 88.7721 156.902 88.8414L155.366 91.2174C155.307 91.3081 155.235 91.3934 155.15 91.4734C155.065 91.5481 154.958 91.5854 154.83 91.5854H153.062L155.878 87.3534L153.174 83.3774H155.078C155.222 83.3774 155.329 83.3988 155.398 83.4414C155.467 83.4788 155.529 83.5428 155.582 83.6334L157.302 86.3694C157.361 86.1881 157.443 86.0094 157.55 85.8334L158.934 83.6734C159.051 83.4761 159.203 83.3774 159.39 83.3774H161.206L158.51 87.2654L161.318 91.5854Z" fill="#2A2A2A"/>
<path d="M177.976 84.5593C178.056 84.0047 178.211 83.5193 178.44 83.1033C178.67 82.682 178.955 82.3327 179.296 82.0553C179.643 81.7727 180.038 81.562 180.48 81.4233C180.928 81.2793 181.408 81.2073 181.92 81.2073C182.454 81.2073 182.934 81.2847 183.36 81.4393C183.792 81.5887 184.16 81.7993 184.464 82.0713C184.768 82.338 185 82.6527 185.16 83.0153C185.326 83.378 185.408 83.77 185.408 84.1913C185.408 84.5593 185.366 84.8847 185.28 85.1673C185.2 85.4447 185.083 85.6873 184.928 85.8953C184.774 86.1033 184.582 86.2793 184.352 86.4233C184.123 86.5673 183.864 86.6873 183.576 86.7833C184.27 87.002 184.787 87.3353 185.128 87.7833C185.47 88.2313 185.64 88.794 185.64 89.4713C185.64 90.0473 185.534 90.5567 185.32 90.9993C185.107 91.442 184.819 91.8153 184.456 92.1193C184.094 92.418 183.672 92.6447 183.192 92.7993C182.718 92.954 182.214 93.0313 181.68 93.0313C181.099 93.0313 180.592 92.9647 180.16 92.8313C179.728 92.698 179.352 92.5007 179.032 92.2393C178.712 91.978 178.44 91.658 178.216 91.2793C177.992 90.9007 177.8 90.4633 177.64 89.9673L178.512 89.6073C178.742 89.5113 178.955 89.4873 179.152 89.5353C179.355 89.578 179.502 89.6847 179.592 89.8553C179.688 90.042 179.792 90.226 179.904 90.4073C180.022 90.5887 180.16 90.7513 180.32 90.8953C180.48 91.034 180.667 91.1487 180.88 91.2393C181.099 91.3247 181.358 91.3673 181.656 91.3673C181.992 91.3673 182.286 91.314 182.536 91.2073C182.787 91.0953 182.995 90.9513 183.16 90.7753C183.331 90.5993 183.456 90.4047 183.536 90.1913C183.622 89.9727 183.664 89.754 183.664 89.5353C183.664 89.258 183.635 89.0073 183.576 88.7833C183.518 88.554 183.395 88.3593 183.208 88.1993C183.022 88.0393 182.752 87.914 182.4 87.8233C182.054 87.7327 181.587 87.6873 181 87.6873V86.2793C181.486 86.274 181.888 86.2287 182.208 86.1433C182.528 86.058 182.782 85.9407 182.968 85.7913C183.16 85.6367 183.294 85.4527 183.368 85.2393C183.443 85.026 183.48 84.7913 183.48 84.5353C183.48 83.9913 183.328 83.578 183.024 83.2953C182.72 83.0127 182.315 82.8713 181.808 82.8713C181.574 82.8713 181.358 82.906 181.16 82.9753C180.963 83.0393 180.784 83.1327 180.624 83.2553C180.47 83.3727 180.339 83.5113 180.232 83.6713C180.126 83.8313 180.046 84.0073 179.992 84.1993C179.902 84.4447 179.782 84.6073 179.632 84.6873C179.488 84.7673 179.283 84.786 179.016 84.7433L177.976 84.5593Z" fill="#2A2A2A"/>
<path fill-rule="evenodd" clip-rule="evenodd" d="M106.78 91.5164C106.401 91.9182 106.42 92.5511 106.821 92.9301C107.223 93.309 107.856 93.2906 108.235 92.8888L112.469 88.4005C112.833 88.0145 112.832 87.4114 112.467 87.0263L108.233 82.561C107.853 82.1602 107.22 82.1434 106.819 82.5234C106.419 82.9034 106.402 83.5364 106.782 83.9371L109.415 86.7142L103.222 86.7142C102.669 86.7142 102.222 87.1619 102.222 87.7142C102.222 88.2665 102.669 88.7142 103.222 88.7142L109.423 88.7142L106.78 91.5164Z" fill="#2A2A2A"/>
</svg>
