<svg width="85" height="113" viewBox="0 0 85 113" fill="none" xmlns="http://www.w3.org/2000/svg">
<g filter="url(#filter0_d)">
<rect x="2" y="1" width="76.8555" height="104.574" rx="10" fill="white"/>
<rect x="2.25" y="1.25" width="76.3555" height="104.074" rx="9.75" stroke="black" stroke-opacity="0.1" stroke-width="0.5"/>
</g>
<path d="M19.1467 53.4072C19.1467 51.4224 17.5463 49.8144 15.5733 49.8144C13.6004 49.8144 12 51.4224 12 53.4072C12 55.392 13.6004 57 15.5733 57C17.5463 57 19.1467 55.392 19.1467 53.4072Z" fill="#ABBCE8" stroke="#2A2A2A" stroke-width="0.5"/>
<path d="M16.7638 54.5277H16.2402C16.2006 54.5277 16.1683 54.5174 16.1434 54.4969C16.1199 54.4763 16.1001 54.4529 16.084 54.4265L15.6066 53.6411C15.5993 53.666 15.5905 53.6895 15.5802 53.7115C15.5714 53.7335 15.5611 53.754 15.5494 53.7731L15.127 54.4265C15.1109 54.4514 15.0911 54.4749 15.0676 54.4969C15.0441 54.5174 15.0148 54.5277 14.9796 54.5277H14.4934L15.2678 53.3639L14.5242 52.2705H15.0478C15.0874 52.2705 15.1167 52.2764 15.1358 52.2881C15.1549 52.2984 15.1717 52.316 15.1864 52.3409L15.6594 53.0933C15.6755 53.0434 15.6983 52.9943 15.7276 52.9459L16.1082 52.3519C16.1404 52.2976 16.1822 52.2705 16.2336 52.2705H16.733L15.9916 53.3397L16.7638 54.5277Z" fill="#2A2A2A"/>
<path d="M27.2807 53.4072C27.2807 51.4224 25.6803 49.8144 23.7074 49.8144C21.7344 49.8144 20.134 51.4224 20.134 53.4072C20.134 55.392 21.7344 57 23.7074 57C25.6803 57 27.2807 55.392 27.2807 53.4072Z" fill="#ABBCE8" stroke="#2A2A2A" stroke-width="0.5"/>
<path d="M35.8659 53.4072C35.8659 51.4224 34.2657 49.8144 32.2927 49.8144C30.3197 49.8144 28.7194 51.4224 28.7194 53.4072C28.7194 55.392 30.3197 57 32.2927 57C34.2657 57 35.8659 55.392 35.8659 53.4072Z" fill="#ABBCE8" stroke="#2A2A2A" stroke-width="0.5"/>
<path d="M22.6215 52.7157C22.6435 52.5632 22.686 52.4297 22.749 52.3153C22.8121 52.1995 22.8906 52.1034 22.9844 52.0271C23.0798 51.9494 23.1883 51.8915 23.31 51.8533C23.4332 51.8137 23.5652 51.7939 23.706 51.7939C23.8527 51.7939 23.9847 51.8152 24.102 51.8577C24.2208 51.8988 24.322 51.9567 24.4056 52.0315C24.4892 52.1049 24.553 52.1914 24.597 52.2911C24.6425 52.3909 24.6652 52.4987 24.6652 52.6145C24.6652 52.7157 24.6535 52.8052 24.63 52.8829C24.608 52.9592 24.5758 53.0259 24.5332 53.0831C24.4907 53.1403 24.4379 53.1887 24.3748 53.2283C24.3118 53.2679 24.2406 53.3009 24.1614 53.3273C24.3521 53.3874 24.4944 53.4791 24.5882 53.6023C24.6821 53.7255 24.729 53.8802 24.729 54.0665C24.729 54.2249 24.6997 54.365 24.641 54.4867C24.5824 54.6084 24.5032 54.7111 24.4034 54.7947C24.3037 54.8768 24.1878 54.9392 24.0558 54.9817C23.9253 55.0242 23.7867 55.0455 23.64 55.0455C23.4802 55.0455 23.3408 55.0272 23.222 54.9905C23.1032 54.9538 22.9998 54.8996 22.9118 54.8277C22.8238 54.7558 22.749 54.6678 22.6874 54.5637C22.6259 54.4596 22.5731 54.3393 22.5291 54.2029L22.7688 54.1039C22.8319 54.0775 22.8906 54.0709 22.9448 54.0841C23.0006 54.0958 23.0409 54.1252 23.0658 54.1721C23.0922 54.2234 23.1208 54.274 23.1516 54.3239C23.1839 54.3738 23.222 54.4185 23.266 54.4581C23.31 54.4962 23.3614 54.5278 23.42 54.5527C23.4802 54.5762 23.5513 54.5879 23.6334 54.5879C23.7258 54.5879 23.8065 54.5732 23.8754 54.5439C23.9444 54.5131 24.0016 54.4735 24.047 54.4251C24.094 54.3767 24.1284 54.3232 24.1504 54.2645C24.1739 54.2044 24.1856 54.1442 24.1856 54.0841C24.1856 54.0078 24.1776 53.9389 24.1614 53.8773C24.1453 53.8142 24.1116 53.7607 24.0602 53.7167C24.0089 53.6727 23.9348 53.6382 23.838 53.6133C23.7427 53.5884 23.6144 53.5759 23.453 53.5759V53.1887C23.5865 53.1872 23.6972 53.1748 23.7852 53.1513C23.8732 53.1278 23.9429 53.0956 23.9942 53.0545C24.047 53.012 24.0837 52.9614 24.1042 52.9027C24.1248 52.8441 24.135 52.7795 24.135 52.7091C24.135 52.5595 24.0932 52.4459 24.0096 52.3681C23.926 52.2904 23.8146 52.2515 23.6752 52.2515C23.6107 52.2515 23.5513 52.2611 23.497 52.2801C23.4428 52.2977 23.3936 52.3234 23.3496 52.3571C23.3071 52.3894 23.2712 52.4275 23.2418 52.4715C23.2125 52.5155 23.1905 52.5639 23.1758 52.6167C23.1509 52.6842 23.1179 52.7289 23.0768 52.7509C23.0372 52.7729 22.9808 52.7781 22.9074 52.7663L22.6215 52.7157Z" fill="#2A2A2A"/>
<path d="M33.0699 54.0504C33.0537 54.0299 33.0376 54.0137 33.0215 54.002C33.0068 53.9903 32.9848 53.9844 32.9555 53.9844C32.9276 53.9844 32.9005 53.9925 32.8741 54.0086C32.8477 54.0262 32.8162 54.0453 32.7795 54.0658C32.7428 54.0878 32.6988 54.1069 32.6475 54.123C32.5976 54.1406 32.5353 54.1494 32.4605 54.1494C32.3652 54.1494 32.2816 54.1318 32.2097 54.0966C32.1378 54.0629 32.0777 54.0137 32.0293 53.9492C31.9824 53.8847 31.9472 53.8062 31.9237 53.7138C31.9002 53.6229 31.8885 53.5195 31.8885 53.4036C31.8885 53.2833 31.901 53.1763 31.9259 53.0824C31.9523 52.9885 31.9897 52.9093 32.0381 52.8448C32.0865 52.7818 32.1452 52.7334 32.2141 52.6996C32.283 52.6674 32.3608 52.6512 32.4473 52.6512C32.5338 52.6512 32.6035 52.6615 32.6563 52.682C32.7106 52.704 32.756 52.7275 32.7927 52.7524C32.8294 52.7788 32.8609 52.8023 32.8873 52.8228C32.9152 52.8448 32.946 52.8558 32.9797 52.8558C33.0237 52.8558 33.0567 52.8389 33.0787 52.8052L33.2349 52.6072C33.1747 52.5368 33.1095 52.4774 33.0391 52.429C32.9687 52.3821 32.8954 52.344 32.8191 52.3146C32.7443 52.2868 32.6666 52.267 32.5859 52.2552C32.5067 52.2435 32.4275 52.2376 32.3483 52.2376C32.209 52.2376 32.0777 52.2633 31.9545 52.3146C31.8313 52.3674 31.7235 52.4437 31.6311 52.5434C31.5387 52.6432 31.4654 52.7649 31.4111 52.9086C31.3583 53.0538 31.3319 53.2188 31.3319 53.4036C31.3319 53.5693 31.3554 53.7226 31.4023 53.8634C31.4507 54.0057 31.5211 54.1281 31.6135 54.2308C31.7059 54.3349 31.8203 54.4163 31.9567 54.475C32.0931 54.5337 32.25 54.563 32.4275 54.563C32.5962 54.563 32.7436 54.5359 32.8697 54.4816C32.9973 54.4273 33.1117 54.3496 33.2129 54.2484L33.0699 54.0504Z" fill="#2A2A2A"/>
<path d="M52.3659 53.4072C52.3659 51.4224 50.7657 49.8144 48.7927 49.8144C46.8198 49.8144 45.2194 51.4224 45.2194 53.4072C45.2194 55.392 46.8198 57 48.7927 57C50.7657 57 52.3659 55.392 52.3659 53.4072Z" fill="#ABBCE8" stroke="#2A2A2A" stroke-width="0.5"/>
<path d="M60.946 53.4072C60.946 51.4224 59.3455 49.8144 57.3726 49.8144C55.3997 49.8144 53.7992 51.4224 53.7992 53.4072C53.7992 55.392 55.3997 57 57.3726 57C59.3455 57 60.946 55.392 60.946 53.4072Z" fill="#ABBCE8" stroke="#2A2A2A" stroke-width="0.5"/>
<path d="M69.5253 53.4072C69.5253 51.4224 67.9248 49.8144 65.9519 49.8144C63.979 49.8144 62.3785 51.4224 62.3785 53.4072C62.3785 55.392 63.979 57 65.9519 57C67.9248 57 69.5253 55.392 69.5253 53.4072Z" fill="#ABBCE8" stroke="#2A2A2A" stroke-width="0.5"/>
<path d="M49.4528 54.0504C49.4365 54.0299 49.4205 54.0137 49.4044 54.002C49.3897 53.9903 49.3677 53.9844 49.3384 53.9844C49.3105 53.9844 49.2834 53.9925 49.257 54.0086C49.2306 54.0262 49.1989 54.0453 49.1624 54.0658C49.1257 54.0878 49.0817 54.1069 49.0304 54.123C48.9805 54.1406 48.9182 54.1494 48.8434 54.1494C48.7479 54.1494 48.6643 54.1318 48.5926 54.0966C48.5207 54.0629 48.4606 54.0137 48.4122 53.9492C48.3652 53.8847 48.33 53.8062 48.3066 53.7138C48.2831 53.6229 48.2714 53.5195 48.2714 53.4036C48.2714 53.2833 48.2838 53.1763 48.3088 53.0824C48.3352 52.9885 48.3726 52.9093 48.421 52.8448C48.4694 52.7818 48.5279 52.7334 48.597 52.6996C48.6659 52.6674 48.7435 52.6512 48.8302 52.6512C48.9167 52.6512 48.9864 52.6615 49.0392 52.682C49.0933 52.704 49.1389 52.7275 49.1756 52.7524C49.2121 52.7788 49.2438 52.8023 49.2702 52.8228C49.2979 52.8448 49.3287 52.8558 49.3626 52.8558C49.4066 52.8558 49.4396 52.8389 49.4616 52.8052L49.6178 52.6072C49.5575 52.5368 49.4924 52.4774 49.422 52.429C49.3516 52.3821 49.2781 52.344 49.202 52.3146C49.1272 52.2868 49.0493 52.267 48.9688 52.2552C48.8896 52.2435 48.8104 52.2376 48.7312 52.2376C48.5917 52.2376 48.4606 52.2633 48.3374 52.3146C48.2142 52.3674 48.1064 52.4437 48.014 52.5434C47.9216 52.6432 47.8482 52.7649 47.794 52.9086C47.7412 53.0538 47.7148 53.2188 47.7148 53.4036C47.7148 53.5693 47.7382 53.7226 47.7852 53.8634C47.8336 54.0057 47.904 54.1281 47.9964 54.2308C48.0888 54.3349 48.2032 54.4163 48.3396 54.475C48.476 54.5337 48.6329 54.563 48.8104 54.563C48.9789 54.563 49.1263 54.5359 49.2526 54.4816C49.3802 54.4273 49.4946 54.3496 49.5958 54.2484L49.4528 54.0504Z" fill="#2A2A2A"/>
<path d="M58.5072 54.5277H57.9836C57.944 54.5277 57.9116 54.5174 57.8868 54.4969C57.8632 54.4763 57.8434 54.4529 57.8274 54.4265L57.35 53.6411C57.3427 53.666 57.3339 53.6895 57.3236 53.7115C57.3148 53.7335 57.3045 53.754 57.2928 53.7731L56.8704 54.4265C56.8543 54.4514 56.8345 54.4749 56.811 54.4969C56.7875 54.5174 56.7582 54.5277 56.723 54.5277H56.2368L57.0112 53.3639L56.2676 52.2705H56.7912C56.8308 52.2705 56.8601 52.2764 56.8792 52.2881C56.8983 52.2984 56.9151 52.316 56.9298 52.3409L57.4028 53.0933C57.4189 53.0434 57.4417 52.9943 57.471 52.9459L57.8516 52.3519C57.8839 52.2976 57.9257 52.2705 57.977 52.2705H58.4764L57.735 53.3397L58.5072 54.5277Z" fill="#2A2A2A"/>
<path d="M64.9137 52.7157C64.9357 52.5632 64.9781 52.4297 65.0413 52.3153C65.1044 52.1995 65.1827 52.1034 65.2767 52.0271C65.3719 51.9494 65.4806 51.8915 65.6023 51.8533C65.7255 51.8137 65.8575 51.7939 65.9983 51.7939C66.145 51.7939 66.277 51.8152 66.3943 51.8577C66.5131 51.8988 66.6143 51.9567 66.6979 52.0315C66.7814 52.1049 66.8452 52.1914 66.8892 52.2911C66.9348 52.3909 66.9574 52.4987 66.9574 52.6145C66.9574 52.7157 66.9458 52.8052 66.9222 52.8829C66.9002 52.9592 66.8679 53.0259 66.8254 53.0831C66.783 53.1403 66.7302 53.1887 66.6671 53.2283C66.6039 53.2679 66.5329 53.3009 66.4537 53.3273C66.6444 53.3874 66.7865 53.4791 66.8804 53.6023C66.9744 53.7255 67.0212 53.8802 67.0212 54.0665C67.0212 54.2249 66.992 54.365 66.9332 54.4867C66.8745 54.6084 66.7953 54.7111 66.6956 54.7947C66.596 54.8768 66.4801 54.9392 66.3481 54.9817C66.2176 55.0242 66.079 55.0455 65.9323 55.0455C65.7723 55.0455 65.6331 55.0272 65.5143 54.9905C65.3955 54.9538 65.2921 54.8996 65.2041 54.8277C65.1161 54.7558 65.0413 54.6678 64.9797 54.5637C64.9181 54.4596 64.8653 54.3393 64.8213 54.2029L65.0611 54.1039C65.1242 54.0775 65.1827 54.0709 65.2371 54.0841C65.2927 54.0958 65.3332 54.1252 65.3581 54.1721C65.3845 54.2234 65.4131 54.274 65.4439 54.3239C65.4762 54.3738 65.5143 54.4185 65.5583 54.4581C65.6023 54.4962 65.6535 54.5278 65.7123 54.5527C65.7723 54.5762 65.8436 54.5879 65.9257 54.5879C66.0181 54.5879 66.0988 54.5732 66.1677 54.5439C66.2365 54.5131 66.2937 54.4735 66.3393 54.4251C66.3861 54.3767 66.4207 54.3232 66.4427 54.2645C66.4662 54.2044 66.4779 54.1442 66.4779 54.0841C66.4779 54.0078 66.4697 53.9389 66.4537 53.8773C66.4376 53.8142 66.4037 53.7607 66.3525 53.7167C66.3012 53.6727 66.2271 53.6382 66.1303 53.6133C66.035 53.5884 65.9065 53.5759 65.7453 53.5759V53.1887C65.8788 53.1872 65.9895 53.1748 66.0775 53.1513C66.1655 53.1278 66.2352 53.0956 66.2865 53.0545C66.3393 53.012 66.376 52.9614 66.3965 52.9027C66.4169 52.8441 66.4273 52.7795 66.4273 52.7091C66.4273 52.5595 66.3855 52.4459 66.3019 52.3681C66.2183 52.2904 66.1067 52.2515 65.9675 52.2515C65.903 52.2515 65.8436 52.2611 65.7893 52.2801C65.7349 52.2977 65.6859 52.3234 65.6419 52.3571C65.5994 52.3894 65.5633 52.4275 65.5341 52.4715C65.5048 52.5155 65.4828 52.5639 65.4681 52.6167C65.4432 52.6842 65.4102 52.7289 65.3691 52.7509C65.3295 52.7729 65.2729 52.7781 65.1997 52.7663L64.9137 52.7157Z" fill="#2A2A2A"/>
<path fill-rule="evenodd" clip-rule="evenodd" d="M39.8589 51.8513C39.7735 51.7648 39.7746 51.6255 39.8611 51.5402C39.9475 51.4549 40.0868 51.4558 40.1722 51.5423L41.6512 53.0416C41.7359 53.1274 41.7357 53.2654 41.6508 53.351L40.1717 54.8426C40.0861 54.9289 39.9469 54.9295 39.8607 54.8439C39.7744 54.7584 39.7738 54.6191 39.8593 54.5328L40.9666 53.4161H38.5185C38.397 53.4161 38.2985 53.3176 38.2985 53.1961C38.2985 53.0746 38.397 52.9761 38.5185 52.9761H40.9685L39.8589 51.8513Z" fill="#2A2A2A"/>
<defs>
<filter id="filter0_d" x="0" y="0" width="84.8555" height="112.574" filterUnits="userSpaceOnUse" color-interpolation-filters="sRGB">
<feFlood flood-opacity="0" result="BackgroundImageFix"/>
<feColorMatrix in="SourceAlpha" type="matrix" values="0 0 0 0 0 0 0 0 0 0 0 0 0 0 0 0 0 0 127 0"/>
<feOffset dx="2" dy="3"/>
<feGaussianBlur stdDeviation="2"/>
<feColorMatrix type="matrix" values="0 0 0 0 0 0 0 0 0 0 0 0 0 0 0 0 0 0 0.05 0"/>
<feBlend mode="normal" in2="BackgroundImageFix" result="effect1_dropShadow"/>
<feBlend mode="normal" in="SourceGraphic" in2="effect1_dropShadow" result="shape"/>
</filter>
</defs>
</svg>
