<svg width="85" height="113" viewBox="0 0 85 113" fill="none" xmlns="http://www.w3.org/2000/svg">
<g filter="url(#filter0_d)">
<rect x="2" y="1" width="76.8555" height="104.574" rx="10" fill="white"/>
<rect x="2.25" y="1.25" width="76.3555" height="104.074" rx="9.75" stroke="black" stroke-opacity="0.1" stroke-width="0.5"/>
</g>
<g clip-path="url(#clip0)">
<path d="M17.0355 46.127H12.5312C11.8784 46.127 11.3491 46.6388 11.3491 47.2702V59.3849C11.3491 60.0162 11.8784 60.5281 12.5312 60.5281H17.0355C17.6883 60.5281 18.2176 60.0162 18.2176 59.3849V47.2702C18.2176 46.6388 17.6883 46.127 17.0355 46.127Z" fill="#D2CBE8" stroke="#2A2A2A" stroke-width="0.5"/>
<path d="M70.0985 46.127H65.5942C64.9414 46.127 64.4121 46.6388 64.4121 47.2702V59.3849C64.4121 60.0162 64.9414 60.5281 65.5942 60.5281H70.0985C70.7513 60.5281 71.2806 60.0162 71.2806 59.3849V47.2702C71.2806 46.6388 70.7513 46.127 70.0985 46.127Z" fill="#D2CBE8" stroke="#2A2A2A" stroke-width="0.5"/>
<path d="M26.2295 46.127H21.7252C21.0723 46.127 20.5431 46.6388 20.5431 47.2702V59.3849C20.5431 60.0162 21.0723 60.5281 21.7252 60.5281H26.2295C26.8823 60.5281 27.4116 60.0162 27.4116 59.3849V47.2702C27.4116 46.6388 26.8823 46.127 26.2295 46.127Z" fill="#D2CBE8" stroke="#2A2A2A" stroke-width="0.5"/>
<path d="M51.973 46H47.4687C46.7433 46 46.1553 46.5687 46.1553 47.2702V59.3849C46.1553 60.0865 46.7433 60.6552 47.4687 60.6552H51.973C52.6984 60.6552 53.2864 60.0865 53.2864 59.3849V53.3276V47.2702C53.2864 46.5687 52.6984 46 51.973 46Z" fill="#D2CBE8"/>
<path d="M51.973 46.127H47.4687C46.8159 46.127 46.2866 46.6388 46.2866 47.2702V59.3849C46.2866 60.0162 46.8159 60.5281 47.4687 60.5281H51.973C52.6258 60.5281 53.1551 60.0162 53.1551 59.3849V47.2702C53.1551 46.6388 52.6258 46.127 51.973 46.127Z" stroke="#2A2A2A" stroke-opacity="0.4" stroke-width="0.5"/>
<path d="M35.4236 46.127H30.9193C30.2664 46.127 29.7372 46.6388 29.7372 47.2702V59.3849C29.7372 60.0162 30.2664 60.5281 30.9193 60.5281H35.4236C36.0764 60.5281 36.6057 60.0162 36.6057 59.3849V47.2702C36.6057 46.6388 36.0764 46.127 35.4236 46.127Z" fill="#D2CBE8" stroke="#2A2A2A" stroke-width="0.5"/>
<path d="M61.1672 46H56.6629C55.9375 46 55.3495 46.5687 55.3495 47.2702V59.3849C55.3495 60.0865 55.9375 60.6552 56.6629 60.6552H61.1672C61.8926 60.6552 62.4807 60.0865 62.4807 59.3849V47.2702C62.4807 46.5687 61.8926 46 61.1672 46Z" fill="#D2CBE8"/>
<path d="M61.1671 46.127H56.6628C56.01 46.127 55.4807 46.6388 55.4807 47.2702V59.3849C55.4807 60.0162 56.01 60.5281 56.6628 60.5281H61.1671C61.82 60.5281 62.3492 60.0162 62.3492 59.3849V47.2702C62.3492 46.6388 61.82 46.127 61.1671 46.127Z" stroke="#2A2A2A" stroke-opacity="0.4" stroke-width="0.5"/>
<path d="M33.1144 50.5977H34.1982V50.9996H32.6108V48.3818H33.1144V50.5977Z" fill="#2A2A2A"/>
<path d="M34.0368 57.2545H34.3775V57.5134C34.3775 57.5375 34.3694 57.5586 34.3532 57.5767C34.3369 57.5936 34.3133 57.6021 34.282 57.6021H34.0368V58.2412H33.6325V57.6021H32.4906C32.4594 57.6021 32.432 57.593 32.4082 57.5749C32.3845 57.5556 32.3696 57.5321 32.3633 57.5043L32.3165 57.278L33.5988 55.6216H34.0368V57.2545ZM33.6325 56.3982C33.6325 56.3596 33.6337 56.3179 33.6362 56.2733C33.6387 56.2287 33.6431 56.1822 33.6493 56.1339L32.8088 57.2545H33.6325V56.3982Z" fill="#2A2A2A"/>
<path d="M24.8647 57.6113V57.9402H23.3936V57.6113H23.9324V56.1121C23.9324 56.0529 23.9342 55.9918 23.9379 55.929L23.5554 56.2384C23.5334 56.255 23.5113 56.2657 23.4892 56.2704C23.4684 56.274 23.4482 56.274 23.4286 56.2704C23.4102 56.2668 23.3936 56.2609 23.3789 56.2526C23.3642 56.2431 23.3532 56.2331 23.3458 56.2224L23.2024 56.0321L24.0133 55.3652H24.3866V57.6113H24.8647Z" fill="#2A2A2A"/>
<path fill-rule="evenodd" clip-rule="evenodd" d="M41.1994 55.3742C41.0975 55.4741 41.0988 55.6349 41.2021 55.7335C41.3053 55.832 41.4716 55.8309 41.5735 55.731L43.3396 53.9997C43.4407 53.9006 43.4404 53.7412 43.339 53.6424L41.573 51.9199C41.4708 51.8203 41.3045 51.8196 41.2015 51.9184C41.0986 52.0172 41.0978 52.178 41.2 52.2777L42.5221 53.5672H39.5989C39.4539 53.5672 39.3362 53.681 39.3362 53.8212C39.3362 53.9616 39.4539 54.0753 39.5989 54.0753H42.5244L41.1994 55.3742Z" fill="#2A2A2A"/>
<path d="M66.8315 54.9799C66.8912 54.9291 66.9558 54.8808 67.0259 54.8351C67.0976 54.7894 67.1749 54.7496 67.2571 54.7157C67.3393 54.6818 67.4286 54.6556 67.525 54.6369C67.6214 54.6166 67.7255 54.6064 67.8376 54.6064C67.99 54.6064 68.1284 54.6268 68.2527 54.6674C68.3788 54.7081 68.4865 54.7665 68.5758 54.8427C68.6651 54.9172 68.7342 55.0078 68.7833 55.1145C68.8324 55.2212 68.8569 55.3406 68.8569 55.4727C68.8569 55.6015 68.8377 55.7133 68.7991 55.8081C68.7605 55.9012 68.7124 55.9825 68.6546 56.052C68.5968 56.1214 68.533 56.1815 68.4628 56.2323C68.3945 56.2832 68.3296 56.3314 68.2684 56.3771C68.2072 56.4212 68.1537 56.4652 68.1082 56.5093C68.0643 56.5516 68.0381 56.5999 68.0294 56.6541L67.969 57.025H67.525L67.4804 56.6109C67.4699 56.5313 67.4812 56.4618 67.5145 56.4026C67.5495 56.3416 67.5952 56.2866 67.6511 56.2374C67.7089 56.1866 67.7728 56.1383 67.8429 56.0926C67.913 56.0452 67.9787 55.9944 68.0399 55.9402C68.1011 55.8843 68.1521 55.8225 68.1923 55.7547C68.2343 55.6853 68.2553 55.6032 68.2553 55.5083C68.2553 55.4473 68.243 55.3932 68.2185 55.3457C68.1957 55.2966 68.1634 55.2551 68.1213 55.2212C68.0793 55.1857 68.0286 55.1586 67.969 55.1399C67.9112 55.1213 67.8481 55.112 67.7798 55.112C67.68 55.112 67.5952 55.123 67.525 55.145C67.4567 55.1653 67.3982 55.1891 67.349 55.2162C67.3018 55.2416 67.2616 55.2653 67.2282 55.2873C67.1948 55.3076 67.1652 55.3178 67.1389 55.3178C67.0758 55.3178 67.0304 55.2924 67.0023 55.2416L66.8315 54.9799ZM67.328 57.9751C67.328 57.9226 67.3377 57.8726 67.3569 57.8252C67.3779 57.7778 67.406 57.7372 67.441 57.7033C67.4759 57.6694 67.5179 57.6423 67.5671 57.622C67.6162 57.6017 67.6687 57.5915 67.7247 57.5915C67.7806 57.5915 67.8324 57.6017 67.8797 57.622C67.9288 57.6423 67.9708 57.6694 68.0058 57.7033C68.0425 57.7372 68.0714 57.7778 68.0924 57.8252C68.1135 57.8726 68.124 57.9226 68.124 57.9751C68.124 58.0293 68.1135 58.0801 68.0924 58.1275C68.0714 58.1733 68.0425 58.2131 68.0058 58.2469C67.9708 58.2808 67.9288 58.3071 67.8797 58.3257C67.8324 58.346 67.7806 58.3562 67.7247 58.3562C67.6687 58.3562 67.6162 58.346 67.5671 58.3257C67.5179 58.3071 67.4759 58.2808 67.441 58.2469C67.406 58.2131 67.3779 58.1733 67.3569 58.1275C67.3377 58.0801 67.328 58.0293 67.328 57.9751Z" fill="#2A2A2A"/>
<path d="M22.1303 49.8535C22.0455 49.8535 21.9768 49.7871 21.9768 49.7051C21.9768 49.6231 22.0455 49.5566 22.1303 49.5566H25.5822C25.6669 49.5566 25.7356 49.6231 25.7356 49.7051C25.7356 49.7871 25.6669 49.8535 25.5822 49.8535H22.1303Z" fill="#2A2A2A"/>
<path opacity="0.4" d="M47.8737 49.9741C47.7892 49.9741 47.7203 49.9077 47.7203 49.8257C47.7203 49.7437 47.7892 49.6772 47.8737 49.6772H51.3257C51.4106 49.6772 51.4791 49.7437 51.4791 49.8257C51.4791 49.9077 51.4106 49.9741 51.3257 49.9741H47.8737Z" fill="#8F8B9C"/>
<g opacity="0.4">
<path opacity="0.4" d="M58.8577 50.5977H59.9415V50.9996H58.3541V48.3818H58.8577V50.5977Z" fill="#8F8B9C"/>
<path opacity="0.4" d="M59.7803 57.2545H60.121V57.5134C60.121 57.5375 60.1128 57.5586 60.0966 57.5768C60.0805 57.5936 60.0566 57.6021 60.0256 57.6021H59.7803V58.2412H59.376V57.6021H58.2341C58.2028 57.6021 58.1755 57.593 58.1519 57.5749C58.128 57.5556 58.113 57.5321 58.107 57.5043L58.0599 57.278L59.3424 55.6216H59.7803V57.2545ZM59.376 56.3982C59.376 56.3596 59.3773 56.3179 59.3797 56.2733C59.3823 56.2287 59.3865 56.1822 59.3928 56.1339L58.5525 57.2545H59.376V56.3982Z" fill="#8F8B9C"/>
</g>
<path d="M13.4589 48.6499V51.5887H13.7489C13.7937 51.5887 13.8315 51.5819 13.8624 51.5684C13.8918 51.5535 13.9205 51.5291 13.9485 51.4952L15.5352 49.536C15.5268 49.6254 15.5226 49.7081 15.5226 49.784V51.5887H16.0206V48.6499H15.7243C15.7005 48.6499 15.6802 48.6512 15.6634 48.654C15.6451 48.6553 15.6297 48.6594 15.6171 48.6662C15.6031 48.6716 15.5898 48.6804 15.5772 48.6926C15.5646 48.7034 15.5506 48.7183 15.5352 48.7373L13.9422 50.7046C13.9464 50.6572 13.9499 50.6105 13.9527 50.5644C13.9555 50.5183 13.9569 50.4757 13.9569 50.4364V48.6499H13.4589Z" fill="#2A2A2A"/>
<path d="M66.458 48.6499V51.5887H66.748C66.7929 51.5887 66.8308 51.5819 66.8615 51.5684C66.8909 51.5535 66.9196 51.5291 66.9477 51.4952L68.5343 49.536C68.5259 49.6254 68.5217 49.7081 68.5217 49.784V51.5887H69.0198V48.6499H68.7234C68.6995 48.6499 68.6793 48.6512 68.6625 48.654C68.6444 48.6553 68.6289 48.6594 68.6163 48.6662C68.6023 48.6716 68.5889 48.6804 68.5763 48.6926C68.5637 48.7034 68.5498 48.7183 68.5343 48.7373L66.9414 50.7046C66.9456 50.6572 66.949 50.6105 66.9519 50.5644C66.9548 50.5183 66.9561 50.4757 66.9561 50.4364V48.6499H66.458Z" fill="#2A2A2A"/>
<path d="M15.5712 57.5307C15.6203 57.5307 15.6589 57.5444 15.6871 57.5716C15.7165 57.5977 15.7312 57.6327 15.7312 57.6766V57.9398H13.9071V57.7939C13.9071 57.7643 13.9132 57.7335 13.9255 57.7015C13.939 57.6683 13.9598 57.6386 13.988 57.6125L14.7953 56.8301C14.8627 56.7637 14.9227 56.7003 14.9755 56.6398C15.0294 56.5793 15.0741 56.5195 15.1097 56.4602C15.1452 56.4009 15.1722 56.341 15.1906 56.2806C15.2102 56.2189 15.22 56.1543 15.22 56.0867C15.22 56.0251 15.2108 55.9711 15.1924 55.9249C15.1741 55.8775 15.1477 55.8378 15.1134 55.8058C15.0803 55.7738 15.0398 55.7501 14.992 55.7346C14.9454 55.718 14.8927 55.7097 14.8339 55.7097C14.7799 55.7097 14.7297 55.7174 14.6831 55.7329C14.6377 55.7471 14.5973 55.7678 14.5617 55.7951C14.5262 55.8212 14.4961 55.852 14.4716 55.8876C14.4471 55.9231 14.4287 55.9623 14.4165 56.0049C14.3956 56.0595 14.3686 56.0956 14.3355 56.1134C14.3025 56.1312 14.2546 56.1353 14.1921 56.1259L13.9531 56.085C13.9715 55.9617 14.007 55.8538 14.0597 55.7613C14.1124 55.6676 14.178 55.59 14.2565 55.5283C14.3362 55.4655 14.4269 55.4187 14.5286 55.3879C14.6316 55.3558 14.7419 55.3398 14.8596 55.3398C14.9822 55.3398 15.0944 55.3576 15.1961 55.3932C15.2979 55.4276 15.3849 55.4768 15.4572 55.5408C15.5295 55.6048 15.5859 55.6819 15.6264 55.772C15.6669 55.8621 15.6871 55.9623 15.6871 56.0725C15.6871 56.1674 15.6724 56.2551 15.643 56.3357C15.6147 56.4163 15.5761 56.4934 15.5271 56.5669C15.4793 56.6404 15.4229 56.7115 15.3579 56.7803C15.2929 56.8491 15.2249 56.919 15.1538 56.9901L14.5544 57.5823C14.612 57.5657 14.669 57.5533 14.7254 57.545C14.783 57.5355 14.8375 57.5307 14.889 57.5307H15.5712Z" fill="#2A2A2A"/>
<path opacity="0.4" d="M50.6082 57.6113V57.9402H49.1372V57.6113H49.6759V56.1121C49.6759 56.0529 49.6778 55.9918 49.6815 55.929L49.299 56.2384C49.2769 56.255 49.2548 56.2657 49.2328 56.2704C49.2118 56.274 49.1915 56.274 49.1721 56.2704C49.1537 56.2668 49.1372 56.2609 49.1224 56.2526C49.1077 56.2431 49.0967 56.2331 49.0894 56.2224L48.9459 56.0321L49.7568 55.3652H50.1301V57.6113H50.6082Z" fill="#8F8B9C"/>
</g>
<defs>
<filter id="filter0_d" x="0" y="0" width="84.8555" height="112.574" filterUnits="userSpaceOnUse" color-interpolation-filters="sRGB">
<feFlood flood-opacity="0" result="BackgroundImageFix"/>
<feColorMatrix in="SourceAlpha" type="matrix" values="0 0 0 0 0 0 0 0 0 0 0 0 0 0 0 0 0 0 127 0"/>
<feOffset dx="2" dy="3"/>
<feGaussianBlur stdDeviation="2"/>
<feColorMatrix type="matrix" values="0 0 0 0 0 0 0 0 0 0 0 0 0 0 0 0 0 0 0.05 0"/>
<feBlend mode="normal" in2="BackgroundImageFix" result="effect1_dropShadow"/>
<feBlend mode="normal" in="SourceGraphic" in2="effect1_dropShadow" result="shape"/>
</filter>
<clipPath id="clip0">
<rect width="62.7826" height="14.7347" fill="white" transform="translate(11.2178 46)"/>
</clipPath>
</defs>
</svg>
