<svg width="125" height="125" viewBox="0 0 125 125" fill="none" xmlns="http://www.w3.org/2000/svg">
<g clip-path="url(#clip0_532_23900)">
<rect x="16.25" y="51.25" width="11.5" height="22.5" rx="1.75" fill="white" stroke="#4A5056" stroke-width="0.5"/>
<rect x="30.25" y="51.25" width="11.5" height="22.5" rx="1.75" fill="white" stroke="#4A5056" stroke-width="0.5"/>
<rect x="44.25" y="51.25" width="11.5" height="22.5" rx="1.75" fill="white" stroke="#4A5056" stroke-width="0.5"/>
<rect x="69.25" y="51.25" width="11.5" height="22.5" rx="1.75" fill="white" stroke="#4A5056" stroke-width="0.5"/>
<rect x="83.25" y="51.25" width="11.5" height="22.5" rx="1.75" fill="white" stroke="#4A5056" stroke-width="0.5"/>
<rect x="97.25" y="51.25" width="11.5" height="22.5" rx="1.75" fill="white" stroke="#4A5056" stroke-width="0.5"/>
<path d="M23.5377 55C23.4984 55 23.4656 55.0023 23.4393 55.0069C23.4131 55.0092 23.3902 55.0161 23.3705 55.0277C23.3486 55.0369 23.3279 55.0519 23.3082 55.0726C23.2885 55.0911 23.2667 55.1164 23.2426 55.1487L20.7541 58.4924C20.7628 58.4117 20.7694 58.3333 20.7738 58.2573C20.776 58.1789 20.777 58.1063 20.777 58.0394V55H20V60H20.4557C20.5257 60 20.5836 59.9885 20.6295 59.9654C20.6754 59.9424 20.7202 59.9009 20.7639 59.8409L23.2426 56.5111C23.2361 56.5848 23.2317 56.6586 23.2295 56.7324C23.2251 56.8038 23.223 56.8695 23.223 56.9295V60H24V55H23.5377Z" fill="#4A5056"/>
<path d="M104.538 55C104.498 55 104.466 55.0023 104.439 55.0069C104.413 55.0092 104.39 55.0161 104.37 55.0277C104.349 55.0369 104.328 55.0519 104.308 55.0726C104.289 55.0911 104.267 55.1164 104.243 55.1487L101.754 58.4924C101.763 58.4117 101.769 58.3333 101.774 58.2573C101.776 58.1789 101.777 58.1063 101.777 58.0394V55H101V60H101.456C101.526 60 101.584 59.9885 101.63 59.9654C101.675 59.9424 101.72 59.9009 101.764 59.8409L104.243 56.5111C104.236 56.5848 104.232 56.6586 104.23 56.7324C104.225 56.8038 104.223 56.8695 104.223 56.9295V60H105V55H104.538Z" fill="#4A5056"/>
<path d="M62.8776 65.749L65.7207 62.867L62.8776 59.9998" stroke="#4A5056" stroke-linecap="round" stroke-linejoin="round"/>
<path d="M65.6064 62.8672L60.0001 62.8672" stroke="#4A5056" stroke-width="0.75" stroke-linecap="round" stroke-linejoin="round"/>
<path d="M32.5 58C32.2239 58 32 57.7761 32 57.5C32 57.2239 32.2239 57 32.5 57H39.5C39.7761 57 40 57.2239 40 57.5C40 57.7761 39.7761 58 39.5 58H32.5Z" fill="#4A5056"/>
<path d="M22.0767 64.883C22.3101 64.883 22.5236 64.918 22.7172 64.988C22.9109 65.0557 23.0766 65.1525 23.2142 65.2785C23.3519 65.4045 23.4592 65.5562 23.5362 65.7335C23.6132 65.9108 23.6517 66.108 23.6517 66.325C23.6517 66.5117 23.6237 66.6843 23.5677 66.843C23.5141 67.0017 23.4406 67.1533 23.3472 67.298C23.2562 67.4427 23.1489 67.5827 23.0252 67.718C22.9016 67.8533 22.7721 67.991 22.6367 68.131L21.4957 69.2965C21.6077 69.2638 21.7174 69.2393 21.8247 69.223C21.9321 69.2043 22.0347 69.195 22.1327 69.195H23.4312C23.5246 69.195 23.5981 69.2218 23.6517 69.2755C23.7077 69.3268 23.7357 69.3957 23.7357 69.482V70H20.2637V69.713C20.2637 69.6547 20.2754 69.594 20.2987 69.531C20.3244 69.468 20.3641 69.4097 20.4177 69.356L21.9542 67.816C22.0826 67.6853 22.1969 67.5605 22.2972 67.4415C22.3999 67.3225 22.4851 67.2047 22.5527 67.088C22.6227 66.9713 22.6752 66.8535 22.7102 66.7345C22.7476 66.6132 22.7662 66.486 22.7662 66.353C22.7662 66.2317 22.7487 66.1255 22.7137 66.0345C22.6787 65.9412 22.6286 65.863 22.5632 65.8C22.4979 65.737 22.4197 65.6903 22.3287 65.66C22.2401 65.6273 22.1397 65.611 22.0277 65.611C21.8201 65.611 21.6486 65.6635 21.5132 65.7685C21.3802 65.8735 21.2869 66.0147 21.2332 66.192C21.2076 66.2807 21.1691 66.3448 21.1177 66.3845C21.0664 66.4218 21.0011 66.4405 20.9217 66.4405C20.8867 66.4405 20.8482 66.437 20.8062 66.43L20.3512 66.3495C20.3862 66.1068 20.4539 65.8945 20.5542 65.7125C20.6546 65.5282 20.7794 65.3753 20.9287 65.254C21.0804 65.1303 21.2531 65.0382 21.4467 64.9775C21.6427 64.9145 21.8527 64.883 22.0767 64.883Z" fill="#4A5056"/>
<path d="M34.9112 69.3525H35.9367V66.402C35.9367 66.2877 35.9402 66.1675 35.9472 66.0415L35.2192 66.6505C35.1889 66.6762 35.1574 66.6937 35.1247 66.703C35.0944 66.7123 35.0641 66.717 35.0337 66.717C34.9871 66.717 34.9439 66.7077 34.9042 66.689C34.8669 66.668 34.8389 66.6447 34.8202 66.619L34.5472 66.2445L36.0907 64.932H36.8012V69.3525H37.7112V70H34.9112V69.3525Z" fill="#4A5056"/>
<path d="M51.2667 68.0925H51.9037V68.593C51.9037 68.6397 51.8886 68.6805 51.8582 68.7155C51.8279 68.7482 51.7836 68.7645 51.7252 68.7645H51.2667V70H50.5107V68.7645H48.3757C48.3174 68.7645 48.2661 68.747 48.2217 68.712C48.1774 68.6747 48.1494 68.6292 48.1377 68.5755L48.0502 68.138L50.4477 64.9355H51.2667V68.0925ZM50.5107 66.437C50.5107 66.3623 50.5131 66.2818 50.5177 66.1955C50.5224 66.1092 50.5306 66.0193 50.5422 65.926L48.9707 68.0925H50.5107V66.437Z" fill="#4A5056"/>
<path d="M49.6444 59.223H51.6709V60H48.7029V54.939H49.6444V59.223Z" fill="#4A5056"/>
<path d="M101.724 65.4325C101.797 65.3648 101.876 65.3007 101.962 65.24C102.051 65.1793 102.147 65.1257 102.249 65.079C102.354 65.0323 102.466 64.9962 102.585 64.9705C102.707 64.9425 102.837 64.9285 102.977 64.9285C103.162 64.9285 103.332 64.9553 103.488 65.009C103.647 65.0627 103.784 65.1385 103.898 65.2365C104.012 65.3345 104.102 65.4535 104.167 65.5935C104.233 65.7335 104.265 65.891 104.265 66.066C104.265 66.2433 104.239 66.3962 104.185 66.5245C104.134 66.6528 104.067 66.766 103.985 66.864C103.906 66.9597 103.819 67.0437 103.723 67.116C103.627 67.186 103.537 67.2525 103.453 67.3155C103.372 67.3785 103.301 67.4415 103.24 67.5045C103.182 67.5675 103.148 67.6375 103.138 67.7145L103.075 68.25H102.648L102.606 67.669V67.6305C102.606 67.5325 102.632 67.4462 102.683 67.3715C102.737 67.2945 102.804 67.2233 102.883 67.158C102.965 67.0903 103.051 67.0238 103.142 66.9585C103.235 66.8908 103.322 66.8173 103.401 66.738C103.483 66.6563 103.549 66.5642 103.6 66.4615C103.654 66.3588 103.681 66.2375 103.681 66.0975C103.681 65.9972 103.661 65.9062 103.621 65.8245C103.582 65.7428 103.528 65.674 103.46 65.618C103.393 65.5597 103.312 65.5153 103.219 65.485C103.128 65.4547 103.03 65.4395 102.925 65.4395C102.783 65.4395 102.66 65.457 102.557 65.492C102.457 65.527 102.372 65.5655 102.302 65.6075C102.232 65.6495 102.175 65.688 102.13 65.723C102.088 65.758 102.053 65.7755 102.025 65.7755C101.967 65.7755 101.922 65.7487 101.889 65.695L101.724 65.4325ZM102.41 69.615C102.41 69.5543 102.421 69.4972 102.442 69.4435C102.465 69.3898 102.496 69.3432 102.533 69.3035C102.573 69.2638 102.619 69.2323 102.673 69.209C102.727 69.1857 102.784 69.174 102.844 69.174C102.905 69.174 102.962 69.1857 103.016 69.209C103.07 69.2323 103.116 69.2638 103.156 69.3035C103.196 69.3432 103.226 69.3898 103.247 69.4435C103.27 69.4972 103.282 69.5543 103.282 69.615C103.282 69.678 103.27 69.7363 103.247 69.79C103.226 69.8413 103.196 69.8868 103.156 69.9265C103.116 69.9662 103.07 69.9965 103.016 70.0175C102.962 70.0408 102.905 70.0525 102.844 70.0525C102.784 70.0525 102.727 70.0408 102.673 70.0175C102.619 69.9965 102.573 69.9662 102.533 69.9265C102.496 69.8868 102.465 69.8413 102.442 69.79C102.421 69.7363 102.41 69.678 102.41 69.615Z" fill="#4A5056"/>
</g>
<defs>
<clipPath id="clip0_532_23900">
<rect width="125" height="125" fill="white"/>
</clipPath>
</defs>
</svg>
