<svg width="220" height="188" viewBox="0 0 220 188" fill="none" xmlns="http://www.w3.org/2000/svg">
<rect width="220" height="188" fill="#F6F6F6"/>
<rect x="30.5" y="68.5" width="18.552" height="40.5481" rx="4.5" fill="#D2CBE8" stroke="#2A2A2A"/>
<rect x="175.987" y="68.5" width="18.552" height="40.5481" rx="4.5" fill="#D2CBE8" stroke="#2A2A2A"/>
<rect x="55.7087" y="68.5" width="18.552" height="40.5481" rx="4.5" fill="#D2CBE8" stroke="#2A2A2A"/>
<rect x="125.791" y="68" width="19.552" height="41.5481" rx="5" fill="#D2CBE8"/>
<rect x="126.291" y="68.5" width="18.552" height="40.5481" rx="4.5" stroke="#2A2A2A" stroke-opacity="0.4"/>
<rect x="80.9159" y="68.5" width="18.552" height="40.5481" rx="4.5" fill="#D2CBE8" stroke="#2A2A2A"/>
<rect x="150.999" y="68" width="19.552" height="41.5481" rx="5" fill="#D2CBE8"/>
<rect x="151.499" y="68.5" width="18.552" height="40.5481" rx="4.5" stroke="#2A2A2A" stroke-opacity="0.4"/>
<path d="M90.0357 81.0355H93.0073V82.1749H88.655V74.7534H90.0357V81.0355Z" fill="#2A2A2A"/>
<path d="M92.5651 99.9074H93.4992V100.641C93.4992 100.71 93.477 100.77 93.4325 100.821C93.388 100.869 93.323 100.893 93.2375 100.893H92.5651V102.705H91.4565V100.893H88.3257C88.2402 100.893 88.1649 100.867 88.0999 100.816C88.0349 100.761 87.9938 100.694 87.9767 100.616L87.8484 99.9741L91.3641 95.2779H92.5651V99.9074ZM91.4565 97.4797C91.4565 97.3702 91.4599 97.2522 91.4668 97.1256C91.4736 96.999 91.4856 96.8673 91.5027 96.7304L89.1982 99.9074H91.4565V97.4797Z" fill="#2A2A2A"/>
<path d="M67.3978 100.843V101.768H63.3978V100.843H64.8628V96.6276C64.8628 96.4609 64.8678 96.2892 64.8778 96.1126L63.8378 96.9826C63.7778 97.0292 63.7178 97.0592 63.6578 97.0726C63.6011 97.0826 63.5461 97.0826 63.4928 97.0726C63.4428 97.0626 63.3978 97.0459 63.3578 97.0226C63.3178 96.9959 63.2878 96.9676 63.2678 96.9376L62.8778 96.4026L65.0828 94.5276H66.0978V100.843H67.3978Z" fill="#2A2A2A"/>
<path fill-rule="evenodd" clip-rule="evenodd" d="M112.359 94.7314C112.165 94.928 112.168 95.2445 112.364 95.4385C112.561 95.6324 112.877 95.6302 113.071 95.4337L117.914 90.5252C118.106 90.3301 118.106 90.0165 117.913 89.822L113.07 84.9387C112.876 84.7426 112.559 84.7413 112.363 84.9357C112.167 85.1301 112.166 85.4467 112.36 85.6428L116.358 89.674L107.814 89.674C107.538 89.674 107.314 89.8979 107.314 90.174C107.314 90.4502 107.538 90.674 107.814 90.674L116.362 90.674L112.359 94.7314Z" fill="#2A2A2A"/>
<path d="M183.075 96.425C183.188 96.325 183.312 96.23 183.445 96.14C183.582 96.05 183.728 95.9717 183.885 95.905C184.042 95.8383 184.212 95.7867 184.395 95.75C184.578 95.71 184.777 95.69 184.99 95.69C185.28 95.69 185.543 95.73 185.78 95.81C186.02 95.89 186.225 96.005 186.395 96.155C186.565 96.3017 186.697 96.48 186.79 96.69C186.883 96.9 186.93 97.135 186.93 97.395C186.93 97.6483 186.893 97.8683 186.82 98.055C186.747 98.2383 186.655 98.3983 186.545 98.535C186.435 98.6717 186.313 98.79 186.18 98.89C186.05 98.99 185.927 99.085 185.81 99.175C185.693 99.2617 185.592 99.3483 185.505 99.435C185.422 99.5183 185.372 99.6133 185.355 99.72L185.24 100.45H184.395L184.31 99.635C184.29 99.4783 184.312 99.3417 184.375 99.225C184.442 99.105 184.528 98.9967 184.635 98.9C184.745 98.8 184.867 98.705 185 98.615C185.133 98.5217 185.258 98.4217 185.375 98.315C185.492 98.205 185.588 98.0833 185.665 97.95C185.745 97.8133 185.785 97.6517 185.785 97.465C185.785 97.345 185.762 97.2383 185.715 97.145C185.672 97.0483 185.61 96.9667 185.53 96.9C185.45 96.83 185.353 96.7767 185.24 96.74C185.13 96.7033 185.01 96.685 184.88 96.685C184.69 96.685 184.528 96.7067 184.395 96.75C184.265 96.79 184.153 96.8367 184.06 96.89C183.97 96.94 183.893 96.9867 183.83 97.03C183.767 97.07 183.71 97.09 183.66 97.09C183.54 97.09 183.453 97.04 183.4 96.94L183.075 96.425ZM184.02 102.32C184.02 102.217 184.038 102.118 184.075 102.025C184.115 101.932 184.168 101.852 184.235 101.785C184.302 101.718 184.382 101.665 184.475 101.625C184.568 101.585 184.668 101.565 184.775 101.565C184.882 101.565 184.98 101.585 185.07 101.625C185.163 101.665 185.243 101.718 185.31 101.785C185.38 101.852 185.435 101.932 185.475 102.025C185.515 102.118 185.535 102.217 185.535 102.32C185.535 102.427 185.515 102.527 185.475 102.62C185.435 102.71 185.38 102.788 185.31 102.855C185.243 102.922 185.163 102.973 185.07 103.01C184.98 103.05 184.882 103.07 184.775 103.07C184.668 103.07 184.568 103.05 184.475 103.01C184.382 102.973 184.302 102.922 184.235 102.855C184.168 102.788 184.115 102.71 184.075 102.62C184.038 102.527 184.02 102.427 184.02 102.32Z" fill="#2A2A2A"/>
<path d="M59.9186 78.9252C59.6862 78.9252 59.4978 78.7368 59.4978 78.5044C59.4978 78.2719 59.6862 78.0835 59.9186 78.0835H69.3828C69.6152 78.0835 69.8037 78.2719 69.8037 78.5044C69.8037 78.7368 69.6152 78.9252 69.3828 78.9252H59.9186Z" fill="#2A2A2A"/>
<path opacity="0.4" d="M130.502 79.267C130.269 79.267 130.081 79.0786 130.081 78.8462C130.081 78.6137 130.269 78.4253 130.502 78.4253H139.966C140.198 78.4253 140.387 78.6137 140.387 78.8462C140.387 79.0786 140.198 79.267 139.966 79.267H130.502Z" fill="#8F8B9C"/>
<g opacity="0.4">
<path d="M160.618 81.0355H163.59V82.1749H159.238V74.7534H160.618V81.0355Z" fill="#8F8B9C"/>
<path d="M163.148 99.9074H164.082V100.641C164.082 100.71 164.06 100.77 164.015 100.821C163.971 100.869 163.906 100.893 163.82 100.893H163.148V102.705H162.039V100.893H158.908C158.823 100.893 158.748 100.867 158.683 100.816C158.618 100.761 158.577 100.694 158.559 100.616L158.431 99.9741L161.947 95.2779H163.148V99.9074ZM162.039 97.4797C162.039 97.3702 162.043 97.2522 162.049 97.1256C162.056 96.999 162.068 96.8673 162.085 96.7304L159.781 99.9074H162.039V97.4797Z" fill="#8F8B9C"/>
</g>
<path d="M36.6725 75.77V83H37.3625C37.4692 83 37.5592 82.9833 37.6325 82.95C37.7025 82.9133 37.7708 82.8533 37.8375 82.77L41.6125 77.95C41.5925 78.17 41.5825 78.3733 41.5825 78.56V83H42.7675V75.77H42.0625C42.0058 75.77 41.9575 75.7733 41.9175 75.78C41.8742 75.7833 41.8375 75.7933 41.8075 75.81C41.7742 75.8233 41.7425 75.845 41.7125 75.875C41.6825 75.9017 41.6492 75.9383 41.6125 75.985L37.8225 80.825C37.8325 80.7083 37.8408 80.5933 37.8475 80.48C37.8542 80.3667 37.8575 80.2617 37.8575 80.165V75.77H36.6725Z" fill="#2A2A2A"/>
<path d="M181.921 75.0913V82.3213H182.611C182.717 82.3213 182.807 82.3046 182.881 82.2713C182.951 82.2346 183.019 82.1746 183.086 82.0913L186.861 77.2713C186.841 77.4913 186.831 77.6946 186.831 77.8813V82.3213H188.016V75.0913H187.311C187.254 75.0913 187.206 75.0946 187.166 75.1013C187.122 75.1046 187.086 75.1146 187.056 75.1313C187.022 75.1446 186.991 75.1663 186.961 75.1963C186.931 75.223 186.897 75.2596 186.861 75.3063L183.071 80.1463C183.081 80.0296 183.089 79.9146 183.096 79.8013C183.102 79.688 183.106 79.583 183.106 79.4863V75.0913H181.921Z" fill="#2A2A2A"/>
<path d="M41.9197 100.618C42.053 100.618 42.158 100.656 42.2347 100.733C42.3147 100.806 42.3547 100.904 42.3547 101.028V101.768H37.3947V101.358C37.3947 101.274 37.4114 101.188 37.4447 101.098C37.4814 101.004 37.538 100.921 37.6147 100.848L39.8097 98.6476C39.993 98.4609 40.1564 98.2826 40.2997 98.1126C40.4464 97.9426 40.568 97.7742 40.6647 97.6076C40.7614 97.4409 40.8347 97.2726 40.8847 97.1026C40.938 96.9292 40.9647 96.7476 40.9647 96.5576C40.9647 96.3842 40.9397 96.2326 40.8897 96.1026C40.8397 95.9692 40.768 95.8576 40.6747 95.7676C40.5847 95.6776 40.4747 95.6109 40.3447 95.5676C40.218 95.5209 40.0747 95.4976 39.9147 95.4976C39.768 95.4976 39.6314 95.5192 39.5047 95.5626C39.3814 95.6026 39.2714 95.6609 39.1747 95.7376C39.078 95.8109 38.9964 95.8976 38.9297 95.9976C38.863 96.0976 38.813 96.2076 38.7797 96.3276C38.723 96.4809 38.6497 96.5826 38.5597 96.6326C38.4697 96.6826 38.3397 96.6942 38.1697 96.6676L37.5197 96.5526C37.5697 96.2059 37.6664 95.9026 37.8097 95.6426C37.953 95.3792 38.1314 95.1609 38.3447 94.9876C38.5614 94.8109 38.808 94.6792 39.0847 94.5926C39.3647 94.5026 39.6647 94.4576 39.9847 94.4576C40.318 94.4576 40.623 94.5076 40.8997 94.6076C41.1764 94.7042 41.413 94.8426 41.6097 95.0226C41.8064 95.2026 41.9597 95.4192 42.0697 95.6726C42.1797 95.9259 42.2347 96.2076 42.2347 96.5176C42.2347 96.7842 42.1947 97.0309 42.1147 97.2576C42.038 97.4842 41.933 97.7009 41.7997 97.9076C41.6697 98.1142 41.5164 98.3142 41.3397 98.5076C41.163 98.7009 40.978 98.8976 40.7847 99.0976L39.1547 100.763C39.3114 100.716 39.4664 100.681 39.6197 100.658C39.7764 100.631 39.9247 100.618 40.0647 100.618H41.9197Z" fill="#2A2A2A"/>
<path opacity="0.4" d="M137.98 100.843V101.768H133.98V100.843H135.445V96.6276C135.445 96.4609 135.45 96.2892 135.46 96.1126L134.42 96.9826C134.36 97.0292 134.3 97.0592 134.24 97.0726C134.184 97.0826 134.129 97.0826 134.075 97.0726C134.025 97.0626 133.98 97.0459 133.94 97.0226C133.9 96.9959 133.87 96.9676 133.85 96.9376L133.46 96.4026L135.665 94.5276H136.68V100.843H137.98Z" fill="#8F8B9C"/>
</svg>
