<svg width="85" height="113" viewBox="0 0 85 113" fill="none" xmlns="http://www.w3.org/2000/svg">
<g filter="url(#filter0_d)">
<rect x="2" y="1" width="76.8555" height="104.574" rx="10" fill="white"/>
<rect x="2.25" y="1.25" width="76.3555" height="104.074" rx="9.75" stroke="black" stroke-opacity="0.1" stroke-width="0.5"/>
</g>
<path d="M27.5715 45.7178H15.1934C14.5343 45.7178 14 46.2521 14 46.9111V59.2893C14 59.9484 14.5343 60.4826 15.1934 60.4826H27.5715C28.2306 60.4826 28.7649 59.9484 28.7649 59.2893V46.9111C28.7649 46.2521 28.2306 45.7178 27.5715 45.7178Z" fill="#C7E3D0" stroke="#2A2A2A" stroke-width="0.5"/>
<path d="M26.8949 53.3542C33.1473 39.6454 46.8245 45.0094 46.8245 45.0094" stroke="#2A2A2A" stroke-opacity="0.5" stroke-linecap="round"/>
<path d="M34.4834 64.2202C33.8046 64.2202 33.2437 64.6334 33.0076 65.2238H32.8895V64.4858C32.8895 63.6003 32.181 62.8919 31.2955 62.8919C30.41 62.8919 29.7016 63.6003 29.7016 64.4858V63.3937C29.7016 62.5082 28.9932 61.7998 28.1076 61.7998C27.2221 61.7998 26.5137 62.5082 26.5137 63.3937V58.051C26.5137 57.1655 25.8052 56.457 24.9197 56.457C24.0342 56.457 23.3257 57.1655 23.3257 58.051V64.6039C23.3257 64.6039 23.2372 68.3527 23.4438 70.2713C23.68 73.5478 26.4251 76.1454 29.7606 76.1454C33.2437 76.1454 36.0479 73.3707 36.1069 69.8876C36.1365 69.8581 36.1365 69.7991 36.1365 69.74V67.3196V65.8732V65.7847C36.0774 64.9286 35.369 64.2202 34.4834 64.2202Z" fill="#C7E3D0"/>
<path d="M33.0097 65.2266V65.7039H33.3329L33.4529 65.4038L33.0097 65.2266ZM32.8916 65.2266H32.4142V65.7039H32.8916V65.2266ZM23.3279 64.6067L23.8051 64.6179L23.8052 64.6123V64.6067H23.3279ZM23.446 70.2741L23.9221 70.2398L23.9214 70.2313L23.9205 70.223L23.446 70.2741ZM36.109 69.8904L35.7715 69.5528L35.635 69.6893L35.6318 69.8822L36.109 69.8904ZM36.1386 65.7874H36.6159V65.7709L36.6148 65.7546L36.1386 65.7874ZM34.4856 63.7456C33.6018 63.7456 32.8714 64.2868 32.5665 65.0493L33.4529 65.4038C33.6202 64.9856 34.0115 64.7003 34.4856 64.7003V63.7456ZM33.0097 64.7492H32.8916V65.7039H33.0097V64.7492ZM33.3689 65.2266V64.4886H32.4142V65.2266H33.3689ZM33.3689 64.4886C33.3689 63.3395 32.4468 62.4173 31.2976 62.4173V63.372C31.9196 63.372 32.4142 63.8667 32.4142 64.4886H33.3689ZM31.2976 62.4173C30.1485 62.4173 29.2264 63.3395 29.2264 64.4886H30.1811C30.1811 63.8667 30.6757 63.372 31.2976 63.372V62.4173ZM30.1811 64.4886V63.3965H29.2264V64.4886H30.1811ZM30.1811 63.3965C30.1811 62.2473 29.2589 61.3251 28.1098 61.3251V62.2798C28.7316 62.2798 29.2264 62.7746 29.2264 63.3965H30.1811ZM28.1098 61.3251C26.9606 61.3251 26.0384 62.2473 26.0384 63.3965H26.9931C26.9931 62.7746 27.4879 62.2798 28.1098 62.2798V61.3251ZM26.9931 63.3965V58.0537H26.0384V63.3965H26.9931ZM26.9931 58.0537C26.9931 56.9046 26.071 55.9824 24.9218 55.9824V56.9371C25.5437 56.9371 26.0384 57.4318 26.0384 58.0537H26.9931ZM24.9218 55.9824C23.7727 55.9824 22.8505 56.9046 22.8505 58.0537H23.8052C23.8052 57.4318 24.2999 56.9371 24.9218 56.9371V55.9824ZM22.8505 58.0537V64.6067H23.8052V58.0537H22.8505ZM23.3279 64.6067C22.8507 64.5954 22.8507 64.5954 22.8507 64.5955C22.8507 64.5955 22.8507 64.5956 22.8507 64.5957C22.8507 64.5958 22.8507 64.5959 22.8507 64.5962C22.8506 64.5967 22.8506 64.5974 22.8506 64.5984C22.8506 64.6003 22.8505 64.6031 22.8504 64.6067C22.8502 64.614 22.85 64.6249 22.8497 64.639C22.8491 64.6673 22.8482 64.7089 22.8472 64.7624C22.8452 64.8695 22.8425 65.0243 22.84 65.2161C22.8349 65.5994 22.8302 66.1306 22.8321 66.7224C22.8358 67.8991 22.8651 69.3385 22.9713 70.3252L23.9205 70.223C23.8202 69.2911 23.7905 67.8966 23.7868 66.7194C23.7849 66.1341 23.7895 65.6083 23.7946 65.2288C23.7971 65.039 23.7997 64.886 23.8017 64.7806C23.8027 64.7278 23.8036 64.687 23.8042 64.6595C23.8044 64.6457 23.8047 64.6352 23.8048 64.6283C23.8049 64.6248 23.805 64.6221 23.805 64.6204C23.8051 64.6196 23.8051 64.6189 23.8051 64.6185C23.8051 64.6183 23.8051 64.6181 23.8051 64.618C23.8051 64.618 23.8051 64.618 23.8051 64.6179C23.8051 64.6179 23.8051 64.6179 23.3279 64.6067ZM22.9698 70.3084C23.2238 73.8325 26.1749 76.6255 29.7627 76.6255V75.6708C26.6796 75.6708 24.1404 73.2686 23.9221 70.2398L22.9698 70.3084ZM29.7627 76.6255C33.508 76.6255 36.5229 73.6402 36.5863 69.8984L35.6318 69.8822C35.5771 73.1067 32.9836 75.6708 29.7627 75.6708V76.6255ZM36.4466 70.2279C36.5715 70.103 36.5989 69.9549 36.6074 69.8951C36.6168 69.8292 36.6159 69.7634 36.6159 69.7428H35.6612C35.6612 69.759 35.6612 69.7659 35.661 69.7712C35.6608 69.7762 35.6607 69.771 35.6623 69.7601C35.6638 69.7499 35.6682 69.7234 35.6816 69.6892C35.6954 69.6538 35.7219 69.6024 35.7715 69.5528L36.4466 70.2279ZM36.6159 69.7428V67.3223H35.6612V69.7428H36.6159ZM36.6159 67.3223V65.876H35.6612V67.3223H36.6159ZM36.6159 65.876V65.7874H35.6612V65.876H36.6159ZM36.6148 65.7546C36.5394 64.6617 35.6352 63.7456 34.4856 63.7456V64.7003C35.107 64.7003 35.6196 65.2011 35.6623 65.8202L36.6148 65.7546Z" fill="#2A2A2A"/>
<path d="M63.8495 45.7178H51.4713C50.8122 45.7178 50.278 46.2521 50.278 46.9111V59.2893C50.278 59.9484 50.8122 60.4826 51.4713 60.4826H63.8495C64.5085 60.4826 65.0428 59.9484 65.0428 59.2893V46.9111C65.0428 46.2521 64.5085 45.7178 63.8495 45.7178Z" fill="#C7E3D0" fill-opacity="0.5" stroke="#2A2A2A" stroke-width="0.5"/>
<defs>
<filter id="filter0_d" x="0" y="0" width="84.8555" height="112.574" filterUnits="userSpaceOnUse" color-interpolation-filters="sRGB">
<feFlood flood-opacity="0" result="BackgroundImageFix"/>
<feColorMatrix in="SourceAlpha" type="matrix" values="0 0 0 0 0 0 0 0 0 0 0 0 0 0 0 0 0 0 127 0"/>
<feOffset dx="2" dy="3"/>
<feGaussianBlur stdDeviation="2"/>
<feColorMatrix type="matrix" values="0 0 0 0 0 0 0 0 0 0 0 0 0 0 0 0 0 0 0.05 0"/>
<feBlend mode="normal" in2="BackgroundImageFix" result="effect1_dropShadow"/>
<feBlend mode="normal" in="SourceGraphic" in2="effect1_dropShadow" result="shape"/>
</filter>
</defs>
</svg>
