<svg width="220" height="188" viewBox="0 0 220 188" fill="none" xmlns="http://www.w3.org/2000/svg">
<rect width="220" height="188" fill="#F6F6F6"/>
<rect x="68.5" y="70.2573" width="24.9267" height="26.1142" rx="2.5" fill="#C7E3D0" stroke="#2A2A2A"/>
<path d="M103.251 103.097C102.096 103.097 101.142 103.833 100.74 104.883H100.539V103.57C100.539 101.995 99.3344 100.735 97.8282 100.735C96.3219 100.735 95.1169 101.995 95.1169 103.57V101.627C95.1169 100.052 93.9118 98.7917 92.4056 98.7917C90.8993 98.7917 89.6943 100.052 89.6943 101.627V92.1231C89.6943 90.5478 88.4893 89.2876 86.983 89.2876C85.4767 89.2876 84.2717 90.5478 84.2717 92.1231V103.78C84.2717 103.78 84.1211 110.449 84.4725 113.862C84.8742 119.69 89.5437 124.311 95.2173 124.311C101.142 124.311 105.912 119.375 106.012 113.179C106.062 113.127 106.062 113.022 106.062 112.917V108.611V106.038V105.88C105.962 104.358 104.757 103.097 103.251 103.097Z" fill="#C7E3D0"/>
<path d="M100.74 104.883V105.883H101.428L101.674 105.24L100.74 104.883ZM100.539 104.883H99.5394V105.883H100.539V104.883ZM84.2717 103.78L85.2714 103.803L85.2717 103.791V103.78H84.2717ZM84.4725 113.862L85.4702 113.793L85.469 113.776L85.4673 113.759L84.4725 113.862ZM106.012 113.179L105.289 112.488L105.019 112.771L105.012 113.163L106.012 113.179ZM106.062 105.88H107.062V105.847L107.06 105.815L106.062 105.88ZM103.251 102.097C101.64 102.097 100.341 103.129 99.8063 104.525L101.674 105.24C101.943 104.536 102.552 104.097 103.251 104.097V102.097ZM100.74 103.883H100.539V105.883H100.74V103.883ZM101.539 104.883V103.57H99.5394V104.883H101.539ZM101.539 103.57C101.539 101.485 99.9284 99.7345 97.8282 99.7345V101.735C98.7404 101.735 99.5394 102.504 99.5394 103.57H101.539ZM97.8282 99.7345C95.7279 99.7345 94.1169 101.485 94.1169 103.57H96.1169C96.1169 102.504 96.9159 101.735 97.8282 101.735V99.7345ZM96.1169 103.57V101.627H94.1169V103.57H96.1169ZM96.1169 101.627C96.1169 99.5423 94.5059 97.7917 92.4056 97.7917V99.7917C93.3178 99.7917 94.1169 100.561 94.1169 101.627H96.1169ZM92.4056 97.7917C90.3053 97.7917 88.6943 99.5423 88.6943 101.627H90.6943C90.6943 100.561 91.4933 99.7917 92.4056 99.7917V97.7917ZM90.6943 101.627V92.1231H88.6943V101.627H90.6943ZM90.6943 92.1231C90.6943 90.0382 89.0833 88.2876 86.983 88.2876V90.2876C87.8952 90.2876 88.6943 91.0574 88.6943 92.1231H90.6943ZM86.983 88.2876C84.8827 88.2876 83.2717 90.0382 83.2717 92.1231H85.2717C85.2717 91.0574 86.0707 90.2876 86.983 90.2876V88.2876ZM83.2717 92.1231V103.78H85.2717V92.1231H83.2717ZM84.2717 103.78C83.272 103.757 83.272 103.757 83.272 103.758C83.2719 103.758 83.2719 103.758 83.2719 103.758C83.2719 103.758 83.2719 103.758 83.2719 103.759C83.2719 103.76 83.2719 103.761 83.2718 103.763C83.2718 103.766 83.2717 103.771 83.2715 103.778C83.2712 103.791 83.2708 103.81 83.2703 103.835C83.2693 103.886 83.2678 103.96 83.2661 104.055C83.2626 104.246 83.2581 104.521 83.2537 104.863C83.2451 105.545 83.2372 106.491 83.2403 107.544C83.2466 109.637 83.2964 112.203 83.4778 113.964L85.4673 113.759C85.2972 112.108 85.2466 109.632 85.2403 107.538C85.2372 106.498 85.245 105.563 85.2536 104.888C85.2579 104.551 85.2623 104.279 85.2657 104.091C85.2674 103.998 85.2689 103.925 85.2699 103.876C85.2704 103.852 85.2708 103.833 85.271 103.821C85.2712 103.815 85.2713 103.81 85.2713 103.807C85.2714 103.805 85.2714 103.804 85.2714 103.804C85.2714 103.803 85.2714 103.803 85.2714 103.803C85.2714 103.803 85.2714 103.803 85.2714 103.803C85.2714 103.803 85.2714 103.803 84.2717 103.78ZM83.4749 113.93C83.9098 120.241 88.9764 125.311 95.2173 125.311V123.311C90.1109 123.311 85.8386 119.14 85.4702 113.793L83.4749 113.93ZM95.2173 125.311C101.732 125.311 106.904 119.892 107.012 113.195L105.012 113.163C104.92 118.858 100.552 123.311 95.2173 123.311V125.311ZM106.735 113.87C106.982 113.612 107.032 113.313 107.047 113.203C107.064 113.076 107.062 112.951 107.062 112.917H105.062C105.062 112.946 105.062 112.956 105.062 112.964C105.062 112.97 105.062 112.957 105.065 112.932C105.069 112.909 105.078 112.853 105.105 112.78C105.132 112.706 105.186 112.596 105.289 112.488L106.735 113.87ZM107.062 112.917V108.611H105.062V112.917H107.062ZM107.062 108.611V106.038H105.062V108.611H107.062ZM107.062 106.038V105.88H105.062V106.038H107.062ZM107.06 105.815C106.93 103.833 105.349 102.097 103.251 102.097V104.097C104.165 104.097 104.994 104.882 105.065 105.946L107.06 105.815Z" fill="#2A2A2A"/>
<rect x="130.209" y="70.2573" width="24.9267" height="26.1142" rx="2.5" fill="#C7E3D0" fill-opacity="0.5" stroke="#2A2A2A"/>
<path d="M88.299 85.0422C101.29 55.7464 129.709 67.2093 129.709 67.2093" stroke="#2A2A2A" stroke-opacity="0.5" stroke-width="2" stroke-linecap="round"/>
</svg>
