<svg width="125" height="125" viewBox="0 0 125 125" fill="none" xmlns="http://www.w3.org/2000/svg">
<g clip-path="url(#clip0_532_23663)">
<path fill-rule="evenodd" clip-rule="evenodd" d="M62.361 66.0527C62.1671 66.2492 62.1692 66.5658 62.3658 66.7598C62.5624 66.9537 62.879 66.9515 63.0729 66.755L65.916 63.873C66.1084 63.6779 66.108 63.3643 65.9151 63.1698L63.072 60.3026C62.8775 60.1065 62.561 60.1051 62.3649 60.2996C62.1688 60.494 62.1675 60.8106 62.3619 61.0067L64.3601 63.0218L59.8394 63.0218C59.5632 63.0218 59.3394 63.2457 59.3394 63.5218C59.3394 63.798 59.5632 64.0218 59.8394 64.0218L64.3644 64.0218L62.361 66.0527Z" fill="#4A5056"/>
<circle cx="17" cy="63" r="6.625" fill="white" stroke="#4A5056" stroke-width="0.75"/>
<path d="M16.4843 63.0666L15.0592 60.9648H16.0657C16.1418 60.9648 16.1982 60.9761 16.2348 60.9987C16.2715 61.0184 16.3039 61.0522 16.3321 61.1002L17.2413 62.5506C17.2554 62.5027 17.2723 62.4548 17.292 62.4069C17.3146 62.3589 17.3413 62.311 17.3724 62.2631L18.1039 61.1213C18.1378 61.0677 18.173 61.0283 18.2097 61.0029C18.2463 60.9775 18.2914 60.9648 18.345 60.9648H19.3049L17.8756 63.02L19.3641 65.3036H18.3577C18.2816 65.3036 18.2195 65.2839 18.1716 65.2444C18.1265 65.2049 18.0884 65.1598 18.0574 65.1091L17.1355 63.5994C17.1102 63.7009 17.0749 63.7855 17.0298 63.8531L16.2179 65.1091C16.1869 65.157 16.1488 65.2021 16.1037 65.2444C16.0586 65.2839 16.0022 65.3036 15.9346 65.3036H15L16.4843 63.0666Z" fill="#4A5056"/>
<circle cx="33" cy="63" r="6.625" fill="white" stroke="#4A5056" stroke-width="0.75"/>
<path d="M33.2624 59.9668C33.5443 59.9668 33.7981 60.0077 34.0236 60.0894C34.252 60.1684 34.4465 60.2797 34.6072 60.4235C34.7679 60.5645 34.8905 60.7308 34.9751 60.9225C35.0625 61.1142 35.1062 61.3214 35.1062 61.5441C35.1062 61.7387 35.0836 61.9106 35.0385 62.0601C34.9962 62.2067 34.9328 62.3349 34.8482 62.4449C34.7665 62.5548 34.665 62.6479 34.5437 62.724C34.4253 62.8001 34.29 62.8635 34.1378 62.9143C34.5043 63.0299 34.7777 63.2061 34.9582 63.4429C35.1386 63.6797 35.2288 63.9771 35.2288 64.3352C35.2288 64.6396 35.1724 64.9089 35.0597 65.1429C34.9469 65.3768 34.7946 65.5742 34.6029 65.7349C34.4112 65.8928 34.1885 66.0126 33.9348 66.0943C33.6839 66.1761 33.4175 66.217 33.1355 66.217C32.8283 66.217 32.5604 66.1817 32.3321 66.1113C32.1037 66.0408 31.905 65.9365 31.7358 65.7983C31.5667 65.6602 31.4229 65.491 31.3045 65.2909C31.1861 65.0907 31.0846 64.8595 31 64.5973L31.4609 64.407C31.5399 64.3732 31.6202 64.3563 31.702 64.3563C31.7753 64.3563 31.8401 64.3718 31.8965 64.4028C31.9557 64.4338 32.0008 64.4789 32.0318 64.5381C32.0826 64.6368 32.1375 64.7341 32.1968 64.8299C32.2588 64.9258 32.3321 65.0118 32.4166 65.0879C32.5012 65.1612 32.5999 65.2218 32.7127 65.2697C32.8283 65.3148 32.965 65.3374 33.1229 65.3374C33.3005 65.3374 33.4555 65.3092 33.588 65.2528C33.7205 65.1936 33.8305 65.1175 33.9179 65.0244C34.0081 64.9314 34.0743 64.8285 34.1166 64.7157C34.1617 64.6002 34.1843 64.4846 34.1843 64.369C34.1843 64.2224 34.1688 64.0899 34.1378 63.9715C34.1068 63.8502 34.0419 63.7473 33.9432 63.6628C33.8446 63.5782 33.7022 63.5119 33.5161 63.464C33.3329 63.4161 33.0862 63.3921 32.7761 63.3921V62.6479C33.0326 62.645 33.2455 62.6211 33.4146 62.576C33.5838 62.5309 33.7177 62.4688 33.8164 62.3899C33.9179 62.3081 33.9884 62.2109 34.0278 62.0981C34.0673 61.9853 34.087 61.8613 34.087 61.726C34.087 61.4356 34.0081 61.2171 33.8502 61.0705C33.6923 60.9211 33.4767 60.8464 33.2032 60.8464C32.9551 60.8464 32.7493 60.9126 32.5858 61.0451C32.4223 61.1748 32.3081 61.3426 32.2433 61.5484C32.2094 61.6555 32.1629 61.733 32.1037 61.781C32.0445 61.8261 31.967 61.8486 31.8711 61.8486C31.826 61.8486 31.7781 61.8444 31.7274 61.8359L31.1776 61.7387C31.2199 61.4455 31.3017 61.1889 31.4229 60.969C31.5441 60.7463 31.6949 60.5616 31.8754 60.415C32.0586 60.2656 32.2672 60.1543 32.5012 60.081C32.738 60.0049 32.9918 59.9668 33.2624 59.9668Z" fill="#4A5056"/>
<circle cx="49" cy="63" r="6.625" fill="white" stroke="#4A5056" stroke-width="0.75"/>
<path d="M50.3408 61.8823C50.3097 61.9218 50.2787 61.9528 50.2477 61.9753C50.2195 61.9979 50.1772 62.0091 50.1209 62.0091C50.0673 62.0091 50.0151 61.9936 49.9644 61.9626C49.9136 61.9288 49.853 61.8922 49.7826 61.8527C49.7121 61.8104 49.6275 61.7737 49.5288 61.7427C49.433 61.7089 49.3132 61.692 49.1694 61.692C48.9861 61.692 48.8254 61.7258 48.6873 61.7935C48.5492 61.8583 48.4336 61.9528 48.3405 62.0768C48.2503 62.2009 48.1827 62.3517 48.1375 62.5293C48.0924 62.7041 48.0699 62.9028 48.0699 63.1256C48.0699 63.3567 48.0939 63.5625 48.1418 63.743C48.1925 63.9234 48.2644 64.0756 48.3574 64.1997C48.4505 64.3209 48.5632 64.4139 48.6958 64.4788C48.8283 64.5408 48.9777 64.5718 49.144 64.5718C49.3103 64.5718 49.4442 64.5521 49.5457 64.5126C49.6501 64.4703 49.7374 64.4252 49.8079 64.3773C49.8784 64.3265 49.939 64.2814 49.9898 64.242C50.0433 64.1997 50.1025 64.1785 50.1674 64.1785C50.252 64.1785 50.3154 64.2109 50.3577 64.2758L50.6579 64.6564C50.5423 64.7917 50.4169 64.9059 50.2816 64.9989C50.1462 65.0891 50.0053 65.1624 49.8587 65.2188C49.7149 65.2724 49.5655 65.3104 49.4104 65.333C49.2554 65.3555 49.1017 65.3668 48.9495 65.3668C48.6817 65.3668 48.4293 65.3175 48.1925 65.2188C47.9557 65.1173 47.7485 64.9707 47.5709 64.779C47.3961 64.5873 47.2565 64.3533 47.1522 64.077C47.0507 63.7979 47 63.4808 47 63.1256C47 62.807 47.0451 62.5124 47.1353 62.2417C47.2284 61.9683 47.3637 61.7329 47.5413 61.5355C47.7189 61.3354 47.9388 61.1789 48.201 61.0661C48.4632 60.9534 48.7648 60.897 49.1059 60.897C49.4302 60.897 49.7135 60.9491 49.9559 61.0534C50.2012 61.1577 50.4211 61.3072 50.6156 61.5017L50.3408 61.8823Z" fill="#4A5056"/>
<circle cx="76" cy="63" r="6.625" fill="white" stroke="#4A5056" stroke-width="0.75"/>
<path d="M77.3408 61.8823C77.3097 61.9218 77.2787 61.9528 77.2477 61.9753C77.2195 61.9979 77.1772 62.0091 77.1209 62.0091C77.0673 62.0091 77.0151 61.9936 76.9644 61.9626C76.9136 61.9288 76.853 61.8922 76.7826 61.8527C76.7121 61.8104 76.6275 61.7737 76.5288 61.7427C76.433 61.7089 76.3132 61.692 76.1694 61.692C75.9861 61.692 75.8254 61.7258 75.6873 61.7935C75.5492 61.8583 75.4336 61.9528 75.3405 62.0768C75.2503 62.2009 75.1827 62.3517 75.1375 62.5293C75.0924 62.7041 75.0699 62.9028 75.0699 63.1256C75.0699 63.3567 75.0939 63.5625 75.1418 63.743C75.1925 63.9234 75.2644 64.0756 75.3574 64.1997C75.4505 64.3209 75.5632 64.4139 75.6958 64.4788C75.8283 64.5408 75.9777 64.5718 76.144 64.5718C76.3103 64.5718 76.4442 64.5521 76.5457 64.5126C76.6501 64.4703 76.7374 64.4252 76.8079 64.3773C76.8784 64.3265 76.939 64.2814 76.9898 64.242C77.0433 64.1997 77.1025 64.1785 77.1674 64.1785C77.252 64.1785 77.3154 64.2109 77.3577 64.2758L77.6579 64.6564C77.5423 64.7917 77.4169 64.9059 77.2816 64.9989C77.1462 65.0891 77.0053 65.1624 76.8587 65.2188C76.7149 65.2724 76.5655 65.3104 76.4104 65.333C76.2554 65.3555 76.1017 65.3668 75.9495 65.3668C75.6817 65.3668 75.4293 65.3175 75.1925 65.2188C74.9557 65.1173 74.7485 64.9707 74.5709 64.779C74.3961 64.5873 74.2565 64.3533 74.1522 64.077C74.0507 63.7979 74 63.4808 74 63.1256C74 62.807 74.0451 62.5124 74.1353 62.2417C74.2284 61.9683 74.3637 61.7329 74.5413 61.5355C74.7189 61.3354 74.9388 61.1789 75.201 61.0661C75.4632 60.9534 75.7648 60.897 76.1059 60.897C76.4302 60.897 76.7135 60.9491 76.9559 61.0534C77.2012 61.1577 77.4211 61.3072 77.6156 61.5017L77.3408 61.8823Z" fill="#4A5056"/>
<circle cx="92" cy="63" r="6.625" fill="white" stroke="#4A5056" stroke-width="0.75"/>
<path d="M91.4848 63.0666L90.0597 60.9648H91.0661C91.1423 60.9648 91.1986 60.9761 91.2353 60.9987C91.2719 61.0184 91.3044 61.0522 91.3326 61.1002L92.2418 62.5506C92.2559 62.5027 92.2728 62.4548 92.2925 62.4069C92.3151 62.3589 92.3418 62.311 92.3728 62.2631L93.1044 61.1213C93.1383 61.0677 93.1735 61.0283 93.2102 61.0029C93.2468 60.9775 93.2919 60.9648 93.3455 60.9648H94.3054L92.8761 63.02L94.3646 65.3036H93.3582C93.282 65.3036 93.22 65.2839 93.1721 65.2444C93.127 65.2049 93.0889 65.1598 93.0579 65.1091L92.136 63.5994C92.1107 63.7009 92.0754 63.7855 92.0303 63.8531L91.2184 65.1091C91.1874 65.157 91.1493 65.2021 91.1042 65.2444C91.0591 65.2839 91.0027 65.3036 90.9351 65.3036H90.0005L91.4848 63.0666Z" fill="#4A5056"/>
<circle cx="108" cy="63" r="6.625" fill="white" stroke="#4A5056" stroke-width="0.75"/>
<path d="M108.263 59.9668C108.545 59.9668 108.799 60.0077 109.024 60.0894C109.252 60.1684 109.447 60.2797 109.608 60.4235C109.768 60.5645 109.891 60.7308 109.976 60.9225C110.063 61.1142 110.107 61.3214 110.107 61.5441C110.107 61.7387 110.084 61.9106 110.039 62.0601C109.997 62.2067 109.933 62.3349 109.849 62.4449C109.767 62.5548 109.665 62.6479 109.544 62.724C109.426 62.8001 109.29 62.8635 109.138 62.9143C109.505 63.0299 109.778 63.2061 109.959 63.4429C110.139 63.6797 110.229 63.9771 110.229 64.3352C110.229 64.6396 110.173 64.9089 110.06 65.1429C109.947 65.3768 109.795 65.5742 109.603 65.7349C109.412 65.8928 109.189 66.0126 108.935 66.0943C108.684 66.1761 108.418 66.217 108.136 66.217C107.829 66.217 107.561 66.1817 107.333 66.1113C107.104 66.0408 106.905 65.9365 106.736 65.7983C106.567 65.6602 106.423 65.491 106.305 65.2909C106.187 65.0907 106.085 64.8595 106 64.5973L106.461 64.407C106.54 64.3732 106.621 64.3563 106.702 64.3563C106.776 64.3563 106.841 64.3718 106.897 64.4028C106.956 64.4338 107.001 64.4789 107.032 64.5381C107.083 64.6368 107.138 64.7341 107.197 64.8299C107.259 64.9258 107.333 65.0118 107.417 65.0879C107.502 65.1612 107.6 65.2218 107.713 65.2697C107.829 65.3148 107.965 65.3374 108.123 65.3374C108.301 65.3374 108.456 65.3092 108.589 65.2528C108.721 65.1936 108.831 65.1175 108.918 65.0244C109.009 64.9314 109.075 64.8285 109.117 64.7157C109.162 64.6002 109.185 64.4846 109.185 64.369C109.185 64.2224 109.169 64.0899 109.138 63.9715C109.107 63.8502 109.042 63.7473 108.944 63.6628C108.845 63.5782 108.703 63.5119 108.517 63.464C108.333 63.4161 108.087 63.3921 107.777 63.3921V62.6479C108.033 62.645 108.246 62.6211 108.415 62.576C108.584 62.5309 108.718 62.4688 108.817 62.3899C108.918 62.3081 108.989 62.2109 109.028 62.0981C109.068 61.9853 109.088 61.8613 109.088 61.726C109.088 61.4356 109.009 61.2171 108.851 61.0705C108.693 60.9211 108.477 60.8464 108.204 60.8464C107.956 60.8464 107.75 60.9126 107.586 61.0451C107.423 61.1748 107.309 61.3426 107.244 61.5484C107.21 61.6555 107.163 61.733 107.104 61.781C107.045 61.8261 106.967 61.8486 106.872 61.8486C106.827 61.8486 106.779 61.8444 106.728 61.8359L106.178 61.7387C106.22 61.4455 106.302 61.1889 106.423 60.969C106.545 60.7463 106.695 60.5616 106.876 60.415C107.059 60.2656 107.268 60.1543 107.502 60.081C107.739 60.0049 107.992 59.9668 108.263 59.9668Z" fill="#4A5056"/>
</g>
<defs>
<clipPath id="clip0_532_23663">
<rect width="125" height="125" fill="white"/>
</clipPath>
</defs>
</svg>
