<svg width="125" height="125" viewBox="0 0 125 125" fill="none" xmlns="http://www.w3.org/2000/svg">
<g clip-path="url(#clip0_532_24082)">
<path d="M74.3938 42.3247C74.3938 43.1833 69.7314 45.3308 68.847 45.3308H51.9156C51.0312 45.3308 47.2126 44.6353 47.2126 43.7764L50.2387 35.411C50.9508 33.674 51.5381 33.2383 53.1791 33.2383H65.0388L74.3938 42.3247Z" fill="white" stroke="#4A5056" stroke-width="0.5" stroke-miterlimit="10"/>
<path d="M54.3198 34.4424L53.3994 34.4431C52.6219 34.4431 51.9687 35.0446 51.6544 35.8548L49.1084 42.8623C49.1084 43.5822 50.5322 44.579 51.3056 44.579L54.3194 44.5782V34.4424H54.3198Z" fill="white" stroke="#4A5056" stroke-width="0.5" stroke-miterlimit="10"/>
<path d="M64.5502 34.4409L55.2698 34.4424V44.5775L66.1279 44.5768C66.9021 44.5768 72.6675 43.0436 72.6667 42.3241L64.5502 34.4409Z" fill="white" stroke="#4A5056" stroke-width="0.5" stroke-miterlimit="10"/>
<path d="M70.6721 48.4535C70.6721 49.0012 71.13 49.4457 71.6943 49.4457H79.0019C79.5666 49.4457 80.0241 49.0008 80.0241 48.4535V42.2089C80.0241 41.6608 79.5666 41.2163 79.0019 41.2163H71.6943C71.13 41.2163 70.6721 41.6604 70.6721 42.2089V48.4535Z" fill="white" stroke="#4A5056" stroke-width="0.5" stroke-miterlimit="10"/>
<path d="M77.1472 41.1677L75.5369 41.1597H46.2998V51.6448L80.0232 51.6444V44.651C77.4642 44.651 77.1472 42.1976 77.1472 41.1677Z" fill="white" stroke="#4A5056" stroke-width="0.5" stroke-miterlimit="10"/>
<path d="M73.482 54.7439C75.8303 54.7439 77.734 52.8949 77.734 50.6141C77.734 48.3333 75.8303 46.4844 73.482 46.4844C71.1337 46.4844 69.23 48.3333 69.23 50.6141C69.23 52.8949 71.1337 54.7439 73.482 54.7439Z" fill="white" stroke="#4A5056" stroke-width="0.5" stroke-miterlimit="10"/>
<path d="M73.4819 52.611C74.617 52.611 75.5371 51.7174 75.5371 50.6151C75.5371 49.5128 74.617 48.6191 73.4819 48.6191C72.3469 48.6191 71.4268 49.5128 71.4268 50.6151C71.4268 51.7174 72.3469 52.611 73.4819 52.611Z" fill="white" stroke="#4A5056" stroke-width="0.5" stroke-miterlimit="10"/>
<path d="M53.0076 54.7436C55.3559 54.7436 57.2596 52.8948 57.2596 50.6142C57.2596 48.3337 55.3559 46.4849 53.0076 46.4849C50.6593 46.4849 48.7556 48.3337 48.7556 50.6142C48.7556 52.8948 50.6593 54.7436 53.0076 54.7436Z" fill="white" stroke="#4A5056" stroke-width="0.5" stroke-miterlimit="10"/>
<path d="M53.0072 52.6107C54.1425 52.6107 55.0628 51.7173 55.0628 50.6152C55.0628 49.5131 54.1425 48.6196 53.0072 48.6196C51.872 48.6196 50.9517 49.5131 50.9517 50.6152C50.9517 51.7173 51.872 52.6107 53.0072 52.6107Z" fill="white" stroke="#4A5056" stroke-width="0.5" stroke-miterlimit="10"/>
<path d="M46.4189 45.4976C46.4189 45.8953 46.6743 46.2187 46.9883 46.2187H47.1422C47.4569 46.2187 47.7118 45.8953 47.7118 45.4976V43.8601C47.7118 43.4621 47.4569 43.1387 47.1422 43.1387H46.9883C46.6743 43.1387 46.4189 43.4621 46.4189 43.8601V45.4976Z" fill="white" stroke="#4A5056" stroke-width="0.5" stroke-miterlimit="10"/>
<path d="M56.7632 42.2339C56.3536 42.2339 56.0212 42.4811 56.0212 42.787V42.937C56.0212 43.2433 56.3528 43.4905 56.7632 43.4905H58.4482C58.8578 43.4905 59.1901 43.2433 59.1901 42.937V42.787C59.1901 42.4811 58.8582 42.2339 58.4482 42.2339H56.7632Z" fill="white" stroke="#4A5056" stroke-width="0.5" stroke-miterlimit="10"/>
<path d="M80.688 48.8579H78.2129V51.6442H80.688V48.8579Z" fill="white" stroke="#4A5056" stroke-width="0.5" stroke-miterlimit="10"/>
<path d="M48.3047 48.8579H45.8284V51.6446H48.3047V48.8579Z" fill="white" stroke="#4A5056" stroke-width="0.5" stroke-miterlimit="10"/>
<rect x="69.5" y="61.5" width="28" height="28" rx="2.5" stroke="#4A5056"/>
<path d="M77.9931 82.5377C76.2196 82.8311 75.7774 80.7106 76.0948 79.3437C76.4392 77.8619 76.9318 80.7964 77.586 80.862" fill="white"/>
<path d="M77.9931 82.5377C76.2196 82.8311 75.7774 80.7106 76.0948 79.3437C76.4392 77.8619 76.9318 80.7964 77.586 80.862" stroke="#4A5056" stroke-width="0.25" stroke-miterlimit="10" stroke-linecap="round"/>
<path d="M86.0245 77.1616C86.719 77.4881 88.2038 79.1993 86.7766 81.5051C87.4336 81.6187 87.9183 82.0629 88.0681 82.4992C88.2671 83.0793 87.7845 83.8452 87.2134 83.1331C87.1319 83.6462 86.5128 83.7677 86.2096 83.2082C86.0953 83.5702 85.8934 83.646 85.4625 83.5449C84.6492 82.8751 83.996 83.1 83.6414 82.2488" fill="white"/>
<path d="M86.0245 77.1616C86.719 77.4881 88.2038 79.1993 86.7766 81.5051C87.4336 81.6187 87.9183 82.0629 88.0681 82.4992C88.2671 83.0793 87.7845 83.8452 87.2134 83.1331C87.1319 83.6462 86.5128 83.7677 86.2096 83.2082C86.0953 83.5702 85.8934 83.646 85.4625 83.5449C84.6492 82.8751 83.996 83.1 83.6414 82.2488" stroke="#4A5056" stroke-width="0.25" stroke-miterlimit="10" stroke-linecap="round"/>
<path d="M85.9509 82.2988C86.1844 82.4554 86.3132 82.9225 86.2106 83.1958L85.9509 82.2988Z" fill="white"/>
<path d="M85.9509 82.2988C86.1844 82.4554 86.3132 82.9225 86.2106 83.1958" stroke="#4A5056" stroke-width="0.25" stroke-miterlimit="10" stroke-linecap="round"/>
<path d="M86.9255 82.2056C87.2138 82.5324 87.2204 82.7837 87.2136 83.1334L86.9255 82.2056Z" fill="white"/>
<path d="M86.9255 82.2056C87.2138 82.5324 87.2204 82.7837 87.2136 83.1334" stroke="#4A5056" stroke-width="0.25" stroke-miterlimit="10" stroke-linecap="round"/>
<path d="M86.0989 72.3928C87.9052 74.9308 86.1961 77.087 85.4811 79.7426C84.5779 83.0959 81.2458 83.5033 79.063 82.6068C76.8207 81.6858 77.6069 79.0604 78.5843 77.0559C79.1104 75.9779 79.0611 74.9939 79.6124 73.9964C80.1813 72.9668 80.0269 72.9689 80.1821 71.7559" fill="white"/>
<path d="M86.0989 72.3928C87.9052 74.9308 86.1961 77.087 85.4811 79.7426C84.5779 83.0959 81.2458 83.5033 79.063 82.6068C76.8207 81.6858 77.6069 79.0604 78.5843 77.0559C79.1104 75.9779 79.0611 74.9939 79.6124 73.9964C80.1813 72.9668 80.0269 72.9689 80.1821 71.7559" stroke="#4A5056" stroke-width="0.25" stroke-miterlimit="10" stroke-linecap="round"/>
<path d="M85.7422 81.455C86.1193 81.3823 86.5226 81.4494 86.8847 81.5279" stroke="#4A5056" stroke-width="0.25" stroke-miterlimit="10" stroke-linecap="round"/>
<path d="M85.019 79.164C85.3668 79.6427 86.3189 80.1176 86.559 79.2965C86.8797 78.2008 85.6381 78.2608 85.296 79.0649" fill="white"/>
<path d="M81.9545 79.2587C82.7079 79.9085 82.1697 81.7844 81.5127 82.4108C82.1566 82.5252 82.5895 82.9723 82.6885 83.4111C82.82 83.9951 82.2478 84.766 81.76 84.0489C81.6187 84.5654 80.9854 84.6871 80.7471 84.1245C80.5908 84.4888 80.3802 84.5654 79.9605 84.4632C79.2257 83.7893 79.2577 83.1295 78.4955 82.7563C77.7467 82.3892 75.402 80.0045 79.0355 75.4456C79.0355 75.4456 78.798 72.7909 80.152 72.0049" fill="white"/>
<path d="M81.9545 79.2587C82.7079 79.9085 82.1697 81.7844 81.5127 82.4108C82.1566 82.5252 82.5895 82.9723 82.6885 83.4111C82.82 83.9951 82.2478 84.766 81.76 84.0489C81.6187 84.5654 80.9854 84.6871 80.7471 84.1245C80.5908 84.4888 80.3802 84.5654 79.9605 84.4632C79.2257 83.7893 79.2577 83.1295 78.4955 82.7563C77.7467 82.3892 75.402 80.0045 79.0355 75.4456C79.0355 75.4456 78.798 72.7909 80.152 72.0049" stroke="#4A5056" stroke-width="0.25" stroke-miterlimit="10" stroke-linecap="round"/>
<path d="M79.8562 82.9443C80.0714 83.1018 80.1457 83.5717 80.0108 83.8471L79.8562 82.9443Z" fill="white"/>
<path d="M79.8562 82.9443C80.0714 83.1018 80.1457 83.5717 80.0108 83.8471" stroke="#4A5056" stroke-width="0.25" stroke-miterlimit="10" stroke-linecap="round"/>
<path d="M81.5801 83.1147C81.8304 83.4435 81.8077 83.6962 81.7601 84.0484L81.5801 83.1147Z" fill="white"/>
<path d="M81.5801 83.1147C81.8304 83.4435 81.8077 83.6962 81.7601 84.0484" stroke="#4A5056" stroke-width="0.25" stroke-miterlimit="10" stroke-linecap="round"/>
<path d="M80.595 83.1147C80.8451 83.4435 80.8226 83.6962 80.7748 84.0484L80.595 83.1147Z" fill="white"/>
<path d="M80.595 83.1147C80.8451 83.4435 80.8226 83.6962 80.7748 84.0484" stroke="#4A5056" stroke-width="0.25" stroke-miterlimit="10" stroke-linecap="round"/>
<path d="M79.8572 73.9727C79.2408 76.3646 78.9307 80.8865 78.3197 82.432C77.7481 82.4426 77.1469 82.8665 77.0147 83.3462C76.8401 83.9798 77.4259 84.8961 78.0074 84.1547C78.1356 84.7468 78.8413 84.9582 79.1474 84.3528C79.3032 84.7821 79.5403 84.8936 80.032 84.8282C80.6592 84.3619 79.9806 83.7842 80.3379 82.8254C80.7735 81.6568 80.9094 77.5197 81.7056 76.3821" fill="white"/>
<path d="M79.8572 73.9727C79.2408 76.3646 78.9307 80.8865 78.3197 82.432C77.7481 82.4426 77.1469 82.8665 77.0147 83.3462C76.8401 83.9798 77.4259 84.8961 78.0074 84.1547C78.1356 84.7468 78.8413 84.9582 79.1474 84.3528C79.3032 84.7821 79.5403 84.8936 80.032 84.8282C80.6592 84.3619 79.9806 83.7842 80.3379 82.8254C80.7735 81.6568 80.9094 77.5197 81.7056 76.3821" stroke="#4A5056" stroke-width="0.25" stroke-miterlimit="10" stroke-linecap="round"/>
<path d="M79.3802 83.3301C79.1232 83.4873 79.0089 84.0119 79.1457 84.3377" stroke="#4A5056" stroke-width="0.25" stroke-miterlimit="10" stroke-linecap="round"/>
<path d="M78.2635 83.125C77.9636 83.4701 77.9747 83.7557 78.0077 84.1548" stroke="#4A5056" stroke-width="0.25" stroke-miterlimit="10" stroke-linecap="round"/>
<path d="M86.8568 75.4268C87.2745 78.1305 87.5927 80.207 88.8003 81.8416C89.3692 81.8563 89.9729 82.2808 90.1093 82.757C90.2895 83.3846 89.7193 84.2871 89.133 83.5518C89.0132 84.1366 88.3137 84.343 88.0008 83.7424C87.8511 84.1667 87.617 84.2757 87.1249 84.2093C86.4914 83.7443 87.0489 82.7321 86.6749 81.7708C86.2179 80.5949 85.9037 79.6205 85.5042 78.2796" fill="white"/>
<path d="M86.8568 75.4268C87.2745 78.1305 87.5927 80.207 88.8003 81.8416C89.3692 81.8563 89.9729 82.2808 90.1093 82.757C90.2895 83.3846 89.7193 84.2871 89.133 83.5518C89.0132 84.1366 88.3137 84.343 88.0008 83.7424C87.8511 84.1667 87.617 84.2757 87.1249 84.2093C86.4914 83.7443 87.0489 82.7321 86.6749 81.7708C86.2179 80.5949 85.9037 79.6205 85.5042 78.2796" stroke="#4A5056" stroke-width="0.25" stroke-miterlimit="10" stroke-linecap="round"/>
<path d="M87.7544 82.7266C88.0131 82.8842 88.1344 83.4048 88.0027 83.7271" stroke="#4A5056" stroke-width="0.25" stroke-miterlimit="10" stroke-linecap="round"/>
<path d="M88.865 82.5303C89.1682 82.874 89.1607 83.1572 89.1328 83.552" stroke="#4A5056" stroke-width="0.25" stroke-miterlimit="10" stroke-linecap="round"/>
<path d="M86.6908 69.6815C86.6908 69.6815 87.1947 70.0601 87.1711 69.8479C87.451 69.0392 87.0236 67.6015 86.8307 67.2576L86.6767 66.6952C86.247 66.6726 85.725 66.2969 85.2601 66.1588C84.744 66.0055 84.1199 65.9968 83.5733 66.0007H83.5042C82.9573 65.9966 82.3338 66.0051 81.8171 66.1588C81.3524 66.2969 80.8303 66.6726 80.4007 66.6952L80.2465 67.2576C79.9002 67.8756 79.945 68.8594 80.2118 69.9052C79.8611 70.128 79.5483 70.4128 79.5483 71.1438C79.5485 71.6067 79.6715 72.3925 80.1799 72.7973C80.9682 73.4257 81.456 73.0041 81.5569 73.2107C81.9401 73.9962 82.2287 74.2871 82.9814 74.4352C83.0378 74.4464 83.1031 74.4356 83.1735 74.4113C83.4559 74.4881 83.7624 74.501 84.0956 74.4352C84.8485 74.2871 85.1373 73.9962 85.5203 73.2107C85.621 73.0037 86.109 73.4257 86.8977 72.7973C87.4055 72.3925 87.5287 71.6065 87.5289 71.1438C87.5291 70.2379 87.1276 69.948 86.6908 69.6815Z" fill="white" stroke="#4A5056" stroke-width="0.25" stroke-miterlimit="10" stroke-linecap="round"/>
<path d="M85.8832 69.0691C85.9856 68.7175 85.6535 68.4417 85.2333 68.4813C84.8687 68.516 84.6082 68.6847 84.6082 69.0553C84.8652 69.0022 84.9544 69.2933 85.2112 69.3062C85.508 69.3212 85.7629 69.2418 85.8832 69.0691Z" stroke="#4A5056" stroke-width="0.25" stroke-miterlimit="10" stroke-linecap="round" stroke-linejoin="round"/>
<path d="M84.9309 68.6051C84.8073 68.9874 85.1001 69.5612 85.5194 69.1814C85.8443 68.8871 85.4116 68.1727 85.0079 68.5299" fill="#4A5056"/>
<path d="M81.7819 69.0695C81.6798 68.718 81.9979 68.4422 82.4179 68.4818C82.7827 68.5165 83.0572 68.6851 83.0572 69.0558C82.8002 69.0027 82.7107 69.2938 82.4541 69.3067C82.1571 69.3217 81.902 69.2423 81.7819 69.0695Z" stroke="#4A5056" stroke-width="0.25" stroke-miterlimit="10" stroke-linecap="round" stroke-linejoin="round"/>
<path d="M82.734 68.6056C82.8576 68.9879 82.565 69.5617 82.1457 69.1819C81.8208 68.8876 82.2533 68.1732 82.6568 68.5304" fill="#4A5056"/>
<path d="M85.095 70.3094C84.9984 70.0955 84.8355 69.9719 84.6484 69.8953C84.6166 69.8702 84.5752 69.8477 84.5198 69.8272C84.2894 69.7424 84.0399 69.7445 83.7964 69.758C83.553 69.7445 83.3034 69.7426 83.0733 69.8272C83.0175 69.8473 82.9769 69.8702 82.9443 69.8953C82.7576 69.9717 82.5946 70.0955 82.4977 70.3094C82.2962 70.7546 82.8718 70.5947 83.1613 70.6165C83.2181 70.673 83.2433 70.7594 83.2741 70.8728C83.3207 71.0466 83.3881 71.1795 83.5244 71.2776C83.6039 71.361 83.6951 71.3963 83.7969 71.3885C83.8986 71.3963 83.99 71.361 84.0693 71.2776C84.2054 71.1795 84.273 71.0466 84.3196 70.8728C84.3502 70.7592 84.3754 70.673 84.4322 70.6165C84.721 70.5947 85.2969 70.7546 85.095 70.3094Z" fill="#4A5056"/>
<path d="M84.6475 72.6152C84.8774 73.0648 84.8801 73.4742 84.7342 73.9738C84.5934 74.4569 84.0995 74.9358 83.4696 74.7248C83.0559 74.5863 82.9235 74.185 82.924 73.8191C82.9244 73.5442 82.8717 73.1392 82.9392 72.8869" fill="white"/>
<path d="M84.6475 72.6152C84.8774 73.0648 84.8801 73.4742 84.7342 73.9738C84.5934 74.4569 84.0995 74.9358 83.4696 74.7248C83.0559 74.5863 82.9235 74.185 82.924 73.8191C82.9244 73.5442 82.8717 73.1392 82.9392 72.8869" stroke="#4A5056" stroke-width="0.25" stroke-miterlimit="10" stroke-linecap="round"/>
<path d="M83.9282 72.6675C83.9582 73.1499 83.8977 73.6317 83.8254 74.1077" stroke="#4A5056" stroke-width="0.25" stroke-miterlimit="10" stroke-linecap="round" stroke-linejoin="round"/>
<path d="M85.4809 72.7316C84.8379 72.9081 83.9083 72.425 83.8194 71.6616C83.6911 72.1999 83.3991 72.6065 82.9438 72.8815C82.6986 72.9876 82.0169 72.8144 81.8013 72.4173" stroke="#4A5056" stroke-width="0.25" stroke-miterlimit="10" stroke-linecap="round"/>
<path d="M82.022 70.543C81.6965 70.69 81.1471 70.8657 81.2612 71.6613" stroke="#4A5056" stroke-width="0.25" stroke-miterlimit="10" stroke-linecap="round"/>
<path d="M85.6321 70.543C85.9573 70.69 86.5069 70.8657 86.3925 71.6613" stroke="#4A5056" stroke-width="0.25" stroke-miterlimit="10" stroke-linecap="round"/>
<path d="M81.8279 66.4643C80.783 67.0905 80.5743 65.7792 79.5481 66.1094C78.6354 66.4029 78.534 67.6211 78.5303 68.5404C78.5286 69.0927 78.667 69.6492 78.6914 70.2014C78.7161 70.7509 78.5746 71.5698 79.3275 71.0863C79.6649 70.8697 79.9175 70.3177 80.2051 70.0122C80.5764 69.6181 80.9409 69.3608 81.0644 68.7795C81.1428 68.4109 81.1395 67.9228 81.0644 67.5887" fill="white"/>
<path d="M81.8279 66.4643C80.783 67.0905 80.5743 65.7792 79.5481 66.1094C78.6354 66.4029 78.534 67.6211 78.5303 68.5404C78.5286 69.0927 78.667 69.6492 78.6914 70.2014C78.7161 70.7509 78.5746 71.5698 79.3275 71.0863C79.6649 70.8697 79.9175 70.3177 80.2051 70.0122C80.5764 69.6181 80.9409 69.3608 81.0644 68.7795C81.1428 68.4109 81.1395 67.9228 81.0644 67.5887" stroke="#4A5056" stroke-width="0.25" stroke-miterlimit="10" stroke-linecap="round"/>
<path d="M80.283 69.2427C80.165 69.6912 79.5879 69.901 79.3711 70.323" stroke="#4A5056" stroke-width="0.25" stroke-miterlimit="10" stroke-linecap="round" stroke-linejoin="round"/>
<path d="M85.51 66.5038C86.6115 67.2805 86.9451 66.064 87.9714 66.3942C88.8842 66.6876 88.9196 67.6211 88.9229 68.5403C88.925 69.0925 88.7862 69.649 88.7616 70.2012C88.7371 70.7508 88.8786 71.5696 88.1257 71.0861C87.7885 70.8695 87.5357 70.3175 87.2477 70.0121C86.877 69.6179 86.6082 69.5824 86.7605 69.0082C86.8375 68.7176 86.8843 67.8824 86.3886 67.5889" fill="white"/>
<path d="M85.51 66.5038C86.6115 67.2805 86.9451 66.064 87.9714 66.3942C88.8842 66.6876 88.9196 67.6211 88.9229 68.5403C88.925 69.0925 88.7862 69.649 88.7616 70.2012C88.7371 70.7508 88.8786 71.5696 88.1257 71.0861C87.7885 70.8695 87.5357 70.3175 87.2477 70.0121C86.877 69.6179 86.6082 69.5824 86.7605 69.0082C86.8375 68.7176 86.8843 67.8824 86.3886 67.5889" stroke="#4A5056" stroke-width="0.25" stroke-miterlimit="10" stroke-linecap="round"/>
<path d="M87.1709 69.2422C87.2889 69.6908 87.866 69.9005 88.0826 70.3225" stroke="#4A5056" stroke-width="0.25" stroke-miterlimit="10" stroke-linecap="round" stroke-linejoin="round"/>
<path d="M85.4499 75.8564C85.531 76.098 85.5995 76.3534 85.6625 76.6122C85.6234 76.6263 85.5857 76.607 85.5472 76.6223C85.5785 76.8026 85.6061 77.0225 85.6317 77.2055C85.602 77.2175 85.5464 77.1895 85.5402 77.192C85.6401 77.7855 85.6844 78.5201 85.3577 79.0318" stroke="#4A5056" stroke-width="0.25" stroke-miterlimit="10" stroke-linecap="round"/>
<path d="M84.5131 69.2422C84.4617 69.5184 84.6808 69.5763 84.7693 69.6818" stroke="#4A5056" stroke-width="0.25" stroke-miterlimit="10" stroke-linecap="round" stroke-linejoin="round"/>
<path d="M83.0571 69.2861C83.0571 69.516 82.8465 69.6226 82.7625 69.7513" stroke="#4A5056" stroke-width="0.25" stroke-miterlimit="10" stroke-linecap="round" stroke-linejoin="round"/>
<path d="M51.449 20.955C51.419 21.005 51.3873 21.0433 51.354 21.07C51.3207 21.0933 51.2773 21.105 51.224 21.105C51.1673 21.105 51.1007 21.0767 51.024 21.02C50.9507 20.9633 50.8557 20.9017 50.739 20.835C50.6257 20.765 50.4873 20.7017 50.324 20.645C50.164 20.5883 49.969 20.56 49.739 20.56C49.5223 20.56 49.3307 20.59 49.164 20.65C48.9973 20.7067 48.8573 20.785 48.744 20.885C48.634 20.985 48.5507 21.1033 48.494 21.24C48.4373 21.3733 48.409 21.5183 48.409 21.675C48.409 21.875 48.4573 22.0417 48.554 22.175C48.654 22.305 48.784 22.4167 48.944 22.51C49.1073 22.6033 49.2907 22.685 49.494 22.755C49.7007 22.8217 49.9107 22.8917 50.124 22.965C50.3407 23.0383 50.5507 23.1217 50.754 23.215C50.9607 23.305 51.144 23.42 51.304 23.56C51.4673 23.7 51.5973 23.8717 51.694 24.075C51.794 24.2783 51.844 24.5283 51.844 24.825C51.844 25.1383 51.7907 25.4333 51.684 25.71C51.5773 25.9833 51.4207 26.2217 51.214 26.425C51.0107 26.6283 50.759 26.7883 50.459 26.905C50.1623 27.0217 49.824 27.08 49.444 27.08C48.9807 27.08 48.5573 26.9967 48.174 26.83C47.794 26.66 47.469 26.4317 47.199 26.145L47.479 25.685C47.5057 25.6483 47.5373 25.6183 47.574 25.595C47.614 25.5683 47.6573 25.555 47.704 25.555C47.774 25.555 47.854 25.5933 47.944 25.67C48.034 25.7433 48.1457 25.825 48.279 25.915C48.4157 26.005 48.579 26.0883 48.769 26.165C48.9623 26.2383 49.1973 26.275 49.474 26.275C49.704 26.275 49.909 26.2433 50.089 26.18C50.269 26.1167 50.4207 26.0283 50.544 25.915C50.6707 25.7983 50.7673 25.66 50.834 25.5C50.9007 25.34 50.934 25.1617 50.934 24.965C50.934 24.7483 50.884 24.5717 50.784 24.435C50.6873 24.295 50.559 24.1783 50.399 24.085C50.239 23.9917 50.0557 23.9133 49.849 23.85C49.6457 23.7833 49.4357 23.7167 49.219 23.65C49.0057 23.58 48.7957 23.5 48.589 23.41C48.3857 23.32 48.204 23.2033 48.044 23.06C47.884 22.9167 47.754 22.7383 47.654 22.525C47.5573 22.3083 47.509 22.0417 47.509 21.725C47.509 21.4717 47.5573 21.2267 47.654 20.99C47.754 20.7533 47.8973 20.5433 48.084 20.36C48.2707 20.1767 48.5007 20.03 48.774 19.92C49.0507 19.81 49.3673 19.755 49.724 19.755C50.124 19.755 50.489 19.8183 50.819 19.945C51.149 20.0717 51.4373 20.255 51.684 20.495L51.449 20.955ZM59.2917 27H58.3167V23.74H54.4567V27H53.4817V19.835H54.4567V23.03H58.3167V19.835H59.2917V27ZM67.3353 27H66.5853C66.4986 27 66.4286 26.9783 66.3753 26.935C66.322 26.8917 66.282 26.8367 66.2553 26.77L65.5853 25.04H62.3703L61.7003 26.77C61.677 26.83 61.637 26.8833 61.5803 26.93C61.5236 26.9767 61.4536 27 61.3703 27H60.6203L63.4853 19.835H64.4703L67.3353 27ZM62.6403 24.34H65.3153L64.1903 21.425C64.117 21.245 64.0453 21.02 63.9753 20.75C63.9386 20.8867 63.902 21.0133 63.8653 21.13C63.832 21.2433 63.7986 21.3433 63.7653 21.43L62.6403 24.34ZM69.7022 24.32V27H68.7372V19.835H70.8522C71.3055 19.835 71.6989 19.8883 72.0322 19.995C72.3689 20.0983 72.6472 20.2467 72.8672 20.44C73.0872 20.6333 73.2505 20.8667 73.3572 21.14C73.4672 21.4133 73.5222 21.7183 73.5222 22.055C73.5222 22.3883 73.4639 22.6933 73.3472 22.97C73.2305 23.2467 73.0589 23.485 72.8322 23.685C72.6089 23.885 72.3305 24.0417 71.9972 24.155C71.6639 24.265 71.2822 24.32 70.8522 24.32H69.7022ZM69.7022 23.55H70.8522C71.1289 23.55 71.3722 23.5133 71.5822 23.44C71.7955 23.3667 71.9739 23.265 72.1172 23.135C72.2605 23.0017 72.3689 22.8433 72.4422 22.66C72.5155 22.4767 72.5522 22.275 72.5522 22.055C72.5522 21.5983 72.4105 21.2417 72.1272 20.985C71.8472 20.7283 71.4222 20.6 70.8522 20.6H69.7022V23.55ZM79.5655 19.835V20.625H76.1255V23.005H78.9105V23.765H76.1255V26.21H79.5655V27H75.1505V19.835H79.5655Z" fill="#4A5056"/>
<rect x="30.5" y="61.5" width="28" height="28" rx="2.5" stroke="#4A5056"/>
<path d="M51.0526 74.1428C51.0526 74.6287 48.4325 75.8441 47.9355 75.8441H38.4207C37.9237 75.8441 35.7778 75.4505 35.7778 74.9643L37.4784 70.2297C37.8785 69.2466 38.2086 69 39.1307 69H45.7954L51.0526 74.1428Z" fill="white" stroke="#4A5056" stroke-width="0.25" stroke-miterlimit="10"/>
<path d="M39.7721 69.6812L39.2549 69.6816C38.8179 69.6816 38.4509 70.022 38.2742 70.4805L36.8435 74.4466C36.8435 74.8541 37.6436 75.4183 38.0782 75.4183L39.7719 75.4178V69.6812H39.7721Z" fill="white" stroke="#4A5056" stroke-width="0.25" stroke-miterlimit="10"/>
<path d="M45.5211 69.6807L40.3059 69.6815V75.4178L46.4078 75.4174C46.8428 75.4174 50.0827 74.5496 50.0823 74.1424L45.5211 69.6807Z" fill="white" stroke="#4A5056" stroke-width="0.25" stroke-miterlimit="10"/>
<path d="M48.9614 77.6112C48.9614 77.9212 49.2187 78.1728 49.5359 78.1728H53.6424C53.9598 78.1728 54.2169 77.921 54.2169 77.6112V74.0769C54.2169 73.7667 53.9598 73.5151 53.6424 73.5151H49.5359C49.2187 73.5151 48.9614 73.7665 48.9614 74.0769V77.6112Z" fill="white" stroke="#4A5056" stroke-width="0.25" stroke-miterlimit="10"/>
<path d="M52.6001 73.4874L51.6952 73.4829H35.2651V79.4173L54.2163 79.4171V75.459C52.7783 75.459 52.6001 74.0704 52.6001 73.4874Z" fill="white" stroke="#4A5056" stroke-width="0.25" stroke-miterlimit="10"/>
<path d="M50.5401 81.1723C51.8597 81.1723 52.9295 80.1258 52.9295 78.8349C52.9295 77.544 51.8597 76.4976 50.5401 76.4976C49.2204 76.4976 48.1506 77.544 48.1506 78.8349C48.1506 80.1258 49.2204 81.1723 50.5401 81.1723Z" fill="white" stroke="#4A5056" stroke-width="0.25" stroke-miterlimit="10"/>
<path d="M50.5397 79.9649C51.1775 79.9649 51.6946 79.4591 51.6946 78.8352C51.6946 78.2113 51.1775 77.7056 50.5397 77.7056C49.9018 77.7056 49.3848 78.2113 49.3848 78.8352C49.3848 79.4591 49.9018 79.9649 50.5397 79.9649Z" fill="white" stroke="#4A5056" stroke-width="0.25" stroke-miterlimit="10"/>
<path d="M39.0347 81.1719C40.3544 81.1719 41.4242 80.1255 41.4242 78.8347C41.4242 77.5439 40.3544 76.4976 39.0347 76.4976C37.7151 76.4976 36.6453 77.5439 36.6453 78.8347C36.6453 80.1255 37.7151 81.1719 39.0347 81.1719Z" fill="white" stroke="#4A5056" stroke-width="0.25" stroke-miterlimit="10"/>
<path d="M39.0345 79.9649C39.6725 79.9649 40.1897 79.4593 40.1897 78.8355C40.1897 78.2117 39.6725 77.7061 39.0345 77.7061C38.3966 77.7061 37.8794 78.2117 37.8794 78.8355C37.8794 79.4593 38.3966 79.9649 39.0345 79.9649Z" fill="white" stroke="#4A5056" stroke-width="0.25" stroke-miterlimit="10"/>
<path d="M35.3323 75.9386C35.3323 76.1637 35.4758 76.3467 35.6522 76.3467H35.7387C35.9155 76.3467 36.0588 76.1637 36.0588 75.9386V75.0118C36.0588 74.7865 35.9155 74.6035 35.7387 74.6035H35.6522C35.4758 74.6035 35.3323 74.7865 35.3323 75.0118V75.9386Z" fill="white" stroke="#4A5056" stroke-width="0.25" stroke-miterlimit="10"/>
<path d="M41.1452 74.0908C40.915 74.0908 40.7283 74.2307 40.7283 74.4039V74.4888C40.7283 74.6621 40.9146 74.802 41.1452 74.802H42.0921C42.3223 74.802 42.5091 74.6621 42.5091 74.4888V74.4039C42.5091 74.2307 42.3225 74.0908 42.0921 74.0908H41.1452Z" fill="white" stroke="#4A5056" stroke-width="0.25" stroke-miterlimit="10"/>
<path d="M54.5897 77.8403H53.1987V79.4173H54.5897V77.8403Z" fill="white" stroke="#4A5056" stroke-width="0.25" stroke-miterlimit="10"/>
<path d="M36.3916 77.8403H35V79.4175H36.3916V77.8403Z" fill="white" stroke="#4A5056" stroke-width="0.25" stroke-miterlimit="10"/>
<path d="M55.8097 95.6462C54.9101 95.6462 54.1669 96.2129 53.854 97.0225H53.6976V96.0105C53.6976 94.7961 52.7589 93.8246 51.5855 93.8246C50.4121 93.8246 49.4734 94.7961 49.4734 96.0105V94.5127C49.4734 93.2984 48.5347 92.3268 47.3613 92.3268C46.1879 92.3268 45.2492 93.2984 45.2492 94.5127V87.1859C45.2492 85.9715 44.3105 85 43.1371 85C41.9637 85 41.025 85.9715 41.025 87.1859V96.1724C41.025 96.1724 40.9077 101.313 41.1814 103.945C41.4944 108.438 45.1319 112 49.5516 112C54.1669 112 57.8827 108.195 57.9609 103.418C58 103.378 58 103.297 58 103.216V99.8966V97.913V97.7916C57.9218 96.6177 56.9831 95.6462 55.8097 95.6462Z" fill="white" stroke="#4A5056" stroke-miterlimit="10" stroke-linejoin="round"/>
</g>
<defs>
<clipPath id="clip0_532_24082">
<rect width="125" height="125" fill="white"/>
</clipPath>
</defs>
</svg>
