<svg width="125" height="125" viewBox="0 0 125 125" fill="none" xmlns="http://www.w3.org/2000/svg">
<g clip-path="url(#clip0_532_23725)">
<path d="M55.6396 45.1354H51.2495C50.6365 45.1354 50.1396 45.5699 50.1396 46.106V52.0073C50.1396 52.5429 50.6365 52.9775 51.2495 52.9775H55.6396C55.8374 52.9775 56.0315 53.0236 56.2024 53.1112L63.2368 58.8387C63.9763 59.2193 64.9089 58.7529 64.9089 58.0024V40.1105C64.9089 39.36 63.9763 38.8936 63.2368 39.2742L56.2024 45.0016C56.0315 45.0893 55.8374 45.1354 55.6396 45.1354Z" fill="#4A5056"/>
<path fill-rule="evenodd" clip-rule="evenodd" d="M66.6158 51.9557C68.5721 50.4122 68.4083 47.0879 66.6265 45.7246C66.2215 45.4148 66.1299 44.8153 66.4219 44.3856C66.7139 43.9559 67.2788 43.8587 67.6837 44.1685C70.4207 46.2625 70.6678 51.1492 67.6944 53.4952C67.2938 53.8112 66.7276 53.7228 66.4297 53.2977C66.1318 52.8726 66.2151 52.2718 66.6158 51.9557Z" fill="#4A5056"/>
<path fill-rule="evenodd" clip-rule="evenodd" d="M72.7838 48.4876C72.7439 46.067 71.7844 43.7913 70.169 42.4935C69.7591 42.1641 69.7164 41.5909 70.0738 41.2131C70.4311 40.8352 71.0531 40.796 71.463 41.1253C73.6129 42.8525 74.7072 45.6815 74.7529 48.4601C74.7988 51.2462 73.794 54.175 71.4743 56.0969C71.0698 56.4319 70.4473 56.4014 70.0837 56.0287C69.7202 55.6559 69.7533 55.0821 70.1577 54.7471C71.9457 53.2658 72.8235 50.9007 72.7838 48.4876Z" fill="#4A5056"/>
<path fill-rule="evenodd" clip-rule="evenodd" d="M61.999 65.5217C71.4791 65.5217 79.1643 57.9527 79.1643 48.6159C79.1643 39.279 71.4791 31.71 61.999 31.71C52.5189 31.71 44.8337 39.279 44.8337 48.6159C44.8337 57.9527 52.5189 65.5217 61.999 65.5217ZM61.999 67.3494C72.504 67.3494 81.02 58.9621 81.02 48.6159C81.02 38.2696 72.504 29.8823 61.999 29.8823C51.494 29.8823 42.978 38.2696 42.978 48.6159C42.978 58.9621 51.494 67.3494 61.999 67.3494Z" fill="white"/>
<path fill-rule="evenodd" clip-rule="evenodd" d="M74.3352 34.3539C70.8806 31.4513 66.3796 29.7525 61.5332 29.8574L61.6637 31.6909C65.9209 31.6207 69.8779 33.0922 72.9498 35.6046L74.3352 34.3539Z" fill="#4A5056"/>
<path d="M52.3358 85.6684C52.2985 85.7361 52.2411 85.7699 52.1635 85.7699C52.1169 85.7699 52.0642 85.753 52.0052 85.7192C51.9462 85.6854 51.8733 85.6485 51.7864 85.6085C51.7026 85.5654 51.6017 85.527 51.4837 85.4932C51.3658 85.4563 51.2261 85.4379 51.0647 85.4379C50.925 85.4379 50.7993 85.4563 50.6875 85.4932C50.5758 85.527 50.4796 85.5747 50.3988 85.6362C50.3212 85.6976 50.2607 85.7699 50.2173 85.8529C50.1769 85.9329 50.1567 86.0205 50.1567 86.1158C50.1567 86.2357 50.1909 86.3356 50.2592 86.4156C50.3306 86.4955 50.4237 86.5647 50.5385 86.6231C50.6534 86.6815 50.7837 86.7338 50.9296 86.7799C51.0755 86.8229 51.2245 86.8706 51.3766 86.9228C51.5318 86.972 51.6824 87.0274 51.8283 87.0889C51.9742 87.1504 52.1045 87.2272 52.2194 87.3195C52.3342 87.4117 52.4258 87.5255 52.4941 87.6607C52.5655 87.7929 52.6012 87.9528 52.6012 88.1404C52.6012 88.3556 52.5624 88.5554 52.4848 88.7399C52.4072 88.9213 52.2923 89.0796 52.1402 89.2149C51.9881 89.3471 51.8019 89.4516 51.5815 89.5285C51.3611 89.6054 51.1066 89.6438 50.8179 89.6438C50.4889 89.6438 50.1909 89.5915 49.9239 89.487C49.657 89.3794 49.4304 89.2426 49.2441 89.0765L49.4397 88.7629C49.4645 88.723 49.494 88.6922 49.5282 88.6707C49.5623 88.6492 49.6073 88.6384 49.6632 88.6384C49.7191 88.6384 49.778 88.66 49.8401 88.703C49.9022 88.746 49.9767 88.7937 50.0636 88.846C50.1536 88.8982 50.2607 88.9459 50.3849 88.9889C50.5121 89.032 50.6705 89.0535 50.8598 89.0535C51.0212 89.0535 51.1624 89.0335 51.2835 88.9935C51.4046 88.9505 51.5054 88.8936 51.5861 88.8229C51.6669 88.7522 51.7258 88.6707 51.7631 88.5785C51.8034 88.4862 51.8236 88.3879 51.8236 88.2833C51.8236 88.1542 51.7879 88.0481 51.7165 87.9651C51.6482 87.879 51.5567 87.8068 51.4418 87.7484C51.327 87.6869 51.195 87.6346 51.046 87.5916C50.9002 87.5454 50.7496 87.4978 50.5944 87.4486C50.4423 87.3994 50.2918 87.3441 50.1428 87.2826C49.9969 87.218 49.8665 87.1381 49.7517 87.0428C49.6368 86.9474 49.5437 86.8306 49.4723 86.6923C49.404 86.5508 49.3699 86.3802 49.3699 86.1803C49.3699 86.002 49.4071 85.8314 49.4816 85.6684C49.5561 85.5024 49.6647 85.3579 49.8075 85.2349C49.9503 85.1089 50.1257 85.009 50.3337 84.9352C50.5416 84.8614 50.7791 84.8245 51.046 84.8245C51.3564 84.8245 51.6343 84.8737 51.8795 84.9721C52.1278 85.0674 52.342 85.1996 52.522 85.3687L52.3358 85.6684Z" fill="#4A5056"/>
<path d="M54.0454 91.1518V84.8983H54.539C54.6569 84.8983 54.7314 84.9552 54.7625 85.0689L54.8323 85.6223C55.0341 85.3794 55.2638 85.1842 55.5214 85.0366C55.7822 84.8891 56.0817 84.8153 56.42 84.8153C56.6901 84.8153 56.9353 84.8675 57.1557 84.9721C57.3761 85.0735 57.5639 85.2257 57.7191 85.4286C57.8743 85.6285 57.9938 85.8775 58.0776 86.1757C58.1614 86.474 58.2033 86.8168 58.2033 87.2042C58.2033 87.5485 58.1568 87.8698 58.0636 88.168C57.9705 88.4632 57.837 88.7199 57.6632 88.9382C57.4894 89.1534 57.2752 89.324 57.0207 89.4501C56.7692 89.5731 56.4852 89.6346 56.1686 89.6346C55.8768 89.6346 55.627 89.5869 55.419 89.4916C55.2141 89.3963 55.0325 89.261 54.8742 89.0858V91.1518H54.0454ZM56.1453 85.4794C55.8753 85.4794 55.6378 85.5408 55.4329 85.6638C55.2312 85.7868 55.0449 85.9605 54.8742 86.185V88.4447C55.0263 88.6477 55.1924 88.7906 55.3724 88.8736C55.5556 88.9566 55.7589 88.9981 55.9824 88.9981C56.42 88.9981 56.7568 88.8429 56.9927 88.5324C57.2286 88.2218 57.3466 87.7791 57.3466 87.2042C57.3466 86.8998 57.3187 86.6385 57.2628 86.4202C57.21 86.2019 57.1324 86.0235 57.03 85.8852C56.9276 85.7438 56.8018 85.6408 56.6528 85.5762C56.5038 85.5116 56.3347 85.4794 56.1453 85.4794Z" fill="#4A5056"/>
<path d="M61.4231 84.8245C61.7055 84.8245 61.9663 84.8721 62.2053 84.9675C62.4443 85.0597 62.6507 85.195 62.8245 85.3733C62.9984 85.5485 63.1334 85.7668 63.2296 86.0282C63.329 86.2864 63.3786 86.5816 63.3786 86.9136C63.3786 87.0428 63.3647 87.1288 63.3367 87.1719C63.3088 87.2149 63.256 87.2364 63.1784 87.2364H60.0402C60.0464 87.5316 60.0868 87.7883 60.1613 88.0066C60.2358 88.2249 60.3382 88.4078 60.4686 88.5554C60.5989 88.6999 60.7541 88.8091 60.9342 88.8829C61.1142 88.9536 61.316 88.9889 61.5395 88.9889C61.7474 88.9889 61.9259 88.9659 62.0749 88.9197C62.227 88.8706 62.3574 88.8183 62.466 88.7629C62.5747 88.7076 62.6647 88.6569 62.7361 88.6108C62.8106 88.5616 62.8742 88.537 62.927 88.537C62.9953 88.537 63.048 88.5631 63.0853 88.6154L63.3181 88.9151C63.2157 89.0381 63.093 89.1457 62.9503 89.238C62.8075 89.3271 62.6538 89.4009 62.4893 89.4593C62.3279 89.5177 62.1603 89.5608 61.9865 89.5885C61.8126 89.6192 61.6404 89.6346 61.4696 89.6346C61.1437 89.6346 60.8426 89.5808 60.5663 89.4732C60.2932 89.3625 60.0557 89.2026 59.854 88.9935C59.6553 88.7814 59.5001 88.5201 59.3884 88.2095C59.2766 87.899 59.2207 87.5424 59.2207 87.1396C59.2207 86.8137 59.2704 86.5093 59.3697 86.2265C59.4722 85.9436 59.6181 85.6992 59.8074 85.4932C59.9968 85.2841 60.228 85.1212 60.5012 85.0043C60.7743 84.8844 61.0816 84.8245 61.4231 84.8245ZM61.4417 85.4286C61.0413 85.4286 60.7262 85.5439 60.4965 85.7745C60.2668 86.002 60.124 86.3187 60.0681 86.7245H62.6336C62.6336 86.5339 62.6073 86.3602 62.5545 86.2034C62.5017 86.0435 62.4241 85.9067 62.3217 85.793C62.2193 85.6761 62.0935 85.587 61.9446 85.5255C61.7987 85.4609 61.631 85.4286 61.4417 85.4286Z" fill="#4A5056"/>
<path d="M65.7338 82.7769V89.57H64.905V82.7769H65.7338Z" fill="#4A5056"/>
<path d="M68.4889 82.7769V89.57H67.6601V82.7769H68.4889Z" fill="#4A5056"/>
<path d="M30 96L94.5 96" stroke="#4A5056" stroke-linecap="round"/>
<path d="M72 92.75L72 81" stroke="#4A5056" stroke-width="0.5" stroke-linecap="round"/>
</g>
<defs>
<clipPath id="clip0_532_23725">
<rect width="125" height="125" fill="white"/>
</clipPath>
</defs>
</svg>
