<svg width="220" height="188" viewBox="0 0 220 188" fill="none" xmlns="http://www.w3.org/2000/svg">
<rect width="220" height="188" fill="#F6F6F6"/>
<path d="M101.738 66.1024H96.9938C96.3315 66.1024 95.7946 66.6143 95.7946 67.2458V74.1977C95.7946 74.8287 96.3315 75.3406 96.9938 75.3406H101.738C101.952 75.3406 102.161 75.3949 102.346 75.4982L109.947 82.2453C110.746 82.6936 111.754 82.1442 111.754 81.2601V60.1829C111.754 59.2988 110.746 58.7494 109.947 59.1977L102.346 65.9448C102.161 66.0481 101.952 66.1024 101.738 66.1024Z" fill="#9ACCAB"/>
<path d="M114.509 66.1431C117.102 68.0983 117.337 72.7419 114.509 74.9415" stroke="#9ACCAB" stroke-width="2" stroke-linecap="round" stroke-linejoin="round"/>
<path d="M118.616 62.293C122.583 65.9093 122.944 74.498 118.616 78.5663" stroke="#9ACCAB" stroke-width="2" stroke-linecap="round" stroke-linejoin="round"/>
<path d="M129.027 70.4292C129.027 82.2025 119.912 91.6695 108.761 91.6695C97.61 91.6695 88.4948 82.2025 88.4948 70.4292C88.4948 58.6559 97.61 49.189 108.761 49.189C119.912 49.189 129.027 58.6559 129.027 70.4292Z" stroke="#EAEBEE" stroke-width="2"/>
<path fill-rule="evenodd" clip-rule="evenodd" d="M122.496 53.4332C118.65 50.002 113.64 47.9939 108.245 48.1177L108.378 50.1162C113.138 50.0345 117.59 51.7995 121.042 54.8263L122.496 53.4332Z" fill="#9ACCAB"/>
<g filter="url(#filter0_d)">
<path d="M119.654 103.519L119.654 123.047" stroke="#9ACCAB"/>
</g>
<line x1="73.4713" y1="125.802" x2="144.05" y2="125.802" stroke="#2A2A2A" stroke-linecap="round"/>
<path d="M98.5335 113.289C98.4935 113.362 98.4318 113.399 98.3485 113.399C98.2985 113.399 98.2418 113.38 98.1785 113.344C98.1151 113.307 98.0368 113.267 97.9435 113.224C97.8535 113.177 97.7451 113.135 97.6185 113.099C97.4918 113.059 97.3418 113.039 97.1685 113.039C97.0185 113.039 96.8835 113.059 96.7635 113.099C96.6435 113.135 96.5401 113.187 96.4535 113.254C96.3701 113.32 96.3051 113.399 96.2585 113.489C96.2151 113.575 96.1935 113.67 96.1935 113.774C96.1935 113.904 96.2301 114.012 96.3035 114.099C96.3801 114.185 96.4801 114.26 96.6035 114.324C96.7268 114.387 96.8668 114.444 97.0235 114.494C97.1801 114.54 97.3401 114.592 97.5035 114.649C97.6701 114.702 97.8318 114.762 97.9885 114.829C98.1451 114.895 98.2851 114.979 98.4085 115.079C98.5318 115.179 98.6301 115.302 98.7035 115.449C98.7801 115.592 98.8185 115.765 98.8185 115.969C98.8185 116.202 98.7768 116.419 98.6935 116.619C98.6101 116.815 98.4868 116.987 98.3235 117.134C98.1601 117.277 97.9601 117.39 97.7235 117.474C97.4868 117.557 97.2135 117.599 96.9035 117.599C96.5501 117.599 96.2301 117.542 95.9435 117.429C95.6568 117.312 95.4135 117.164 95.2135 116.984L95.4235 116.644C95.4501 116.6 95.4818 116.567 95.5185 116.544C95.5551 116.52 95.6018 116.509 95.6585 116.509C95.7185 116.509 95.7818 116.532 95.8485 116.579C95.9151 116.625 95.9951 116.677 96.0885 116.734C96.1851 116.79 96.3018 116.842 96.4385 116.889C96.5751 116.935 96.7451 116.959 96.9485 116.959C97.1218 116.959 97.2735 116.937 97.4035 116.894C97.5335 116.847 97.6418 116.785 97.7285 116.709C97.8151 116.632 97.8785 116.544 97.9185 116.444C97.9618 116.344 97.9835 116.237 97.9835 116.124C97.9835 115.984 97.9451 115.869 97.8685 115.779C97.7951 115.685 97.6968 115.607 97.5735 115.544C97.4501 115.477 97.3085 115.42 97.1485 115.374C96.9918 115.324 96.8301 115.272 96.6635 115.219C96.5001 115.165 96.3385 115.105 96.1785 115.039C96.0218 114.969 95.8818 114.882 95.7585 114.779C95.6351 114.675 95.5351 114.549 95.4585 114.399C95.3851 114.245 95.3485 114.06 95.3485 113.844C95.3485 113.65 95.3885 113.465 95.4685 113.289C95.5485 113.109 95.6651 112.952 95.8185 112.819C95.9718 112.682 96.1601 112.574 96.3835 112.494C96.6068 112.414 96.8618 112.374 97.1485 112.374C97.4818 112.374 97.7801 112.427 98.0435 112.534C98.3101 112.637 98.5401 112.78 98.7335 112.964L98.5335 113.289ZM101.205 116.299C101.368 116.519 101.546 116.674 101.74 116.764C101.933 116.854 102.15 116.899 102.39 116.899C102.863 116.899 103.226 116.73 103.48 116.394C103.733 116.057 103.86 115.577 103.86 114.954C103.86 114.624 103.83 114.34 103.77 114.104C103.713 113.867 103.63 113.674 103.52 113.524C103.41 113.37 103.275 113.259 103.115 113.189C102.955 113.119 102.773 113.084 102.57 113.084C102.28 113.084 102.025 113.15 101.805 113.284C101.588 113.417 101.388 113.605 101.205 113.849V116.299ZM101.16 113.239C101.373 112.975 101.62 112.764 101.9 112.604C102.18 112.444 102.5 112.364 102.86 112.364C103.153 112.364 103.418 112.42 103.655 112.534C103.891 112.644 104.093 112.809 104.26 113.029C104.426 113.245 104.555 113.515 104.645 113.839C104.735 114.162 104.78 114.534 104.78 114.954C104.78 115.327 104.73 115.675 104.63 115.999C104.53 116.319 104.385 116.597 104.195 116.834C104.008 117.067 103.778 117.252 103.505 117.389C103.235 117.522 102.93 117.589 102.59 117.589C102.28 117.589 102.013 117.537 101.79 117.434C101.57 117.327 101.375 117.18 101.205 116.994V119.234H100.31V112.454H100.845C100.971 112.454 101.05 112.515 101.08 112.639L101.16 113.239ZM109.705 114.434C109.705 114.227 109.675 114.039 109.615 113.869C109.558 113.695 109.473 113.547 109.36 113.424C109.25 113.297 109.115 113.2 108.955 113.134C108.795 113.064 108.613 113.029 108.41 113.029C107.983 113.029 107.645 113.154 107.395 113.404C107.148 113.65 106.995 113.994 106.935 114.434H109.705ZM110.425 116.809C110.315 116.942 110.183 117.059 110.03 117.159C109.877 117.255 109.712 117.335 109.535 117.399C109.362 117.462 109.182 117.509 108.995 117.539C108.808 117.572 108.623 117.589 108.44 117.589C108.09 117.589 107.767 117.53 107.47 117.414C107.177 117.294 106.922 117.12 106.705 116.894C106.492 116.664 106.325 116.38 106.205 116.044C106.085 115.707 106.025 115.32 106.025 114.884C106.025 114.53 106.078 114.2 106.185 113.894C106.295 113.587 106.452 113.322 106.655 113.099C106.858 112.872 107.107 112.695 107.4 112.569C107.693 112.439 108.023 112.374 108.39 112.374C108.693 112.374 108.973 112.425 109.23 112.529C109.49 112.629 109.713 112.775 109.9 112.969C110.09 113.159 110.238 113.395 110.345 113.679C110.452 113.959 110.505 114.279 110.505 114.639C110.505 114.779 110.49 114.872 110.46 114.919C110.43 114.965 110.373 114.989 110.29 114.989H106.905C106.915 115.309 106.958 115.587 107.035 115.824C107.115 116.06 107.225 116.259 107.365 116.419C107.505 116.575 107.672 116.694 107.865 116.774C108.058 116.85 108.275 116.889 108.515 116.889C108.738 116.889 108.93 116.864 109.09 116.814C109.253 116.76 109.393 116.704 109.51 116.644C109.627 116.584 109.723 116.529 109.8 116.479C109.88 116.425 109.948 116.399 110.005 116.399C110.078 116.399 110.135 116.427 110.175 116.484L110.425 116.809ZM112.918 110.154V117.519H112.028V110.154H112.918ZM115.682 110.154V117.519H114.792V110.154H115.682Z" fill="#2A2A2A"/>
<defs>
<filter id="filter0_d" x="115.154" y="99.5186" width="9" height="27.528" filterUnits="userSpaceOnUse" color-interpolation-filters="sRGB">
<feFlood flood-opacity="0" result="BackgroundImageFix"/>
<feColorMatrix in="SourceAlpha" type="matrix" values="0 0 0 0 0 0 0 0 0 0 0 0 0 0 0 0 0 0 127 0"/>
<feOffset/>
<feGaussianBlur stdDeviation="2"/>
<feColorMatrix type="matrix" values="0 0 0 0 0.603922 0 0 0 0 0.8 0 0 0 0 0.670588 0 0 0 0.25 0"/>
<feBlend mode="normal" in2="BackgroundImageFix" result="effect1_dropShadow"/>
<feBlend mode="normal" in="SourceGraphic" in2="effect1_dropShadow" result="shape"/>
</filter>
</defs>
</svg>
