<svg width="85" height="113" viewBox="0 0 85 113" fill="none" xmlns="http://www.w3.org/2000/svg">
<g filter="url(#filter0_d)">
<rect x="2" y="1" width="76.8555" height="104.574" rx="10" fill="white"/>
<rect x="2.25" y="1.25" width="76.3555" height="104.074" rx="9.75" stroke="black" stroke-opacity="0.1" stroke-width="0.5"/>
</g>
<g clip-path="url(#clip0)">
<path d="M35.7571 43.5603H32.7137C32.2888 43.5603 31.9443 43.8718 31.9443 44.256V48.4863C31.9443 48.8702 32.2888 49.1817 32.7137 49.1817H35.7571C35.8942 49.1817 36.0287 49.2147 36.1473 49.2776L41.0237 53.3832C41.5364 53.6559 42.1829 53.3216 42.1829 52.7837V39.9583C42.1829 39.4203 41.5364 39.086 41.0237 39.3588L36.1473 43.4644C36.0287 43.5273 35.8942 43.5603 35.7571 43.5603Z" fill="#9ACCAB"/>
<path d="M43.9493 43.585C45.6129 44.7747 45.7641 47.6003 43.9493 48.9388" stroke="#9ACCAB" stroke-linecap="round" stroke-linejoin="round"/>
<path d="M46.5854 41.2422C49.1303 43.4427 49.3617 48.6689 46.5854 51.1444" stroke="#9ACCAB" stroke-linecap="round" stroke-linejoin="round"/>
<path d="M40.2633 59.0652C47.4305 59.0652 53.2407 53.3018 53.2407 46.1922C53.2407 39.0827 47.4305 33.3193 40.2633 33.3193C33.0961 33.3193 27.2859 39.0827 27.2859 46.1922C27.2859 53.3018 33.0961 59.0652 40.2633 59.0652Z" stroke="#EAEBEE" stroke-width="1.5"/>
<path fill-rule="evenodd" clip-rule="evenodd" d="M49.0728 35.8507C46.6057 33.763 43.3914 32.5411 39.9303 32.6166L40.0235 33.9354C43.0638 33.8848 45.8896 34.9432 48.0834 36.7503L49.0728 35.8507Z" fill="#9ACCAB"/>
<g filter="url(#filter1_d)">
<path d="M47.2511 66.3281V78.2108" stroke="#9ACCAB"/>
</g>
<path d="M17.6361 79.8613H62.8906" stroke="#2A2A2A" stroke-width="0.5" stroke-linecap="round"/>
<path d="M33.5311 72.7771C33.5045 72.8255 33.4635 72.8497 33.408 72.8497C33.3747 72.8497 33.337 72.8376 33.2949 72.8134C33.2528 72.7892 33.2006 72.7628 33.1385 72.7342C33.0786 72.7033 33.0065 72.6759 32.9222 72.6517C32.8379 72.6253 32.7381 72.612 32.6227 72.612C32.5229 72.612 32.4331 72.6253 32.3532 72.6517C32.2733 72.6759 32.2046 72.7099 32.1469 72.754C32.0914 72.798 32.0482 72.8497 32.0171 72.9091C31.9883 72.9663 31.9739 73.0291 31.9739 73.0973C31.9739 73.1831 31.9983 73.2546 32.0471 73.3118C32.0981 73.369 32.1647 73.4185 32.2467 73.4603C32.3288 73.5021 32.4219 73.5396 32.5262 73.5726C32.6305 73.6034 32.737 73.6375 32.8457 73.6749C32.9566 73.7101 33.0642 73.7497 33.1684 73.7937C33.2727 73.8377 33.3659 73.8927 33.4479 73.9587C33.53 74.0248 33.5955 74.1062 33.6443 74.203C33.6953 74.2976 33.7208 74.4121 33.7208 74.5463C33.7208 74.7003 33.6931 74.8433 33.6376 74.9754C33.5822 75.1052 33.5001 75.2185 33.3914 75.3154C33.2827 75.4099 33.1496 75.4848 32.9921 75.5398C32.8346 75.5948 32.6527 75.6223 32.4464 75.6223C32.2112 75.6223 31.9983 75.5849 31.8075 75.5101C31.6167 75.4331 31.4548 75.3352 31.3217 75.2163L31.4614 74.9919C31.4792 74.9633 31.5002 74.9412 31.5246 74.9259C31.5491 74.9105 31.5801 74.9028 31.6178 74.9028C31.6577 74.9028 31.6999 74.9181 31.7443 74.949C31.7886 74.9798 31.8419 75.0139 31.904 75.0513C31.9683 75.0887 32.0459 75.1228 32.1369 75.1536C32.2279 75.1844 32.341 75.1998 32.4763 75.1998C32.5916 75.1998 32.6926 75.1855 32.7791 75.1569C32.8656 75.1261 32.9377 75.0854 32.9954 75.0348C33.0531 74.9842 33.0952 74.9259 33.1219 74.8599C33.1507 74.7938 33.1651 74.7234 33.1651 74.6486C33.1651 74.5562 33.1396 74.4803 33.0886 74.4209C33.0398 74.3593 32.9743 74.3075 32.8923 74.2657C32.8102 74.2217 32.7159 74.1843 32.6094 74.1535C32.5051 74.1205 32.3976 74.0864 32.2866 74.0512C32.178 74.016 32.0704 73.9764 31.9639 73.9323C31.8596 73.8861 31.7664 73.8289 31.6844 73.7607C31.6023 73.6925 31.5357 73.6089 31.4847 73.5098C31.4359 73.4086 31.4115 73.2865 31.4115 73.1435C31.4115 73.0159 31.4381 72.8937 31.4914 72.7771C31.5446 72.6583 31.6223 72.5548 31.7243 72.4668C31.8263 72.3766 31.9517 72.3051 32.1003 72.2523C32.2489 72.1995 32.4186 72.173 32.6094 72.173C32.8312 72.173 33.0298 72.2082 33.205 72.2787C33.3825 72.3469 33.5356 72.4415 33.6642 72.5625L33.5311 72.7771ZM35.3088 74.7641C35.4175 74.9094 35.5362 75.0117 35.6649 75.0711C35.7935 75.1305 35.9377 75.1602 36.0975 75.1602C36.4125 75.1602 36.6542 75.0491 36.8229 74.8268C36.9914 74.6046 37.0758 74.2877 37.0758 73.8762C37.0758 73.6584 37.0558 73.4714 37.0159 73.3151C36.9781 73.1588 36.9227 73.0312 36.8495 72.9322C36.7763 72.831 36.6864 72.7573 36.58 72.7111C36.4735 72.6649 36.3526 72.6418 36.2173 72.6418C36.0243 72.6418 35.8546 72.6858 35.7081 72.7738C35.5639 72.8618 35.4308 72.9862 35.3088 73.1468V74.7641ZM35.2789 72.7441C35.4208 72.5703 35.585 72.4305 35.7714 72.3249C35.9577 72.2193 36.1707 72.1664 36.4103 72.1664C36.6054 72.1664 36.7818 72.2039 36.9393 72.2787C37.0968 72.3513 37.231 72.4602 37.342 72.6054C37.4528 72.7485 37.5383 72.9267 37.5982 73.1402C37.6581 73.3536 37.688 73.599 37.688 73.8762C37.688 74.1227 37.6548 74.3527 37.5882 74.5661C37.5217 74.7773 37.4252 74.9611 37.2987 75.1173C37.1745 75.2713 37.0214 75.3934 36.8395 75.4837C36.6598 75.5717 36.4568 75.6157 36.2306 75.6157C36.0243 75.6157 35.8468 75.5816 35.6982 75.5134C35.5517 75.443 35.422 75.3462 35.3088 75.2229V76.7017H34.7132V72.2259H35.0693C35.1535 72.2259 35.2057 72.2666 35.2257 72.348L35.2789 72.7441ZM40.9659 73.533C40.9659 73.3965 40.946 73.2722 40.906 73.16C40.8684 73.0456 40.8118 72.9476 40.7363 72.8662C40.6631 72.7826 40.5733 72.7188 40.4668 72.6748C40.3603 72.6286 40.2394 72.6054 40.1041 72.6054C39.8202 72.6054 39.595 72.688 39.4286 72.853C39.2645 73.0159 39.1624 73.2425 39.1225 73.533H40.9659ZM41.4451 75.1008C41.3719 75.1888 41.2843 75.2658 41.1822 75.3319C41.0802 75.3957 40.9704 75.4485 40.8528 75.4903C40.7374 75.5321 40.6177 75.5629 40.4934 75.5827C40.3692 75.6047 40.2461 75.6157 40.1241 75.6157C39.8911 75.6157 39.676 75.5772 39.4785 75.5002C39.2833 75.421 39.1136 75.3066 38.9694 75.1569C38.8274 75.0051 38.7165 74.8181 38.6366 74.5958C38.5568 74.3735 38.5168 74.1183 38.5168 73.83C38.5168 73.5968 38.5524 73.3789 38.6233 73.1765C38.6965 72.974 38.8008 72.7991 38.9361 72.6517C39.0715 72.502 39.2367 72.3854 39.4319 72.3018C39.6272 72.216 39.8468 72.173 40.0908 72.173C40.2927 72.173 40.479 72.2072 40.6498 72.2754C40.8228 72.3414 40.9715 72.4382 41.0957 72.5658C41.2221 72.6913 41.3209 72.8475 41.3918 73.0345C41.4628 73.2194 41.4983 73.4306 41.4983 73.6683C41.4983 73.7607 41.4883 73.8223 41.4684 73.8531C41.4484 73.884 41.4107 73.8993 41.3552 73.8993H39.1025C39.1092 74.1106 39.138 74.2943 39.189 74.4506C39.2423 74.6068 39.3155 74.7377 39.4086 74.8433C39.5018 74.9468 39.6127 75.0249 39.7414 75.0777C39.8701 75.1283 40.0142 75.1536 40.174 75.1536C40.3226 75.1536 40.4501 75.1371 40.5566 75.1041C40.6654 75.0689 40.7585 75.0315 40.8361 74.9919C40.9138 74.9523 40.9782 74.916 41.0291 74.883C41.0824 74.8478 41.1279 74.8301 41.1656 74.8301C41.2144 74.8301 41.2521 74.8488 41.2787 74.8863L41.4451 75.1008ZM43.1043 70.7075V75.5695H42.512V70.7075H43.1043ZM44.9433 70.7075V75.5695H44.351V70.7075H44.9433Z" fill="#2A2A2A"/>
</g>
<defs>
<filter id="filter0_d" x="0" y="0" width="84.8555" height="112.574" filterUnits="userSpaceOnUse" color-interpolation-filters="sRGB">
<feFlood flood-opacity="0" result="BackgroundImageFix"/>
<feColorMatrix in="SourceAlpha" type="matrix" values="0 0 0 0 0 0 0 0 0 0 0 0 0 0 0 0 0 0 127 0"/>
<feOffset dx="2" dy="3"/>
<feGaussianBlur stdDeviation="2"/>
<feColorMatrix type="matrix" values="0 0 0 0 0 0 0 0 0 0 0 0 0 0 0 0 0 0 0.05 0"/>
<feBlend mode="normal" in2="BackgroundImageFix" result="effect1_dropShadow"/>
<feBlend mode="normal" in="SourceGraphic" in2="effect1_dropShadow" result="shape"/>
</filter>
<filter id="filter1_d" x="42.7511" y="62.3281" width="9" height="19.8827" filterUnits="userSpaceOnUse" color-interpolation-filters="sRGB">
<feFlood flood-opacity="0" result="BackgroundImageFix"/>
<feColorMatrix in="SourceAlpha" type="matrix" values="0 0 0 0 0 0 0 0 0 0 0 0 0 0 0 0 0 0 127 0"/>
<feOffset/>
<feGaussianBlur stdDeviation="2"/>
<feColorMatrix type="matrix" values="0 0 0 0 0.603922 0 0 0 0 0.8 0 0 0 0 0.670588 0 0 0 0.25 0"/>
<feBlend mode="normal" in2="BackgroundImageFix" result="effect1_dropShadow"/>
<feBlend mode="normal" in="SourceGraphic" in2="effect1_dropShadow" result="shape"/>
</filter>
<clipPath id="clip0">
<rect width="76.5333" height="48.8511" fill="white" transform="translate(0 32)"/>
</clipPath>
</defs>
</svg>
