<svg width="220" height="188" viewBox="0 0 220 188" fill="none" xmlns="http://www.w3.org/2000/svg">
<rect width="220" height="188" fill="#F6F6F6"/>
<rect x="76.5" y="97.3862" width="66.8865" height="17.2135" rx="8.60673" fill="#95CFF4" stroke="#2A2A2A"/>
<g filter="url(#filter0_d)">
<rect x="76.5" y="73.3779" width="66.8865" height="17.2135" rx="8.60673" stroke="#2A2A2A"/>
</g>
<g filter="url(#filter1_d)">
<rect x="76.5" y="49.3691" width="66.8865" height="17.2135" rx="8.60673" stroke="#2A2A2A"/>
</g>
<path d="M99.6084 35.835V43H98.6384V39.74H94.7734V43H93.8034V35.835H94.7734V39.03H98.6384V35.835H99.6084ZM105.645 40.34L104.52 37.425C104.487 37.3383 104.452 37.2383 104.415 37.125C104.378 37.0083 104.343 36.885 104.31 36.755C104.24 37.025 104.168 37.25 104.095 37.43L102.97 40.34H105.645ZM107.665 43H106.915C106.828 43 106.758 42.9783 106.705 42.935C106.652 42.8917 106.612 42.8367 106.585 42.77L105.915 41.04H102.7L102.03 42.77C102.01 42.83 101.972 42.8833 101.915 42.93C101.858 42.9767 101.788 43 101.705 43H100.955L103.82 35.835H104.8L107.665 43ZM111.123 39.55C111.399 39.55 111.643 39.5133 111.853 39.44C112.066 39.3667 112.244 39.265 112.388 39.135C112.534 39.0017 112.644 38.8433 112.718 38.66C112.791 38.4767 112.828 38.275 112.828 38.055C112.828 37.5983 112.686 37.2417 112.403 36.985C112.123 36.7283 111.696 36.6 111.123 36.6H109.973V39.55H111.123ZM111.123 35.835C111.576 35.835 111.969 35.8883 112.303 35.995C112.639 36.0983 112.918 36.2467 113.138 36.44C113.358 36.6333 113.521 36.8667 113.628 37.14C113.738 37.4133 113.793 37.7183 113.793 38.055C113.793 38.3883 113.734 38.6933 113.618 38.97C113.501 39.2467 113.329 39.485 113.103 39.685C112.879 39.885 112.601 40.0417 112.268 40.155C111.938 40.265 111.556 40.32 111.123 40.32H109.973V43H109.008V35.835H111.123ZM117.529 39.55C117.805 39.55 118.049 39.5133 118.259 39.44C118.472 39.3667 118.65 39.265 118.794 39.135C118.94 39.0017 119.05 38.8433 119.124 38.66C119.197 38.4767 119.234 38.275 119.234 38.055C119.234 37.5983 119.092 37.2417 118.809 36.985C118.529 36.7283 118.102 36.6 117.529 36.6H116.379V39.55H117.529ZM117.529 35.835C117.982 35.835 118.375 35.8883 118.709 35.995C119.045 36.0983 119.324 36.2467 119.544 36.44C119.764 36.6333 119.927 36.8667 120.034 37.14C120.144 37.4133 120.199 37.7183 120.199 38.055C120.199 38.3883 120.14 38.6933 120.024 38.97C119.907 39.2467 119.735 39.485 119.509 39.685C119.285 39.885 119.007 40.0417 118.674 40.155C118.344 40.265 117.962 40.32 117.529 40.32H116.379V43H115.414V35.835H117.529ZM124.363 40.145V43H123.393V40.145L120.768 35.835H121.618C121.705 35.835 121.773 35.8567 121.823 35.9C121.873 35.94 121.916 35.9933 121.953 36.06L123.593 38.845C123.653 38.9617 123.708 39.0717 123.758 39.175C123.808 39.275 123.851 39.3767 123.888 39.48C123.925 39.3767 123.966 39.275 124.013 39.175C124.06 39.0717 124.111 38.9617 124.168 38.845L125.803 36.06C125.833 36.0033 125.875 35.9517 125.928 35.905C125.981 35.8583 126.05 35.835 126.133 35.835H126.988L124.363 40.145Z" fill="#2A2A2A"/>
<path d="M125.187 119.457C124.01 119.457 123.037 120.174 122.628 121.198H122.423V119.918C122.423 118.382 121.194 117.153 119.658 117.153C118.122 117.153 116.894 118.382 116.894 119.918V118.024C116.894 116.488 115.665 115.259 114.129 115.259C112.594 115.259 111.365 116.488 111.365 118.024V108.758C111.365 107.222 110.136 105.993 108.6 105.993C107.065 105.993 105.836 107.222 105.836 108.758V120.123C105.836 120.123 105.682 126.624 106.041 129.952C106.45 135.634 111.211 140.139 116.996 140.139C123.037 140.139 127.9 135.327 128.003 129.286C128.054 129.235 128.054 129.133 128.054 129.03V124.832V122.324V122.17C127.952 120.686 126.723 119.457 125.187 119.457Z" fill="#9FD3F4"/>
<path d="M122.628 121.198V122.198H123.305L123.556 121.569L122.628 121.198ZM122.423 121.198H121.423V122.198H122.423V121.198ZM105.836 120.123L106.836 120.146L106.836 120.134V120.123H105.836ZM106.041 129.952L107.038 129.88L107.037 129.862L107.035 129.845L106.041 129.952ZM128.003 129.286L127.296 128.579L127.01 128.865L127.003 129.269L128.003 129.286ZM128.054 122.17H129.054V122.136L129.052 122.102L128.054 122.17ZM125.187 118.457C123.581 118.457 122.253 119.442 121.699 120.826L123.556 121.569C123.821 120.906 124.439 120.457 125.187 120.457V118.457ZM122.628 120.198H122.423V122.198H122.628V120.198ZM123.423 121.198V119.918H121.423V121.198H123.423ZM123.423 119.918C123.423 117.83 121.746 116.153 119.658 116.153V118.153C120.642 118.153 121.423 118.934 121.423 119.918H123.423ZM119.658 116.153C117.57 116.153 115.894 117.83 115.894 119.918H117.894C117.894 118.934 118.675 118.153 119.658 118.153V116.153ZM117.894 119.918V118.024H115.894V119.918H117.894ZM117.894 118.024C117.894 115.936 116.217 114.259 114.129 114.259V116.259C115.113 116.259 115.894 117.04 115.894 118.024H117.894ZM114.129 114.259C112.041 114.259 110.365 115.936 110.365 118.024H112.365C112.365 117.04 113.146 116.259 114.129 116.259V114.259ZM112.365 118.024V108.758H110.365V118.024H112.365ZM112.365 108.758C112.365 106.67 110.689 104.993 108.6 104.993V106.993C109.584 106.993 110.365 107.774 110.365 108.758H112.365ZM108.6 104.993C106.512 104.993 104.836 106.67 104.836 108.758H106.836C106.836 107.774 107.617 106.993 108.6 106.993V104.993ZM104.836 108.758V120.123H106.836V108.758H104.836ZM105.836 120.123C104.836 120.099 104.836 120.099 104.836 120.099C104.836 120.099 104.836 120.099 104.836 120.099C104.836 120.1 104.836 120.1 104.836 120.1C104.836 120.101 104.836 120.103 104.836 120.104C104.836 120.108 104.836 120.112 104.836 120.119C104.836 120.132 104.835 120.15 104.835 120.175C104.834 120.224 104.832 120.297 104.83 120.389C104.827 120.575 104.822 120.844 104.818 121.177C104.809 121.843 104.801 122.765 104.804 123.793C104.81 125.833 104.861 128.338 105.047 130.059L107.035 129.845C106.862 128.238 106.81 125.828 106.804 123.786C106.801 122.772 106.809 121.861 106.818 121.204C106.822 120.875 106.826 120.61 106.83 120.427C106.832 120.336 106.833 120.266 106.834 120.218C106.835 120.194 106.835 120.176 106.835 120.164C106.835 120.158 106.836 120.153 106.836 120.15C106.836 120.149 106.836 120.148 106.836 120.147C106.836 120.147 106.836 120.147 106.836 120.146C106.836 120.146 106.836 120.146 106.836 120.146C106.836 120.146 106.836 120.146 105.836 120.123ZM105.043 130.024C105.49 136.225 110.683 141.139 116.996 141.139V139.139C111.74 139.139 107.41 135.044 107.038 129.88L105.043 130.024ZM116.996 141.139C123.586 141.139 128.891 135.886 129.003 129.303L127.003 129.269C126.91 134.768 122.488 139.139 116.996 139.139V141.139ZM128.71 129.993C128.966 129.737 129.021 129.435 129.038 129.319C129.056 129.19 129.054 129.063 129.054 129.03H127.054C127.054 129.1 127.052 129.075 127.058 129.036C127.061 129.01 127.072 128.95 127.101 128.875C127.132 128.797 127.189 128.686 127.296 128.579L128.71 129.993ZM129.054 129.03V124.832H127.054V129.03H129.054ZM129.054 124.832V122.324H127.054V124.832H129.054ZM129.054 122.324V122.17H127.054V122.324H129.054ZM129.052 122.102C128.915 120.121 127.276 118.457 125.187 118.457V120.457C126.17 120.457 126.988 121.251 127.056 122.239L129.052 122.102Z" fill="#2A2A2A"/>
<defs>
<filter id="filter0_d" x="74" y="71.8779" width="73.8865" height="24.2135" filterUnits="userSpaceOnUse" color-interpolation-filters="sRGB">
<feFlood flood-opacity="0" result="BackgroundImageFix"/>
<feColorMatrix in="SourceAlpha" type="matrix" values="0 0 0 0 0 0 0 0 0 0 0 0 0 0 0 0 0 0 127 0"/>
<feOffset dx="1" dy="2"/>
<feGaussianBlur stdDeviation="1.5"/>
<feColorMatrix type="matrix" values="0 0 0 0 0.164706 0 0 0 0 0.164706 0 0 0 0 0.164706 0 0 0 0.1 0"/>
<feBlend mode="normal" in2="BackgroundImageFix" result="effect1_dropShadow"/>
<feBlend mode="normal" in="SourceGraphic" in2="effect1_dropShadow" result="shape"/>
</filter>
<filter id="filter1_d" x="74" y="47.8691" width="73.8865" height="24.2135" filterUnits="userSpaceOnUse" color-interpolation-filters="sRGB">
<feFlood flood-opacity="0" result="BackgroundImageFix"/>
<feColorMatrix in="SourceAlpha" type="matrix" values="0 0 0 0 0 0 0 0 0 0 0 0 0 0 0 0 0 0 127 0"/>
<feOffset dx="1" dy="2"/>
<feGaussianBlur stdDeviation="1.5"/>
<feColorMatrix type="matrix" values="0 0 0 0 0.164706 0 0 0 0 0.164706 0 0 0 0 0.164706 0 0 0 0.1 0"/>
<feBlend mode="normal" in2="BackgroundImageFix" result="effect1_dropShadow"/>
<feBlend mode="normal" in="SourceGraphic" in2="effect1_dropShadow" result="shape"/>
</filter>
</defs>
</svg>
