<svg width="85" height="113" viewBox="0 0 85 113" fill="none" xmlns="http://www.w3.org/2000/svg">
<g filter="url(#filter0_d)">
<rect x="2" y="1" width="76.8555" height="104.574" rx="10" fill="white"/>
<rect x="2.25" y="1.25" width="76.3555" height="104.074" rx="9.75" stroke="black" stroke-opacity="0.1" stroke-width="0.5"/>
</g>
<path d="M54.5693 61.9595H26.8507C24.1718 61.9595 22 64.1312 22 66.8102C22 69.4892 24.1718 71.661 26.8507 71.661H54.5693C57.2483 71.661 59.4201 69.4892 59.4201 66.8102C59.4201 64.1312 57.2483 61.9595 54.5693 61.9595Z" fill="#95CFF4" stroke="#2A2A2A" stroke-width="0.75"/>
<path d="M54.5693 48.5576H26.8507C24.1718 48.5576 22 50.7294 22 53.4084C22 56.0874 24.1718 58.2591 26.8507 58.2591H54.5693C57.2483 58.2591 59.4201 56.0874 59.4201 53.4084C59.4201 50.7294 57.2483 48.5576 54.5693 48.5576Z" stroke="#2A2A2A" stroke-width="0.75"/>
<path d="M54.5693 35.1592H26.8507C24.1718 35.1592 22 37.3309 22 40.0099C22 42.6889 24.1718 44.8607 26.8507 44.8607H54.5693C57.2483 44.8607 59.4201 42.6889 59.4201 40.0099C59.4201 37.3309 57.2483 35.1592 54.5693 35.1592Z" stroke="#2A2A2A" stroke-width="0.75"/>
<path d="M35.9358 27V30.3101H35.4877V28.804H33.7021V30.3101H33.254V27H33.7021V28.476H35.4877V27H35.9358ZM38.7246 29.0812L38.2049 27.7345C38.1895 27.6945 38.1733 27.6483 38.1564 27.5959C38.1395 27.5421 38.1233 27.4851 38.1079 27.425C38.0755 27.5498 38.0425 27.6537 38.0085 27.7369L37.4888 29.0812H38.7246ZM39.6578 30.3101H39.3113C39.2713 30.3101 39.239 30.3 39.2143 30.28C39.1897 30.26 39.1712 30.2346 39.1589 30.2038L38.8493 29.4046H37.3641L37.0546 30.2038C37.0453 30.2315 37.0276 30.2561 37.0014 30.2777C36.9753 30.2993 36.943 30.3101 36.9044 30.3101H36.5579L37.8815 27H38.3342L39.6578 30.3101ZM41.2551 28.7162C41.383 28.7162 41.4954 28.6993 41.5924 28.6654C41.6909 28.6316 41.7733 28.5846 41.8395 28.5245C41.9073 28.4629 41.9581 28.3898 41.992 28.3051C42.0258 28.2204 42.0428 28.1272 42.0428 28.0256C42.0428 27.8146 41.9773 27.6498 41.8465 27.5313C41.7171 27.4127 41.52 27.3534 41.2551 27.3534H40.7239V28.7162H41.2551ZM41.2551 27C41.4645 27 41.6463 27.0246 41.8003 27.0739C41.9558 27.1217 42.0844 27.1902 42.186 27.2795C42.2876 27.3688 42.3631 27.4766 42.4124 27.6029C42.4632 27.7292 42.4886 27.8701 42.4886 28.0256C42.4886 28.1796 42.4617 28.3205 42.4078 28.4483C42.3538 28.5761 42.2746 28.6862 42.1698 28.7786C42.0667 28.871 41.9381 28.9434 41.7841 28.9957C41.6316 29.0466 41.4553 29.072 41.2551 29.072H40.7239V30.3101H40.2781V27H41.2551ZM44.2145 28.7162C44.3423 28.7162 44.4547 28.6993 44.5517 28.6654C44.6503 28.6316 44.7327 28.5846 44.7989 28.5245C44.8666 28.4629 44.9174 28.3898 44.9514 28.3051C44.9852 28.2204 45.0022 28.1272 45.0022 28.0256C45.0022 27.8146 44.9367 27.6498 44.8058 27.5313C44.6765 27.4127 44.4794 27.3534 44.2145 27.3534H43.6832V28.7162H44.2145ZM44.2145 27C44.4239 27 44.6056 27.0246 44.7596 27.0739C44.9151 27.1217 45.0438 27.1902 45.1454 27.2795C45.247 27.3688 45.3225 27.4766 45.3718 27.6029C45.4226 27.7292 45.448 27.8701 45.448 28.0256C45.448 28.1796 45.421 28.3205 45.3671 28.4483C45.3132 28.5761 45.2339 28.6862 45.1292 28.7786C45.026 28.871 44.8974 28.9434 44.7435 28.9957C44.591 29.0466 44.4147 29.072 44.2145 29.072H43.6832V30.3101H43.2374V27H44.2145ZM47.3718 28.9911V30.3101H46.9237V28.9911L45.711 27H46.1037C46.1437 27 46.1753 27.01 46.1984 27.03C46.2215 27.0485 46.2415 27.0731 46.2585 27.1039L47.0161 28.3905C47.0438 28.4444 47.0692 28.4953 47.0923 28.543C47.1154 28.5892 47.1354 28.6362 47.1524 28.6839C47.1693 28.6362 47.1886 28.5892 47.2101 28.543C47.2317 28.4953 47.2556 28.4444 47.2817 28.3905L48.0371 27.1039C48.0509 27.0778 48.0702 27.0539 48.0948 27.0323C48.1195 27.0108 48.151 27 48.1895 27H48.5845L47.3718 28.9911Z" fill="#2A2A2A"/>
<path d="M49.2171 74.3207C48.5601 74.3207 48.0173 74.7208 47.7888 75.2923H47.6745V74.5781C47.6745 73.7206 46.9889 73.0351 46.1319 73.0351C45.2749 73.0351 44.5893 73.7206 44.5893 74.5781V73.5211C44.5893 72.6641 43.9037 71.9781 43.0467 71.9781C42.1896 71.9781 41.504 72.6641 41.504 73.5211V68.3502C41.504 67.4932 40.8184 66.8076 39.9614 66.8076C39.1044 66.8076 38.4188 67.4932 38.4188 68.3502V74.6922C38.4188 74.6922 38.3331 78.3201 38.5331 80.1772C38.7616 83.3478 41.4183 85.8618 44.6464 85.8618C48.0173 85.8618 50.7312 83.1764 50.7883 79.8058C50.8169 79.7771 50.8169 79.7199 50.8169 79.663V77.3203V75.9206V75.8346C50.7598 75.0063 50.0741 74.3207 49.2171 74.3207Z" fill="#9FD3F4"/>
<path d="M47.788 75.2914V75.7533H48.1007L48.2169 75.4628L47.788 75.2914ZM47.6737 75.2914H47.2117V75.7533H47.6737V75.2914ZM38.418 74.6913L38.8798 74.7023L38.8799 74.6968V74.6913H38.418ZM38.5323 80.1763L38.993 80.143L38.9924 80.1347L38.9915 80.1269L38.5323 80.1763ZM50.7875 79.8049L50.4608 79.4782L50.3288 79.6104L50.3256 79.797L50.7875 79.8049ZM50.8161 75.8337H51.2781V75.818L51.277 75.8023L50.8161 75.8337ZM49.2163 73.8578C48.3611 73.8578 47.6542 74.3817 47.359 75.1195L48.2169 75.4628C48.3788 75.0581 48.7575 74.7818 49.2163 74.7818V73.8578ZM47.788 74.8294H47.6737V75.7533H47.788V74.8294ZM48.1357 75.2914V74.5771H47.2117V75.2914H48.1357ZM48.1357 74.5771C48.1357 73.4647 47.2432 72.5722 46.1311 72.5722V73.4961C46.733 73.4961 47.2117 73.9752 47.2117 74.5771H48.1357ZM46.1311 72.5722C45.019 72.5722 44.1265 73.4647 44.1265 74.5771H45.0505C45.0505 73.9752 45.5292 73.4961 46.1311 73.4961V72.5722ZM45.0505 74.5771V73.5201H44.1265V74.5771H45.0505ZM45.0505 73.5201C45.0505 72.4077 44.158 71.5152 43.0459 71.5152V72.4391C43.6477 72.4391 44.1265 72.9182 44.1265 73.5201H45.0505ZM43.0459 71.5152C41.9337 71.5152 41.0412 72.4077 41.0412 73.5201H41.9652C41.9652 72.9182 42.444 72.4391 43.0459 72.4391V71.5152ZM41.9652 73.5201V68.3493H41.0412V73.5201H41.9652ZM41.9652 68.3493C41.9652 67.2372 41.0728 66.3447 39.9606 66.3447V67.2687C40.5625 67.2687 41.0412 67.7475 41.0412 68.3493H41.9652ZM39.9606 66.3447C38.8484 66.3447 37.956 67.2372 37.956 68.3493H38.8799C38.8799 67.7475 39.3587 67.2687 39.9606 67.2687V66.3447ZM37.956 68.3493V74.6913H38.8799V68.3493H37.956ZM38.418 74.6913C37.9561 74.6802 37.9561 74.6802 37.9561 74.6802C37.9561 74.6806 37.9561 74.6806 37.9561 74.6806V74.6811C37.9561 74.6815 37.9561 74.6825 37.9561 74.6834C37.956 74.6852 37.9559 74.6876 37.9559 74.6913C37.9557 74.6982 37.9555 74.7088 37.9552 74.7227C37.9546 74.7499 37.9538 74.7901 37.9528 74.8419C37.9508 74.9458 37.9482 75.0955 37.9458 75.2812C37.9408 75.6522 37.9363 76.1659 37.9382 76.7387C37.9417 77.8775 37.9701 79.2708 38.0729 80.2257L38.9915 80.1269C38.8944 79.2246 38.8657 77.8752 38.8621 76.736C38.8603 76.1696 38.8647 75.6605 38.8696 75.2932C38.8721 75.1098 38.8746 74.9615 38.8766 74.8594C38.8775 74.8086 38.8784 74.7689 38.8789 74.7425C38.8792 74.7291 38.8794 74.719 38.8796 74.712C38.8797 74.7088 38.8797 74.706 38.8798 74.7046C38.8798 74.7037 38.8798 74.7033 38.8798 74.7028C38.8798 74.7023 38.8798 74.7023 38.8798 74.7023C38.8798 74.7023 38.8798 74.7023 38.418 74.6913ZM38.0715 80.2091C38.3172 83.6199 41.1733 86.3229 44.6456 86.3229V85.3989C41.6617 85.3989 39.2043 83.0743 38.993 80.143L38.0715 80.2091ZM44.6456 86.3229C48.2703 86.3229 51.188 83.4337 51.2494 79.8127L50.3256 79.797C50.2727 82.9177 47.7627 85.3989 44.6456 85.3989V86.3229ZM51.1142 80.1315C51.2351 80.0104 51.2616 79.8672 51.2699 79.8095C51.279 79.7457 51.2781 79.682 51.2781 79.6621H50.3541C50.3541 79.6778 50.3541 79.6843 50.3539 79.6894C50.3538 79.6945 50.3537 79.6894 50.3552 79.6787C50.3566 79.6686 50.3609 79.6432 50.3738 79.6099C50.3872 79.5757 50.4128 79.5263 50.4608 79.4782L51.1142 80.1315ZM51.2781 79.6621V77.3194H50.3541V79.6621H51.2781ZM51.2781 77.3194V75.9196H50.3541V77.3194H51.2781ZM51.2781 75.9196V75.8337H50.3541V75.9196H51.2781ZM51.277 75.8023C51.204 74.7444 50.329 73.8578 49.2163 73.8578V74.7818C49.8177 74.7818 50.3139 75.2664 50.3552 75.8656L51.277 75.8023Z" fill="#2A2A2A"/>
<defs>
<filter id="filter0_d" x="0" y="0" width="84.8555" height="112.574" filterUnits="userSpaceOnUse" color-interpolation-filters="sRGB">
<feFlood flood-opacity="0" result="BackgroundImageFix"/>
<feColorMatrix in="SourceAlpha" type="matrix" values="0 0 0 0 0 0 0 0 0 0 0 0 0 0 0 0 0 0 127 0"/>
<feOffset dx="2" dy="3"/>
<feGaussianBlur stdDeviation="2"/>
<feColorMatrix type="matrix" values="0 0 0 0 0 0 0 0 0 0 0 0 0 0 0 0 0 0 0.05 0"/>
<feBlend mode="normal" in2="BackgroundImageFix" result="effect1_dropShadow"/>
<feBlend mode="normal" in="SourceGraphic" in2="effect1_dropShadow" result="shape"/>
</filter>
</defs>
</svg>
