<svg width="125" height="125" viewBox="0 0 125 125" fill="none" xmlns="http://www.w3.org/2000/svg">
<g clip-path="url(#clip0_532_24045)">
<rect x="38.5" y="68.5" width="48" height="12" rx="6" fill="white" stroke="#4A5056"/>
<rect x="38.5" y="52.5" width="48" height="12" rx="6" fill="white" stroke="#4A5056"/>
<rect x="38.5" y="36.5" width="48" height="12" rx="6" fill="white" stroke="#4A5056"/>
<path d="M68.8097 86.6462C67.9101 86.6462 67.1669 87.2129 66.854 88.0225H66.6976V87.0105C66.6976 85.7961 65.7589 84.8246 64.5855 84.8246C63.4121 84.8246 62.4734 85.7961 62.4734 87.0105V85.5127C62.4734 84.2984 61.5347 83.3268 60.3613 83.3268C59.1879 83.3268 58.2492 84.2984 58.2492 85.5127V78.1859C58.2492 76.9715 57.3105 76 56.1371 76C54.9637 76 54.025 76.9715 54.025 78.1859V87.1724C54.025 87.1724 53.9077 92.3133 54.1814 94.9445C54.4944 99.4378 58.1319 103 62.5516 103C67.1669 103 70.8827 99.1949 70.9609 94.4183C71 94.3778 71 94.2969 71 94.2159V90.8966V88.913V88.7916C70.9218 87.6177 69.9831 86.6462 68.8097 86.6462Z" fill="white" stroke="#4A5056" stroke-miterlimit="10" stroke-linejoin="round"/>
<path d="M51.9445 30H50.9695V26.74H47.1095V30H46.1345V22.835H47.1095V26.03H50.9695V22.835H51.9445V30ZM59.988 30H59.238C59.1514 30 59.0814 29.9783 59.028 29.935C58.9747 29.8917 58.9347 29.8367 58.908 29.77L58.238 28.04H55.023L54.353 29.77C54.3297 29.83 54.2897 29.8833 54.233 29.93C54.1764 29.9767 54.1064 30 54.023 30H53.273L56.138 22.835H57.123L59.988 30ZM55.293 27.34H57.968L56.843 24.425C56.7697 24.245 56.698 24.02 56.628 23.75C56.5914 23.8867 56.5547 24.0133 56.518 24.13C56.4847 24.2433 56.4514 24.3433 56.418 24.43L55.293 27.34ZM62.3549 27.32V30H61.3899V22.835H63.5049C63.9583 22.835 64.3516 22.8883 64.6849 22.995C65.0216 23.0983 65.2999 23.2467 65.5199 23.44C65.7399 23.6333 65.9033 23.8667 66.0099 24.14C66.1199 24.4133 66.1749 24.7183 66.1749 25.055C66.1749 25.3883 66.1166 25.6933 65.9999 25.97C65.8833 26.2467 65.7116 26.485 65.4849 26.685C65.2616 26.885 64.9833 27.0417 64.6499 27.155C64.3166 27.265 63.9349 27.32 63.5049 27.32H62.3549ZM62.3549 26.55H63.5049C63.7816 26.55 64.0249 26.5133 64.2349 26.44C64.4483 26.3667 64.6266 26.265 64.7699 26.135C64.9133 26.0017 65.0216 25.8433 65.0949 25.66C65.1683 25.4767 65.2049 25.275 65.2049 25.055C65.2049 24.5983 65.0633 24.2417 64.7799 23.985C64.4999 23.7283 64.0749 23.6 63.5049 23.6H62.3549V26.55ZM68.8682 27.32V30H67.9032V22.835H70.0182C70.4715 22.835 70.8649 22.8883 71.1982 22.995C71.5349 23.0983 71.8132 23.2467 72.0332 23.44C72.2532 23.6333 72.4165 23.8667 72.5232 24.14C72.6332 24.4133 72.6882 24.7183 72.6882 25.055C72.6882 25.3883 72.6299 25.6933 72.5132 25.97C72.3965 26.2467 72.2249 26.485 71.9982 26.685C71.7749 26.885 71.4965 27.0417 71.1632 27.155C70.8299 27.265 70.4482 27.32 70.0182 27.32H68.8682ZM68.8682 26.55H70.0182C70.2949 26.55 70.5382 26.5133 70.7482 26.44C70.9615 26.3667 71.1399 26.265 71.2832 26.135C71.4265 26.0017 71.5349 25.8433 71.6082 25.66C71.6815 25.4767 71.7182 25.275 71.7182 25.055C71.7182 24.5983 71.5765 24.2417 71.2932 23.985C71.0132 23.7283 70.5882 23.6 70.0182 23.6H68.8682V26.55ZM77.0765 27.15V30H76.1115V27.15L73.4865 22.835H74.3365C74.4232 22.835 74.4915 22.8567 74.5415 22.9C74.5915 22.9433 74.6348 22.9967 74.6715 23.06L76.3115 25.845C76.3782 25.9617 76.4332 26.0717 76.4765 26.175C76.5232 26.2783 76.5648 26.38 76.6015 26.48C76.6382 26.3767 76.6782 26.2733 76.7215 26.17C76.7648 26.0667 76.8198 25.9583 76.8865 25.845L78.5215 23.06C78.5515 23.0067 78.5915 22.9567 78.6415 22.91C78.6948 22.86 78.7632 22.835 78.8465 22.835H79.7065L77.0765 27.15Z" fill="#4A5056"/>
</g>
<defs>
<clipPath id="clip0_532_24045">
<rect width="125" height="125" fill="white"/>
</clipPath>
</defs>
</svg>
